<svg xmlns="http://www.w3.org/2000/svg" viewBox="0 0 51 51"><circle cx="25.5" cy="25.5" r="24" fill="#33ACFE"/><path fill="#227EBD" d="M18.657 36.553c0 .03 0 .06-.01.09h.01c0 .02-.01.03-.01.05-.01.03-.02.06-.03.08-.02.05-.04.09-.06.13-.1.16-.28.24-.46.24h-1.04c-.18 0-.36-.08-.46-.24a.51.51 0 0 1-.07-.17l-.03-.09h.01c-.01-.03-.01-.06-.01-.09 0-.24.17-.46.49-.67v-.22h-.02a.38.38 0 0 1-.38-.38c0-.2.17-.37.38-.37h-.1l-.26-5.16a.327.327 0 0 0-.32-.31c-.17 0-.31.14-.32.31l-.26 5.16h-.11c.2 0 .37.17.37.37s-.15.36-.33.37v.23c.32.21.49.43.49.67 0 .03 0 .06-.01.09h.01c0 .02-.01.03-.01.05-.01.03-.02.06-.03.08a.31.31 0 0 1-.06.13c-.1.16-.28.24-.46.24h-1.04a.535.535 0 0 1-.55-.5c-.01-.03-.01-.06-.01-.09 0-.24.17-.46.49-.67v-.23a.37.37 0 0 1-.33-.37c0-.2.17-.37.38-.37h-.12l-.33-7.34v-.48l-.04-1.09-.52 2.7c.16.16.53.6.36.74-.16.12-.31-.12-.38-.25.03.08.06.21.07.37.01.15 0 .32-.04.47-.07.26-.24.45-.58.4a.437.437 0 0 1-.36-.24c-.21-.44.1-1.31.22-1.58v-.02l.37-6.34a1 1 0 0 1 .33-.64l.38-.34c.52-.25 1.07-.43 1.65-.54-.02-.05-.02-.1-.02-.15v-.32c-.23-.18-.38-.42-.45-.72l-.09-.34c-.01 0-.03.01-.06 0-.15-.04-.3-.34-.37-.49-.06-.15.01-.29.2-.28-.31-.55-.19-1.32.29-1.73a.76.76 0 0 1 .72-.15c.09.02.15.01.21-.04.18-.13.35-.22.54-.26v-1.7c0-.53.43-.97.97-.97h14.4c.55 0 .98.44.98.97v10.81c0 .54-.43.98-.98.98h-13.31l-.02.75h-.01v.48l-.33 7.34h-.13c.2 0 .37.17.37.37 0 .17-.11.31-.26.36v.24c.32.21.49.43.49.67z"/><path fill="#227EBD" d="M25.957 36.783v2.26c0 .21-.16.38-.37.38h-5.14a.38.38 0 0 1-.38-.38v-2.26c0-.78.92-1.68 1.72-1.79a1.733 1.733 0 0 1 1.23-2.95 1.733 1.733 0 0 1 1.23 2.95c.8.11 1.71 1.01 1.71 1.79zm14.54 0v2.26c0 .21-.17.38-.37.38h-5.14a.38.38 0 0 1-.38-.38v-2.26c0-.78.92-1.68 1.72-1.79a1.733 1.733 0 0 1 1.23-2.95 1.733 1.733 0 0 1 1.23 2.95c.8.11 1.71 1.01 1.71 1.79zm-7.27 0v2.26c0 .21-.17.38-.37.38h-5.14a.38.38 0 0 1-.38-.38v-2.26c0-.77.92-1.67 1.71-1.79-.3-.32-.49-.74-.49-1.22 0-.95.77-1.73 1.73-1.73a1.733 1.733 0 0 1 1.23 2.95c.8.11 1.71 1.01 1.71 1.79z"/><path fill="#1D364C" d="M30.861 12.58h-14.4a.974.974 0 0 0-.973.975v10.81c0 .534.432.974.974.974h14.4c.542 0 .974-.44.974-.975V13.555a.974.974 0 0 0-.974-.974z"/><path fill="#FFF" d="M16.462 24.553a.189.189 0 0 1-.189-.189V13.555c0-.104.085-.189.189-.189h14.4c.103 0 .188.085.188.189v10.81a.189.189 0 0 1-.189.188h-14.4z"/><path fill="#FFF" d="M16.595 18.543a1.303 1.303 0 0 1-.322.597v-3.747c.07.04.126.095.189.15.039.039.078.07.125.094.228.11.385.008.378-.252v-.094c.07.016.086.086.14.11.064.102.134.204.19.306.14.291.149.582.03.88a1.644 1.644 0 0 1-.282.37.103.103 0 0 0-.047.094c0 .141-.04.267-.094.393.133.015.18.14.125.267-.062.157-.204.44-.353.487l-.079.345zm5.83 2.396c-.095.432-.63.865-1.045 1.147-.118.079-.22.15-.307.189l-.008.008-1.54 2.27h-3.063a.186.186 0 0 1-.189-.189v-4.587c.51.11.982.275 1.438.495l.188.243c.118.15.213.314.267.495l.676 2.113 1.508-1.43c-.023-.282-.055-1.013.228-1.013.252 0 .212.361.18.55.024-.11.103-.267.213-.432.11-.157.251-.322.409-.432.267-.196.58-.26.887.055.04.047.07.086.102.133.071.126.087.26.055.385z"/><path fill="#FED000" d="M22.424 20.94c-.094.431-.628.864-1.044 1.146-.118.079-.22.15-.307.189l-.008.008-.188.11-.519-.59s-.008-.039-.008-.11c-.023-.282-.055-1.013.228-1.013.252 0 .212.361.18.55.024-.11.205.076.315-.089.11-.157.29-.251.447-.361.268-.197.44-.673.747-.36.04.048.07.087.102.134.071.126.087.26.055.385zm-10.498 8.497a.421.421 0 0 1-.354-.248c-.254-.523.249-1.667.249-1.667l.615.11s.633.642.416.81c-.156.123-.31-.118-.38-.253.033.079.064.217.073.374.016.151.006.322-.034.472-.072.254-.24.448-.585.402z"/><path fill="#C43A26" d="m21.073 22.275-.008.008-1.54 2.27-.227.33a.533.533 0 0 1-.432.204.54.54 0 0 1-.456-.243l-.196-.29-.613-.912-.534-.794.644-2.576.188.243c.118.15.212.314.267.495l.676 2.113 1.508-1.43.016-.015.707.597z"/><path fill="#FFF" d="m17.518 26.576-.329 7.336h-1.325l-.256-5.162a.32.32 0 0 0-.641 0l-.256 5.162h-1.326l-.329-7.336h4.462z"/><path fill="#334861" d="M15.13 35.556a.625.625 0 0 1-.103.348.543.543 0 0 1-.461.243H13.53a.548.548 0 0 1-.462-.243.638.638 0 0 1-.102-.348c0-.242.174-.466.487-.678v-.335h1.189v.335c.315.212.489.436.487.678z"/><path fill="#1D364C" d="M12.972 35.639a.642.642 0 0 0 .096.265c.101.156.278.243.461.243h1.037a.543.543 0 0 0 .46-.243.62.62 0 0 0 .097-.265h-2.151z"/><path fill="#EAEEF2" d="M14.592 34.66h-1.09a.375.375 0 0 1 0-.75h1.09a.375.375 0 1 1 0 .75z"/><path fill="#334861" d="M17.659 35.556a.625.625 0 0 1-.102.348.543.543 0 0 1-.461.243h-1.037a.548.548 0 0 1-.46-.243.638.638 0 0 1-.103-.348c0-.242.173-.466.487-.678v-.335h1.189v.335c.315.212.489.436.487.678z"/><path fill="#1D364C" d="M15.502 35.639a.642.642 0 0 0 .096.265c.101.156.278.243.461.243h1.036a.543.543 0 0 0 .461-.243.62.62 0 0 0 .097-.265h-2.151z"/><path fill="#EAEEF2" d="M17.055 34.66h-1.09a.375.375 0 0 1 0-.75h1.09a.375.375 0 0 1 0 .75z"/><path fill="#C43A26" d="m13.138 24.382-.639 3.317-.715-.089.377-6.36a.986.986 0 0 1 .326-.637l.38-.34.27 4.109z"/><path fill="#EB4B33" d="m17.71 20.272-.11 3.37-.03.911-.024.786-.024.754H13.06l-.04-1.108-.156-4.713a6.568 6.568 0 0 1 1.65-.542c1.065-.234 2.207.064 3.197.542z"/><path fill="#C43A26" d="M13.056 26.089h4.462v.487h-4.462z"/><path fill="#F39F03" d="M16.113 17.715v1.87a.809.809 0 1 1-1.617 0v-1.87h1.617z"/><path fill="#FED000" d="M17.027 17.71c-.062.158-.204.44-.353.488-.072.1-.116 1.359-1.351 1.359a1.314 1.314 0 0 1-1.28-1.014l-.087-.345c-.008.008-.032.015-.063.008-.15-.04-.299-.338-.361-.495-.063-.15.007-.291.196-.275h.008c.023 0 .031.008.047.015v-.015s-.102-.904.338-1.084c0-.268.196-.613 1.367-.378.334.072.64.156.856.228.165-.251.236.66.51 1.234a.1.1 0 0 1 .048.008c.133.015.18.14.125.267z"/><path fill="#334861" d="M16.996 17.05c0 .175-.085.398-.15.527-.346-.5.101-.402-.573-.353-1.555.044-1.722-1.55-2.349-.008-.047.118-.039.259-.11.369-.61-.917-.024-2.265.927-2.035a.209.209 0 0 0 .205-.04c.942-.655 1.372-.008 1.641.127.228.11.385.008.378-.252v-.094c.07.016.086.086.14.11.726 1.179-.11 1.466-.11 1.65z"/><path fill="#1D364C" d="M25.871 16.879a.202.202 0 0 1-.054.14l-4.907 5.29a.207.207 0 0 1-.299.008l-.383-.384a.205.205 0 0 1 .007-.299l5.29-4.906a.208.208 0 0 1 .287.005c.04.04.06.094.06.146z"/><path fill="#FED000" d="M22.424 20.94c-.094.431-.628.864-1.044 1.146-.016-.078-.024-.157-.04-.22-.031-.188-.078-.377-.118-.557a.557.557 0 0 1 .079-.385c.07-.11.173-.197.283-.275.11-.079.235-.157.377-.173a.612.612 0 0 1 .408.078c.071.126.087.26.055.385z"/><path fill="#334861" d="M26.36 16.374h-.447v-1.43h-.555v-.338c.312.01.596-.1.646-.438h.356v2.206zm.632-1.358c-.016-.504.27-.892.8-.892.404 0 .756.259.756.69 0 .668-.709.722-1.03 1.176h1.043v.384h-1.62c0-.513.315-.724.697-.986.192-.135.463-.268.463-.539 0-.211-.139-.34-.331-.34-.265 0-.35.274-.35.507h-.428zm2.352.044c.192.016.47-.022.47-.274 0-.19-.15-.293-.313-.293-.227 0-.343.167-.34.394h-.426c.016-.454.306-.763.763-.763.353 0 .74.218.74.611 0 .212-.103.392-.308.451v.007a.49.49 0 0 1 .39.5c0 .464-.39.725-.819.725-.495 0-.829-.296-.82-.803h.426c.01.24.13.435.388.435.201 0 .359-.136.359-.347 0-.334-.293-.328-.51-.328v-.315z"/><path fill="#FED000" d="M24.962 35.78v2.264a.377.377 0 0 1-.376.375h-5.14a.377.377 0 0 1-.376-.375V35.78c0-.83 1.048-1.795 1.877-1.795h2.137c.83 0 1.878.965 1.878 1.795z"/><path fill="#334861" d="M23.744 32.774a1.729 1.729 0 1 1-3.458.002 1.729 1.729 0 0 1 3.458-.002z"/><path fill="#FED000" d="M32.23 35.78v2.264a.377.377 0 0 1-.375.375h-5.14a.377.377 0 0 1-.376-.375V35.78c0-.83 1.048-1.795 1.878-1.795h2.136c.83 0 1.878.965 1.878 1.795z"/><path fill="#334861" d="M31.013 32.774a1.729 1.729 0 1 1-3.458.002 1.729 1.729 0 0 1 3.458-.002z"/><path fill="#FED000" d="M39.5 35.78v2.264a.377.377 0 0 1-.376.375h-5.14a.377.377 0 0 1-.376-.375V35.78c0-.83 1.048-1.795 1.878-1.795h2.136c.83 0 1.878.965 1.878 1.795z"/><path fill="#334861" d="M38.282 32.774a1.729 1.729 0 1 1-3.457.002 1.729 1.729 0 0 1 3.457-.002z"/></svg>