<svg xmlns="http://www.w3.org/2000/svg" viewBox="0 0 48 48"><path fill="#EBC944" d="M33.5 10.2c-5 0-9.1 4.1-9.1 9.1v.1c0 .5.5 1 1 1h16.2c.5 0 1-.5 1-1v-.1c0-5-4.1-9.1-9.1-9.1z"/><path fill="#61C18E" d="M14.5 10.2c-5 0-9.1 4.1-9.1 9.1v.1c0 .5.5 1 1 1h16.2c.5 0 1-.5 1-1v-.1c0-5-4.1-9.1-9.1-9.1z"/><path fill="#676B75" d="M33.5.8c-2.3 0-4.2 1.9-4.2 4.2s1.9 4.2 4.2 4.2c2.3 0 4.2-1.9 4.2-4.2S35.8.8 33.5.8z"/><path fill="#FDD075" d="M14.5.8c-2.3 0-4.2 1.9-4.2 4.2s1.9 4.2 4.2 4.2c2.3 0 4.2-1.9 4.2-4.2S16.8.8 14.5.8z"/><path fill="none" d="M36.1 45.2v-8.6h-2v8.6H13.9v-8.6h-2v8.6H7v2h34v-2z"/><path fill="#F76E68" d="M47.3 18.8c-.2-.3-.5-.4-.8-.4h-45c-.3 0-.6.1-.8.4-.2.3-.3.6-.2.9l4.9 17.2c.1.4.5.7 1 .7h35.2c.4 0 .8-.3 1-.7l4.9-17.2c0-.3 0-.7-.2-.9z"/><path fill="none" d="M10.3 26.4h2v3.9h-2zM16.6 26.4h2v3.9h-2zM23 26.4h2v3.9h-2zM29.4 26.4h2v3.9h-2zM35.7 26.4h2v3.9h-2z"/></svg>