<svg xmlns="http://www.w3.org/2000/svg" viewBox="0 0 1364 960"><path fill="#FFDBDB" d="M828.459 391.254s22.952-16.392 39.31-24.461c12.343-6.089 48.717-7.441 60.662 8.639 8.249 11.104-16.906 10.102-44.739 12.024-17.704 1.222-32.462 36.076-32.462 36.076l-22.771-32.278z"/><linearGradient id="a" x1="854.549" x2="702.314" y1="451.447" y2="691.362" gradientUnits="userSpaceOnUse"><stop offset="0" stop-color="#ffc54a"/><stop offset="1" stop-color="#ffa561"/></linearGradient><path fill="url(#a)" d="m882.415 582.477-49.013 105.228s-.456-.431-1.317-1.256c-10.317-9.923-78.942-76.64-115.04-130.528-12.213-18.234-20.696-35.002-21.927-47.597-3.829-38.769 147.333-131.181 147.333-131.181l32.724 42.069-86.342 80.346c-.012.012-.012.012-.025.012l-8.569 7.991c3.792 3.73 8.126 7.646 12.816 11.659 28.75 24.611 71.323 52.903 89.36 63.257z"/><path fill="#F2DBC6" d="m837.28 609.982-5.195 76.468c-10.317-9.923-78.942-76.64-115.04-130.528 28.095 29.056 94.75 96.437 97.324 84.667 3.262-14.935 22.911-30.607 22.911-30.607zM793.057 519.22a165.6 165.6 0 0 0-10.883-.628c-20.29-.468-36.393-17.495-36.393-17.495 19.686 6.303 36.849.935 43.029-1.527l-8.569 7.991c3.791 3.73 8.125 7.646 12.816 11.659z"/><path fill="#39348A" d="M972.669 439.083c.398-6.961 5.888-13.384 4.416-20.199-1.772-8.201-12.007-11.081-17.309-17.585-3.091-3.793-4.371-8.693-6.291-13.193s-4.981-9.044-9.702-10.333c-7.861-2.147-14.98 5.599-23.064 6.63-11.962 1.523-21.862-11.753-33.884-10.809-7.274.572-13.141 6.253-20.204 8.083-4.503 1.166-9.268.707-13.862 1.44-4.594.734-9.464 3.205-10.75 7.676-1.153 4.012.93 8.366.035 12.444-.924 4.215-4.736 7.098-6.905 10.828-4.482 7.705-.124 19.049 8.365 21.771L957.592 481.3c4.341-3.537 8.727-7.117 12.121-11.57 3.395-4.454 5.756-9.932 5.439-15.522-.289-5.118-2.775-10.008-2.483-15.125z"/><linearGradient id="b" x1="868.5" x2="1044.57" y1="741.237" y2="666.191" gradientUnits="userSpaceOnUse"><stop offset="0" stop-color="#ffc54a"/><stop offset="1" stop-color="#ffa561"/></linearGradient><path fill="url(#b)" d="M1013.757 806.021a362.174 362.174 0 0 0 .85 35.352H825.551c14.844-73.729-.607-133.799-2.062-157.716-4.123-67.817 28.813-101.166 49.855-106.471a316.428 316.428 0 0 1 19.06-4.175c-2.635-1.521 64.169.589 64.632.446 6.683 1.165 12.911 2.395 18.711 3.694 133.196 29.814 40.606 95.512 38.01 228.87z"/><path fill="#FFF" d="M975.409 576.902c-2.911 21.875-40.929 44.514-63.558 45.621-15.777-6.515-33.267-21.065-38.511-45.357A265.618 265.618 0 0 1 892.4 573c1.556-.269 3.082-.539 4.577-.78l60.084 1.244c0 .001 3.741-.277 18.348 3.438z"/><path fill="#FFDBDB" d="M957.062 573.478c-8.433 24.921-42.037 32.878-42.037 32.878s-27.075-14.406-22.453-34.213c.109-5.166.071-12.461-.014-19.659l-.011-.955c-.162-12.363-.47-24.173-.47-24.173l36.821-14.897 9.062-3.664 9.846-3.984c-.258 1.026-.448 2.207-.573 3.517-1.081 11.572 2.819 33.282 6.019 48.446 2.049 9.686 3.81 16.704 3.81 16.704z"/><path fill="#F5C9C9" d="M953.252 556.774c-3.146-8.671-10.871-15.983-18.617-9.907-13.238 10.385-36.782 10.43-42.078 5.617 0 0 28.23-31.249 36.34-40.025 1.679-1.819 2.7-2.937 2.769-3.028.143-.206 2.843-.431 6.293-.636a527.97 527.97 0 0 1 9.273-.467c-1.081 11.572 2.82 33.282 6.02 48.446z"/><path fill="#FFDBDB" d="M944.278 515.387c-1.031.121-2.02.107-3.206.18l.593-1.877 5.94-20.38c3.168-3.724 5.812-7.907 8.243-12.449l.043-.134c4.325-.566 10.998-.697 15.67 3.409 6.23 5.473 6.075 28.539-27.283 31.251z"/><path fill="#F5B3B3" d="M946.564 507.551c-.704.01-1.37-.067-2.175-.1l.531-1.225 5.432-13.336c2.397-2.293 4.473-4.931 6.43-7.827l.038-.088c2.956-.084 7.466.288 10.33 3.38 3.819 4.123 2.101 19.668-20.586 19.196z"/><path fill="#FFDBDB" d="M957.6 478.958c-4.238 42.725-35.445 84.63-81.193 70.91-64.555-19.359-42.753-120.937-25.189-140.902 20.716 17.191 53.548 19.12 94.694 10.581-.001 0-3.233 46.928 11.688 59.411z"/><path fill="#39348A" d="M835.819 429.561c2.723 7.09 15.496 7.277 21.895 3.186 4.354-3.116 11.361-13.119 17.049-8.378 2.844 4.967 7.781 10.805 14.694 12.669 20.547 5.542 23.96.932 38.244-2.234 14.187-1.608 7.267 7.798 7.719 17.727.259 5.69 10.553 5.984 12.978 11.137 2.496 5.297-.712 12.178 2.804 17.14 1.718 2.384 4.498 1.64 6.526-.486l7.397-48.099s-20.665-27.493-21.763-29.056c-1.098-1.563-78.782-15.711-78.782-15.711l-28.761 42.105z"/><path fill="#F2DBC6" d="m960.35 679.554-10.679 53.35a43.796 43.796 0 0 1-29.71 33.152l-108.328 34.34 161.553 7.193-12.836-128.035z"/><path fill="#0A7496" d="M1014.607 841.373h-76.823c21.639-7.46 43.538-18.086 44.931-30.895 2.764-25.686-7.867-116.564-7.867-116.564l39.97 92.425a322.554 322.554 0 0 0-1.062 19.682 362.486 362.486 0 0 0 .851 35.352z"/><linearGradient id="c" x1="858.103" x2="1088.189" y1="855.13" y2="629.579" gradientUnits="userSpaceOnUse"><stop offset="0" stop-color="#ffc54a"/><stop offset="1" stop-color="#ffa561"/></linearGradient><path fill="url(#c)" d="m1038.989 607.34-81.163 58.813 1.119 101.975-204.909 37.082v35.483s271.556 13.013 282.909-9.271c20.5-40.237 23.539-183.962 2.044-224.082z"/><path fill="#F2DBC6" d="m1038.989 607.34-.431.313c12.11 52.856-.231 174.659-21.292 209.96-10.701 17.935-200.823-.793-263.23-7.457v30.539s271.556 13.012 282.909-9.271c20.5-40.239 23.539-183.964 2.044-224.084z"/><path fill="#39348A" d="M924.083 464.239a18.692 18.692 0 0 0-9.972-7.024c-2.094-.608-4.179-.799-6.357-.662-.921.057-1.838.189-2.738.393-1.065.242-1.95.746-2.924 1.217-1.062.513-.701 2.232.55 2.063.891-.121 1.754.006 2.652-.033.812-.036 1.622.016 2.428.118 1.642.209 3.122.653 4.676 1.26 3.091 1.206 5.7 3.146 7.596 5.809.807 1.134 2.54 1.3 3.615.474 1.133-.871 1.291-2.481.474-3.615zM868.769 454.538c-3.152-1.616-6.739-2.019-10.24-1.856a25.32 25.32 0 0 0-4.988.733c-1.709.43-3.899.899-5.268 2.071-1.504 1.287-.557 4.276 1.637 3.776 1.65-.376 3.159-1.352 4.773-1.888 1.381-.458 2.82-.752 4.262-.936 3.09-.394 6.187-.107 9.262.271 1.33.164 1.658-1.61.562-2.171z"/><path fill="#FFE0E0" d="M866.714 473.213c-1.352 5.386-6.112 8.846-10.632 7.727-4.52-1.118-7.088-6.392-5.736-11.778 1.352-5.386 6.112-8.846 10.632-7.727 4.52 1.119 7.088 6.392 5.736 11.778z"/><path fill="#282B6E" d="M864.96 472.779c-1.062 4.232-4.802 6.95-8.354 6.071-3.552-.879-5.569-5.022-4.508-9.254 1.062-4.232 4.803-6.95 8.354-6.071 3.552.879 5.57 5.022 4.508 9.254z"/><path fill="#191B36" d="M862.563 472.186c-.666 2.655-3.012 4.36-5.24 3.809-2.227-.551-3.494-3.15-2.827-5.805.666-2.655 3.013-4.36 5.24-3.809 2.228.551 3.493 3.151 2.827 5.805z"/><path fill="#FFF" d="M854.844 467.398a1.85 1.85 0 0 1 2.24-1.337 1.835 1.835 0 0 1 1.346 2.224 1.85 1.85 0 0 1-2.239 1.337 1.833 1.833 0 0 1-1.347-2.224zM859.851 466.409a.828.828 0 0 1 1.001-.598.82.82 0 1 1-.4 1.591.818.818 0 0 1-.601-.993z"/><path fill="#FFE0E0" d="M897.008 473.714c-.837 5.488 2.218 10.499 6.824 11.192 4.606.693 9.019-3.195 9.856-8.683.837-5.488-2.217-10.5-6.824-11.192-4.607-.694-9.019 3.194-9.856 8.683z"/><path fill="#282B6E" d="M898.795 473.982c-.658 4.313 1.742 8.249 5.362 8.794 3.618.544 7.086-2.51 7.744-6.823.657-4.313-1.743-8.25-5.362-8.794-3.619-.544-7.087 2.511-7.744 6.823z"/><path fill="#191B36" d="M901.237 474.349c-.413 2.706 1.093 5.175 3.364 5.517 2.27.341 4.444-1.575 4.857-4.28.413-2.705-1.093-5.175-3.363-5.516-2.271-.341-4.445 1.575-4.858 4.279z"/><path fill="#FFF" d="M910.216 472.876a1.835 1.835 0 0 0-1.55-2.088 1.846 1.846 0 0 0-2.104 1.539 1.837 1.837 0 0 0 1.551 2.089 1.846 1.846 0 0 0 2.103-1.54z"/><path fill="#F5B3B3" d="M882.278 494.058c-.571-.971-1.754-.998-2.758-1.121-.778-.096-1.606-.173-2.311-.539-.516-.268-1.066-.7-1.012-1.345.054-.638.616-1.21 1.018-1.664 1.142-1.294 2.29-2.535 3.01-4.126.68-1.503 1.667-3.427 1.411-5.12-.109-.72-1.151-.74-1.477-.193-.494.829-.64 1.9-1.041 2.787-.389.862-.896 1.615-1.444 2.381-1.098 1.534-2.842 2.672-3.631 4.41-.877 1.93-.079 3.911 1.699 4.972.86.513 1.82.734 2.801.87 1.049.145 2.396.582 3.373.071.482-.253.628-.93.362-1.383z"/><ellipse cx="888.738" cy="513.111" fill="#E39898" rx="5.6" ry="7.422"/><path fill="#E39898" d="M901.333 486.746c-.767 0-.769 1.193 0 1.193.768 0 .769-1.193 0-1.193zM899.77 494.856a.516.516 0 0 0-.359-.359l-.046-.016h-.001c-.035-.022-.083-.023-.129-.035l-.027-.013a.374.374 0 0 0-.281-.036l-.011.004-.011.004c-.059.023-.094.034-.139.08-.045.046-.056.081-.08.139a.049.049 0 0 0-.004.011l-.004.011a.42.42 0 0 0-.013.099c0 .049.019.093.037.137.001.029.001.059.01.087l.044.105.006.01v.001l.016.046a.507.507 0 0 0 .359.359.52.52 0 0 0 .501-.132.525.525 0 0 0 .132-.502zM894.197 490.668c-.045-.129-.055-.132-.139-.238l-.008-.01a.274.274 0 0 0-.109-.087 6.373 6.373 0 0 1-.122-.052 3.164 3.164 0 0 0-.136-.018.507.507 0 0 0-.258.07.307.307 0 0 0-.108.086l-.008.009c-.082.103-.098.114-.141.24l-.019.059a.553.553 0 0 0 .142.538l.112.087a.546.546 0 0 0 .492.028.543.543 0 0 0 .32-.359.564.564 0 0 0-.018-.353zM905.109 492.786a.265.265 0 0 0-.056-.134l.037.064a.332.332 0 0 0-.048-.135 2.57 2.57 0 0 0-.064-.082c-.003-.003-.005-.006-.009-.008l-.019-.016-.038-.031a6.488 6.488 0 0 0-.098-.076 5.738 5.738 0 0 0-.116-.049.377.377 0 0 0-.194-.009.241.241 0 0 0-.123.033.236.236 0 0 0-.107.062.25.25 0 0 0-.087.087.236.236 0 0 0-.062.107.365.365 0 0 0-.042.187l.017.129.049.116.076.098.098.076.116.049a.366.366 0 0 0 .194.009.245.245 0 0 0 .122-.033.37.37 0 0 0 .156-.1l.038-.031.019-.016.008-.007.065-.084c.018-.028.024-.059.032-.09.003-.008.011-.013.013-.021a.158.158 0 0 0 .023-.095zM865.767 485.991l-.018-.133-.001-.004a3.08 3.08 0 0 0-.051-.12.482.482 0 0 0-.085-.111c-.017-.016-.04-.031-.055-.043-.011-.009-.037-.031-.057-.043l-.007-.004-.001-.001a2.576 2.576 0 0 0-.121-.051l-.134-.018-.134.018c.015-.003-.095.033-.131.057-.019.013-.041.031-.055.042-.015.012-.038.027-.055.043a.487.487 0 0 0-.125.215.377.377 0 0 0-.009.194.359.359 0 0 0 .058.181c.02.034.054.053.08.08.006.007.007.017.014.024.013.021.036.031.053.049l-.064-.05.01.009.07.055c.023.021.04.047.068.063l.117.05.13.017a.372.372 0 0 0 .189-.042.372.372 0 0 0 .199-.155c-.004.005.029-.035.04-.053l.004-.007c.004-.006.049-.113.05-.119l.001-.004a2.71 2.71 0 0 0 .018-.134v-.003c.002 0 .002-.001.002-.002zM859.68 488.813c-.607 0-.608.943 0 .943.606-.001.607-.943 0-.943zM865.113 491.21a.306.306 0 0 0-.083-.13l-.082-.063-.097-.041a.304.304 0 0 0-.161-.007c-.02.001-.036.013-.055.018a.398.398 0 0 0-.034.005 4.366 4.366 0 0 0-.101.043.315.315 0 0 0-.118.108.213.213 0 0 0-.054.093.209.209 0 0 0-.029.106.213.213 0 0 0 0 .112c0 .038.01.073.029.106a.324.324 0 0 0 .087.136l.085.066.101.042.112.015.112-.015.101-.042a.31.31 0 0 0 .118-.109c.018-.019.028-.043.039-.066l-.005.018.016-.034.041-.097a.304.304 0 0 0 .007-.161.23.23 0 0 0-.029-.103zM870.336 489.028a.537.537 0 0 0-.137-.236l-.108-.084a.54.54 0 0 0-.269-.073.395.395 0 0 0-.206.046.4.4 0 0 0-.172.11.389.389 0 0 0-.11.172.405.405 0 0 0-.046.206l.019.142c.025.09.071.169.137.235l.108.084a.531.531 0 0 0 .27.073.407.407 0 0 0 .206-.046.403.403 0 0 0 .172-.111.389.389 0 0 0 .11-.172.393.393 0 0 0 .046-.206c-.008-.046-.014-.093-.02-.14z"/><linearGradient id="d" x1="490.708" x2="954.34" y1="744.24" y2="744.24" gradientUnits="userSpaceOnUse"><stop offset="0" stop-color="#dbecff"/><stop offset="1" stop-color="#c4e6ff"/></linearGradient><path fill="url(#d)" d="M954.34 840.807H552.464l-61.756-193.134h252.844l57.335 178.328H954.34z"/><linearGradient id="e" x1="782.009" x2="362.245" y1="849.947" y2="669.341" gradientUnits="userSpaceOnUse"><stop offset="0" stop-color="#dbecff"/><stop offset="1" stop-color="#c4e6ff"/></linearGradient><path fill="url(#e)" d="M800.887 840.807H552.464l-61.756-193.134h29.478c48.147 184.974 210.12 157.55 280.701 193.134z"/><path fill="#39348A" d="M638.729 474.659h-82.102a1.014 1.014 0 1 1 0-2.03h82.102a1.015 1.015 0 0 1 0 2.03zM645.696 458.085H340.763c-7.014 0-12.721-5.707-12.721-12.721V241.055c0-7.014 5.707-12.721 12.721-12.721h304.934c7.014 0 12.721 5.707 12.721 12.721v204.309c-.001 7.014-5.707 12.721-12.722 12.721zm-304.933-227.72c-5.895 0-10.69 4.796-10.69 10.69v204.309c0 5.895 4.796 10.691 10.69 10.691h304.934c5.895 0 10.69-4.796 10.69-10.691V241.055c0-5.895-4.796-10.69-10.69-10.69H340.763z"/><path fill="#39348A" d="m329.033 269.77.01-2.03 328.349 1.576-.01 2.03z"/><linearGradient id="f" x1="346.439" x2="640.55" y1="363.092" y2="363.092" gradientUnits="userSpaceOnUse"><stop offset="0" stop-color="#b0deff"/><stop offset="1" stop-color="#82baff"/></linearGradient><path fill="url(#f)" d="M346.439 284.662H640.55v156.859H346.439z"/><linearGradient id="g" x1="346.439" x2="355.465" y1="252.014" y2="252.014" gradientUnits="userSpaceOnUse"><stop offset="0" stop-color="#b0deff"/><stop offset="1" stop-color="#82baff"/></linearGradient><path fill="url(#g)" d="M346.439 252.014a4.514 4.514 0 1 1 9.027.001 4.514 4.514 0 0 1-9.027-.001z"/><linearGradient id="h" x1="363.362" x2="372.388" y1="252.014" y2="252.014" gradientUnits="userSpaceOnUse"><stop offset="0" stop-color="#b0deff"/><stop offset="1" stop-color="#82baff"/></linearGradient><path fill="url(#h)" d="M363.362 252.014a4.513 4.513 0 1 1 9.026 0 4.513 4.513 0 0 1-9.026 0z"/><linearGradient id="i" x1="380.285" x2="389.311" y1="252.014" y2="252.014" gradientUnits="userSpaceOnUse"><stop offset="0" stop-color="#b0deff"/><stop offset="1" stop-color="#82baff"/></linearGradient><path fill="url(#i)" d="M380.285 252.014a4.513 4.513 0 1 1 9.026 0 4.513 4.513 0 0 1-9.026 0z"/><path fill="#FFF" d="M392.277 333.548c.905-9.465 9.312-16.404 18.777-15.498 9.465.905 16.404 9.312 15.498 18.777-.905 9.465-9.312 16.404-18.777 15.498-9.465-.906-16.403-9.313-15.498-18.777z"/><path fill="#559FF5" d="M409.164 337.002a6.684 6.684 0 1 0-.046-13.368 6.684 6.684 0 0 0 .046 13.368z"/><path fill="#559FF5" d="M415.294 337.035a1.456 1.456 0 0 0-1.819.032 6.661 6.661 0 0 1-4.22 1.518 6.633 6.633 0 0 1-4.116-1.403 1.438 1.438 0 0 0-1.823.038c-1.344 1.161-2.16 2.831-2.153 4.998l.001.195a2.028 2.028 0 0 0 2.036 2.022l12.489-.042a2.028 2.028 0 0 0 2.022-2.036l-.001-.195c-.006-2.259-.929-3.973-2.416-5.127z"/><circle cx="410.096" cy="389.917" r="17.991" fill="#FFF" transform="rotate(-45.001 410.093 389.924)"/><path fill="#559FF5" d="m416.229 382.228.008 2.353a.847.847 0 0 1-1.695.006l-.007-2.142a2.063 2.063 0 0 0-2.069-2.056l-4.804.016a2.065 2.065 0 0 0-2.057 2.071l.019 5.737-1.694.006-.02-5.949a3.547 3.547 0 0 1 3.535-3.559l5.224-.017a3.548 3.548 0 0 1 3.56 3.534z"/><path fill="#C7CBFF" d="m410.517 393.948.151 1.816a.128.128 0 0 1-.127.139l-.852.003a.128.128 0 0 1-.129-.138l.139-1.817a.793.793 0 1 1 .818-.003z"/><path fill="#559FF5" d="m419.945 388.697-19.709.066c-.101.27-.153.556-.152.856l.008 2.469c.017 5.012 4.512 9.062 10.039 9.044 2.765-.009 5.263-1.034 7.068-2.682 1.807-1.65 2.92-3.922 2.911-6.428l-.008-2.469c0-.3-.056-.587-.157-.856zm-9.826 8.673a3.347 3.347 0 1 1-.022-6.694 3.347 3.347 0 0 1 .022 6.694zM419.67 388.166l-19.163.064c.515-.77 1.448-1.289 2.514-1.293l14.127-.047c1.067-.003 2.002.51 2.522 1.276z"/><path fill="#C7CBFF" d="m410.517 393.948.151 1.816a.128.128 0 0 1-.127.139l-.852.003a.128.128 0 0 1-.129-.138l.139-1.817a.793.793 0 1 1 .818-.003z"/><path fill="#C7CBFF" d="m410.517 393.948.151 1.816a.128.128 0 0 1-.127.139l-.852.003a.128.128 0 0 1-.129-.138l.139-1.817a.793.793 0 1 1 .818-.003z"/><path fill="#559FF5" d="m410.517 393.948.151 1.816a.128.128 0 0 1-.127.139l-.852.003a.128.128 0 0 1-.129-.138l.139-1.817a.793.793 0 1 1 .818-.003z"/><path fill="#FFF" d="m585.88 346.307-128.796.43c-6.538.022-11.855-5.26-11.877-11.798-.022-6.538 5.26-11.855 11.798-11.877l128.796-.43c6.538-.022 11.855 5.26 11.877 11.798.022 6.537-5.261 11.855-11.798 11.877zM469.516 380.623l-15.302.051a4.321 4.321 0 0 0-4.307 4.336l.051 15.302a4.321 4.321 0 0 0 4.336 4.307l15.302-.051a4.321 4.321 0 0 0 4.307-4.336l-.051-15.302a4.322 4.322 0 0 0-4.336-4.307zM508.983 380.492l-15.302.051a4.321 4.321 0 0 0-4.307 4.336l.051 15.302a4.321 4.321 0 0 0 4.336 4.307l15.302-.051a4.321 4.321 0 0 0 4.307-4.336l-.051-15.302a4.32 4.32 0 0 0-4.336-4.307zM548.451 380.36l-15.302.051a4.321 4.321 0 0 0-4.307 4.336l.051 15.302a4.321 4.321 0 0 0 4.336 4.307l15.302-.051a4.321 4.321 0 0 0 4.307-4.336l-.051-15.302a4.322 4.322 0 0 0-4.336-4.307zM587.918 380.228l-15.302.051a4.321 4.321 0 0 0-4.307 4.336l.051 15.302a4.321 4.321 0 0 0 4.336 4.307l15.302-.051a4.321 4.321 0 0 0 4.307-4.336l-.051-15.302a4.322 4.322 0 0 0-4.336-4.307z"/><path fill="#559FF5" d="m462.458 385.984.618 4.236c.031.212.25.342.451.267l4.013-1.491c.36-.134.628.342.326.58l-3.36 2.653a.337.337 0 0 0-.006.524l3.298 2.73c.296.245.017.715-.339.573l-3.978-1.583a.337.337 0 0 0-.457.257l-.715 4.221c-.064.379-.61.372-.665-.008l-.618-4.236a.337.337 0 0 0-.451-.267l-4.013 1.491c-.36.134-.627-.342-.326-.58l3.36-2.653a.337.337 0 0 0 .006-.524l-3.298-2.73c-.296-.245-.017-.714.339-.572l3.978 1.583a.337.337 0 0 0 .457-.257l.715-4.221c.064-.379.61-.373.665.007zM501.192 385.855l.618 4.236c.031.212.25.342.451.267l4.013-1.491c.36-.134.627.342.326.58l-3.36 2.653a.337.337 0 0 0-.006.524l3.298 2.73c.296.245.017.714-.339.573l-3.978-1.583a.337.337 0 0 0-.457.257l-.715 4.221c-.064.379-.61.372-.665-.008l-.618-4.236a.337.337 0 0 0-.451-.267l-4.013 1.491c-.36.134-.628-.342-.326-.58l3.36-2.653a.337.337 0 0 0 .006-.524l-3.298-2.73c-.296-.245-.017-.715.339-.573l3.978 1.583a.337.337 0 0 0 .457-.257l.715-4.221c.063-.378.609-.372.665.008zM541.245 385.524l.618 4.236c.031.212.25.342.451.267l4.013-1.491c.36-.134.627.342.326.58l-3.36 2.653a.337.337 0 0 0-.006.524l3.298 2.73c.296.245.017.714-.339.572l-3.978-1.583a.337.337 0 0 0-.457.257l-.715 4.221c-.064.379-.61.372-.665-.008l-.618-4.236a.337.337 0 0 0-.451-.267l-4.013 1.491c-.36.134-.627-.342-.326-.58l3.36-2.653a.337.337 0 0 0 .006-.524l-3.298-2.73c-.296-.245-.017-.715.339-.573l3.978 1.583a.337.337 0 0 0 .457-.257l.715-4.221c.064-.377.61-.371.665.009zM580.794 385.392l.618 4.236c.031.212.25.342.451.267l4.013-1.491c.36-.134.627.342.326.58l-3.36 2.653a.337.337 0 0 0-.006.524l3.298 2.73c.296.245.017.715-.339.573l-3.978-1.583a.337.337 0 0 0-.457.257l-.715 4.221c-.064.379-.61.372-.665-.008l-.618-4.236a.337.337 0 0 0-.451-.267l-4.013 1.491c-.36.134-.627-.342-.326-.58l3.36-2.653a.337.337 0 0 0 .006-.524l-3.298-2.73c-.296-.245-.017-.715.339-.573l3.978 1.583a.337.337 0 0 0 .457-.257l.715-4.221c.064-.378.61-.372.665.008zM455.786 336.004a3.54 3.54 0 1 1 7.08 0 3.54 3.54 0 0 1-7.08 0zM470.363 336.004a3.54 3.54 0 1 1 7.08 0 3.54 3.54 0 0 1-7.08 0zM484.94 336.004a3.54 3.54 0 1 1 7.08 0 3.54 3.54 0 0 1-7.08 0zM499.517 336.004a3.54 3.54 0 1 1 7.08 0 3.54 3.54 0 0 1-7.08 0zM514.094 336.004a3.54 3.54 0 1 1 7.08 0 3.54 3.54 0 0 1-7.08 0zM528.671 336.004a3.54 3.54 0 1 1 7.08 0 3.54 3.54 0 0 1-7.08 0zM543.248 336.004a3.54 3.54 0 1 1 7.08 0 3.54 3.54 0 0 1-7.08 0zM557.825 336.004a3.54 3.54 0 1 1 7.08 0 3.54 3.54 0 0 1-7.08 0z"/><path fill="#39348A" d="M341.056 208.896h62.853v2.03h-62.853zM418.665 208.896h26.995v2.03h-26.995z"/><linearGradient id="j" x1="333.549" x2="480.25" y1="758.385" y2="758.385" gradientUnits="userSpaceOnUse"><stop offset="0" stop-color="#ad88ff"/><stop offset="1" stop-color="#6038ba"/></linearGradient><path fill="url(#j)" d="M429.689 749.688c-7.59 0-12.944 9.773-4.136 17.394h54.697v3.436h-143a3.701 3.701 0 0 1-3.701-3.701v-16.866a3.701 3.701 0 0 1 3.701-3.701h143v3.436h-50.561z"/><path fill="#265199" d="M429.115 749.708c.19-.012.381-.02.574-.02h50.561v-3.436h-47.277a8.75 8.75 0 0 0-3.858 3.456z"/><path fill="#E6E7E8" d="M424.703 766.297h-69.095c-8.375 0-15.165-6.789-15.165-15.165v-4.88h-3.193a3.701 3.701 0 0 0-3.701 3.701v16.866a3.701 3.701 0 0 0 3.701 3.701h143v-3.436h-54.697c-.3-.261-.582-.523-.85-.787z"/><path fill="#FFF" d="M480.25 749.688v17.394h-79.483c-4.797 0-8.7-3.897-8.7-8.694 0-4.797 3.904-8.701 8.7-8.701h79.483z"/><linearGradient id="k" x1="388.63" x2="480.25" y1="758.385" y2="758.385" gradientUnits="userSpaceOnUse"><stop offset="0" stop-color="#ad88ff"/><stop offset="1" stop-color="#6038ba"/></linearGradient><path fill="url(#k)" d="M392.067 758.389c0 4.797 3.904 8.694 8.7 8.694h79.483v3.436h-79.483c-6.694 0-12.137-5.443-12.137-12.13 0-6.694 5.443-12.137 12.137-12.137h79.483v3.436h-79.483c-4.797 0-8.7 3.904-8.7 8.701z"/><path fill="#FFF" d="M359.383 746.252h3.255v24.267h-3.255zM351.243 746.252h3.255v24.267h-3.255zM369.695 759.688a7.052 7.052 0 1 1 14.105 0 7.052 7.052 0 0 1-14.105 0z"/><path fill="#E6E8F0" d="M443.718 753.197h-40.522c-.55 0-.996-.293-.996-.653 0-.361.446-.653.996-.653h40.522c.55 0 .996.293.996.653-.001.36-.447.653-.996.653zM472.835 765.599h-45.982c-.55 0-.995-.293-.995-.653 0-.361.446-.653.995-.653h45.982c.55 0 .995.293.995.653.001.36-.445.653-.995.653zM443.718 759.532h-25.231c-.55 0-.995-.293-.995-.653 0-.361.446-.653.995-.653h25.231c.55 0 .996.293.996.653-.001.36-.447.653-.996.653zM413.527 759.531H402.74c-.55 0-.996-.292-.996-.653 0-.361.446-.653.996-.653h10.787c.55 0 .995.292.995.653 0 .361-.445.653-.995.653zM468.461 759.531h-10.787c-.55 0-.995-.292-.995-.653 0-.361.446-.653.995-.653h10.787c.55 0 .995.292.995.653 0 .361-.445.653-.995.653zM461.092 753.85h-3.418c-.55 0-.995-.292-.995-.653 0-.361.446-.653.995-.653h3.418c.55 0 .995.292.995.653.001.361-.445.653-.995.653zM421.599 765.599h-3.418c-.55 0-.995-.293-.995-.653 0-.361.446-.653.995-.653h3.418c.55 0 .995.293.995.653.001.36-.445.653-.995.653zM478.245 759.531h-3.418c-.55 0-.995-.292-.995-.653 0-.361.446-.653.995-.653h3.418c.55 0 .995.292.995.653 0 .361-.446.653-.995.653z"/><linearGradient id="l" x1="457.859" x2="465.542" y1="759.688" y2="759.688" gradientUnits="userSpaceOnUse"><stop offset="0" stop-color="#ff5c9c"/><stop offset="1" stop-color="#ff7ace"/></linearGradient><path fill="url(#l)" d="M457.859 755.912v7.552l3.842-2.669 3.841 2.669v-7.552z"/><linearGradient id="m" x1="317.488" x2="460.88" y1="789.069" y2="789.069" gradientUnits="userSpaceOnUse"><stop offset="0" stop-color="#ff5c9c"/><stop offset="1" stop-color="#ff7ace"/></linearGradient><path fill="url(#m)" d="M457.584 770.52h-136.8c-1.82 0-3.295 2.035-3.295 4.545v28.009c0 2.51 1.475 4.545 3.295 4.545h136.801c1.82 0 3.295-2.035 3.295-4.545v-28.009c0-2.51-1.476-4.545-3.296-4.545z"/><path fill="#E6E7E8" d="M457.584 770.52h-1.718v9.224c0 12.313-7.237 22.294-16.165 22.294H317.488v1.035c0 2.51 1.475 4.545 3.295 4.545h136.801c1.82 0 3.295-2.035 3.295-4.545v-28.009c.001-2.509-1.475-4.544-3.295-4.544z"/><path fill="#FFF" d="M337.398 770.52h8.802v37.099h-8.802zM351.243 770.52h8.802v37.099h-8.802zM369.922 789.069c0-5.328 4.312-9.647 9.631-9.647s9.631 4.319 9.631 9.647-4.312 9.648-9.631 9.648-9.631-4.32-9.631-9.648zM463.093 839.21c-.751-.268-125.509.51-126.047-.265a16.288 16.288 0 0 1-7.241-6.709h-.02v-15.943h.012c1.746-3.094 4.527-5.59 7.805-6.97h125.266c-2.96 9.682-1.809 20.128.225 29.887z"/><linearGradient id="n" x1="325.433" x2="465.716" y1="823.832" y2="823.832" gradientUnits="userSpaceOnUse"><stop offset="0" stop-color="#ffca59"/><stop offset="1" stop-color="#ff8f5c"/></linearGradient><path fill="url(#n)" d="M465.007 835.919a2.417 2.417 0 0 1-1.709 4.126H341.642a16.13 16.13 0 0 1-6.282-1.261 13.278 13.278 0 0 1-.592-.266 11.35 11.35 0 0 1-.596-.294c-.161-.085-.322-.169-.484-.262a12.324 12.324 0 0 1-.504-.298 17.453 17.453 0 0 1-.419-.262c-.145-.097-.29-.193-.431-.294-.125-.089-.25-.178-.371-.266a13.666 13.666 0 0 1-.379-.294 10.37 10.37 0 0 1-.326-.266 12.062 12.062 0 0 1-.629-.556c-.109-.097-.214-.198-.318-.298l-.133-.133c-.044-.044-.085-.084-.125-.129a5.903 5.903 0 0 1-.278-.294 5.23 5.23 0 0 1-.246-.266c-.085-.097-.173-.194-.254-.294a4.144 4.144 0 0 1-.218-.262 9.702 9.702 0 0 1-.435-.56 7.889 7.889 0 0 1-.214-.294c-.064-.089-.129-.178-.185-.266-.069-.097-.133-.198-.197-.294-.056-.089-.113-.173-.165-.262l-.181-.298c-.052-.088-.105-.177-.153-.266a16.146 16.146 0 0 1-2.095-7.977c0-2.885.754-5.592 2.075-7.941l.012-.024a5.61 5.61 0 0 1 .153-.262c.056-.101.117-.201.181-.298.052-.089.109-.173.165-.262.06-.096.125-.197.193-.294.061-.089.121-.177.186-.266.069-.101.141-.197.214-.294.065-.089.129-.177.197-.262.077-.101.157-.201.234-.298.073-.089.145-.177.218-.262.085-.101.169-.197.258-.294.076-.093.157-.181.242-.266.088-.101.181-.198.278-.294.085-.089.173-.177.262-.266.101-.097.206-.198.31-.294.092-.089.189-.177.29-.262.113-.101.23-.201.347-.298a13.666 13.666 0 0 1 1.063-.822c.141-.101.286-.197.431-.294.137-.088.274-.177.415-.262.165-.104.334-.201.504-.298a14.404 14.404 0 0 1 1.071-.556 16.175 16.175 0 0 1 6.91-1.544h121.656c.669 0 1.273.27 1.708.709a2.415 2.415 0 0 1-1.709 4.126H342.065c-.407 0-.81.02-1.204.061-.588.056-1.16.157-1.72.294-.306.077-.612.165-.911.266a10.393 10.393 0 0 0-1.378.556 8.92 8.92 0 0 0-.584.298 5.726 5.726 0 0 0-.451.262 8.264 8.264 0 0 0-.467.294 7.494 7.494 0 0 0-.383.266c-.133.097-.258.193-.387.294-.109.085-.214.174-.318.262-.113.097-.226.193-.335.298a16.71 16.71 0 0 0-.278.262 6.686 6.686 0 0 0-.29.294 7.285 7.285 0 0 0-.242.266 4.48 4.48 0 0 0-.25.294 3.454 3.454 0 0 0-.214.262c-.081.097-.153.198-.226.298a5.099 5.099 0 0 0-.193.266 9.535 9.535 0 0 0-.189.29c-.06.089-.117.177-.165.266a4.096 4.096 0 0 0-.177.298 2.794 2.794 0 0 0-.141.262 4.096 4.096 0 0 0-.153.294c-.044.089-.089.177-.125.266a4.073 4.073 0 0 0-.133.294c-.04.088-.072.173-.105.262a3.118 3.118 0 0 0-.113.298c-.036.084-.064.173-.093.262a2.45 2.45 0 0 0-.093.294c-.032.089-.056.177-.081.266-.028.097-.052.198-.077.294a2.772 2.772 0 0 0-.06.262 3.925 3.925 0 0 0-.061.298c-.02.085-.036.173-.048.262-.02.097-.032.193-.044.294a6.667 6.667 0 0 0-.064.56 2.975 2.975 0 0 0-.02.266 3.54 3.54 0 0 0-.012.294c-.008.085-.012.173-.008.262-.004.048-.004.092-.004.141 0 .052 0 .105.004.157 0 .088 0 .177.008.262 0 .101.004.197.012.294.004.089.012.177.024.266.004.101.012.197.028.294.008.089.02.177.036.262.008.101.024.201.044.298.012.089.028.177.048.266.016.097.036.193.06.29.016.089.036.177.06.266a6.203 6.203 0 0 0 .158.56c.028.101.056.197.097.294.024.089.052.177.089.262.032.101.073.197.113.298.032.089.068.173.109.262.04.101.085.197.133.294.036.089.081.177.125.266.048.101.097.197.153.294.045.089.093.173.141.262.057.101.113.201.177.298.052.089.105.177.165.262.06.101.125.197.193.294.06.088.125.177.193.266.068.101.145.198.222.294.068.089.137.177.214.262.081.101.165.202.258.298a9.777 9.777 0 0 0 .528.556c.092.093.189.181.282.266.109.104.222.201.338.298a11.33 11.33 0 0 0 1.092.822c.153.105.306.201.467.294.149.093.302.181.459.262.189.109.387.205.584.298.189.093.387.181.584.262.266.109.536.206.81.294.306.105.616.193.935.266.604.149 1.229.246 1.865.294.327.032.653.045.987.045h121.233c.671 0 1.275.269 1.711.708z"/><path fill="#E6E8F0" d="M402.995 818.585h-62.459a.653.653 0 1 1 0-1.306h62.459a.653.653 0 1 1 0 1.306zM446.67 830.986h-70.648a.653.653 0 0 1 0-1.306h70.648a.653.653 0 0 1 0 1.306zM402.995 824.919h-39.524a.653.653 0 0 1 0-1.306h39.524a.652.652 0 1 1 0 1.306zM357.712 824.919h-17.859a.653.653 0 0 1 0-1.306h17.859a.653.653 0 1 1 0 1.306zM440.108 824.919h-17.859a.653.653 0 1 1 0-1.306h17.859a.653.653 0 1 1 0 1.306zM429.056 819.238h-6.807a.653.653 0 0 1 0-1.306h6.807a.653.653 0 1 1 0 1.306zM369.82 830.986h-6.807a.653.653 0 1 1 0-1.306h6.807a.653.653 0 0 1 0 1.306zM454.783 824.919h-6.807a.653.653 0 1 1 0-1.306h6.807a.653.653 0 1 1 0 1.306z"/><linearGradient id="o" x1="407.25" x2="415.404" y1="822.219" y2="822.219" gradientUnits="userSpaceOnUse"><stop offset="0" stop-color="#ff5c9c"/><stop offset="1" stop-color="#ff7ace"/></linearGradient><path fill="url(#o)" d="m415.404 827.16-4.077-2.317-4.077 2.317v-9.882h8.154z"/><linearGradient id="p" x1="375.519" x2="352.84" y1="587.935" y2="576.389" gradientUnits="userSpaceOnUse"><stop offset="0" stop-color="#ffc54a"/><stop offset="1" stop-color="#ffa561"/></linearGradient><path fill="url(#p)" d="M349.107 581.534c0-7.642 6.196-13.837 13.838-13.837 7.642 0 13.837 6.195 13.837 13.837 0 7.642-6.194 13.837-13.837 13.837-7.642 0-13.838-6.196-13.838-13.837z"/><path fill="#39348A" d="m252.286 828.821-62.699-172.172 126.414-126.414 2.796 2.796-124.632 124.633L256 827.469z"/><path fill="#39348A" d="m242.403 824.867-62.699-172.172 126.414-126.412 2.795 2.795-124.632 124.633 61.836 169.805z"/><path fill="#39348A" d="M179.027 656.168c0-5.458 4.425-9.883 9.884-9.883 5.459 0 9.884 4.425 9.884 9.883 0 5.459-4.425 9.884-9.884 9.884-5.459 0-9.884-4.425-9.884-9.884zM325.429 565.667l-21.286-23.394c-5.144-5.652-4.73-14.403.922-19.547 5.653-5.144 14.403-4.731 19.546.922l21.287 23.393-20.469 18.626z"/><linearGradient id="q" x1="306.447" x2="389.184" y1="565.667" y2="565.667" gradientUnits="userSpaceOnUse"><stop offset="0" stop-color="#ff5c9c"/><stop offset="1" stop-color="#ff7ace"/></linearGradient><path fill="url(#q)" d="m389.184 557.775-53.858 49.008-19.399-21.319c-13.533-14.872-12.447-37.899 2.425-51.433 14.872-13.533 37.899-12.448 51.433 2.426l19.399 21.318z"/><linearGradient id="r" x1="306.453" x2="389.184" y1="576.49" y2="576.49" gradientUnits="userSpaceOnUse"><stop offset="0" stop-color="#db1262"/><stop offset="1" stop-color="#ff7ace"/></linearGradient><path fill="url(#r)" d="M359.111 565.69c-11.774 10.714-30.004 9.854-40.718-1.92a36.237 36.237 0 0 1-8.818-17.574c-5.664 12.787-3.665 28.26 6.352 39.268l19.399 21.319 53.858-49.008-9.682-10.64-20.391 18.555z"/><linearGradient id="s" x1="222.629" x2="275.197" y1="826.693" y2="826.693" gradientUnits="userSpaceOnUse"><stop offset="0" stop-color="#ff5c9c"/><stop offset="1" stop-color="#ff7ace"/></linearGradient><path fill="url(#s)" d="M275.197 839.836h-52.568c0-14.516 11.768-26.284 26.284-26.284 14.516-.001 26.284 11.767 26.284 26.284z"/><linearGradient id="t" x1="608.392" x2="689.612" y1="221.718" y2="302.463" gradientUnits="userSpaceOnUse"><stop offset="0" stop-color="#ff7ace"/><stop offset="1" stop-color="#ff2e81"/></linearGradient><circle cx="645.027" cy="258.139" r="52.722" fill="url(#t)"/><path fill="#FFF" d="m669.073 289.354 9.829-11.088-26.689-20.502 24.414-23.164-10.928-10.007a489910.43 489910.43 0 0 0-21.278 26.248l-23.44-23.919-9.829 11.088 26.177 20.529-23.902 23.137 10.928 10.007 20.828-26.225 23.89 23.896z"/><linearGradient id="u" x1="1020.579" x2="1176.166" y1="415.135" y2="344.214" gradientUnits="userSpaceOnUse"><stop offset="0" stop-color="#ad88ff"/><stop offset="1" stop-color="#6038ba"/></linearGradient><path fill="url(#u)" d="M1141.06 359.952c.34 0 .34.528 0 .528-.339 0-.34-.528 0-.528z"/><linearGradient id="v" x1="989.87" x2="1145.461" y1="347.773" y2="276.85" gradientUnits="userSpaceOnUse"><stop offset="0" stop-color="#ad88ff"/><stop offset="1" stop-color="#6038ba"/></linearGradient><path fill="url(#v)" d="M1022.901 246.006c25.659-19.527 59.128-27.508 91.26-24.812 20.768 1.743 41.486 7.911 58.411 20.072 16.926 12.161 29.743 30.685 32.674 51.319 2.932 20.633-4.969 43.047-21.711 55.459-17.697 13.121-41.722 13.652-63.516 10.43-27.582-4.078-54.238-13.237-81.865-17.006-11.427-1.559-23.5-2.102-34.056 2.542-10.557 4.645-18.942 10.117-22.377 25.493-17.06-65.82 15.519-103.969 41.18-123.497z"/><linearGradient id="w" x1="1019.367" x2="1174.958" y1="412.484" y2="341.561" gradientUnits="userSpaceOnUse"><stop offset="0" stop-color="#ad88ff"/><stop offset="1" stop-color="#6038ba"/></linearGradient><path fill="url(#w)" d="M1069.157 360.383c2.653.594 5.109 1.877 7.653 2.826 2.561.955 5.161 1.816 7.755 2.679 5.209 1.733 10.408 3.462 15.725 4.839 10.584 2.739 21.472 4.372 32.412 4.549 19.248.312 38.582-4.006 55.15-14.004 8.979-5.419 17.216-12.624 23.605-20.956.306-.399.986-.042.697.407-5.129 7.989-11.5 14.632-19.146 20.26-7.734 5.693-16.383 10.07-25.453 13.199-20.519 7.08-42.472 6.968-63.506 2.217-6.222-1.405-12.434-3.135-18.423-5.342-2.961-1.091-5.86-2.354-8.727-3.669-2.95-1.354-6.209-2.51-8.809-4.471-1.216-.917-.554-2.897 1.067-2.534z"/><linearGradient id="x" x1="960.043" x2="1115.633" y1="282.337" y2="211.414" gradientUnits="userSpaceOnUse"><stop offset="0" stop-color="#ad88ff"/><stop offset="1" stop-color="#6038ba"/></linearGradient><path fill="url(#x)" d="M968.798 292.604c2.554-10.653 7.391-20.645 14.082-29.313a75.995 75.995 0 0 1 11.417-11.862 76.52 76.52 0 0 1 6.147-4.656c2.138-1.448 4.673-3.105 7.155-3.849.591-.177 1.086.63.615 1.056-1.843 1.666-4.126 2.996-6.122 4.488-2.197 1.642-4.323 3.357-6.344 5.214a78.331 78.331 0 0 0-10.308 11.583c-6.169 8.481-10.566 18.148-12.816 28.393-.548 2.484-4.423 1.436-3.826-1.054z"/><linearGradient id="y" x1="1003.758" x2="1159.348" y1="378.24" y2="307.317" gradientUnits="userSpaceOnUse"><stop offset="0" stop-color="#ad88ff"/><stop offset="1" stop-color="#6038ba"/></linearGradient><path fill="url(#y)" d="M1044.335 353.629c1.132-.594 2.708-.391 3.952-.274a24.08 24.08 0 0 1 3.706.623c1.176.299 2.318.702 3.419 1.211 1.172.541 2.496 1.129 3.237 2.222.62.914-.186 2.49-1.348 2.35-.451-.054-.816-.096-1.23-.292-.254-.12-.498-.262-.75-.385a13.48 13.48 0 0 0-1.115-.494 26.158 26.158 0 0 0-3.096-1.013 21.394 21.394 0 0 0-1.544-.328 11.08 11.08 0 0 0-1.279-.162c-.524-.045-1.05-.07-1.576-.074-.637-.005-1.345.123-1.948-.111-.675-.262-1.192-.728-1.282-1.488-.081-.682.215-1.45.854-1.785z"/><path fill="#FFF" d="M1028.782 302.733c.726.193 1.25.82 1.25 1.571v4.841a3.235 3.235 0 0 0 3.408 3.23c1.749-.092 3.061-1.661 3.061-3.413v-4.346c0-.893.724-1.617 1.617-1.617h9.704c.893 0 1.617.724 1.617 1.617v4.529a3.235 3.235 0 0 0 3.408 3.23c1.749-.092 3.06-1.661 3.06-3.413v-4.345c0-.893.724-1.617 1.617-1.617h36.245c4.653 0 9.174 1.977 12.053 5.632 4.002 5.081 10.2 8.346 17.171 8.346 12.917 0 23.221-11.193 21.742-24.409-1.136-10.148-9.425-18.283-19.59-19.255-7.87-.753-14.971 2.672-19.377 8.311-2.801 3.585-7.19 5.56-11.739 5.56h-62.906c-4.211 0-7.907 3.165-8.187 7.367a7.906 7.906 0 0 0 5.846 8.181zm92.844-7.639c0-5.098 4.131-9.241 9.229-9.241 5.098 0 9.24 4.142 9.24 9.241s-4.142 9.229-9.24 9.229a9.226 9.226 0 0 1-9.229-9.229z"/><linearGradient id="z" x1="1190.257" x2="1255.129" y1="743.094" y2="743.094" gradientUnits="userSpaceOnUse"><stop offset="0" stop-color="#f5cbfb"/><stop offset="1" stop-color="#84d4ff"/></linearGradient><path fill="url(#z)" d="M1231.68 708.576c-7.637 1.889-15.041 5.599-20.035 11.649-4.476 5.422-6.724 12.322-8.179 19.186-1.456 6.865-2.219 13.885-4.203 20.617-1.438 4.882-4.095 10.119-9.006 11.537l9.321 8.285c7.065-3.133 11.026-10.757 12.888-18.224 1.862-7.468 2.183-15.304 4.696-22.58 2.819-8.162 8.33-15.261 15.067-20.699 6.737-5.438 14.669-9.28 22.9-12.01-7.87.129-15.811.35-23.449 2.239z"/><linearGradient id="A" x1="1125.1" x2="1199.684" y1="752.821" y2="752.821" gradientUnits="userSpaceOnUse"><stop offset="0" stop-color="#f5cbfb"/><stop offset="1" stop-color="#84d4ff"/></linearGradient><path fill="url(#A)" d="M1184.418 757.483c-3.91-4.662-6.977-10.037-11.376-14.245-6.309-6.037-15.151-9.256-23.903-9.102-8.753.154-17.341 3.59-24.038 9.199 12.832-5.95 29.327-2.834 39.072 7.38 3.53 3.701 6.172 8.14 9.401 12.103 3.23 3.963 7.302 7.581 12.307 8.693l13.804-4.976c-6.099-.245-11.357-4.39-15.267-9.052z"/><linearGradient id="B" x1="1205.659" x2="1256.874" y1="740.598" y2="740.598" gradientUnits="userSpaceOnUse"><stop offset="0" stop-color="#f5cbfb"/><stop offset="1" stop-color="#84d4ff"/></linearGradient><path fill="url(#B)" d="M1254.839 710.008c.797 14.06-8.229 28.142-21.38 33.356-4.764 1.889-9.889 2.683-14.786 4.197-4.898 1.513-9.786 3.933-12.68 8.145l-.334 15.484c2.489-5.543 8.171-9.75 13.973-11.633 5.802-1.883 11.959-2.724 17.52-5.226 7.975-3.589 14.26-10.563 17.363-18.705 3.101-8.144 3.077-17.353.324-25.618z"/><linearGradient id="C" x1="1190.511" x2="1144.741" y1="757.694" y2="676.257" gradientUnits="userSpaceOnUse"><stop offset="0" stop-color="#f5cbfb"/><stop offset="1" stop-color="#84d4ff"/></linearGradient><path fill="url(#C)" d="M1193.265 740.275c-3.215-6.899-8.337-12.712-13.404-18.406-4.265-4.793-8.639-9.739-10.784-15.774-2.145-6.034-1.543-13.5 3.173-17.854-6.392 2.014-10.576 8.569-11.327 15.196-.75 6.628 1.384 13.269 4.31 19.27 2.926 6.001 6.659 11.595 9.437 17.666 2.778 6.07 3.088 22.839 1.852 29.394l16.636-.767c3.17-6.919 3.321-21.826.107-28.725z"/><linearGradient id="D" x1="1185.011" x2="1196.144" y1="679.272" y2="779.059" gradientUnits="userSpaceOnUse"><stop offset="0" stop-color="#f5cbfb"/><stop offset="1" stop-color="#84d4ff"/></linearGradient><path fill="url(#D)" d="M1205.821 727.341c1.817-26.077-14.552-52.433-38.809-62.489 17.159 17.39 25.941 42.622 23.263 66.842-.67 6.062-2.017 12.091-1.796 18.186.221 6.095 3.149 18.083 8.013 21.795l14.156-.018c-5.56-5.904-7.174-12.402-6.715-20.479.458-8.078 1.326-15.766 1.888-23.837z"/><linearGradient id="E" x1="1225.057" x2="1168.154" y1="786.602" y2="829.486" gradientUnits="userSpaceOnUse"><stop offset="0" stop-color="#ff5c9c"/><stop offset="1" stop-color="#ff7ace"/></linearGradient><path fill="url(#E)" d="m1234.601 780.364-.998 7.861-6.647 52.224h-58.53l-7.34-52.224-1.1-7.861z"/><linearGradient id="F" x1="1235.691" x2="1162.496" y1="773.302" y2="773.302" gradientUnits="userSpaceOnUse"><stop offset="0" stop-color="#ff5c9c"/><stop offset="1" stop-color="#ff7ace"/></linearGradient><path fill="url(#F)" d="M1233.14 780.367h-71.691c-4.811 0-8.711-3.164-8.711-7.066 0-3.902 3.9-7.065 8.711-7.065h71.691c4.811 0 8.711 3.163 8.711 7.065 0 3.903-3.9 7.066-8.711 7.066z"/><path fill="#E6E7E8" d="m1159.986 780.364 1.495 10.673c34.125-2.728 62.298 19.373 65.475 49.412.461-5.04 7.645-60.085 7.645-60.085h-74.615z"/><linearGradient id="G" x1="-3466.527" x2="-3479.89" y1="6383.281" y2="6441.695" gradientTransform="rotate(-68.765 -6140.752 557.506)" gradientUnits="userSpaceOnUse"><stop offset="0" stop-color="#ad88ff"/><stop offset="1" stop-color="#6038ba"/></linearGradient><path fill="url(#G)" d="m299.388 194.607-10.855 15.027-1.503-1.085c-2.557-1.847-4.424-3.637-5.6-5.369a17.026 17.026 0 0 1-2.499-5.747c-.49-2.099-.948-6.352-1.375-12.759-.197-3.392-1.021-5.612-2.471-6.66-1.45-1.048-2.887-1.433-4.31-1.157-1.423.276-2.763 1.284-4.02 3.024-1.352 1.872-1.851 3.868-1.498 5.989.354 2.121 1.949 4.467 4.786 7.038l-12.982 13.973c-5.261-4.603-8.321-9.933-9.182-15.99-.86-6.058 1.376-12.777 6.709-20.159 4.152-5.747 8.703-9.521 13.654-11.32 6.709-2.456 12.766-1.732 18.17 2.172 2.241 1.619 3.955 3.8 5.143 6.544 1.188 2.743 1.904 7.112 2.148 13.106.186 4.186.665 7.09 1.439 8.713.774 1.621 2.189 3.175 4.246 4.66zm-7.233 18.427 11.626-16.095 14.197 10.255-11.626 16.095-14.197-10.255z"/><linearGradient id="H" x1="4931.251" x2="5001.223" y1="-4173.605" y2="-4173.605" gradientTransform="rotate(47.631 -2246.217 -7251.774)" gradientUnits="userSpaceOnUse"><stop offset="0" stop-color="#ffca59"/><stop offset="1" stop-color="#ff8f5c"/></linearGradient><path fill="url(#H)" d="m345.645 130.838 3.526 31.644-12.329 2.92-11.134-29.842-3.626-15.308 19.937-4.722 3.626 15.308zm11.601 52.046-18.608 4.408-3.897-16.454 18.608-4.408 3.897 16.454z"/><path fill="#CDDBFA" d="M1201.931 482.306h-99.473a1.855 1.855 0 1 1-.001-3.711h99.473a1.854 1.854 0 1 1 .001 3.711zM1203.299 496.09h-59.73a1.855 1.855 0 1 1 0-3.71h59.73a1.854 1.854 0 1 1 0 3.71zM1129.501 496.09h-19.212a1.855 1.855 0 1 1 0-3.71h19.212a1.856 1.856 0 0 1 0 3.71zM886.333 251.49H786.86a1.855 1.855 0 1 1-.001-3.711h99.473c1.025 0 1.855.831 1.855 1.855a1.854 1.854 0 0 1-1.854 1.856zM887.701 265.274H827.97a1.855 1.855 0 1 1 0-3.71h59.73c1.025 0 1.856.831 1.856 1.856a1.853 1.853 0 0 1-1.855 1.854zM813.903 265.274H794.69a1.855 1.855 0 1 1 0-3.71h19.212c1.025 0 1.855.831 1.855 1.855a1.853 1.853 0 0 1-1.854 1.855zM238.64 402.872h-99.473a1.855 1.855 0 1 1-.001-3.711h99.473a1.854 1.854 0 1 1 .001 3.711zM240.008 416.656h-59.731a1.855 1.855 0 1 1 0-3.711h59.73a1.855 1.855 0 1 1 .001 3.711zM166.21 416.656h-19.212a1.855 1.855 0 1 1 0-3.711h19.212a1.856 1.856 0 0 1 0 3.711z"/><linearGradient id="I" x1="157.304" x2="169.201" y1="511.569" y2="519.384" gradientUnits="userSpaceOnUse"><stop offset="0" stop-color="#ff7ace"/><stop offset="1" stop-color="#ff2e81"/></linearGradient><path fill="url(#I)" d="M167.81 513.53c.299.483.394 1.065.254 1.637a2.131 2.131 0 0 1-1.489 1.556l-7.215 2.104a2.133 2.133 0 0 1-2.092-.511 2.132 2.132 0 0 1-.603-2.067l1.785-7.3a2.133 2.133 0 0 1 1.489-1.556 2.13 2.13 0 0 1 2.092.512l5.43 5.196c.137.131.254.275.349.429zm-9.442 3.467a.446.446 0 0 0 .518.201l7.215-2.104a.45.45 0 0 0 .315-.329.448.448 0 0 0-.127-.437l-5.43-5.196a.445.445 0 0 0-.442-.108.447.447 0 0 0-.315.329l-1.785 7.3a.435.435 0 0 0 .051.344z"/><linearGradient id="J" x1="1125.799" x2="1137.696" y1="597.811" y2="605.625" gradientUnits="userSpaceOnUse"><stop offset="0" stop-color="#ff7ace"/><stop offset="1" stop-color="#ff2e81"/></linearGradient><path fill="url(#J)" d="M1136.305 599.772c.299.483.394 1.065.254 1.637a2.131 2.131 0 0 1-1.489 1.556l-7.215 2.104a2.133 2.133 0 0 1-2.092-.511 2.132 2.132 0 0 1-.603-2.067l1.785-7.3a2.133 2.133 0 0 1 1.489-1.556 2.13 2.13 0 0 1 2.092.512l5.43 5.196c.137.13.253.274.349.429zm-9.442 3.466a.446.446 0 0 0 .518.201l7.215-2.104a.45.45 0 0 0 .315-.329.448.448 0 0 0-.127-.437l-5.43-5.196a.448.448 0 0 0-.442-.108.447.447 0 0 0-.315.329l-1.785 7.3a.43.43 0 0 0 .051.344z"/><linearGradient id="K" x1="259.94" x2="267.889" y1="312.84" y2="321.994" gradientUnits="userSpaceOnUse"><stop offset="0" stop-color="#ffca59"/><stop offset="1" stop-color="#ff8f5c"/></linearGradient><path fill="url(#K)" d="m264.989 316.148 2.654-2.654a1.543 1.543 0 0 0-2.181-2.181l-2.654 2.654-2.654-2.654a1.54 1.54 0 0 0-2.181 0 1.54 1.54 0 0 0 0 2.181l2.654 2.654-2.649 2.649a1.54 1.54 0 0 0 1.091 2.633c.395 0 .79-.151 1.091-.452l2.649-2.649 2.649 2.649a1.539 1.539 0 0 0 2.182 0 1.54 1.54 0 0 0 0-2.181l-2.651-2.649z"/><linearGradient id="L" x1="941.521" x2="949.47" y1="189.27" y2="198.424" gradientUnits="userSpaceOnUse"><stop offset="0" stop-color="#ffca59"/><stop offset="1" stop-color="#ff8f5c"/></linearGradient><path fill="url(#L)" d="m946.571 192.578 2.654-2.654a1.54 1.54 0 0 0 0-2.181 1.54 1.54 0 0 0-2.181 0l-2.654 2.654-2.654-2.654a1.54 1.54 0 0 0-2.181 0 1.54 1.54 0 0 0 0 2.181l2.654 2.654-2.649 2.649a1.54 1.54 0 0 0 1.091 2.633c.395 0 .79-.151 1.091-.452l2.649-2.649 2.649 2.649a1.539 1.539 0 0 0 2.182 0 1.54 1.54 0 0 0 0-2.181l-2.651-2.649z"/><linearGradient id="M" x1="417.395" x2="429.518" y1="675.575" y2="675.575" gradientUnits="userSpaceOnUse"><stop offset="0" stop-color="#326ab3"/><stop offset="1" stop-color="#003780"/></linearGradient><path fill="url(#M)" d="M423.457 681.636a6.068 6.068 0 0 1-6.061-6.061 6.068 6.068 0 0 1 6.061-6.061 6.068 6.068 0 0 1 6.061 6.061 6.068 6.068 0 0 1-6.061 6.061zm0-10.226a4.17 4.17 0 0 0-4.165 4.165 4.17 4.17 0 0 0 4.165 4.165 4.17 4.17 0 0 0 4.165-4.165 4.171 4.171 0 0 0-4.165-4.165z"/><linearGradient id="N" x1="723.93" x2="736.053" y1="344.435" y2="344.435" gradientUnits="userSpaceOnUse"><stop offset="0" stop-color="#326ab3"/><stop offset="1" stop-color="#003780"/></linearGradient><path fill="url(#N)" d="M729.992 350.497a6.068 6.068 0 0 1-6.061-6.061c0-3.342 2.719-6.061 6.061-6.061s6.061 2.719 6.061 6.061a6.069 6.069 0 0 1-6.061 6.061zm0-10.226a4.17 4.17 0 0 0-4.165 4.165 4.17 4.17 0 0 0 4.165 4.165 4.17 4.17 0 0 0 4.165-4.165 4.17 4.17 0 0 0-4.165-4.165z"/><path fill="#39348A" d="M152.608 844.47h-76.17a2.318 2.318 0 0 1 0-4.636h76.17a2.318 2.318 0 1 1 0 4.636zM1287.562 839.835H183.149a2.318 2.318 0 0 0 0 4.636h1104.413a2.318 2.318 0 0 0 0-4.636z"/></svg>