<svg xmlns="http://www.w3.org/2000/svg" data-name="&lt;Layer&gt;" viewBox="0 0 2745 1830"><path fill="#571519" d="M987,427.86c-.49,14.24-4.54,27.92-8,41.65-3.67,14.65-5.8,29.48-8.14,44.38-2,12.54-5,24.44-10.31,36a180.33,180.33,0,0,1-22.71,37.57c-9,11.35-19.74,22.12-31.92,30.1-7.42,4.86-15.45,8.77-24.5,7.76-8.3-.93-16.53-3.93-24.12-7.27a192.1,192.1,0,0,1-34.69-20.28c-19.4-14-35.62-31.87-45.72-53.73-1.85-4-7.77-.52-5.93,3.47a136.45,136.45,0,0,0,39,49.22c19.19,15.11,41.91,30,66.37,34.69a37.41,37.41,0,0,0,23.35-2.54c12.64-5.63,23.59-15.37,33.07-25.25,19.91-20.75,36.53-47.93,42.64-76.26,3.59-16.65,4.94-33.67,8.85-50.28,3.84-16.28,9-32.38,9.63-49.23.15-4.42-6.71-4.41-6.86,0Z"/><path fill="#571519" d="M921.8,460c-3.84,7.47-8.52,16.39-8.29,25,.16,6.37,3,11,6.52,16,1.06,1.49,2.13,3,2,4.91-.23,2.71-2.27,5-4.19,6.71a31.66,31.66,0,0,1-9.74,5.64c-4.14,1.45-2.35,8.09,1.83,6.62,8.79-3.08,21.62-11.4,18.58-22.44-1.41-5.09-6.11-8.39-7.54-13.51-2.36-8.52,3-18.2,6.78-25.53,2-3.92-3.9-7.4-5.92-3.46Z"/><path fill="#571519" fill-rule="evenodd" d="M963,478.3c1-7.79-1.69-14.63-6.56-16-4.95-.65-10.66,4.37-11.68,12.16s1.69,14.63,6.56,16S961.93,486.09,963,478.3Z"/><path fill="#571519" d="M947,429c7.41-2.39,14.87-2.71,22,0,.36.13.7.27,1.05.41-.55-.23.12.06.29.14.55.26,1.1.53,1.63.81a28,28,0,0,1,2.58,1.55c.32.21.62.44.93.66.64.45-.67-.58.08.07.18.16.38.31.55.48,3.2,3.05,8.06-1.8,4.86-4.85a29.85,29.85,0,0,0-10.14-5.89c-8.25-3.07-17.41-2.64-25.7,0-4.18,1.35-2.39,8,1.83,6.62Z"/><path fill="#571519" d="M972.77,468.92a25.75,25.75,0,0,0-12.54-6.11c-6.42-1.1-12.9-.18-19.14,1.51-4.25,1.15-2.45,7.78,1.83,6.62a48.64,48.64,0,0,1,8.69-1.66,35.84,35.84,0,0,1,3.88-.11,21.94,21.94,0,0,1,2.92.25,24.44,24.44,0,0,1,2.93.69c.51.16,1,.35,1.51.52.27.1.36.15,0,0l.7.32a21.47,21.47,0,0,1,2.47,1.4q.62.4,1.2.84c-.56-.42.48.41.66.57a3.51,3.51,0,0,0,4.85,0,3.46,3.46,0,0,0,0-4.85Z"/><path fill="#571519" fill-rule="evenodd" d="M858.1,464.57c1-7.8,6.11-13.62,11.07-13,5.66.74,9.17,7,8.86,14.86-1,7.79-6.11,13.61-11.07,13C861.3,478.68,857.08,472.36,858.1,464.57Z"/><path fill="#571519" d="M897,415c-8.46-7.21-19.92-8.5-30.62-7.35a78.93,78.93,0,0,0-18.52,4.07c-4.11,1.51-2.33,8.14,1.83,6.62a71.31,71.31,0,0,1,15.65-3.7c8.94-1.14,19.58-.94,26.81,5.21,3.34,2.85,8.22-2,4.85-4.85Z"/><path fill="#571519" d="M852.88,460.13c.45-.26.91-.49,1.38-.71s-.44.16.17-.08l.9-.33a29.11,29.11,0,0,1,3.55-1,32.45,32.45,0,0,1,7.89-.69c5.12.13,10.55,1.36,14,5,3.05,3.21,7.89-1.64,4.85-4.85-4.71-5-11.81-6.77-18.46-7-5.93-.2-12.53.71-17.76,3.71-3.83,2.19-.38,8.12,3.47,5.92Z"/><path fill="#571519" d="M767.07,443.68c-7.27-4.91-16-8.59-25-7.49a24.14,24.14,0,0,0-17.41,11c-9.05,13.95-5.13,34.74,3.59,47.88a49.2,49.2,0,0,0,24.84,19c4.17,1.49,6-5.13,1.83-6.62-14.81-5.3-24.75-17.76-27.59-33.1-2.12-11.49-.08-27.51,13.29-30.94,8.11-2.08,16.35,1.77,22.93,6.22,3.67,2.48,7.11-3.46,3.47-5.93Z"/><path fill="#571519" d="M753.77,473.28a22.49,22.49,0,0,0-1.49-2.78,24.13,24.13,0,0,0-4.67-5.73,16.17,16.17,0,0,0-4.69-2.87,3.43,3.43,0,0,0-4.22,2.4,3.47,3.47,0,0,0,.34,2.64,4,4,0,0,0,2.05,1.58l.23.09-.82-.34a11.18,11.18,0,0,1,2.33,1.38l-.7-.54a17.83,17.83,0,0,1,3.16,3.22l-.53-.69a25.22,25.22,0,0,1,3.09,5.1,3.43,3.43,0,0,0,2,1.58,3.53,3.53,0,0,0,2.64-.35,3.46,3.46,0,0,0,1.58-2.05l.12-.91a3.38,3.38,0,0,0-.47-1.73Z"/><path fill="#571519" d="M915.94,356.23c-9,17.19-24,29.56-42.09,36.29-18.67,6.93-38.65,7.27-58,11.37-8.27,1.75-17.54,4.38-23.22,11.08-2.84,3.36,2,8.23,4.85,4.86,5.17-6.1,13.79-8,21.28-9.55,10.23-2.07,20.64-3.09,30.94-4.73,18.39-2.93,36.29-8.63,51.09-20.3a79.25,79.25,0,0,0,21-25.56c2-3.91-3.88-7.38-5.93-3.46Z"/><path fill="#571519" d="M815.87,419.45c-4.6,5-10,10.67-16.24,13-6.64,2.48-13.83,2.09-20.86,1.7-4.41-.24-4.4,6.62,0,6.86,7.63.42,15.8.75,23.05-2.09,7.6-3,13.49-8.7,18.9-14.63,3-3.26-1.86-8.12-4.85-4.86Z"/><path fill="#571519" d="M934.06,365.61c2.18-3.56,4.67-7.37,8.13-9.83,2.14-1.52,4.1-2.06,6.1-1.43,5.22,1.63,9,8.66,11.43,13.43,8,15.3,12,32.24,18.45,48.16a44.77,44.77,0,0,0,6.92,12.34c4.27,5.09,10.43,7.81,16.46,10.23,4.1,1.63,5.88-5,1.82-6.62-5.55-2.22-11-4.84-14.49-9.9a49.23,49.23,0,0,1-5.09-10.41c-3.2-8.33-5.88-16.86-8.91-25.25-3.17-8.79-6.52-17.74-11.33-25.79-3.27-5.47-7.87-11.76-14.54-13.07-9.56-1.88-16.55,7.62-20.88,14.68-2.31,3.77,3.62,7.22,5.93,3.46Z"/><path fill="#571519" d="M942.93,289.36c16.72-2.92,32.48,6.61,44.29,17.54,8.53,7.9,16.61,17.21,21.54,27.84a177.37,177.37,0,0,1,15.32,52.92c1.1,9.28,1.39,18.95-.72,28.12-2,8.69-6.65,16.28-12.48,22.94-11,12.61-27.91,22.49-34,38.77-1.54,4.14,5.09,5.93,6.61,1.82,2.64-7.07,8.46-12.64,13.81-17.73,6.33-6,13-11.76,18.71-18.38,6-6.92,11-14.75,13.43-23.65,2.57-9.4,2.68-19.42,1.76-29.06-1.87-19.62-7.59-39-15.56-57-5.1-11.5-13.24-21.53-22.29-30.19-14-13.4-32.29-24-52.29-20.55-4.34.75-2.5,7.37,1.83,6.62Z"/><path fill="#571519" d="M931,270.6c-43.92-26.06-100-32.25-147.48-12.18-22,9.29-42.08,24.17-54.65,44.7-12.39,20.26-17.46,44.28-18.18,67.8-.83,27.14,3.89,54.59,12.7,80.22,1.43,4.16,8.06,2.37,6.62-1.82a226.19,226.19,0,0,1-12.48-67.5c-.58-22.84,2.58-46.45,12.8-67.12,21.12-42.75,71.34-62.22,116.86-61.28a164.53,164.53,0,0,1,80.35,23.11c3.8,2.26,7.26-3.67,3.46-5.93Z"/><path fill="#571519" d="M735.81,502.83c-4.32,27.54-9.47,56.43-21.71,81.73-1.92,4,4,7.44,5.92,3.46,12.54-25.89,18-55.16,22.41-83.37.67-4.32-5.94-6.18-6.62-1.82Z"/><path fill="#571519" d="M771,264.78c-8-5.33-18-8.67-27.42-10a53.2,53.2,0,0,0-45.38,14.47c-8.83,8.41-15.94,18.76-22.19,29.18A264.49,264.49,0,0,0,654,346c-12.67,35.74-19.82,75.36-16.43,113.34,1.85,20.76,7.3,42.09,20.41,58.74,5.25,6.65,12.27,13.5,20.44,16.44,2.81,1,5.45-2.61,3.88-5-4.27-6.59-7.4-14.09-10.07-21.44a165.1,165.1,0,0,1-9.81-58c0-4.42-6.82-4.42-6.86,0a170.75,170.75,0,0,0,10.05,59.86c2.87,7.88,6.18,16,10.76,23.08l3.88-5c-.88-.32.83.47-.54-.25-1.11-.57-2.2-1.14-3.27-1.79a45.86,45.86,0,0,1-10.22-8.64c-12-13-17.83-30.74-20.57-47.92-5.5-34.51-.08-71.33,9.54-104.58,8.5-29.43,21.26-59.81,41.21-83.46,10.52-12.48,23.86-21,40.72-20.31a61.49,61.49,0,0,1,30.48,9.75c3.69,2.45,7.13-3.49,3.46-5.93Z"/><path fill="#571519" d="M648.3,505.26a232.74,232.74,0,0,1-5.59,31.88c-3.74,15.47-8.81,34.75-21.9,45.1-3.46,2.74,1.43,7.57,4.86,4.86,10.67-8.45,16.13-22.73,20.11-35.3a234.47,234.47,0,0,0,8.28-37.8c.42-2.9.82-5.82,1.1-8.74.43-4.39-6.44-4.36-6.86,0Z"/><path fill="#571519" d="M685.33,345.47a212.36,212.36,0,0,0-14.64,51.77c-2.77,18.7-3.33,38.59,2.68,56.76A63.58,63.58,0,0,0,689,479.74c3.16,3.1,8-1.75,4.86-4.85-12.48-12.25-17.25-29.63-18.1-46.67-.91-18.11,2-36.31,6.76-53.74a201.82,201.82,0,0,1,8.74-25.54c1.71-4-4.21-7.52-5.92-3.47Z"/><path fill="#571519" d="M745.63,521.41c-2.6,14.44-4,29.07-6.67,43.5-2.49,13.5-6,27.18-14,38.59-2.53,3.63,3.42,7.07,5.93,3.46,16.68-23.94,16.33-56,21.3-83.73.78-4.31-5.83-6.17-6.61-1.82Z"/><path fill="#571519" d="M863,626.85c-6.51,15.81-11,32.6-15.09,49.18-1.06,4.29,5.56,6.12,6.61,1.83,4.08-16.58,8.58-33.38,15.1-49.19.71-1.72-.78-3.75-2.4-4.22-2-.56-3.52.7-4.22,2.4Z"/><path fill="#571519" d="M895.71,551.46c10.77,1.59,21.82,3.88,32,8q-1-2.52-2-5c-3.72,8.27-11.17,15.87-19.89,18.58a26.44,26.44,0,0,1-22.43-3.07c-5.41-3.62-9.19-9.27-11.92-15.07a47.17,47.17,0,0,1-3.59-10.54l-3.31,4.35c10.43.47,20.89,1.42,31.23,2.81,4.32.58,6.19-6,1.83-6.62-11-1.47-22-2.56-33.06-3.05-2.36-.11-3.73,2.26-3.31,4.34,2.16,10.7,8.19,21.78,16.91,28.43,14.25,10.87,34,7.17,45.72-5.5a43,43,0,0,0,7.74-11.2,3.51,3.51,0,0,0-2-5c-10.13-4.1-21.19-6.39-32-8C893.22,544.21,891.35,550.82,895.71,551.46Z"/><path fill="#571519" d="M1252.59,593.39a50.07,50.07,0,0,1-11.25-2.25c-11.1-3.22-21.51-8.53-31.22-14.72-12.28-7.83-23.68-17.17-31.8-29.4-5.62-8.47-9.87-18.07-13.31-27.61-5.78-16-9.34-32.79-12.49-49.49-.82-4.34-7.43-2.5-6.62,1.82,5,26.32,10.93,54.17,25.45,77.13,7.71,12.2,18.27,21.84,30.08,30a137.49,137.49,0,0,0,34.94,17.91c5.15,1.7,10.75,3.29,16.22,3.47,4.42.15,4.41-6.71,0-6.86Z"/><path fill="#571519" d="M1242.82,434.92c1.75,7.07,4.49,16.09,1.23,23.15-2,4.28-6.57,6.27-8.89,10.27-5.49,9.44,4.15,19.7,11.82,24.19,3.82,2.24,7.28-3.69,3.46-5.92a25.88,25.88,0,0,1-7.67-6.72c-1.34-1.81-2.63-4.23-2.24-6.57.31-1.79,1.65-2.95,3-4.12,4-3.61,7.19-7.37,8.24-12.83,1.49-7.78-.42-15.73-2.28-23.28-1.06-4.28-7.68-2.47-6.62,1.83Z"/><path fill="#571519" fill-rule="evenodd" d="M1191.86,445c0-7.11,3.87-12.93,9-13.57,5.17,0,9.69,5.17,9.69,12.92,0,7.11-3.87,12.92-9,13.57C1197,457.91,1192.5,452.09,1191.86,445Z"/><path fill="#571519" d="M1138.23,420.88c-7.94.86-16.15,3.49-20.27,10.9-3.57,6.39-3.2,14-2.13,21,2.82,18.54,16.82,32.85,35.05,36.83,4.31.94,6.15-5.68,1.83-6.62-15.14-3.3-27-14.49-29.91-29.91-1-5.27-1.67-11.44.42-16.54,2.5-6.06,9-8.18,15-8.84,4.34-.47,4.39-7.33,0-6.86Z"/><path fill="#571519" d="M1225.25,397.44a47.83,47.83,0,0,0-46.11,1.94c-3.69,2.4-.25,8.35,3.46,5.93a40.15,40.15,0,0,1,39.18-1.94c3.92,2,7.39-3.9,3.47-5.93Z"/><path fill="#571519" d="M1362.05,426.33c6.29-1.26,14-1.4,18.16,4.3,3.39,4.59,3.71,10.95,3.32,16.42-1.23,17.18-13.81,30.42-30.41,34-4.32.94-2.49,7.56,1.82,6.62,16-3.49,29.31-15.11,33.85-31,3-10.51,3.14-25.5-5.94-33.21-6.34-5.37-14.89-5.31-22.63-3.76-4.32.86-2.49,7.48,1.83,6.62Z"/><path fill="#571519" d="M1134.56,449.24a10.14,10.14,0,0,1,1.58,1l-.7-.54a19.66,19.66,0,0,1,3.32,3.44l-.54-.69a25.9,25.9,0,0,1,2.21,3.29,3.43,3.43,0,1,0,5.93-3.46,22.83,22.83,0,0,0-1.37-2.14,27,27,0,0,0-3.87-4.6,14.23,14.23,0,0,0-3.1-2.24,3.62,3.62,0,0,0-2.64-.35,3.44,3.44,0,0,0-2.4,4.22,3.43,3.43,0,0,0,1.58,2.05Z"/><path fill="#571519" d="M1369.09,441.38a14.27,14.27,0,0,0-2.82,2,19.28,19.28,0,0,0-2,2,35.47,35.47,0,0,0-3.1,4.22c-.16.26-.32.51-.46.77a3.6,3.6,0,0,0-.35,2.65,3.53,3.53,0,0,0,1.58,2.05,3.49,3.49,0,0,0,4.69-1.23,26.44,26.44,0,0,1,2.22-3.3l-.54.69a20,20,0,0,1,3.31-3.44l-.69.54a10.14,10.14,0,0,1,1.58-1,3.47,3.47,0,0,0,1.58-2.05,3.53,3.53,0,0,0-.35-2.64,3.46,3.46,0,0,0-2-1.58,3.77,3.77,0,0,0-2.65.35Z"/><path fill="#571519" d="M1186.48,441.49c3.41-2.59,8-3.69,12.16-4.06,5.11-.43,10,0,14.1,2.77a3.43,3.43,0,0,0,3.46-5.93c-5-3.4-11.62-4.2-17.56-3.7-5.31.45-11.29,1.7-15.62,5a3.55,3.55,0,0,0-1.24,4.7c.85,1.45,3.21,2.36,4.7,1.23Z"/><path fill="#571519" d="M1221.14,526.78c8.39,5.6,19.36,7.42,29.27,7.49,11.74.09,23.9-2.64,33.63-9.43,3.6-2.51.17-8.47-3.46-5.93-8.81,6.15-19.54,8.57-30.17,8.5-8.78-.07-18.37-1.6-25.81-6.56-3.68-2.46-7.12,3.48-3.46,5.93Z"/><path fill="#571519" d="M1253.24,600.25c4,.12,8.21-1,12-2,11.15-3.17,21.66-8.7,31.35-15,22.57-14.65,40.08-33.88,49.75-59.1,6.47-16.86,10.24-34.7,13.57-52.4.81-4.31-5.8-6.16-6.61-1.82-4.8,25.45-10.09,52.77-25,74.51-8,11.66-18.45,21.31-30,29.4-9.86,6.9-20.51,13.12-32,16.88-4.45,1.46-8.92,2.8-13.08,2.68-4.42-.13-4.42,6.74,0,6.86Z"/><path fill="#571519" fill-rule="evenodd" d="M1307.51,445c0-7.11-3.88-12.93-9-13.57-5.17,0-9.69,5.17-9.69,12.92,0,7.11,3.88,12.92,9,13.57C1302.34,457.91,1306.86,452.09,1307.51,445Z"/><path fill="#571519" d="M1275,403.37a40.15,40.15,0,0,1,39.18,1.94c3.71,2.42,7.15-3.52,3.46-5.93a47.83,47.83,0,0,0-46.11-1.94c-3.92,2-.45,8,3.47,5.93Z"/><path fill="#571519" d="M1316.35,435.56c-4.37-3.32-10.27-4.69-15.63-5.23-6-.59-12.64.27-17.56,3.94a3.55,3.55,0,0,0-1.23,4.7c.86,1.46,3.2,2.34,4.7,1.23a14.42,14.42,0,0,1,6.45-2.8,18.43,18.43,0,0,1,3.43-.36,32.92,32.92,0,0,1,4.21.15,30.82,30.82,0,0,1,3.38.58,32.08,32.08,0,0,1,3.6,1l.84.3c.07,0,.87.35.55.21s.44.2.51.23l.72.36a16.89,16.89,0,0,1,2.56,1.6c1.48,1.12,3.84.23,4.7-1.23,1-1.77.25-3.57-1.23-4.7Z"/><path fill="#571519" d="M1177.44,556.12a299.41,299.41,0,0,1,.76,30.4c-.18,7.06-.27,14.65-2.23,21.49-1.89,6.59-6.29,10.42-11.24,14.71-3.34,2.9,1.53,7.74,4.86,4.86,5-4.33,9.38-8.38,11.93-14.69,2.93-7.28,3.16-15.83,3.45-23.57a289.58,289.58,0,0,0-.67-33.2c-.33-4.38-7.2-4.41-6.86,0Z"/><path fill="#571519" d="M1318.94,559.35c-.42,10.18-.62,20.37-.67,30.56-.07,14.54-.61,29.86,2.37,44.18.89,4.33,7.51,2.5,6.61-1.82-2.89-14-2.2-29-2.11-43.21.06-9.91.25-19.82.66-29.71.18-4.42-6.68-4.41-6.86,0Z"/><path fill="#571519" d="M1315.64,244.13c24.95,3.88,44.45,20.91,56.15,42.73,13.61,25.39,15.28,55.16,12,83.31-1.94,16.68-5.84,33.06-9.82,49.35-1,4.29,5.57,6.12,6.62,1.83,7.8-31.92,14.42-64.41,9.94-97.37-3.44-25.37-14.41-50.34-33.79-67.58a77,77,0,0,0-39.28-18.89c-4.32-.67-6.19,5.94-1.83,6.62Z"/><path fill="#571519" d="M1304.36,243.14c-8-24.45-40.88-28.32-62.58-27.41-23.93,1-46.12,10.18-66.17,23-22.94,14.62-44.78,35.13-56,60.32-10.62,23.81-10.45,51.38-7.21,76.77,2.16,16.88,5.5,33.94,10.92,50.1,1.4,4.17,8,2.38,6.62-1.82a252.19,252.19,0,0,1-8.93-36.86c-4.13-23.68-5.94-49.1.33-72.57,6.72-25.15,25.46-46.24,45.81-61.69,17.38-13.21,38-24.51,59.59-28.78A103.19,103.19,0,0,1,1272,225.4c10.49,2.82,22.12,8.48,25.74,19.56,1.37,4.18,8,2.39,6.62-1.82Z"/><path fill="#571519" d="M1237.46,317.5c2.56-4,6.34-8.81,11.67-7.71,4.24.86,7.7,4.58,10.39,7.71,6.68,7.75,10.9,17.27,16.92,25.5a75.56,75.56,0,0,0,26.37,23,50.92,50.92,0,0,0,37.14,3.7,59.66,59.66,0,0,0,20.33-9.64c2.93-2.25,1.41-7.27-2.64-6.27a22.92,22.92,0,0,1-5.75.72,53.92,53.92,0,0,1-16-1.53c-18.89-4.72-32.54-19.06-41.56-35.74-2.1-3.88-8-.42-5.93,3.47,12.95,23.92,36.25,42.76,64.66,40.59a39.4,39.4,0,0,0,6.41-.89l-2.64-6.28a54.43,54.43,0,0,1-17.3,8.55c-13.34,4-26.27,1.91-38.09-5.33-11-6.77-19-16.7-25.53-27.68-4.75-7.92-9.51-16.4-16.85-22.25-3.76-3-8.26-5.15-13.17-4.57-6.5.78-11,6-14.35,11.16-2.39,3.73,3.54,7.17,5.93,3.47Z"/><path fill="#571519" d="M1336.21,381.46c9.81,15.77,12.27,37.05,6.76,54.86-1,3.16,2.5,5,5,3.88,12.31-5.29,18.92-19.43,19.79-32,.3-4.41-6.56-4.39-6.86,0-.73,10.52-6.4,21.82-16.4,26.11l5,3.88a75,75,0,0,0,2.87-20.09c.35-14-2.87-28.09-10.33-40.06-2.33-3.74-8.27-.3-5.92,3.46Z"/><path fill="#571519" d="M1237.46,292.3c5.87-10.2,15.83-21,28.57-21.11a16.37,16.37,0,0,1,5.76.93,10.3,10.3,0,0,1,2,.9c.1.06-.33-.33.3.28a57.39,57.39,0,0,1,4.33,5c10.89,13.49,23,25.81,39.47,32.29,12.68,5,26.42,5.38,39.67,2.66,4.32-.89,2.49-7.5-1.83-6.62-12.21,2.51-24.79,1.91-36.4-2.82-9.08-3.69-17.06-9.65-24-16.54-5-5-9.33-10.54-13.84-16-4.34-5.21-10.06-7.41-17-6.93-14.65,1-26,12.36-33,24.44-2.2,3.84,3.73,7.3,5.93,3.47Z"/><path fill="#571519" d="M1212.27,317c-11.21,2.68-18,10.76-23.33,20.46-5.64,10.24-10.86,20.58-21.1,27-8.66,5.44-18.89,7.67-29,8.61-4.36.4-4.4,7.27,0,6.86,16.21-1.51,32.51-6.26,43.45-19,7.37-8.6,10.87-19.53,17.78-28.37a24.55,24.55,0,0,1,14-8.95c4.29-1,2.48-7.65-1.82-6.62Z"/><path fill="#571519" d="M1160.46,379.94c-7.45,12-10.68,26-10.33,40.06a75.43,75.43,0,0,0,2.88,20.09l5-3.88c-10-4.29-15.66-15.59-16.39-26.11-.3-4.38-7.17-4.42-6.86,0,.87,12.61,7.47,26.75,19.79,32,2.53,1.08,6-.73,5-3.88-5.52-17.82-3.05-39.09,6.76-54.86,2.34-3.76-3.59-7.21-5.93-3.46Z"/><path fill="#571519" d="M1640.46,418c1.81,15.56.53,31.09.47,46.71a141.8,141.8,0,0,0,5,38.94c7.51,26.95,20.32,53.2,39.39,73.87,7,7.61,15.43,15.38,25.38,18.87,6,2.12,12.83,1.9,19.12,1.22,23.7-2.54,46.55-12.5,67-24.34,18.55-10.75,35.25-25.75,47.25-43.64,2.47-3.68-3.47-7.12-5.93-3.47a133.72,133.72,0,0,1-34.94,35.09c-19.9,13.6-43.61,24.38-67.44,28.63-6,1.08-12.75,1.88-18.68,1-8.61-1.24-16-7.51-22.09-13.32-19.4-18.6-32.24-43.48-40.36-68.85a136.13,136.13,0,0,1-6.87-40.6c-.16-16.76,1.47-33.44-.47-50.14-.51-4.33-7.37-4.39-6.87,0Z"/><path fill="#571519" d="M1699.54,419.09c2.43,8.15,6.38,18.69,2.92,27.07-2,4.91-7.07,7.39-9.4,12-5.28,10.49,5.39,21.34,14.13,25.62,4,1.93,7.43-4,3.46-5.93a27.26,27.26,0,0,1-9.31-7.28c-3.27-4.13-3.61-8.36.07-12.07,4.2-4.24,7.63-8.41,8.75-14.47,1.63-8.82-1.5-18.43-4-26.8-1.27-4.22-7.89-2.43-6.62,1.82Z"/><path fill="#571519" fill-rule="evenodd" d="M1661.51,430c.21-7.81,4-14.81,9.64-14.65s9.76,6.66,9.54,14.47-4,14.81-9.64,14.65C1666.08,444.31,1662,437.8,1661.51,430Z"/><path fill="#571519" d="M1688.65,375a40.85,40.85,0,0,0-26.05-4.19,29.78,29.78,0,0,0-10.79,4c-3.68,2.41-.25,8.35,3.46,5.92a18.81,18.81,0,0,1,2.35-1.24l.64-.28c-.54.23-.24.09.12,0s1-.38,1.5-.54a32.76,32.76,0,0,1,3.8-1c7-1.45,14.85,0,21.5,3.35a3.51,3.51,0,0,0,4.7-1.23,3.46,3.46,0,0,0-1.23-4.69Z"/><path fill="#571519" d="M1657.64,423.39a23.56,23.56,0,0,1,2.63-1.51l.6-.29c1-.43-.31.11.25-.1s.94-.35,1.42-.49a15.26,15.26,0,0,1,5.63-.8,24.86,24.86,0,0,1,6.55.94,51.83,51.83,0,0,1,8.55,3.06A3.55,3.55,0,0,0,1688,423c.85-1.47.46-3.94-1.23-4.7-5.85-2.63-12.08-4.87-18.57-4.93a25.28,25.28,0,0,0-14,4.12,3.44,3.44,0,1,0,3.47,5.93Z"/><path fill="#571519" fill-rule="evenodd" d="M1770,431.78c.21-7.81-3.85-15-9.53-15.18s-10.82,6.09-11,13.9,3.85,15,9.52,15.18C1764.59,446.55,1769.74,440.3,1770,431.78Z"/><path fill="#571519" d="M1741.92,381c8.48-5,19-3.69,28-1.15a71.71,71.71,0,0,1,15.24,6c3.88,2.12,7.34-3.81,3.46-5.92a80.42,80.42,0,0,0-18-7c-10.56-2.8-22.48-3.57-32.25,2.14-3.81,2.22-.36,8.16,3.47,5.92Z"/><path fill="#571519" d="M1779.69,421.57c-5-3.63-11.35-5.39-17.38-6.15-6.29-.78-13.48-.16-18.69,3.82-1.47,1.12-2.25,2.95-1.23,4.69.84,1.45,3.21,2.37,4.69,1.23,4.24-3.24,9.71-3.6,15-2.9a30.64,30.64,0,0,1,14.15,5.23c1.5,1.09,3.82.26,4.69-1.23a3.49,3.49,0,0,0-1.23-4.69Z"/><path fill="#571519" d="M1863.32,434.08c11.47-6.74,29.45-11.89,37.31,2.69,6.85,12.69.62,30-8.11,40.18a43.07,43.07,0,0,1-25.08,14.26c-4.33.82-2.5,7.43,1.83,6.62,19.78-3.74,35.06-19.25,39.71-38.69,3.58-15-1-33.65-17.78-37.92-10.84-2.77-22.07,1.48-31.34,6.93-3.81,2.24-.36,8.17,3.46,5.93Z"/><path fill="#571519" d="M1876.54,461.59a22.69,22.69,0,0,1,1.58-2.29l-.53.7a20.87,20.87,0,0,1,3.74-3.83l-.69.54a11.7,11.7,0,0,1,2.52-1.51l-.82.34a8.77,8.77,0,0,1,2.09-.59l-.92.13.24,0a3.72,3.72,0,0,0,2.43-1,3.44,3.44,0,0,0,0-4.85,3.3,3.3,0,0,0-2.43-1,12.72,12.72,0,0,0-4.77,1.42,17.9,17.9,0,0,0-3.45,2.49,27.84,27.84,0,0,0-4.25,5,12,12,0,0,0-.66,1,3.43,3.43,0,1,0,5.92,3.46Z"/><path fill="#571519" d="M1693.9,302.27c-6-.58-12.19.19-17.5,3.25-4.73,2.72-8.34,7-11.22,11.54-6.56,10.4-10.1,22.4-17.31,32.43a39.38,39.38,0,0,1-16.95,13.69c-4,1.64-2.27,8.28,1.82,6.61,12.78-5.19,21.14-15.28,27.31-27.3,4.94-9.64,8.47-21.8,17-29.05,4.78-4.08,10.81-4.9,16.89-4.31,4.39.43,4.36-6.43,0-6.86Z"/><path fill="#571519" d="M1720.12,335.87c-3.93-6.78-10.16-15.05-18.78-15.44-8.8-.4-13.19,8.09-16.09,15.05-3.42,8.2-4.83,16.83-6,25.57-1.4,10.06-3.12,20.05-6.48,29.67-3.25,9.31-13.17,19.64-23.84,18.63-4.4-.41-4.37,6.45,0,6.87,10.77,1,21.08-7.29,26.7-15.77,6.45-9.73,8.17-23.08,9.79-34.43,1.5-10.47,2.82-21,7.38-30.63,1.8-3.82,4.5-9.16,9.58-7.92,5.45,1.33,9.27,7.38,11.87,11.86,2.21,3.82,8.14.37,5.92-3.46Z"/><path fill="#571519" d="M1650.58,386.28a26.9,26.9,0,0,1-1.75,10.25,23.72,23.72,0,0,1-4.8,7.76,14.72,14.72,0,0,1-7.26,4.35c-.39.1-.78.18-1.18.25l-.51.09c.34-.05.3-.05-.13,0a23.14,23.14,0,0,1-2.5,0,18.58,18.58,0,0,1-5.21-1.23,3.46,3.46,0,0,0-4.22,2.4,3.51,3.51,0,0,0,2.4,4.22,21.61,21.61,0,0,0,18.94-1.6c5.57-3.46,9.36-9.17,11.39-15.32a34.53,34.53,0,0,0,1.69-11.19c0-4.41-6.91-4.42-6.86,0Z"/><path fill="#571519" d="M1729.92,348.2c6,18.95,15.87,38.89,31.55,51.7,7.21,5.9,14.9,8.3,23.65,11,8.94,2.71,17.84,5.86,25.92,10.63,8.94,5.27,16.37,12.65,19.92,22.56,1.48,4.13,8.11,2.35,6.62-1.82-6.36-17.76-22.14-27.72-39.06-34.1-8.37-3.16-17.93-4.51-25.79-8.79-8.55-4.66-15.27-12.33-20.66-20.31a126.25,126.25,0,0,1-15.53-32.66c-1.33-4.19-8-2.4-6.62,1.83Z"/><path fill="#571519" d="M1845.33,386.92c4,11.22,6.67,23.81,3.31,35.55a26,26,0,0,1-3.55,7.93c-.26.41-.55.81-.84,1.2s.52-.61.13-.16l-.35.43c-.2.22-.39.44-.6.64-3.2,3.06,1.66,7.9,4.86,4.85,3.51-3.35,5.67-8.51,7-13.06,3.68-12.9,1.12-26.85-3.31-39.21-1.48-4.12-8.12-2.35-6.62,1.83Z"/><path fill="#571519" d="M1794.39,199c-.16.38-.18.42-.05.11l-.19.45c-.16.34-.31.68-.48,1q-.39.84-.84,1.65a29.83,29.83,0,0,1-1.91,3c-.5.73.23-.23-.2.28l-.51.61c-.34.4-.7.78-1.07,1.14s-.81.75-1.23,1.12c-.66.59.36-.23-.2.17l-.62.44a21.05,21.05,0,0,1-2.77,1.58c-.17.07-1.08.45-.26.13l-.75.28c-.51.19-1,.37-1.56.53a35.75,35.75,0,0,1-3.68.87c-.61.11-1.23.21-1.85.29.72-.1-.22,0-.37,0l-1.34.13a3.53,3.53,0,0,0-3.43,3.43,3.46,3.46,0,0,0,3.43,3.44c5.65-.53,11.51-1.63,16.25-4.94,5-3.47,8-8.48,10.25-14,.7-1.71-.77-3.77-2.4-4.22-2-.54-3.52.68-4.22,2.4Z"/><path fill="#571519" d="M1805.23,220.45c13.73-3.13,29.81-3.88,43.2.84,9.77,3.44,17.46,11.72,24.7,18.81,7.71,7.55,15.26,15.31,23.91,21.81,9.68,7.27,20.72,12.11,32.93,12.58,4.41.18,4.41-6.68,0-6.86-22.86-.89-38.63-19.48-53.88-34.23-7.4-7.16-15.15-14.73-24.95-18.4-9.21-3.46-19.48-4.05-29.22-3.55a107.79,107.79,0,0,0-18.51,2.38c-4.3,1-2.48,7.6,1.82,6.62Z"/><path fill="#571519" d="M1917.94,286.72c6.72,5.94,12.38,13,14.53,21.91,2.38,9.77.06,19.86-3.43,29.07-1.56,4.13,5.07,5.92,6.62,1.82,3.93-10.39,6.1-21.74,3.43-32.71-2.42-9.95-8.74-18.27-16.3-24.94-3.3-2.92-8.17,1.92-4.85,4.85Z"/><path fill="#571519" d="M1931.41,356.63c3,10.77,2.63,23,1.2,33.93a115.88,115.88,0,0,1-10.49,35c-5.43,11.29-12.9,21.4-19.53,32-2.35,3.76,3.59,7.21,5.93,3.47,7-11.22,14.92-21.92,20.47-34a124.55,124.55,0,0,0,10.37-35.58c1.56-11.85,1.91-25-1.33-36.66-1.19-4.25-7.81-2.45-6.62,1.82Z"/><path fill="#571519" d="M1891.34,479.3a87.27,87.27,0,0,0-7.19,25.7,32.58,32.58,0,0,0,2.68,18.12c1.68,3.42,4.28,6.11,6.65,9,.33.42-.26-.43.23.32a8.18,8.18,0,0,0,.43.7c.33.42,0,0,0-.18a4.65,4.65,0,0,1,0-.83c0-.12.67-1.13.34-.75.29-.33.31-.26.36-.26a10.11,10.11,0,0,0-1,.27,2.66,2.66,0,0,1-.83.07,14,14,0,0,1-1.83,0,21.35,21.35,0,0,1-15.74-9.45c-2.43-3.66-8.38-.22-5.93,3.47a28.89,28.89,0,0,0,17.07,12.14c4,1,11.13,1.85,13.69-2.49,2.27-3.85-1.72-7.5-4-10.19a22.73,22.73,0,0,1-5.44-12.21,41.54,41.54,0,0,1,1.3-13.9,90.25,90.25,0,0,1,5.09-16.08c1.81-4-4.1-7.48-5.92-3.46Z"/><path fill="#571519" d="M1760.71,210.08c-13.61-5.86-27.53-10.43-42.26-5.45-19.43,6.58-31.54,25.72-51.09,32-5.09,1.64-12.21,2.52-16.76-.5-3.69-2.45-7.13,3.49-3.47,5.93,3.46,2.3,8.3,3,12.34,2.88,10.15-.23,19.52-5.5,27.62-11.19,15.6-11,29.83-27.42,50.94-24.22,6.41,1,13.93,4.19,19.21,6.46,4,1.73,7.52-4.18,3.47-5.92Z"/><path fill="#571519" d="M1650.13,256.11c-18.74,10.69-34.59,26.6-39.85,48.06-2.24,9.15-1.49,18.14-2.23,27.4-.84,10.5-4.92,21.3-15.32,25.57-4,1.66-2.27,8.3,1.82,6.62,9.67-4,15.92-11.76,18.65-21.77s1.08-20,2.52-30c3.25-22.51,18.68-39,37.87-50,3.84-2.19.38-8.12-3.46-5.93Z"/><path fill="#571519" d="M1609.3,367.17c-1,6.91-1,13.92,1.61,20.51a50.14,50.14,0,0,0,9.79,15.08c8.22,9.2,17.8,17.17,20.93,29.64,1.08,4.28,7.7,2.47,6.62-1.83-3.08-12.24-11.6-20.87-20-29.75-3.84-4.06-7.53-8.3-10-13.36a31.32,31.32,0,0,1-2.32-18.47c.65-4.32-6-6.18-6.62-1.82Z"/><path fill="#571519" d="M1735.69,305.35c.91-15.16,5.55-30.28,15.83-41.76a57.86,57.86,0,0,1,12-10.23,59,59,0,0,1,5.63-3.2c1.68-.84,2.82-1.35,4-1.83a36.8,36.8,0,0,1,5-1.64c4.31-1,2.49-7.6-1.82-6.62-17.81,4.05-33.33,19.15-40.62,35.35a84.79,84.79,0,0,0-7,29.93c-.26,4.41,6.6,4.39,6.86,0Z"/><path fill="#571519" d="M1730.81,597.53c3.24,10.92,4.4,22.45,5.25,33.76.48,6.48.84,13,.93,19.49.06,4.41,6.92,4.42,6.86,0-.09-6.73-.47-13.46-1-20.17-.9-11.68-2.1-23.64-5.45-34.9-1.26-4.22-7.88-2.42-6.61,1.82Z"/><path fill="#571519" d="M1867.94,513.78c.54,15.92,2.1,31.84,4.2,47.63,2.32,17.5,5.07,35.36,10.91,52.08a106.18,106.18,0,0,0,15.68,29c2.64,3.48,8.6.06,5.93-3.46-11.05-14.57-16.91-30.85-20.7-48.53a441,441,0,0,1-7.67-53.66c-.68-7.68-1.23-15.37-1.49-23.08-.15-4.41-7-4.43-6.86,0Z"/><path fill="#571519" d="M1736.44,627.71c-.36.4-.75.77-1.14,1.13s-.92.84-1.4,1.24l-1,.83-.57.45c-.18.14-.91.74-.08.07-5.11,4.17-11.07,7.48-16.87,10.55a3.46,3.46,0,0,0-1.23,4.7,3.51,3.51,0,0,0,4.69,1.23,120.09,120.09,0,0,0,17-10.68,38.18,38.18,0,0,0,5.41-4.67,3.43,3.43,0,0,0-4.85-4.85Z"/><path fill="#571519" d="M1718,505.11c-11.12-.58-22.62-.43-33.61,1.64-1.88.36-2.78,2.54-2.39,4.22,2.32,10.23,9.27,20.36,18.35,25.62a33.28,33.28,0,0,0,26.18,3.1c7.66-2.43,14-7.71,18.94-14a55.73,55.73,0,0,0,7.73-12.84,3.42,3.42,0,0,0-2.4-4.22C1740,507,1729,505.82,1718,505.11c-4.41-.29-4.39,6.58,0,6.86,10.36.67,20.72,1.73,31,3.31l-2.4-4.22c.69-1.64.17-.37,0,0-.33.67-.65,1.34-1,2a57,57,0,0,1-3.6,6c-3.67,5.32-8.47,10.16-14.38,13-13.57,6.41-28.29-1.09-35.16-13.34a36.18,36.18,0,0,1-3.82-9.46c-.79,1.41-1.59,2.81-2.39,4.22,10.36-2,21.3-1.94,31.78-1.4C1722.45,512.2,1722.44,505.34,1718,505.11Z"/><path fill="#571519" d="M1413.5,829.26a83.32,83.32,0,0,1-12.54-.15,67.56,67.56,0,0,1-10.36-2.56c-7.63-2.16-15.29-4.24-22.93-6.41-4.17-1.18-8.33-2.38-12.48-3.63-3.07-.92-5.2-1.71-7.25-4.25-4.21-5.21-5.69-12.94-2.48-19,2.09-3.89-3.84-7.36-5.92-3.46-3.8,7.11-3.29,15.33.31,22.43a22.17,22.17,0,0,0,6.52,7.92c3.42,2.49,8,3.25,12,4.42,9.3,2.72,18.65,5.26,28,7.88a107.93,107.93,0,0,0,11.84,3.11,79,79,0,0,0,15.3.53c4.41-.16,4.43-7,0-6.87Z"/><path fill="#571519" d="M1404.48,794c-15.85-6-32.76-4-49.32-4.75-7.44-.32-15-2-17-10.13-1.31-5.23-2-12.49,2.3-16.56,3.23-3-1.64-7.87-4.85-4.85-5.18,4.87-5.66,12-4.86,18.61,1.06,8.81,5.27,15.67,14.08,18.3s18.63,1.56,27.65,1.63c10.28.07,20.5.7,30.21,4.36,4.14,1.57,5.92-5.07,1.82-6.61Z"/><path fill="#571519" d="M1401.23,759.12c-12.43-.47-24.89-.37-37.33-.65-5.82-.14-11.66-.23-17.46-.7-2.92-.24-7.32-.36-9.44-2.59-1.39-1.46-1.8-5.06-2.17-7.14-.46-2.61-1.63-7.2-.7-9.8.79-2.18,6.34-4.78,8.9-5.87,4-1.73.56-7.64-3.46-5.93-3.71,1.58-7.68,3.83-10.28,7-2.1,2.52-2.2,5.41-2,8.54.35,6.47.9,16.11,7.17,19.77,5.82,3.4,13.9,3.1,20.46,3.34,8.14.3,16.28.41,24.42.53,7.3.11,14.61.11,21.91.38,4.42.16,4.41-6.7,0-6.86Z"/><path fill="#571519" d="M1399,726.23c.26-.35-1.22.38-1.73.53a26.45,26.45,0,0,1-4.92.81,123.74,123.74,0,0,1-13.48.29c-9.51-.21-19-1-28.48-1.47-2.45-.12-4.9-.2-7.34-.47a35.94,35.94,0,0,1-4-.69c-.61-.13-1.46-.66-1-.18-1.62-1.81-1.38-6.42-1.42-8.61a37.07,37.07,0,0,1,1.11-10.81c1.07-3.78,3.73-4,7.65-4.74,12-2.31,24.52-1.94,36.66-1.29,12.78.69,26.07-.28,38.63,2.57,5.67,1.29,12.28,3.34,16.31,7.8,4.47,4.94,1.27,11.33.77,17.1-.55,6.32,2.83,10.84,4.85,16.51s.54,12-.79,17.68a36.67,36.67,0,0,0-1.22,7c-.09,2.87.52,5.67.23,8.56-.49,4.83-2.56,9.33-3.15,14.15s-.21,9.56-1.58,14.43c-.89,3.19-2.59,9.66-6.3,10.71-4.25,1.19-2.44,7.82,1.82,6.61,8.81-2.48,11.88-15.62,12.59-23.46.24-2.6-.06-5.21.29-7.81a59.15,59.15,0,0,1,1.93-7.85,40.23,40.23,0,0,0,1.3-7.29c.23-3.07-.54-6.15-.16-9.18.78-6.19,3-11.93,2.84-18.28a24.73,24.73,0,0,0-2-9.25c-1.5-3.49-3.76-6.83-3.84-10.74-.14-6.8,3.43-12.89.25-19.56-2.71-5.7-8.63-9-14.25-11.29-14.27-5.74-30.13-4.36-45.16-5.13-14.07-.72-28.48-1.39-42.38,1.46-4.28.88-8.69,2.19-10.73,6.34-1.81,3.66-2.25,8.09-2.45,12.12a39.48,39.48,0,0,0,1,12.54c1.16,4,3.31,5.84,7.43,6.71,6.3,1.32,12.92,1.18,19.33,1.58s12.81.8,19.23,1a115.18,115.18,0,0,0,17.91-.5c3.8-.49,7.78-1.24,10.2-4.48,2.64-3.54-3.31-7-5.93-3.46Z"/><path fill="#571519" d="M1399,891c-2.08-3.59-3.27-7.76-4.54-11.73-2-6.24-3.7-12.56-5.29-18.91s-3-12.72-4.14-19.15c-.7-4-1.57-8.32-1.15-12.41.45-4.39-6.41-4.36-6.86,0s.53,9.22,1.28,13.6c1.14,6.65,2.63,13.24,4.26,19.78s3.42,13.09,5.49,19.53c1.37,4.29,2.75,8.83,5,12.76s8.15.36,5.93-3.47Z"/><path fill="#571519" d="M1467.26,841.44c5.76,15.18-8.31,29-20.09,36.2-10.4,6.39-22.29,10.75-34.15,13.53-6,1.41-12.13,1.83-18.07-.21a36.86,36.86,0,0,1-15.81-10.66c-2.88-3.36-7.71,1.51-4.85,4.85,6.78,7.91,17.41,13.59,27.87,14.08,11.1.52,22.9-3.9,33-8,14-5.69,29.19-14.4,36.44-28.36,3.55-6.86,5-15.93,2.27-23.24-1.55-4.09-8.19-2.32-6.62,1.82Z"/><path fill="#571519" d="M1438.15,794.41c2.92,11.88,7.58,23.52,11.78,35,2.5,6.81,5,13.61,7.81,20.33,1.62,3.94,3.08,8.55,5.65,12s8.57.08,5.93-3.47c-2.41-3.23-3.8-7.51-5.3-11.21-2.72-6.67-5.26-13.43-7.73-20.2-4.11-11.24-8.66-22.64-11.53-34.27-1-4.29-7.67-2.47-6.61,1.82Z"/><path fill="#571519" d="M1418.66,693.24c-2.91-2.81-2.86-7-2.85-10.76a118.1,118.1,0,0,1,.8-12.75c1-8.5,2.61-16.9,3.92-25.34,1.86-12,5.91-29.94-4.17-39.63-10.68-10.26-24.49.17-30.35,10.19-6.88,11.76-10.16,26-10.42,39.59-.15,7.58.66,14.7-2.2,22-2.72,6.9-7.78,12.37-13.46,17-3.43,2.79,1.46,7.61,4.85,4.85,9.2-7.47,15.9-17.21,17.46-29.13.84-6.4-.06-12.83.43-19.26a83,83,0,0,1,3.82-19.1c2-6.16,4.7-12.73,9.07-17.61,4-4.45,11.22-8.51,16.28-3.28,4.31,4.45,4.15,11.5,3.82,17.22a221,221,0,0,1-3.14,23.9,242.34,242.34,0,0,0-3.39,25.74c-.42,7.24-1,15.81,4.68,21.28,3.17,3.07,8-1.78,4.85-4.86Z"/><path fill="#571519" d="M722.76,768.38c11.26-10,16-25.54,24.47-37.7,4.43-6.37,10.23-12.47,17.52-15.52,5.42-2.27,11.68-2.24,17.43-1.86,15.93,1.05,31.7,6,46.68,11.23,12.54,4.38,25.75,9,37.42,15.41,7,3.85,9.63,10.73,9.12,18.41a36,36,0,0,1-1.54,7.94c-.27.88-.58,1.73-.88,2.6s-.18.48-.15.41c-1.79,4,4.12,7.49,5.92,3.46,4.13-9.25,5.54-21.46,0-30.39-3.9-6.24-10.26-9.12-16.71-12q-10.37-4.62-21-8.67c-16.2-6.2-33-11.8-50.2-14.31-7.29-1.06-14.71-1.65-22-.42s-13.89,5.28-19.26,10.39c-7.08,6.74-12,15.4-16.61,23.91-4.25,7.81-8.28,16.25-15,22.26-3.3,3,1.56,7.79,4.85,4.85Z"/><path fill="#571519" d="M781,756.15c24.89,2.1,49.75,8,73.32,16.19,4.26,1.48,8.51,3,12.64,4.85,3.55,1.55,7.84,3.17,9.5,7,3.36,7.7-4.09,17.77-8.83,23.18l3.34-.88c-10.67-3.05-21.58-5.43-32.49-7.5-20.15-3.81-41-6.66-61.52-5.15-4.38.33-4.42,7.19,0,6.87,20.28-1.5,40.8,1.27,60.69,5.09,10.57,2,21.14,4.35,31.5,7.31a3.39,3.39,0,0,0,3.34-.89c9.87-11.27,18.79-30.83,1.05-39.5-16.82-8.22-35.67-13.16-53.84-17.26a287.54,287.54,0,0,0-38.7-6.15c-4.4-.37-4.37,6.5,0,6.87Z"/><path fill="#571519" d="M866.19,816.52c1.71,5.64-1.33,12.68-5.17,16.75-5.12,5.44-12.2,5.34-19.13,4.91-8.19-.5-16.34-1.67-24.51-2.4a223.77,223.77,0,0,0-34-.58c-4.39.28-4.42,7.14,0,6.86a232.56,232.56,0,0,1,37.41.9c8.83.86,17.73,2.34,26.62,2.25,8.53-.08,15.86-3,20.94-10.05,4-5.57,6.56-13.69,4.51-20.46-1.28-4.22-7.91-2.42-6.62,1.82Z"/><path fill="#571519" d="M848.19,846.6c.13,7.31-1.73,15.37-7.66,20.2s-15.25,5.27-22.52,6a187.31,187.31,0,0,1-32.21.47c-4.82-.33-10-.44-14.73-1.53.85.2.25.15-.37-.19s-1.33-.71-2-1.11c-13.82-8.54-18.23-26.74-19.86-41.75-.91-8.45,1.29-15.89,2.49-24.11a24.26,24.26,0,0,0-.37-9.82c-.55-2.09-1.44-4-1.59-6.2a22,22,0,0,1,1.13-7.72c3.25-10.8,10.08-19.58,9.29-31.34-.36-5.41-1.88-10.61-2.55-16a18.8,18.8,0,0,1,5-15.82c2.92-3.3-1.91-8.17-4.85-4.86-3.77,4.25-6.55,9-7.12,14.73-.49,4.87.66,9.72,1.58,14.47,1,5.39,1.91,11.09.35,16.45-1.5,5.18-4.2,10-6.26,14.92s-3.88,10.57-3.35,16.14c.38,4.1,2.4,7.64,2.21,11.82-.16,3.69-1.32,7.3-2,10.92a56.63,56.63,0,0,0-1,14.64c1.31,17.76,6.77,38.06,22.27,48.68,4.86,3.33,9.66,3.44,15.57,4a194.46,194.46,0,0,0,36.51.22c9.29-.87,20.53-1.5,28.17-7.4,7.87-6.07,10.86-16.26,10.69-25.87-.07-4.41-6.94-4.43-6.86,0Z"/><path fill="#571519" d="M828.41,717.51c-2.19-18.7,2.84-36.93,5-55.38,1.78-15.5,1-33.88-10.13-46.1-7.49-8.26-18.72-7.52-24.84,1.83-3.94,6-4.44,13.14-5.53,20q-2,12.52-4.9,24.88a208.15,208.15,0,0,1-7.55,25.41c-2.14,5.66-4.63,12-9,16.36-3.15,3.11,1.7,8,4.85,4.86,7.89-7.78,11.46-20.32,14.54-30.61a296.44,296.44,0,0,0,9.46-44.22c.76-5.41,1.75-11.71,6-15.58,3-2.72,6.66-2.63,9.86-.23,5.21,3.88,7.94,11.11,9.51,17.15,2,7.71,1.87,15.79,1.1,23.66-1.87,19.36-7.52,38.34-5.22,57.93.51,4.34,7.38,4.39,6.86,0Z"/><path fill="#571519" d="M757.21,863.5c-6.75-4.14-15.27-5.23-23-6.34-7.93-1.13-16.1-1.65-23.86-3.73-4.27-1.15-6.09,5.47-1.82,6.62,7.55,2,15.49,2.55,23.22,3.64,7.23,1,15.58,1.84,22,5.73,3.77,2.31,7.22-3.62,3.46-5.92Z"/><path fill="#571519" d="M733.49,737.26c-11.69,5.24-16.11,20.79-19.91,31.88A197.74,197.74,0,0,0,704,813.27a192.22,192.22,0,0,0-.91,23.51c.16,7.16.44,14.62,2.59,21.51,3.57,11.44,12.92,20.11,24.29,23.63s28.61,1.59,32.7-11.72c1.3-4.23-5.32-6.05-6.61-1.83-3.15,10.24-18.52,9.25-26.31,6.23-10.22-4-16.81-12.61-18.69-23.28-2.17-12.33-1.44-25.66-.19-38.05a188.73,188.73,0,0,1,7.59-37,172.22,172.22,0,0,1,7.33-19.68c2.46-5.49,5.43-10.81,11.15-13.37,4-1.81.53-7.72-3.47-5.93Z"/><path fill="#571519" d="M739.67,732.3a233.94,233.94,0,0,0-30.14-11.7c-10.61-3.37-21.41-6.8-32.36-8.87-17.74-3.34-38.13-1.39-49.52,14.32-2.6,3.58,3.35,7,5.92,3.47,10.71-14.77,31.62-13.71,47.34-10,18.78,4.46,37.87,10.34,55.3,18.69,4,1.89,7.45-4,3.46-5.93Z"/><path fill="#571519" d="M741.85,878.57q-25.65,3.7-51.49,5.78c-16.92,1.35-34.05,2.62-51,2.4a62.54,62.54,0,0,1-23.28-4.3,93.84,93.84,0,0,1-19.16-11.27c-11-8-21.54-16.77-32.61-24.77a387.19,387.19,0,0,1-33.37-26.68c-3.27-3-8.14,1.89-4.86,4.85a367.12,367.12,0,0,0,30.86,24.94c11.32,8.2,22.28,16.8,33.4,25.26,12.24,9.31,25.51,16.85,41.05,18.42,8.73.87,17.61.32,26.35,0q13.37-.54,26.72-1.51,29.73-2.16,59.25-6.47c4.35-.63,2.5-7.24-1.83-6.62Z"/><path fill="#571519" d="M688.09,716.06a157.39,157.39,0,0,0-3.55-41.79c-2.78-13.06-6.81-26.13-13.16-37.92-9.21-17.14-23.65-28.58-42.09-34.43-4.22-1.33-6,5.29-1.82,6.62,17.19,5.45,30.12,16.19,38.5,32.24,5.87,11.22,9.51,23.64,12.09,36a149.92,149.92,0,0,1,3.17,39.29c-.26,4.41,6.6,4.4,6.86,0Z"/><path fill="#571519" d="M855.57,655.19c5.27,20.8,10,51-10.1,65.78-3.52,2.58-.1,8.54,3.47,5.92C872,710,868.37,677.78,862.19,653.36c-1.08-4.27-7.7-2.46-6.62,1.83Z"/><path fill="#571519" d="M781.71,698.15a520,520,0,0,1-33.37-52.54q-7.43-13.44-14-27.32c-3.65-7.66-10.28-19.2-2.89-26.71,3.1-3.15-1.75-8-4.85-4.85-7.18,7.29-5.85,17.55-2.21,26.23,4.28,10.25,9.49,20.19,14.73,30a516.28,516.28,0,0,0,36.7,58.68c2.56,3.55,8.52.13,5.93-3.46Z"/><path fill="#571519" d="M856.46,656.7c13.5,12.09,28.51,22.41,42.41,34,6.43,5.37,12.79,10.95,18.15,17.41a116,116,0,0,1,10,13.9c3.06,5.05,5.31,10.5,8,15.75C941.27,750,948.53,761.64,954.4,774c1.9,4,7.81.51,5.93-3.47-5.27-11.12-11.65-21.65-17.41-32.51-5.51-10.37-10.06-20.7-17.29-30.06-11.42-14.8-26.48-26-41.14-37.44-7.84-6.08-15.79-12.08-23.18-18.7-3.29-2.94-8.15,1.9-4.85,4.85Z"/><path fill="#571519" d="M505.1,1090c.67-15.93.6-31.87,1.39-47.81.79-16.14,1.77-32.27,2.16-48.43.5-21.06-.9-42-1.77-63-1.61-38.73-2.87-77.54-2.85-116.3,0-15.78.32-31.33-1-47.08-1.7-20.79-2.32-41.27,1.2-61.94,5.89-34.54,18.4-70.14,46.09-93.26,16.48-13.75,37.27-21.15,58.52-22.9,15.73-1.3,31.55-.86,47.29-.28,7.77.28,15.51-.27,23.26-.54a210.06,210.06,0,0,1,23.8.9l24.15,1.92c4.4.35,4.38-6.51,0-6.86C711,583.14,694.43,581,678,581.67c-8,.32-16,.72-24,.39s-16.26-.51-24.4-.43c-24.47.21-48.57,3.12-70,15.76C530.67,614.42,513,644.44,504,676c-6.75,23.72-10.25,48.1-9.11,72.77.83,17.87,2.84,35.46,2.41,53.38-.89,37.49.77,75.16,2.12,112.63.64,17.86,1.93,35.72,2.41,53.58.88,32.87-2.32,65.65-3.15,98.47-.2,7.74-.1,15.47-.42,23.2-.19,4.42,6.67,4.41,6.86,0Z"/><path fill="#571519" d="M943,936.15c-4,30.29-9.92,60.34-18.66,89.64-5.94,19.92-13.37,39.33-19.8,59.09a317.05,317.05,0,0,0-13.87,62.82c-1.71,15.09-1.5,30.22-2.55,45.35-.52,7.48-1.17,15.56-3.94,22.61-2.44,6.21-8,10.41-13.65,13.52-12.58,6.9-27.4,11.19-41.27,14.49a296.49,296.49,0,0,1-51.45,7.14c-29.68,1.72-59.35-.43-89-2.25-28.2-1.73-56.39-3.68-84.53-6.11-24.51-2.12-49.09-4.41-73.39-8.28a206.1,206.1,0,0,1-23.87-4.89,44.8,44.8,0,0,1-6.88-2.41c-.59-.29-2-1.13-2-1.12a37.48,37.48,0,0,1-5.93-7c-2.57-4-4.1-8.35-3.65-13.11.53-5.62,1.47-13.83,2.37-20.19,2.63-18.46,6.51-36.71,9.54-55.11,1.46-8.8,2.7-17.64,3.59-26.52.45-4.39-6.42-4.35-6.86,0-2,19.44-5.83,38.58-9.28,57.79-1.7,9.52-3.28,19.07-4.5,28.68-.56,4.34-.9,8.71-1.41,13.06.15-1.3-.06.32-.1.61a28.12,28.12,0,0,0-.3,3c-.28,9.32,5.95,20.53,14,25.21,5.13,3,11.42,4.27,17.14,5.52,21.86,4.8,44.37,7,66.6,9.23,28.6,2.85,57.27,5,86,6.92,63,4.19,128.37,10.86,189.07-10.64,12.16-4.31,26.2-9,33.68-20.35,4-6.12,5.17-14,6.07-21.13,1.06-8.4,1.29-16.88,1.52-25.35a305.59,305.59,0,0,1,10.56-73.53c5.55-20,13.11-39.36,19.62-59.06a552.28,552.28,0,0,0,19.94-80.55c1.54-9,2.87-18.09,4.07-27.16.59-4.37-6.28-4.32-6.86,0Z"/><path fill="#571519" d="M921.8,802.32c2.13,12.18,6.24,23.86,9.8,35.65a296.85,296.85,0,0,1,10.77,50.63c.52,4.33,7.39,4.38,6.86,0a306.18,306.18,0,0,0-10.74-51.55C934.86,825,930.6,813,928.42,800.5c-.76-4.34-7.37-2.5-6.62,1.82Z"/><path fill="#571519" d="M494.89,1229.8c-12.41,19.58-20.84,41.61-27.83,63.62a650.31,650.31,0,0,0-18.78,76.76c-9.7,51.76-13.9,103.84-16.08,156.4-1.42,34.56-2.4,69.18-5.36,103.66-.38,4.4,6.49,4.37,6.86,0,5.08-59.26,4.25-118.88,9.86-178.09,4.69-49.46,13-99.11,27-146.82,7.32-24.93,16.24-50,30.21-72.07,2.38-3.74-3.56-7.19-5.92-3.46Z"/><path fill="#571519" d="M873.24,1231.38c2.35,6.57,3.49,13.58,4.52,20.44,1.53,10.24,2.51,20.57,3.35,30.89,2.3,28.4,3.36,56.91,4.12,85.39.88,32.81,1.23,65.63,1.28,98.46q.07,45.59-.67,91.18c-.35,21.2-.76,42.4-1.71,63.58-.07,1.64-.15,3.29-.23,4.93-.23,4.41,6.63,4.4,6.86,0,1-19.69,1.41-39.41,1.78-59.12q.84-44.7.84-89.41c0-32.89-.25-65.78-1-98.66-.68-29.43-1.67-58.89-3.78-88.26-1.37-19-2.39-38.93-7.51-57.38-.37-1.3-.76-2.59-1.22-3.86-1.47-4.13-8.11-2.35-6.62,1.82Z"/><path fill="#571519" d="M614,590.25c20.79,1,39.86,11.45,53.93,26.48,15.55,16.61,24.94,39.52,29.84,61.48A126,126,0,0,1,700,720.14c-.5,4.38,6.37,4.34,6.87,0,3-26.55-2.95-53-14-77.13-9.47-20.66-23.71-38.66-43.93-49.68a81.1,81.1,0,0,0-35-9.94c-4.41-.21-4.4,6.65,0,6.86Z"/><path fill="#571519" d="M655.24,588.9c8.56,2.91,16.6,8.17,23.84,13.49a66.52,66.52,0,0,1,10,8.73c3.43,3.78,6.11,8.45,8.75,12.8a158.16,158.16,0,0,1,21.7,61.56,209.09,209.09,0,0,1,.94,41.1c-.3,4.41,6.56,4.39,6.86,0,1.66-24.59-.24-49.55-8.13-73A165,165,0,0,0,705,622.47c-5.34-9.06-10.93-17.09-19.25-23.6-8.59-6.71-18.27-13-28.65-16.59-4.19-1.43-6,5.2-1.83,6.62Z"/><path fill="#571519" d="M493.06,743.08q-8.08,40.06-16.18,80.13-1.15,5.67-2.29,11.35a3.48,3.48,0,0,0,5,3.87c7.38-3.46,15-6.69,22.12-10.72,3.84-2.18.38-8.11-3.47-5.92-7.1,4-14.73,7.25-22.12,10.72l5,3.87q8.1-40.07,16.19-80.13,1.14-5.67,2.29-11.35c.87-4.31-5.74-6.16-6.62-1.82Z"/><path fill="#571519" d="M494.78,735c-28.88,11-57.82,21.92-86.4,33.69-3.9,1.61-8.64,2.93-11.92,5.72-5.85,5-10.07,12.35-14,18.83-12.49,20.55-22.89,42.53-32.16,64.68-4.49,10.74-8.78,21.65-11.17,33.07-1.86,8.88-2.49,18.79,2.65,26.75,4.41,6.82,11.59,10.88,19.74,9.72,4.36-.61,2.51-7.22-1.82-6.61-7.51,1.06-13.25-6.47-14.61-13-1.65-7.88.7-16.38,2.89-23.94a231.14,231.14,0,0,1,9.27-24.94c8.84-21,18.8-41.72,30.52-61.23,3.77-6.28,7.71-13.31,13.28-18.22.8-.7-.21,0,.84-.56.7-.35,1.4-.67,2.11-1,2.22-1,4.2-1.81,6.45-2.73,16.25-6.69,32.66-13,49.05-19.34Q478,748.69,496.6,741.6c4.09-1.56,2.32-8.19-1.82-6.61Z"/><path fill="#571519" d="M428.48,788.81c-7.23,1-13.92,3.2-19.52,8-4.73,4-8,9.53-10.48,15.16-2.79,6.37-4.82,13-7,19.62q-5.24,15.63-10.48,31.26Q360.48,924,340,985.14c-6.78,20.23-14.65,40.45-19.37,61.29-4.09,18.06-4.9,36.94,1.7,54.51,10.65,28.35,36.58,50.92,66.19,57.42,35.65,7.83,75.64,0,107.2-17.67,3.86-2.16.4-8.09-3.46-5.93-27.49,15.37-60.73,22.38-92.08,18.65-28.61-3.4-54.43-20.76-67.75-46.49-18-34.74-1.58-72.92,9.83-107q19.35-57.71,38.69-115.42c6.72-20,13.36-40.1,20.14-60.12,2.15-6.37,4.49-12.95,8.58-18.37,4.61-6.1,11.35-9.39,18.84-10.39,4.31-.58,4.37-7.45,0-6.86Z"/><path fill="#571519" d="M451,797.41a34.14,34.14,0,0,1,5.26,3.08l.68.5c-.65-.47.09.08.18.15.36.29.71.58,1.06.89.8.7,1.57,1.44,2.3,2.22s1.36,1.52,2,2.3c.26.32-.33-.44.05.08.17.22.33.45.49.67.3.42.59.84.86,1.27.55.85,1.07,1.74,1.54,2.64.23.45.46.91.68,1.37.11.25.23.5.34.76-.25-.55,0-.07.08.21.66,1.66,2.32,3,4.22,2.39,1.61-.52,3.11-2.44,2.4-4.22a37.82,37.82,0,0,0-18.69-20.24,3.51,3.51,0,0,0-4.69,1.23c-.81,1.53-.5,3.88,1.23,4.7Z"/><path fill="#571519" d="M463.26,837.74q-18.4,62.44-34.55,125.52-8,31.18-15.4,62.49-3.71,15.66-7.27,31.34c-2.27,10-4.94,20-6.5,30.09-1.46,9.52-1.27,19.52,4.57,27.64,5.47,7.6,14,12.06,22.25,16,4,1.87,7.46-4,3.46-5.92-7.12-3.36-14.93-7-19.78-13.51-5.56-7.39-4.94-16.95-3.32-25.56,3.76-20,8.85-39.86,13.56-59.67q14.16-59.7,30.37-118.9,9.28-33.91,19.22-67.66c1.25-4.25-5.37-6.06-6.61-1.82Z"/><path fill="#571519" d="M342,916.76l-.51,13.15c-.14,3.62-.42,7.27-.21,10.89.36,6.23,2.19,13,8.16,16.09,3.92,2,7.39-3.89,3.46-5.92-4.35-2.25-4.78-7.84-4.83-12.21-.08-7.32.51-14.69.79-22,.17-4.41-6.69-4.41-6.86,0Z"/><path fill="#571519" d="M340.52,1081.77c6.14-8.43,18.3-7,26.51-2.94,7.54,3.76,14.79,10.59,15.31,19.49.26,4.38,7.12,4.41,6.86,0-1.4-23.89-38.95-41.52-54.6-20-2.61,3.58,3.34,7,5.92,3.46Z"/><path fill="#571519" d="M1483.65,904.82c-.72,5.52-5.43,10.14-9.46,13.53-5.82,4.9-12.73,8.61-19.66,11.69a103.69,103.69,0,0,1-21.17,6.87c-4.73,1-10.38,2-15,.33-4.16-1.5-6,5.13-1.82,6.62s9,1.13,13.26.56a91.44,91.44,0,0,0,18-4.41c12.29-4.25,25-10.31,34.31-19.63,4.32-4.32,7.59-9.42,8.39-15.56.57-4.36-6.3-4.32-6.86,0Z"/><path fill="#571519" d="M1209.2,686.32c-9.23-3.29-15.63,14.33-18.15,20.13-2.39,5.47-4.54,11-6.78,16.58-.59,1.48-1.22,2.93-1.89,4.37a4.15,4.15,0,0,1-.42.81c-.53.65-.09,0,.06,0,.65-.1-2.43-1.13-1.63-.75a25.21,25.21,0,0,1-4.83-3c-16.14-12.82-28.38-31.87-34.09-51.61-1.5-5.18-2.78-10.52-3.9-15.79a30,30,0,0,1-.61-11.58c1.06-5.84,4.41-11,8.07-15.6,6.8-8.48,15.06-15.79,23.27-22.86,3.35-2.88-1.52-7.72-4.85-4.85-11.94,10.28-26.65,22.19-32.06,37.63-3.31,9.43-.51,18.86,1.76,28.16A116.29,116.29,0,0,0,1162.72,722a68.8,68.8,0,0,0,11.66,10c3.23,2.07,8.92,4.2,12.3,1.2,2.65-2.34,3.76-7.25,5-10.38,2.65-6.65,5.23-13.35,8.43-19.75a46,46,0,0,1,4.68-8,21.66,21.66,0,0,1,1.87-2c.48-.44.45-.31.74-.39-.24.07-.31,0,0,.13,4.16,1.49,6-5.14,1.82-6.61Z"/><path fill="#571519" d="M1287,691c1-.08,0,.08.27,0a1.71,1.71,0,0,1,.4.13c-.23-.27-.58-.25-.22-.06a2.67,2.67,0,0,1,.51.31c.39.34-.64-.56,0,0,.35.32.69.65,1,1a11.32,11.32,0,0,1,1.5,1.95c.74,1.09,1.41,2.22,2,3.37a148.44,148.44,0,0,1,7.07,15.38c2,4.9,3.88,9.94,6.36,14.64a14.14,14.14,0,0,0,2.76,3.94c2.11,1.92,5.19,1.82,7.8,1.24a34.3,34.3,0,0,0,10.38-4.76,40.93,40.93,0,0,0,8.19-6.39c3-3.22-1.82-8.09-4.85-4.85a34.67,34.67,0,0,1-14.66,9.15c-.38.11-1.39.35-1.42.35s-1.48.17-.89,0c-.19,0-.43-.18.2.27-.22-.16-.8-1-.16-.1a26.18,26.18,0,0,1-2.43-4.4c-4.59-9.76-7.79-20.4-13.44-29.75-2.16-3.56-5.61-8.67-10.43-8.32-4.37.33-4.41,7.19,0,6.87Z"/><path fill="#571519" d="M1175.76,592.51c-9.7,6.26-14.74,18.68-12.85,30,1.69,10.09,6.27,20.14,11.74,28.71a59.84,59.84,0,0,0,23.95,21.92c4.61,2.35,9.29,4.59,13.8,7.14,6,3.38,8.82,10,11.92,15.9,3.72,7.06,7.14,14.27,10.58,21.47,1.68,3.5,3.35,7,5.08,10.48,1.47,3,2.66,6.25,5.83,7.75,6,2.87,9.83-2.26,12.19-7,3-6.17,5.71-12.53,8.52-18.81,4.71-10.55,10.17-23.92,19.31-30.07s18.15-12.23,26.22-19.67c10.77-9.94,18.18-22.8,22.94-36.61,4.33-12.57,4.72-27-7.71-34.92-3.32-2.1-6.88,2.66-4.16,5.39,14,14.06,27.76,28.36,41.77,42.41,3.12,3.13,8-1.72,4.85-4.85-14-14.05-27.76-28.36-41.76-42.41-1.39,1.8-2.78,3.59-4.16,5.39,10.16,6.45,7.55,19.06,4,28.67-4,10.84-9.74,21.34-18,29.52-7.53,7.48-16.21,13.63-25,19.49a45.13,45.13,0,0,0-8,6.12,64.72,64.72,0,0,0-9.91,14.73c-5.76,11-10,22.8-15.71,33.88-1.23,2.37-2.09,3.68-3.66.83-1.83-3.31-3.38-6.79-5-10.19-3.18-6.62-6.31-13.27-9.62-19.84-3-6-6-12.41-10.14-17.74-3-3.84-6.89-5.88-11.1-8.07-8.26-4.3-16.86-7.75-23.45-14.54-8-8.23-13.66-19-17-29.94-1-3.36-2.07-7-1.92-10.5.3-7.21,3.78-14.72,9.91-18.69,3.7-2.38.27-8.33-3.46-5.92Z"/><path fill="#571519" d="M1462,1091.22c-15-11-25.29-26.89-33.79-43.16a283.37,283.37,0,0,1-21.32-54.51c-2.5-8.94-4.66-18-6.56-27.07-1.77-8.46-2.65-17.36-5.16-25.63-4.45-14.64-7.32-29.74-11-44.58-1.39-5.52-2.69-11.13-5-16.31-2.46-5.54,2.09-11.14,6.61-14.58,3.46-2.65,0-8.61-3.47-5.93-5.48,4.18-10.75,9.73-10.73,17.1,0,3.59,1.76,6.45,2.74,9.66C1379,901.9,1382,918.1,1386.08,934c.83,3.21,1.71,6.42,2.69,9.59,1.52,4.89,2,10.22,3,15.25,1.91,10,4.08,20,6.64,29.81a298.5,298.5,0,0,0,21.12,57.55c9.6,19.36,21.35,38,39,51,3.55,2.63,7-3.33,3.46-5.93Z"/><path fill="#571519" d="M1416.45,646.59c20.67,4.08,41.33,8.8,61.35,15.44,17.66,5.86,34.92,13.9,48.1,27.36,26.43,27,32.86,66.65,33.5,102.9.39,21.47-.89,42.93-.69,64.4.21,21.65,1.52,43.26,3.12,64.84,1.58,21.29,3.92,42.64,4.06,64,.14,20.64-2.73,40.79-10.14,60.13A169.76,169.76,0,0,1,1541,1075c-5.78,9.23-12.85,18.07-22.55,23.37-18.08,9.88-40.58,4.17-56.51-7.18-3.6-2.56-7,3.39-3.46,5.93,14.6,10.41,33.6,15.87,51.36,11.77,19.9-4.6,32.49-21.6,41.85-38.54,9.77-17.67,16.7-36.89,19.41-56.94,3-22.53,1.2-45.26-.56-67.82-1.79-22.83-3.61-45.67-4.48-68.56s-.08-45.53.21-68.33c.49-38.84-2.49-80.63-26.21-113.11-12.66-17.34-30.18-28.71-50-36.46-23-9-47.6-14.41-71.81-19.19-4.31-.85-6.16,5.76-1.82,6.62Z"/><path fill="#571519" d="M1380,633.15c-4-.67-7.85-1.65-11.8-2.31-2.13-.36-4.39.89-4.34,3.31.25,14.79-2.87,30.74-9.66,43.89-2,3.91,3.9,7.39,5.93,3.46a96.4,96.4,0,0,0,9.38-31.22,106.23,106.23,0,0,0,1.21-16.13l-4.35,3.31c4,.66,7.85,1.64,11.8,2.31,4.33.74,6.18-5.88,1.83-6.62Z"/><path fill="#571519" d="M1550.68,1016.49c2.76-19.31,5.62-40.18-1.3-59-4.45-12.1-13.31-21.26-21.69-30.74-5.92-6.68-11.86-13.34-17.75-20.06-13.59-15.5-22-34.82-30-53.63-4.49-10.61-9.35-29.59-25.26-25-4.24,1.23-2.43,7.85,1.82,6.62,5.22-1.51,9.27,2.52,11.49,6.88,2.58,5,4.41,11.19,6.73,16.58,7.55,17.56,15.45,35.42,27.7,50.27,5.5,6.65,11.41,13,17.13,19.46,6.84,7.73,14.88,15.45,20,24.45,10.59,18.74,7.45,42,4.54,62.3-.61,4.32,6,6.19,6.62,1.83Z"/><path fill="#571519" d="M1246.34,732.51c-6.72,41.75-7.14,84.45-6.63,126.64.55,46.35,2.9,92.64,4.65,139,.87,22.71,1.62,45.43,1.6,68.16,0,4.42,6.86,4.43,6.86,0,0-42.21-2.29-84.41-4-126.58-1.82-46-3.4-92.11-1.78-138.15.78-22.46,2.3-45,5.87-67.2.7-4.32-5.91-6.18-6.62-1.82Z"/><path fill="#571519" d="M1400.55,1096.14c0-4.22-4.28-9.15-7.19-11.74-4.21-3.74-10.1-5.42-14.55-1-3.72,3.7-5.49,9.78-6.87,14.71a126.09,126.09,0,0,0-3.48,18.89,261.29,261.29,0,0,0-1.31,41.39c.4,10,.81,20.64,3.41,30.39.82,3.09,1.94,6.3,5.47,6.83,4.43.67,8.5-2.3,12.1-4.48,3.11-1.88,4.28-4.41,5.27-7.83,1.23-4.25-5.39-6.06-6.62-1.82-.7,2.42-.87,3-3,4.21-1.26.72-2.49,1.61-3.78,2.26-1,.52-3.64.88-2.07,1.47.58.22.2.45-.09-.3a3.23,3.23,0,0,1-.21-.63,36.09,36.09,0,0,1-1-3.81c-1.71-8.2-2.21-16.7-2.59-25a280.38,280.38,0,0,1,.43-33.93c.75-10,2-20.24,5.31-29.77,1-2.73,2.82-9.63,6.7-8,2.08.85,3.82,3,5.1,4.79a18,18,0,0,1,1.58,2.54c.31.6.5,1.69.51.93,0,4.42,6.81,4.42,6.86,0Z"/><path fill="#571519" d="M1316.76,1082.24c-10.49,7.45-12.72,23.25-14.1,35a157.43,157.43,0,0,0,1.14,45.87c.93,5.15,2.1,11.17,5.7,15.2,3,3.3,7.79-1.56,4.86-4.85a9.81,9.81,0,0,1-.84-1.32,14.81,14.81,0,0,1-.91-2.1,49.49,49.49,0,0,1-1.84-6.88,122,122,0,0,1-2.1-18.67c-.65-14-.14-28.75,3.79-42.33,1.41-4.87,3.42-11,7.76-14,3.57-2.54.14-8.49-3.46-5.93Z"/><path fill="#571519" d="M1384.91,1081.15c-8.62-.47-17.26-2-25.8-3.12-14-1.88-27.94-3.83-41.91-5.74-11-1.5-21.91-3.09-32.91-4.27-8.35-.9-17.49-3.16-26.45-4.53-29.38-4.5-59-7.43-88.62-10.11-23.73-2.15-47.53-4.25-71.33-5.33a88.65,88.65,0,0,0-33.25,4.83c-3.48,1.23-7.24,2.71-10,5.27-1.75,1.62-3.33,3.44-5.09,5.07-5.5,5.11-10.93,10.62-14.1,17.54a31.19,31.19,0,0,0-2.89,12.49c-.09,4.42,6.77,4.42,6.87,0,.18-8.41,5-15.27,10.68-21.07,3.67-3.71,7.87-8.8,12.58-11.13,10.21-5,22.73-6.66,34.07-6.19,22.69,1,45.36,3,68,5,29,2.57,58,5.4,86.83,9.61,5.75.84,11.49,1.74,17.21,2.79,4.16.76,8.32,2,12.53,2.35,9.26.88,18.49,2.2,27.71,3.45,15.33,2.08,30.64,4.23,46,6.3,9.9,1.34,19.92,3.13,29.91,3.67,4.41.24,4.4-6.63,0-6.86Z"/><path fill="#571519" d="M1050.14,820.93a88.57,88.57,0,0,1,16.06,47.85c.41,11.66.69,23.32,1,35,1,34.79,1.93,69.59,3.67,104.35.71,14.24,1.3,28.58,3.14,42.73.56,4.32,7.43,4.38,6.86,0-1.61-12.34-2.2-24.83-2.86-37.25-.93-17.59-1.61-35.19-2.21-52.8-1-30.1-1.69-60.21-2.69-90.31-.64-19.2-6-37.06-17-53-2.5-3.61-8.44-.18-5.93,3.46Z"/><path fill="#571519" d="M1066.81,656.84c-12.66,3.69-25.37,7.29-37.84,11.6-9.82,3.39-20.07,7-28.63,13.08-16.82,11.86-27.15,30.68-34.4,49.49-12.53,32.52-17.24,68-20,102.52-3.07,38.3-3.08,76.82-1.62,115.19q1.8,47,6.62,93.87,1.45,14.28,3.23,28.52c2.32,18.49,2.19,38.3,13.19,54.25,12.94,18.76,34.86,30.74,55.45,39.2a223.91,223.91,0,0,0,49.49,13.79c34.69,5.64,70.12,6.75,105.21,6.64,23.44-.08,46.9-.79,70.3-2.31a51.75,51.75,0,0,1,8.7.31q16,1.5,31.91,3c26,2.51,52,4.85,77.9,8.07a74.38,74.38,0,0,1,7.4,1.09c4.3.92,6.14-5.69,1.82-6.62-7.52-1.61-15.41-2.09-23-2.92-13.35-1.46-26.7-2.81-40.06-4.13s-26.7-2.62-40-3.89c-7-.67-14.07-1.79-21.08-2-3.55-.11-7.21.41-10.76.61q-16.71.95-33.44,1.4c-33.43.94-67,.76-100.33-2-36.14-3-72.17-9.72-103.84-28.38-10-5.9-19.76-13-27.18-22.07-6-7.24-9.38-15.8-11.16-24.94-2.61-13.42-3.43-27.32-5-40.92q-4.64-40.47-7-81.17c-2.16-36.67-3.06-73.47-1.77-110.19,1.27-36.11,4.34-72.62,13.17-107.75,4.46-17.76,10.44-35.5,20.2-51.1,5.08-8.12,11.36-15.74,19.18-21.37,8.54-6.15,18.79-9.74,28.66-13.11,12.07-4.11,24.34-7.6,36.57-11.16,4.23-1.24,2.43-7.86-1.82-6.62Z"/><path fill="#571519" d="M1133.73,631.46c-7.45,4.87-15.67,8.46-24,11.62a3.53,3.53,0,0,0-2.4,4.22c.45,1.66,2.48,3.06,4.22,2.4,8.83-3.37,17.65-7.13,25.59-12.31a3.51,3.51,0,0,0,1.23-4.7,3.46,3.46,0,0,0-4.69-1.23Z"/><path fill="#571519" d="M1455.4,790a98.79,98.79,0,0,0-3.77,18.83,159.09,159.09,0,0,0-1.24,18.9c0,4.41,6.85,4.42,6.87,0,0-11.92,1-24.53,4.76-35.91,1.38-4.21-5.25-6-6.62-1.82Z"/><path fill="#571519" d="M1024.09,1162.46c-1.06,11-2,22.1-3.19,33.12-.81,7.44-2.3,14.79-3.08,22.24s-1.14,15.19,1.07,22.34c2,6.48,6.37,11.29,12.09,14.81,12.42,7.65,28,9.54,42.17,11.39,20,2.62,40,5.28,60,7.34a1363.55,1363.55,0,0,0,268.6,1.32c12.17-1.16,24.3-2.72,36.46-4,9.44-1,19.23-1.37,28.17-4.82,8.5-3.29,17.1-9.39,17.87-19.16,1-12.31-.2-25.17-1.23-37.44-.36-4.37-7.23-4.41-6.86,0,.9,10.79,1.37,21.61,1.33,32.44,0,5.16-.27,8.63-4.23,12.23a30.31,30.31,0,0,1-11.38,6.25c-8,2.53-16.49,2.86-24.8,3.76-10.28,1.1-20.53,2.38-30.82,3.4q-63.24,6.26-126.89,6.42-63.83.21-127.48-5.51-32.17-2.87-64.19-7.19c-13.82-1.88-28-3.08-41.36-7.23-6.66-2.07-14.4-5.1-18.56-11-4.33-6.2-4-14.9-3.42-22.08.63-8.27,2.33-16.4,3.28-24.63,1.31-11.3,2.2-22.66,3.29-34,.43-4.39-6.44-4.36-6.86,0Z"/><path fill="#571519" d="M1025.91,1252.75c-12.06,47.49-18.3,96.27-20.74,145.16-2.45,49.13-1.18,98.38,1.43,147.48,1.49,27.85,3.4,55.67,5.34,83.49.3,4.38,7.17,4.42,6.86,0-3.4-48.88-6.75-97.8-7.77-146.81-1-48.75.28-97.63,6.29-146.06a662.31,662.31,0,0,1,15.21-81.44c1.09-4.27-5.53-6.1-6.62-1.82Z"/><path fill="#571519" d="M1469,1262.83c13.49,43.72,15,90.68,16.89,136.06,2,46.83,4.65,93.63,6.35,140.48q1.59,43.92,2.74,87.84c.12,4.41,7,4.43,6.86,0-1.4-50.7-3-101.4-5.42-152.08-1.11-23-2.4-45.9-3.35-68.87-1-23.63-2-47.27-4.21-70.83-2.34-25.06-5.8-50.3-13.24-74.42-1.3-4.21-7.93-2.41-6.62,1.82Z"/><path fill="#571519" d="M1224.46,1395.34c0,40.59-.69,81.42,3.16,121.88.41,4.36,7.27,4.41,6.86,0-3.85-40.46-3.16-81.29-3.15-121.88,0-4.42-6.87-4.42-6.87,0Z"/><path fill="#571519" d="M1271.8,1622c-1.29-6.61-2.37-13.27-3.48-19.91-1.14-6.86-2.07-13.54-5.77-19.57-3.48-5.68-8.46-8.87-13.34-13.12s-8.52-9.67-11.94-15.2c-2.32-3.75-8.26-.31-5.93,3.46,3.19,5.16,6.56,10.31,10.88,14.61,4.52,4.49,10.27,7.42,13.85,12.85,3.78,5.72,4.53,12.18,5.63,18.79s2.2,13.3,3.48,19.92c.85,4.33,7.46,2.49,6.62-1.83Z"/><path fill="#571519" d="M1864.11,1620.52c-3-15.4-5.43-30.9-8.37-46.31a5.26,5.26,0,0,0-3.72-4.51c-1.55-.65-4.33-2-6.3-3-7.09-3.74-14.27-8.5-18.59-15.42-2.33-3.75-8.26-.3-5.92,3.46,6.56,10.53,18.56,17.68,30,22l-2.4-2.4c3.13,16,5.59,32.06,8.71,48,.85,4.33,7.46,2.5,6.62-1.82Z"/><path fill="#571519" d="M1242.67,1180.32c-1.46,32.3-1.66,64.7-.75,97,.12,4.4,7,4.42,6.86,0-.91-32.32-.7-64.72.76-97,.2-4.42-6.67-4.41-6.87,0Z"/><path fill="#571519" d="M2017.89,723.62c-8.32-4.09-18.12-3.66-27.07-2.51a191.4,191.4,0,0,0-33.89,8c-10.18,3.27-20.2,7.06-30,11.24-8.73,3.71-16.78,7.9-19.23,17.88a35.48,35.48,0,0,0,1.82,21.05c1.65,4,8.29,2.27,6.62-1.82a31.64,31.64,0,0,1-2.28-14.73c.93-9.25,7.86-12.75,15.57-16,18.34-7.84,37.66-14.7,57.36-18.11,8.61-1.5,19.49-3.1,27.69.92,4,1.94,7.43-4,3.46-5.92Z"/><path fill="#571519" d="M1998.79,760.21c-20.68,1.26-41.27,5.42-61.13,11.29a177.86,177.86,0,0,0-21.82,7.74c-6.6,2.93-11.43,7.92-11.2,15.56.26,8.22,5,15.92,10.06,22.13a3.38,3.38,0,0,0,3.34.88c9.39-2.5,19-4.4,28.57-6,18-3.08,36.64-5.14,54.91-3.28,4.39.44,4.35-6.42,0-6.87-18.55-1.88-37.44.29-55.75,3.36-9.91,1.66-19.84,3.62-29.56,6.21l3.34.88C1915.4,807,1909.34,798,1912,791c1.38-3.54,5.17-5,8.42-6.35,3.77-1.59,7.64-2.94,11.52-4.22,21.52-7.08,44.18-12,66.81-13.38,4.39-.27,4.42-7.13,0-6.86Z"/><path fill="#571519" d="M1914.23,819c-2,6.37.23,14.19,3.91,19.53,4.45,6.48,10.9,9.29,18.59,9.61,7.87.33,15.8-.8,23.63-1.4a206.65,206.65,0,0,1,34.56,0c4.4.4,4.37-6.47,0-6.86-17.78-1.62-35,.69-52.74,1.38-6.25.25-12.62.21-17.07-4.86-3.42-3.89-5.9-10.42-4.27-15.57,1.34-4.22-5.28-6-6.61-1.82Z"/><path fill="#571519" d="M1963.12,730.85c2.19-16-.82-31.59-2.67-47.44-1.6-13.76-2.48-30.47,6.83-42,2.1-2.6,5.38-5.38,8.93-4,4.14,1.63,5.89,7.17,6.68,11.08,1.37,6.78,1.74,13.82,2.87,20.66s2.54,13.93,4.21,20.81c2.7,11.15,5.74,25.1,13.86,33.76,3,3.22,7.88-1.64,4.86-4.86-3.43-3.65-5.37-8.81-7-13.45a173.57,173.57,0,0,1-5.75-20.16c-1.73-7.51-3.14-15.11-4.28-22.73-1-7-1-14.49-3.7-21.1-3.52-8.75-12.52-14.72-21.3-8.75-11.5,7.82-14.25,25.09-14,37.87.38,19.54,6.56,38.81,3.89,58.41-.59,4.32,6,6.19,6.61,1.83Z"/><path fill="#571519" d="M2016.3,731.84a17.76,17.76,0,0,1,4,15.09c-.86,5.23-2.36,10.31-2.66,15.63-.62,11.19,6.62,20,8.47,30.63.87,5-1.51,8.95-2,13.8-.4,4,.49,8,1.22,11.88a53.31,53.31,0,0,1,.57,16.72c-.71,5.52.38,10.6.37,16.07,0,13.18-11.72,19.07-23.11,21.47-13,2.73-26.7,2.12-39.78.62a105.56,105.56,0,0,1-12.86-2c-10.58-2.58-14.39-12.58-14-22.58.17-4.42-6.69-4.41-6.86,0-.36,9.25,2.37,19.2,10,25,4.8,3.64,10.56,4.64,16.34,5.52,13.87,2.1,28.19,3,42.15,1.23,13.26-1.71,28.79-6.53,33.6-20.51a27.94,27.94,0,0,0,1.31-10.75c-.18-2.74-.76-5.42-.78-8.17,0-3.79.83-7.51.93-11.29.15-5.4-.84-10.62-1.8-15.89a25.66,25.66,0,0,1-.55-5.79c.11-2.57,1.22-4.73,1.82-7.19,3.3-13.59-8.52-24.45-8.23-37.57.14-6.34,2.38-12.35,3-18.64.63-7-1.87-12.78-6.22-18.08-2.81-3.42-7.64,1.46-4.86,4.85Z"/><path fill="#571519" d="M2026,743c23.8,6.7,34.68,31.9,33.81,54.89-.79,20.78-8.95,50.45-31.1,58-4.16,1.41-2.37,8,1.83,6.62,19.12-6.49,28.82-26.15,33.28-44.57,5.2-21.53,4-45.49-10-63.56a50.2,50.2,0,0,0-26-18c-4.26-1.2-6.07,5.42-1.82,6.62Z"/><path fill="#571519" d="M1719.09,613.56C1711,622,1711,635.43,1714,646.08c3.11,11.08,10.07,20.69,18.25,28.62,15.29,14.8,35.72,27.41,56.92,31.12,25.93,4.53,51.4-5.62,72.3-20.47A204.15,204.15,0,0,0,1890.59,660c8.41-8.82,16.06-18.82,20.34-30.34a44.91,44.91,0,0,0,2.12-23.22c-2.09-11.91-9.92-21.28-19.68-28-3.66-2.49-7.09,3.45-3.46,5.93,13.81,9.44,20.09,24.72,15.25,40.89-2.8,9.37-8.79,17.85-15.14,25.15a192.16,192.16,0,0,1-24.65,23.41c-17.92,14.39-40.44,26.68-64,26.3-19.9-.33-38.06-9.74-53.69-21.39-9.44-7-18.28-15.59-23.73-26.15-5-9.62-8.32-25.47,0-34.22,3-3.2-1.8-8.06-4.86-4.85Z"/><path fill="#571519" d="M1873.59,690.73c32.93-23.75,63.19-51.74,88.55-83.51,2.71-3.39,4.62-6.63,3.9-11.14a29.34,29.34,0,0,0-3.94-9.74,73.7,73.7,0,0,0-11.26-14.13A140.6,140.6,0,0,0,1914.35,546c-12.27-6.18-27-12-41-9.33-4.33.83-2.5,7.45,1.82,6.62,10.73-2.06,22.62,2.48,32.17,6.93a138.12,138.12,0,0,1,34.27,22.66A83.22,83.22,0,0,1,1953.7,586a46.53,46.53,0,0,1,3.82,6.26,19,19,0,0,1,1.63,4.26c.66,3.11-1.3,5.14-3.14,7.39a452.92,452.92,0,0,1-85.88,80.87c-3.55,2.56-.13,8.52,3.46,5.93Z"/><path fill="#571519" d="M1756,701.69l-74.89-33.08c-6-2.65-12-5.27-18-8-5.5-2.47-9-5.43-7.72-11.91,1.06-5.48,4.1-10.42,6.8-15.21q4.61-8.14,9.74-16,5.85-8.89,12.4-17.31c3.83-4.91,7.27-10.41,12.14-14.37,3.42-2.78-1.46-7.61-4.86-4.85-4.72,3.85-8,9.07-11.71,13.83-4,5.13-7.91,10.39-11.58,15.78q-5.85,8.6-11,17.62c-2.92,5.1-6,10.3-7.81,16-1.52,4.82-2,10.44.63,15,3.14,5.45,9.68,7.44,15.08,9.83l40.92,18.06,46.46,20.52c4,1.77,7.5-4.14,3.46-5.92Z"/><path fill="#571519" d="M1964.41,606.17c12.91,5.55,25.92,12.31,39.61,15.71s28.19,2,42.14,4.44a93.75,93.75,0,0,1,57,34.19c16.5,20.87,21.1,47.49,20.28,73.5a305.22,305.22,0,0,1-4.78,42.83c-2.48,14.12-5.15,28.88-10.07,42.39-5.09,14-19.11,23-31.93,29.32a101.31,101.31,0,0,1-42.56,10.22c-4.41.09-4.43,7,0,6.86,25.82-.52,54.55-10.43,72.37-29.87,9.78-10.66,12.31-26,15.35-39.7a388.17,388.17,0,0,0,7.37-45.59c2.75-27.73,1.52-57.21-12.48-82a100.93,100.93,0,0,0-53.52-44.74c-14.82-5.31-30-5.1-45.47-6.52-17.71-1.63-33.72-10-49.83-17-4-1.72-7.52,4.19-3.47,5.93Z"/><path fill="#571519" d="M2099.25,757.15c-6.57-16.49-19.62-29.56-35.63-37.09-18.92-8.88-40.29-9.8-60.61-6.15-4.34.78-2.51,7.39,1.82,6.62,18.37-3.3,38.2-2.56,55.33,5.46,14.28,6.69,26.57,18.17,32.47,33,1.61,4,8.26,2.28,6.62-1.83Z"/><path fill="#571519" d="M1647.14,655.45c-22.8,5.84-45.1,12.22-66.67,21.75-6.72,3-13.71,5.73-19.74,10-6.58,4.65-11.66,10.78-16.45,17.19-2.65,3.54,3.31,7,5.93,3.47,4.43-5.94,9.3-11.75,15.58-15.81,6-3.88,12.71-6.52,19.2-9.39,20.62-9.14,42.18-15,64-20.6,4.28-1.09,2.46-7.71-1.83-6.61Z"/><path fill="#571519" d="M1567.65,1125.18c1.31-3.37,2.69-6.76,5.19-9.44,3.8-4.07,9.22-6.24,14.44-7.81,8.64-2.61,17.66-3.49,26.6-4.47s18.1-1.78,27.17-2.42c36.8-2.58,73.72-2.62,110.6-2.94,20.74-.18,41.49-.46,62.22-1.3,4.4-.18,4.42-7,0-6.86-38.82,1.57-77.69,1.14-116.53,1.9-19.27.38-38.54,1.06-57.77,2.44-9.55.69-19.1,1.55-28.62,2.65-9.16,1-18.42,2-27.23,4.92-5.83,1.93-11.76,4.65-16,9.28-3.22,3.55-5,7.81-6.73,12.22-1.6,4.12,5,5.91,6.62,1.83Z"/><path fill="#571519" d="M1831.67,1095c-7.72-9.47-20.75-6.09-27,3-8.18,12-10.3,28.64-9.44,42.79s4.37,30.23,12.19,42.43c4.9,7.64,12.81,13.81,22.21,13.94,12,.17,17.47-10.77,18.88-21.2.59-4.31-6-6.18-6.61-1.82-.88,6.5-3,15.26-10.82,16.11-6.49.71-12.7-3.63-16.4-8.55-6.83-9.08-10-21.62-11.71-32.67-1.89-12.06-1.38-24.64,2.43-36.3,1.68-5.16,4.11-12.23,9-15.17a9.21,9.21,0,0,1,12.33,2.28c2.79,3.43,7.62-1.46,4.85-4.85Z"/><path fill="#571519" d="M1751.64,1106.36c-7.9,17.7-8.66,37.13-4.91,56a127.51,127.51,0,0,0,8.42,26.84c3.17,7.14,8,13.86,15.87,16,4.26,1.17,6.08-5.45,1.82-6.62-6.87-1.89-10.29-9-12.71-15.17a132.37,132.37,0,0,1-7-24.21c-3.08-16.47-2.42-33.93,4.48-49.39,1.78-4-4.13-7.49-5.93-3.46Z"/><path fill="#571519" d="M1833.51,1189.65c-13,3.35-25.06,9.71-37.57,14.36a186.89,186.89,0,0,1-26.89,7.88c-17.56,3.64-35.33,6.4-53.06,9.06-24.08,3.62-48.23,6.78-72.44,9.34-22.26,2.35-44.66,4.39-67.06,4.61-13.07.12-26.23-.34-38-6.67-15.68-8.41-24-24.67-30.49-40.47-1.66-4-8.31-2.26-6.62,1.82,5.78,14,12.56,28.53,24.49,38.38,11.08,9.13,24.83,13.14,39,13.67,21.39.79,42.93-1,64.2-3,45.39-4.26,90.91-10.26,135.7-18.88a197.44,197.44,0,0,0,25.55-6.46c15.17-5.07,29.54-13,45-17,4.28-1.1,2.47-7.73-1.82-6.62Z"/><path fill="#571519" d="M1589.63,805.87c3,11.54,2.45,24.47,2.68,36.28.26,13.72.2,27.43,0,41.14-.57,43.71-1.85,87.54-.64,131.25.78,28.47,3.15,56.94,8.91,84.87.9,4.32,7.51,2.5,6.62-1.82-10.35-50.14-9.26-101.59-8.72-152.51.35-32.94,1.21-65.94.73-98.89-.12-8.22-.32-16.43-.84-24.63-.36-5.82-.69-11.85-2.15-17.51-1.11-4.28-7.73-2.47-6.62,1.82Z"/><path fill="#571519" d="M2113.86,1276.38c1.21-13.38-.31-27.14-1.73-40.45-1.48-13.83-3.18-27.75-6-41.39-4.38-21.31-10.47-42.21-14.22-63.67a422.54,422.54,0,0,1-5.43-46.11c-1-16.3-1.1-32.65-2-49-1.79-32.17-4.83-64.24-6.57-96.41-.85-15.78-1.44-31.61-.94-47.42.39-12.58,1.34-25.35,4.87-37.48,1.23-4.25-5.38-6.07-6.62-1.83-6.85,23.54-5.75,49.52-4.79,73.74,1.27,31.93,4.27,63.76,6.35,95.65,2.11,32.39,1.81,64.88,6.36,97.08,3.3,23.32,9.2,46,14.52,68.87a376.28,376.28,0,0,1,6.78,40.88c1.86,15.56,3.94,31.8,2.53,47.49-.4,4.39,6.47,4.37,6.86,0Z"/><path fill="#571519" d="M1589.39,1238.74a259.07,259.07,0,0,0-2.43,40.52c.14,12.59.67,25.7,3.91,37.93,1,4,2.44,8.28,5.19,11.42,3.9,4.42,11,4.64,16.34,5.67,20.67,4,41.76,5,62.76,5.4,86.63,1.49,173.56.85,260.09-3.7q36.45-1.93,72.84-5c23.55-2.06,47.23-4.12,70.61-7.6,4.35-.64,2.5-7.26-1.82-6.61-20.3,3-40.86,4.81-61.29,6.67q-31.48,2.88-63,4.74c-41.61,2.49-83.27,3.85-124.94,4.51-42.2.68-84.4.65-126.6.41-20.08-.12-40.2-.1-60.22-1.83a254.18,254.18,0,0,1-30.84-4.43c-2.42-.51-6.66-1-8.17-2.11a11.61,11.61,0,0,1-2.19-3.24c-2.31-4.74-3.2-10.33-4-15.5a185.5,185.5,0,0,1-1.7-21.72,253,253,0,0,1,2.08-43.67c.63-4.32-6-6.18-6.61-1.82Z"/><path fill="#571519" d="M1603.75,1331.71c-12.57,42.94-9.73,88.12-9,132.29.63,36.82,1,73.65,1.48,110.47.24,17.9.48,35.81.88,53.71.1,4.4,7,4.42,6.87,0-.77-34.3-1.08-68.61-1.51-102.91-.45-36.48-1.64-73-1.65-109.46,0-27.71,1.71-55.55,9.53-82.27,1.24-4.25-5.38-6.06-6.62-1.83Z"/><path fill="#571519" d="M1800.71,1406.58c1.23,20,2,40.05,3.43,60.05.58,8.39,1.32,16.77,2.28,25.13,1.15,10.1,1.81,20.86,5.79,30.32,1.68,4,8.33,2.24,6.61-1.83-3.94-9.38-4.6-20-5.72-30-.91-8.17-1.61-16.37-2.17-24.57-1.35-19.67-2.14-39.37-3.35-59.05-.27-4.39-7.14-4.42-6.87,0Z"/><path fill="#571519" d="M2013.61,618.58a39.39,39.39,0,0,0-27.82,25.73,3.43,3.43,0,0,0,6.62,1.82,29.75,29.75,0,0,1,3.49-7.19,31.56,31.56,0,0,1,5.34-6.23,30.49,30.49,0,0,1,6.54-4.63,29.11,29.11,0,0,1,7.65-2.89,3.43,3.43,0,1,0-1.82-6.61Z"/><path fill="#571519" d="M1980.41,611.07c-19.77,11.15-33.87,29.44-40.53,51.06-3.54,11.51-5.15,23.52-6.32,35.48-1.34,13.63-2.31,27.31-3.43,41-.36,4.4,6.51,4.38,6.87,0,2-23.87,2.2-48.87,8.74-72.05,5.94-21,19-38.75,38.14-49.54,3.84-2.17.39-8.1-3.47-5.92Z"/><path fill="#571519" d="M1948.26,877.11c-.8,43.75,1,88.16,9,131.27.8,4.34,7.42,2.5,6.62-1.82-7.82-42.5-9.53-86.33-8.74-129.45.08-4.42-6.78-4.42-6.86,0Z"/><path fill="#571519" d="M1808.93,1106.57c19.57-4.66,39.34-8.82,58.77-14a51.72,51.72,0,0,0,21.14-11.08c6.25-5.48,11.26-12.19,16.34-18.72a361.72,361.72,0,0,1,38-42c7.32-6.85,19.15-7.83,28.59-9.94,9.66-2.16,19.35-4.45,29.09-6.21,10.14-1.83,19.06,2.39,28.07,6.47,4,1.83,8.32,2.88,10.53,7s3.1,9.33.28,13.48c-2.48,3.67,3.46,7.11,5.93,3.47,4.6-6.79,2.94-16.24-1.67-22.63-2.39-3.32-5.63-4.61-9.25-6.21-4.3-1.89-8.53-4-12.91-5.67-9.27-3.63-17.54-3.65-27.17-1.64-10.67,2.24-21.35,4.48-32,7a135.14,135.14,0,0,0-13.92,3.55c-4.94,1.72-8.69,4.69-12.34,8.35-7.44,7.49-14.75,15.14-21.81,23-6.58,7.33-12.6,15-18.72,22.77-5.37,6.78-11.17,13.6-18.75,18-4.75,2.74-10,4.12-15.29,5.4-6.21,1.51-12.44,3-18.66,4.44l-36.12,8.6c-4.29,1-2.48,7.64,1.82,6.62Z"/><path fill="#571519" d="M2012.86,1030.42c8.55,4.24,18.08,3.3,27.05,5.89,1.74.5,3.89,1.1,5.07,2.59,1.32,1.69,1.55,4.39,2,6.4.52,2.24,3.24,9.54-.3,10.72-4.17,1.38-2.38,8,1.82,6.61,6.21-2.06,7.31-8.56,6.21-14.26-.56-2.93-1.24-5.92-2.06-8.79a12.64,12.64,0,0,0-4.63-7.08c-4.43-3.23-10.58-3.88-15.86-4.54s-11-1-15.86-3.46c-3.94-2-7.43,4-3.46,5.92Z"/><path fill="#571519" d="M2022.16,1064.16l13.57,0c3.7,0,8-.36,11.34,1.44,2.91,1.55,3.84,4.07,3.35,7.28-.66,4.38-2.29,8.73-3.5,13s5.42,6.07,6.62,1.82c1.39-4.9,3.23-9.88,3.78-15a12.88,12.88,0,0,0-5.62-12.34c-4.06-2.77-9.13-3.07-13.89-3.09l-15.65,0c-4.42,0-4.42,6.86,0,6.86Z"/><path fill="#571519" d="M2028.71,1092.61c5.67-.71,11.6-2,17.32-2,6.33,0,6.75,6.53,5.9,11.51-1,6.12-5.69,7.78-11,9.56s-10.8,3.41-15.89,5.92c-10.32,5.09-19.39,12.92-29.23,18.89a195.29,195.29,0,0,1-31.43,15.86,152.2,152.2,0,0,1-34.61,8.7c-12.12,1.57-24.13,1-36.3,1.23-12.7.27-25.41,3.94-37.77,6.69-14.17,3.16-29.47,5.66-42.8,11.62-4,1.8-.54,7.71,3.46,5.92,5.33-2.38,11.27-3.71,16.9-5.16,7.77-2,15.59-3.82,23.42-5.57,6.27-1.4,12.55-2.74,18.83-4.12a109.74,109.74,0,0,1,25.71-2.5c25.45.38,50.12-3.34,73.52-13.72a236.11,236.11,0,0,0,32.78-18.19c5.3-3.46,10.35-7.27,15.69-10.67,5.53-3.52,11.46-5.61,17.64-7.64,5.24-1.73,11.14-3.31,14.65-7.9,3.32-4.34,4-10.59,3.29-15.88-.75-5.49-3.94-10.13-9.64-11.14-6.5-1.15-14,.91-20.47,1.72-4.32.55-4.38,7.42,0,6.87Z"/><path fill="#571519" d="M1991.83,877.74a533.06,533.06,0,0,0,8.92,117.67c.81,4.34,7.43,2.5,6.61-1.82a524.5,524.5,0,0,1-8.67-115.85c.15-4.42-6.71-4.41-6.86,0Z"/><path fill="#571519" d="M1991.41,1146.31a1517.18,1517.18,0,0,0,78.78,166.07c7.51,13.61,14.48,29.41,26.6,39.63,3.35,2.83,8.23-2,4.85-4.86-10.65-9-16.79-22.49-23.43-34.45q-11-19.85-21.44-40-20.49-39.69-38.61-80.56-10.48-23.64-20.13-47.64c-1.63-4-8.27-2.28-6.62,1.83Z"/><path fill="#571519" d="M2035.86,1117.29c21.37,59.61,48.76,117,77.17,173.53q12,23.85,24.32,47.53,1-2.52,2.05-5a167.91,167.91,0,0,0-22.86,4.81c-7,2.08-14.47,4.83-19.7,10.12-3.11,3.15,1.74,8,4.85,4.86,4.87-4.94,12.21-7.14,18.72-8.95a175.52,175.52,0,0,1,20.81-4.22c2.32-.35,3-3.3,2.05-5-29.25-56.38-57.85-113.27-82.3-171.92-6.54-15.69-12.76-31.51-18.49-47.5-1.48-4.13-8.11-2.35-6.62,1.82Z"/><path fill="#571519" d="M2094,1348.67c5.88,75,8.93,150.38,9.89,225.61.23,18.34.3,36.68-.06,55-.09,4.41,6.78,4.41,6.86,0,1.44-74.4-1.79-149-6-223.31-1.09-19.12-2.32-38.23-3.81-57.32-.34-4.38-7.21-4.41-6.87,0Z"/><path fill="#571519" d="M2119.25,787.08c25.33,57.15,46.4,116.06,66.61,175.18l5-3.87-18.31-9.34c-2.65-1.35-5.6-2.55-8-4.34-2.74-2.06-4.09-5.11-5.39-8.18-5.09-12-10-24.13-15-36.19l-30.66-73.79c-1.67-4-8.31-2.25-6.61,1.83l32.39,78,8.1,19.49c2.45,5.92,4.53,12.26,7.62,17.89s8,8.12,13.43,10.91l19,9.68c2.47,1.26,6.07-.86,5-3.87-15.95-46.65-32.42-93.15-51.1-138.78q-7.85-19.12-16.21-38c-1.78-4-7.7-.54-5.92,3.46Z"/><path fill="#571519" d="M2231.52,935.74c6-23.61,12-49.34,2.63-72.94-3.86-9.71-10.29-19.44-19.6-24.7-10.32-5.83-21.85-3.08-31.3,3.13-11.23,7.37-20.5,18-28,29.08-2.48,3.66,3.46,7.1,5.92,3.46,7.3-10.82,16.79-21.84,28.29-28.33,5.78-3.26,12.63-5.18,19.07-2.64,5.88,2.32,10.7,7.49,14.13,12.66,15.61,23.51,8.61,53.15,2.21,78.45-1.09,4.29,5.53,6.11,6.61,1.83Z"/><path fill="#571519" d="M2194.5,842c5.75,5.2,8,13.12,9.15,20.55,1.33,8.34.94,16.94-.11,25.28-2.18,17.13-6.62,34.13-11.48,50.67-1.25,4.25,5.37,6.06,6.62,1.83,5.29-18,10.09-36.57,12-55.27,1.61-15.51,1.15-36.58-11.37-47.91-3.26-3-8.13,1.87-4.85,4.85Z"/><path fill="#571519" d="M2209.27,866.16c-1.39-5.85-7.81-8.42-13.27-7.13s-10,5.8-13.42,10.05c-7,8.77-10.45,19.58-13.29,30.26-1.14,4.27,5.48,6.09,6.62,1.83,2.27-8.53,4.86-17.13,9.68-24.6a31.58,31.58,0,0,1,8.47-9.14c2.27-1.53,7.61-3.56,8.59.55,1,4.3,7.64,2.48,6.62-1.82Z"/><path fill="#571519" d="M2154.39,942.81a630.16,630.16,0,0,1-23.87,110.24c-8.83,28.49-17.83,56.73-22.16,86.34a483.91,483.91,0,0,0-4.6,68.26c0,4.42,6.84,4.42,6.86,0,.14-36.47,3.53-72.61,13-107.9,7.81-29.2,18.25-57.6,25.33-87a622.16,622.16,0,0,0,12.33-69.92c.54-4.38-6.33-4.34-6.86,0Z"/><path fill="#571519" d="M2193.12,946.24c18-5.32,37.52-11.16,56.44-7.54,9.65,1.84,18.05,6.42,26.13,11.84a176.29,176.29,0,0,1,18.54,13.7c3.12,2.74,5.87,5.84,8.84,8.73A129.31,129.31,0,0,0,2318,985.06c7.62,5.5,15.4,10.81,22,17.59a83.71,83.71,0,0,1,14.06,20c13,25.24,13.66,54.17,24.79,80,9.75,22.62,22.57,43.78,32.2,66.46,7.19,17,18.74,46-.59,59.43-3.6,2.5-.17,8.45,3.47,5.93,18.44-12.78,14.89-36.16,8.55-54.68-8.41-24.59-21.89-47.09-33.06-70.45-4.64-9.69-9-19.6-11.26-30.16-3.58-16.91-7-34-13.62-50A97.6,97.6,0,0,0,2333,987.55c-6.89-5.29-14.25-10-20.87-15.6-3.47-2.94-6.52-6.26-9.74-9.46-5.35-5.3-11.51-9.74-17.67-14-8.75-6.11-17.73-12.12-28.09-15.11-21.63-6.26-44.48.12-65.36,6.28-4.23,1.25-2.43,7.87,1.83,6.62Z"/><path fill="#571519" d="M2265.9,999.27c-.48-1.66-1.52-4.52-.42-6.09,1-1.39,3.39-.95,4.91-.79a6.65,6.65,0,0,1,1.27.2c.72.16,1.44.31,2.15.51a27.89,27.89,0,0,1,8.45,4c8.46,5.58,14.25,14.6,18.57,23.57,17.25,35.86,12.14,77,25.4,114,3.72,10.33,8.77,20.51,16.57,28.4,4.22,4.27,9.17,7.15,14.17,10.36.37.23.73.47,1.09.72s-.44-.38.34.29a116.12,116.12,0,0,0,14.22,10.43c8.09,5.08,17.22,9.38,24.09,16.13,12.38,12.16,12.07,29.3,9.69,45.25-3.26,21.77-8.37,43.14-10.8,65.06-2.26,20.33-7.61,40.16-14.07,59.53-11.64,34.85-26.43,68.56-39.26,103-5.23,14-10.54,28-16.11,41.91-2.51,6.25-5,12.5-7.82,18.64-1.91,4.24-3.53,7.5-7.21,10.4-10.78,8.52-25.34,12.93-38.42,16.33a182.31,182.31,0,0,1-54.51,6.07c-16-.78-32.24-4.23-45.31-13.95-12.06-9-21.59-21.3-29.79-33.76-13.83-21-24.84-44.1-33.66-67.63-.51-1.36-1-2.72-1.48-4.08-1.44-4.15-8.07-2.36-6.62,1.83a356.19,356.19,0,0,0,25.14,55.6c14.8,26.7,34.48,56,65.42,64.8,18.18,5.18,37.76,5.11,56.38,2.74,17.52-2.22,34.95-6.42,51.17-13.52a71.55,71.55,0,0,0,16.53-9.58c3.86-3.12,6-6.76,8-11.22,6.37-14,11.85-28.43,17.34-42.8,12.32-32.18,25.08-64.2,37.29-96.42,7.91-20.91,15.32-42.13,20-64,2.28-10.73,3.41-21.53,4.85-32.38,1.59-12,3.87-23.81,6.14-35.65,3.17-16.48,7.85-35,3.26-51.61a43.71,43.71,0,0,0-14.57-22.24c-8.06-6.54-17.57-11.12-26.18-16.86-4.4-2.94-8.13-6.74-12.64-9.48-2.26-1.37-4.55-2.69-6.71-4.25-6.78-4.89-12.36-12.86-16.18-20.8-8.28-17.19-11.49-36.91-13.47-55.71-2.21-20.85-5.24-42-13.13-61.53-6.9-17.13-19.35-37-39.61-39.06-3.72-.38-7.62,0-10.12,3.1-2.85,3.51-2.15,8.45-1,12.47,1.24,4.23,7.86,2.43,6.62-1.82Z"/><path fill="#571519" d="M2137.9,1320.29c40.92-.36,69.81,31.55,87.62,65.12,14.93,28.16,26.74,58.18,37.94,87.95,4.07,10.85,8,21.75,11.57,32.77,2.1,6.55,4.88,14.69,5.46,20.85.41,4.35,7.27,4.39,6.86,0-.62-6.54-2.68-13-4.61-19.19-3-9.69-6.4-19.26-9.89-28.78-7.68-20.9-15.9-41.61-24.82-62-11.77-26.93-24.52-54.45-45.61-75.47-17.36-17.28-39.72-28.33-64.52-28.11-4.41,0-4.43,6.9,0,6.86Z"/><path fill="#571519" d="M2268.62,1052.74c.12,34.47-.78,69.4-8.84,103.08a195.8,195.8,0,0,1-17.57,47.33c-6.22,11.56-14.5,21.76-20.64,33.34-9.65,18.19-14.79,38.09-19.7,58-1.06,4.28,5.56,6.11,6.62,1.82,4.47-18.1,9-36.48,17.39-53.21,6.06-12,14.46-22.45,21-34.18,16.58-29.74,23.7-63.53,26.64-97.17,1.72-19.61,2-39.31,1.95-59,0-4.42-6.88-4.43-6.86,0Z"/><path fill="#571519" d="M2319.85,1317.36c9.12,8.63,15.25,20.17,23,30,2.27,2.89,5.29,7.14,9.17,7.89,5,1,6.14-4.26,7.36-7.88,4.22-12.6,8.86-25.06,12.61-37.81,1.55-5.28,3.14-10.69,3.66-16.19.6-6.24-3.21-11.22-6.84-16-5.11-6.76-10.75-13.07-15.74-19.94-5.24-7.2-10.22-14.58-15.17-22-9.84-14.7-19.43-29.65-30.4-43.55-2.55-3.22-5.55-8.22-10.3-5.58-3.05,1.7-4.93,5.42-6.47,8.39-5.21,10.06-8.83,21-12.51,31.7-1.6,4.64-3.1,9.32-4.81,13.92-.67,1.78-1.14,1.88-1.12,4.15,0,2.44,1.16,4.87,2.16,7,3.4,7.4,8.06,14.26,12.38,21.14,5.19,8.26,10.43,16.49,15,25.09,2.08,3.9,8,.43,5.92-3.47-7.2-13.47-16-26-23.67-39.2-1.8-3.13-4.79-7.77-5-10.93.07,1.28.06.14.34-.6l.6-1.57c.61-1.67,1.18-3.35,1.76-5,3.26-9.48,6.42-19,10.14-28.3a96.81,96.81,0,0,1,5.74-12.46,19.94,19.94,0,0,1,2.25-3.33c.46-.51.66-.65.68-.62.29.41-2.11-.08-2-.3-.1.15,5.25,6.49,5.65,7,2.36,3.08,4.64,6.22,6.89,9.39,4.87,6.85,9.55,13.84,14.23,20.83,8.88,13.29,17.61,26.73,27.41,39.36,5.06,6.52,10.86,12.5,14.91,19.75,1.15,2.07,1.21,2,1.09,4.13a39.67,39.67,0,0,1-1,6.13c-2.66,11.73-6.82,23.15-10.75,34.51-1,3-2.07,5.92-3.08,8.89-.75,2.17-2,4.68-2.33,7-.09.66-.22.36-.15.46-.39-.54,2.08-.83,2.06-.75s-.58-.3-1-.63a32.62,32.62,0,0,1-4.44-4.88c-7.95-10-14.12-21.73-23.43-30.56-3.21-3-8.07,1.81-4.86,4.86Z"/><path fill="#571519" d="M2273.62,1251.36c-10.72,20.54-21.72,41.08-28.92,63.19-2.6,8-2,15.36.36,23.23a168.71,168.71,0,0,0,8.8,22.65,108.4,108.4,0,0,0,33,40.81c6.31,4.86,13,9.44,20.44,12.45,4.7,1.91,10.34,3.33,14.53-.35,4.65-4.09,7-10.38,9.49-15.86q4-8.68,7.76-17.43,6.53-15.09,12.35-30.46c1.55-4.14-5.08-5.93-6.62-1.83-6.71,17.83-14,35.64-22.42,52.72-1.21,2.46-3.45,7.62-6.15,8.31-1.78.46-4.41-.67-6.07-1.3-6.39-2.45-12.3-6.53-17.76-10.59a100.91,100.91,0,0,1-30.93-36.39,160.65,160.65,0,0,1-8.9-21.65c-1.93-5.86-4-12.3-2.49-18.48,2.8-11.61,8.15-23,13.24-33.72s10.69-21.28,16.19-31.84c2-3.91-3.88-7.38-5.92-3.46Z"/><path fill="#571519" d="M2312.43,1327.41c-6.52.62-11.09-7.75-12.25-13.13-.11.88-.23,1.76-.34,2.64,4.23-6.37,7.29-13.77,10.66-20.62q5.88-12,11.66-24.08l-4.69,1.23c6,3.29,11.58,8,14.49,14.32-.11-.89-.23-1.77-.34-2.65-2.47,7.83-6.19,15.37-9.77,22.73-2.08,4.3-4.25,8.58-6.61,12.74-1.56,2.74-3.17,5.75-5.24,7.82-3.12,3.13,1.73,8,4.85,4.85,3.5-3.5,5.89-8.34,8.2-12.65,3.36-6.26,6.44-12.69,9.33-19.18,1.28-2.87,2.53-5.75,3.7-8.67.78-1.93,2-4.18,2.22-6.27.38-3.82-4.32-8.61-6.84-11.12a47.06,47.06,0,0,0-10.53-7.85,3.47,3.47,0,0,0-4.69,1.24c-5.64,11.67-11.22,23.38-17.07,35-1.19,2.35-2.39,4.69-3.65,7s-2.43,3.79-1.66,6.65c2.1,7.84,9.44,17.79,18.57,16.91C2316.79,1333.85,2316.83,1327,2312.43,1327.41Z"/><path fill="#571519" d="M930.53,1006.45l17.71,42.18c.85,2,1.69,4,2.53,6A3.54,3.54,0,0,0,955,1057c1.62-.42,3.11-2.51,2.4-4.22l-17.72-42.18-2.52-6c-.73-1.72-2.27-2.91-4.22-2.4-1.62.43-3.12,2.52-2.4,4.22Z"/><path fill="#571519" d="M1527.85,1098.83c4.92,3,11,6,13.69,11.42,2.44,4.92,2.32,10.94,2.12,16.28-.34,8.74-1.43,17.44-1.8,26.19-.13,3,.62,10.65-2.23,12.79-3.27,2.45-6.67-1.89-7.81-4.37-2.12-4.61-2.76-10-3.31-15-.58-5.28-.82-10.6-1.66-15.84-.74-4.7-3.19-8.06-7-10.87-9.92-7.38-23.43-10.26-35.34-12.65-4.31-.86-6.16,5.75-1.82,6.62a168.41,168.41,0,0,1,16.57,4.11c6,1.85,12.67,4,17.51,8.18,3.68,3.14,3.64,7.5,4.06,12a154.28,154.28,0,0,0,2.35,18.68c1.11,5.13,3,10.86,7.34,14.14,3.59,2.69,9.12,3.24,12.92.64,4.56-3.11,4.79-9.77,5.08-14.71.55-9.23,1.33-18.45,1.87-27.67.42-7.14.46-14.86-2.68-21.46-3.23-6.79-10.25-10.69-16.41-14.42-3.79-2.29-7.24,3.64-3.47,5.92Z"/><path fill="#571519" d="M1376.28,1097.09c10,2.55,20.37,5.55,30.7,3.37,14.85-3.13,29.38-7.31,44-11.43,4.24-1.19,2.44-7.82-1.82-6.61-14.32,4-28.56,8-43.09,11.22-9.31,2.07-18.83-.84-28-3.17-4.28-1.09-6.1,5.53-1.82,6.62Z"/><path fill="#571519" d="M1474.48,1109.67a190.16,190.16,0,0,1,26.18,19c6.75,5.91,13.72,12.5,18,20.51,8.48,15.89-8.51,35.2-21.72,42.17-3.91,2.06-.45,8,3.46,5.93,15.52-8.2,33.33-29.88,25.61-48.54-3.72-9-11.13-16.45-18.2-22.89a195.69,195.69,0,0,0-29.85-22.14c-3.77-2.31-7.23,3.62-3.46,5.92Z"/><path fill="#571519" d="M1463.36,1133.8c10.14,5.14,20.15,10.94,28.76,18.42a61.6,61.6,0,0,1,9.58,10.12c2,2.78,4.84,6.72,5,10.28.2,4-2.66,8.36-4.76,11.56a75.7,75.7,0,0,1-10.51,12.57c-4.83,4.72-11.79,8.22-18.74,7.36-4.37-.54-4.33,6.33,0,6.86,7.92,1,16.36-2.9,22.14-8a76.35,76.35,0,0,0,12.71-14.84c2.77-4.14,5.45-8.93,5.93-14,.85-9.05-7.59-18.35-13.62-24.12-9.61-9.19-21.25-16.16-33.05-22.15-3.93-2-7.41,3.92-3.47,5.93Z"/><path fill="#571519" d="M1451.86,1156.67c8.86,4.11,17.28,9.44,24.11,16.48a34.15,34.15,0,0,1,5.89,7.7,10,10,0,0,1,.56,7.48c-1.68,6.76-6.39,14.17-13.35,16-5.68,1.51-12.31.33-17.64-1.91-5.73-2.41-11.89-7.32-10.85-14.27a3.55,3.55,0,0,0-2.4-4.22c-1.62-.47-4,.56-4.22,2.4-2.64,17.61,18.12,26.89,33,25.3,9.27-1,16.18-7.36,20-15.67,1.88-4.12,3.35-8.85,2.72-13.42-.47-3.44-2.51-6.6-4.57-9.33-7.54-10-18.54-17.3-29.75-22.49-4-1.84-7.47,4.07-3.46,5.92Z"/><path fill="#571519" d="M1462.7,1189.13c-10.6-9.13-24.73-9.91-38.1-10.58-10-.5-20-.88-30-1.79a94.67,94.67,0,0,1-15.16-2.27c-1.29-.33-2.57-.72-3.83-1.14-.57-.19-1.79-.73-1-.38-4-1.86-7.46,4.06-3.46,5.92,5.32,2.48,11.37,3.43,17.14,4.1,10.31,1.2,20.7,1.7,31.07,2.17,12.71.58,28.22,0,38.49,8.83,3.33,2.87,8.2-2,4.85-4.86Z"/><path fill="#571519" d="M486.47,1096.54c-3.68.25-7.66,0-11.21.92-3.22.84-6.41,1.78-9.62,2.68L448.09,1105c-4,1.1-2.75,6.32.91,6.74,19.64,2.22,38.52-6.83,54.41-17.48,17-11.39,32.45-25.27,47.22-39.33a494.61,494.61,0,0,0,79.47-98,491.33,491.33,0,0,0,33.13-63.6c1.73-4-4.18-7.51-5.93-3.46A488.91,488.91,0,0,1,594,997c-24.73,31.64-53.54,61.48-85.79,85.55-16.89,12.61-37.23,24.85-59.16,22.38.31,2.25.61,4.49.92,6.74l16.83-4.69,9.58-2.66c3.23-.9,6.71-.66,10.14-.89,4.38-.29,4.41-7.16,0-6.86Z"/><path fill="#571519" d="M682.07,887c-18.79,43.51-43.11,84.81-73,121.65a447.46,447.46,0,0,1-48.77,51.44c-11.76,10.55-23.59,21.09-37.18,29.27-20,12.05-42.44,17.66-65.77,15.54-4.4-.4-4.37,6.46,0,6.86a111.68,111.68,0,0,0,61-11.91c15.15-7.7,28.35-18.48,41-29.73a494,494,0,0,0,90.56-107A538.91,538.91,0,0,0,688,890.46c1.74-4-4.18-7.51-5.92-3.46Z"/><path fill="#571519" d="M1130.94,630.66c-4.49-3.29-10.64-2.48-15,.71-5.15,3.79-7.07,10.28-8.73,16.15a376.82,376.82,0,0,0-9.54,44c-4.74,29.81-6.58,60-7.79,90.09s-1.83,60.49-4.2,90.65c-1.5,19-4,37.88-6.48,56.77-2.86,21.75-5.74,43.49-9,65.18-.65,4.32,6,6.18,6.62,1.82,5.14-33.93,9.89-68,13.71-102.12,6.45-57.52,4.29-115.6,10.24-173.16a460.16,460.16,0,0,1,7.44-48.44c1.68-7.93,3.61-15.81,5.84-23.6,1.48-5.16,5.9-17.59,13.43-12.07,3.56,2.61,7-3.34,3.46-5.93Z"/><path fill="#571519" d="M1062.18,827.32a670.91,670.91,0,0,1-2.34-77.53c.63-24.39,2.17-49.18,7.59-73,2.11-9.3,4.75-18.9,9.93-27l-2,1.57c15.67-6,31.07-12.49,47.53-16,4.31-.93,2.49-7.55-1.83-6.62a195.74,195.74,0,0,0-27.63,8.34c-4.48,1.68-8.93,3.46-13.4,5.2-3.62,1.41-7.4,2.07-9.46,5.56-5.64,9.54-8.46,20.8-10.65,31.56-6.27,30.8-7.36,62.79-7.1,94.13.15,18,.94,36,2.55,53.89.39,4.37,7.26,4.41,6.86,0Z"/><path fill="#571519" d="M1371,636.05c.5-.42-.7.48-.16.12l.43-.27.36-.2c.13-.06.72-.32.12-.06s-.08,0,0,0a4.34,4.34,0,0,1,.48-.14,8.08,8.08,0,0,1,1-.19l-.92.12a9.89,9.89,0,0,1,2.37,0l-.91-.13a12.69,12.69,0,0,1,1.6.35l.74.25c.14.05.65.27.08,0s0,0,.07,0a12.46,12.46,0,0,1,1.37.79c.12.08.23.17.36.25.31.21-.7-.58-.22-.16.22.18.44.37.65.57a3.43,3.43,0,1,0,4.85-4.85,14.74,14.74,0,0,0-8.14-4,11.32,11.32,0,0,0-9,2.55,3.44,3.44,0,0,0,0,4.85,3.51,3.51,0,0,0,4.85,0Z"/><path fill="#571519" d="M1382.78,629.62l-5.26-.86-.75-.12a2.66,2.66,0,0,0-1.37-.06,2.51,2.51,0,0,0-1.27.41,3.49,3.49,0,0,0-1.58,2,3.43,3.43,0,0,0,.35,2.64,3.29,3.29,0,0,0,2,1.58l5.26.85.75.12a2.55,2.55,0,0,0,1.37.07,2.65,2.65,0,0,0,1.27-.41,3.53,3.53,0,0,0,1.58-2,3.46,3.46,0,0,0-.35-2.65,3.31,3.31,0,0,0-2-1.57Z"/><path fill="#571519" d="M1442,706.57a266.36,266.36,0,0,0-6-35.4c-2.16-8.59-4.93-17.39-9.73-24.91-2.37-3.71-8.31-.27-5.92,3.47,4.49,7,7,15.21,9,23.26a254.33,254.33,0,0,1,5.71,33.58c.48,4.34,7.35,4.39,6.86,0Z"/><path fill="#571519" d="M2004.47,481.6c-1.76-14.33-5.67-37.06-23.32-39.28v6.86c17.65-2.23,21.56-25,23.32-39.28h-6.86c1.76,14.33,5.66,37.05,23.32,39.28v-6.86c-17.66,2.22-21.56,24.95-23.32,39.28-.54,4.37,6.33,4.34,6.86,0,0-.14,0-.16.16-1.12.22-1.47.46-2.93.73-4.39a96.34,96.34,0,0,1,3.11-12.64c1.42-4.31,3.34-8.6,7-11.49a14.52,14.52,0,0,1,4.07-2.31c.5-.18,3.19-.69,1.4-.47a3.43,3.43,0,0,0,0-6.86c1.76.22-.65-.21-1.16-.38a14.88,14.88,0,0,1-4-2.12c-3.85-2.88-5.87-7.34-7.33-11.78a95.3,95.3,0,0,1-3-12.25c-.28-1.5-.54-3-.76-4.52-.16-1-.2-1.31-.2-1.37a3.43,3.43,0,0,0-6.86,0c0,.14,0,.16-.16,1.11-.23,1.47-.47,2.94-.74,4.4A94.63,94.63,0,0,1,1993.6,428c-1.41,4.31-3.34,8.61-7,11.5a14.47,14.47,0,0,1-4.06,2.31c-.5.18-3.2.7-1.4.47a3.43,3.43,0,0,0,0,6.86c-1.77-.22.65.21,1.15.38a14.19,14.19,0,0,1,4,2.12c3.85,2.88,5.87,7.33,7.33,11.77a95.45,95.45,0,0,1,3,12.26c.28,1.5.54,3,.77,4.52.15,1,.19,1.31.2,1.37C1998.14,485.93,2005,486,2004.47,481.6Z"/><path fill="#571519" d="M574.56,493.8c-2.08-17-6.72-44.74-27.79-47.35v6.87C567.84,450.7,572.48,423,574.56,406H567.7c2.08,17,6.72,44.73,27.8,47.35v-6.87c-21.08,2.61-25.72,30.35-27.8,47.35-.54,4.37,6.33,4.33,6.86,0,.08-.64.05-.41.22-1.55.3-1.95.62-3.9,1-5.84a113.21,113.21,0,0,1,3.92-15.64c1.78-5.29,4.29-10.53,8.79-14a18.33,18.33,0,0,1,5.28-2.88c.57-.2,3.51-.76,1.74-.54a3.44,3.44,0,0,0,0-6.87c1.75.22-.93-.27-1.49-.45a18.3,18.3,0,0,1-5.16-2.7c-4.73-3.49-7.33-8.86-9.16-14.29a115.89,115.89,0,0,1-3.85-15.23q-.57-3-1-6c-.17-1.17-.19-1.24-.26-1.82a3.43,3.43,0,0,0-6.86,0c-.08.63-.05.41-.22,1.55q-.43,2.93-1,5.84A117,117,0,0,1,562.58,429c-1.79,5.28-4.29,10.52-8.79,14a18.87,18.87,0,0,1-5.28,2.89c-.57.19-3.52.76-1.74.53a3.44,3.44,0,0,0,0,6.87c-1.76-.22.93.27,1.48.45a18.3,18.3,0,0,1,5.16,2.7c4.73,3.49,7.33,8.86,9.17,14.3A115.31,115.31,0,0,1,566.42,486q.57,3,1,6c.18,1.16.19,1.24.26,1.82C568.23,498.12,575.1,498.18,574.56,493.8Z"/><path fill="#571519" d="M479.27,574.76c-1.72-14-5.53-36-22.7-38.15v6.86c17.17-2.17,21-24.2,22.7-38.16H472.4c1.72,14,5.52,36,22.7,38.16v-6.86c-17.17,2.15-21,24.2-22.7,38.15-.53,4.37,6.33,4.33,6.87,0,0-.2.1-.72,0,.11.05-.39.11-.78.17-1.17.21-1.42.44-2.84.71-4.25a91.86,91.86,0,0,1,3-12.24c1.36-4.15,3.22-8.29,6.73-11.08a14.19,14.19,0,0,1,3.9-2.21c.49-.18,3.13-.68,1.33-.45a3.43,3.43,0,0,0,0-6.86c1.77.22-.59-.2-1.09-.37a13.78,13.78,0,0,1-3.82-2c-3.71-2.78-5.65-7.06-7.05-11.34A91,91,0,0,1,480.2,511q-.42-2.17-.75-4.38c-.07-.47-.13-.94-.2-1.41.12.83,0,.31,0,.11a3.44,3.44,0,0,0-6.87,0c0,.2-.1.72,0-.11-.06.39-.11.78-.17,1.17-.22,1.42-.45,2.84-.71,4.25a91.86,91.86,0,0,1-3,12.24c-1.37,4.15-3.22,8.3-6.73,11.08a14,14,0,0,1-3.9,2.22c-.49.18-3.13.68-1.33.45a3.43,3.43,0,0,0,0,6.86c-1.77-.22.59.2,1.09.37a13.52,13.52,0,0,1,3.82,2c3.7,2.77,5.64,7.06,7,11.33a91.45,91.45,0,0,1,2.94,11.87c.28,1.46.52,2.91.75,4.38.07.47.13.94.2,1.41-.12-.83,0-.31,0-.11C472.94,579.09,479.8,579.14,479.27,574.76Z"/><path fill="#571519" d="M961.44,707.77c-1.84-14.92-5.9-38.76-24.32-41.07v6.86c18.42-2.32,22.48-26.15,24.32-41.08h-6.87c1.84,14.94,5.91,38.76,24.32,41.08V666.7c-18.41,2.31-22.48,26.15-24.32,41.07-.53,4.38,6.34,4.34,6.87,0,0-.17,0-.27.17-1.22.24-1.54.49-3.08.77-4.61a101.18,101.18,0,0,1,3.27-13.27c1.5-4.56,3.54-9.1,7.4-12.16a15.41,15.41,0,0,1,4.32-2.45c.51-.18,3.31-.72,1.52-.5a3.43,3.43,0,0,0,0-6.86c1.76.22-.74-.24-1.26-.41a15.36,15.36,0,0,1-4.21-2.24c-4.08-3-6.23-7.76-7.77-12.46a98.33,98.33,0,0,1-3.19-12.87c-.3-1.58-.57-3.17-.81-4.75-.15-1-.2-1.39-.21-1.49a3.44,3.44,0,0,0-6.87,0c0,.17,0,.28-.17,1.22-.23,1.54-.49,3.08-.77,4.61a100.9,100.9,0,0,1-3.26,13.28c-1.51,4.56-3.54,9.1-7.41,12.16a15.77,15.77,0,0,1-4.32,2.45c-.51.18-3.3.72-1.52.5a3.43,3.43,0,0,0,0,6.86c-1.76-.22.75.23,1.26.41a15.36,15.36,0,0,1,4.21,2.24c4.08,3,6.23,7.76,7.78,12.46a101.63,101.63,0,0,1,3.19,12.87c.29,1.58.56,3.16.8,4.75.15,1,.2,1.38.21,1.48C955.11,712.1,962,712.15,961.44,707.77Z"/><path fill="#571519" d="M1489.63,593.77c-1.84-14.92-5.91-38.76-24.32-41.07v6.86c18.41-2.32,22.48-26.15,24.32-41.08h-6.87c1.84,14.94,5.9,38.76,24.32,41.08V552.7c-18.41,2.31-22.48,26.15-24.32,41.07-.54,4.38,6.33,4.34,6.87,0,0-.17,0-.27.17-1.22.23-1.54.49-3.08.77-4.61a99.61,99.61,0,0,1,3.27-13.27c1.5-4.56,3.53-9.1,7.4-12.16a15.41,15.41,0,0,1,4.32-2.45c.51-.18,3.3-.72,1.52-.5a3.43,3.43,0,0,0,0-6.86c1.76.22-.75-.24-1.26-.41a15.36,15.36,0,0,1-4.21-2.24c-4.08-3-6.23-7.76-7.77-12.46a100,100,0,0,1-3.2-12.87c-.29-1.58-.56-3.17-.8-4.75-.15-1-.2-1.39-.21-1.49a3.44,3.44,0,0,0-6.87,0c0,.17,0,.28-.17,1.22-.24,1.54-.49,3.08-.77,4.61a100.93,100.93,0,0,1-3.27,13.28c-1.5,4.56-3.54,9.1-7.4,12.16a15.66,15.66,0,0,1-4.32,2.45c-.51.18-3.31.72-1.52.5a3.43,3.43,0,0,0,0,6.86c-1.76-.22.74.24,1.26.41a15.36,15.36,0,0,1,4.21,2.24c4.08,3,6.22,7.76,7.77,12.46a98.33,98.33,0,0,1,3.19,12.87c.3,1.58.57,3.16.81,4.75.15,1,.2,1.38.21,1.48C1483.29,598.1,1490.16,598.15,1489.63,593.77Z"/><path fill="#571519" d="M2078.44,600.62c-1.6-12.94-5.14-33.12-21-35.12v6.86c15.88-2,19.43-22.19,21-35.13h-6.87c1.59,12.94,5.13,33.13,21,35.13V565.5c-15.88,2-19.43,22.18-21,35.12-.53,4.37,6.33,4.33,6.87,0,0-.21.1-.71,0,.18l.15-1.07c.2-1.29.41-2.59.65-3.88a85.49,85.49,0,0,1,2.75-11.17c1.22-3.72,2.88-7.46,6-9.95a12.45,12.45,0,0,1,3.45-2c.49-.18,3-.63,1.14-.4a3.43,3.43,0,0,0,0-6.86c1.78.22-.43-.16-.92-.33a12.61,12.61,0,0,1-3.41-1.83c-3.31-2.5-5-6.35-6.3-10.17a84,84,0,0,1-2.69-10.83c-.25-1.33-.47-2.66-.68-4l-.18-1.29c.13.89.05.39,0,.18a3.44,3.44,0,0,0-6.87,0c0,.21-.1.71,0-.18l-.15,1.07c-.2,1.29-.41,2.59-.65,3.88a85.49,85.49,0,0,1-2.75,11.17c-1.23,3.72-2.88,7.46-6,10a12.47,12.47,0,0,1-3.46,2c-.48.18-3,.64-1.13.41a3.43,3.43,0,0,0,0,6.86c-1.78-.23.42.15.92.32a12.76,12.76,0,0,1,3.41,1.83c3.31,2.5,5,6.35,6.3,10.17a84,84,0,0,1,2.68,10.83c.25,1.33.48,2.67.68,4,.07.43.13.86.19,1.29-.13-.89,0-.39,0-.18C2072.1,605,2079,605,2078.44,600.62Z"/></svg>