<svg xmlns="http://www.w3.org/2000/svg" enable-background="new 0 0 4500 5000" viewBox="0 0 4500 5000"><path fill="#f6af9a" d="M1546.905,1649.307c0,0,66.887-57.28,167.627-12.414
				c100.74,44.865,358.969,226.016,392.497,261.15c33.528,35.134,36.299,66.959,33.578,88.418
				c-2.722,21.459-55.612,96.748-181.616,52.735c-126.004-44.013-352.99-135.857-391.808-168.396
				C1528.364,1838.26,1461.151,1727.225,1546.905,1649.307z"/><path fill="#ffe9e9" d="M1512.229,1652.255c0,0-66.448,158.535,93.644,249.919
					c160.092,91.385,231.506,122.922,231.506,122.922s123.309-136.771,140.252-243.934
					C1977.632,1781.161,1604.213,1459.302,1512.229,1652.255z"/><path fill="#fcd2d2" d="M1605.874,1902.174c160.091,91.385,231.506,122.921,231.506,122.921s17.402-19.303,40.029-49.085
					c-14.083-36.049-52.924-135.556-68.178-175.509c-18.793-49.218-62.938-135.974-62.938-135.974s-128.484,68.174-183.025,207.456
					C1575.284,1882.594,1589.355,1892.745,1605.874,1902.174z"/><path fill="#f6af9a" d="M2098.601,2039.33c0,0,389.985-172.329,407.626-226.186c17.641-53.857-21.99-82.523-113.091-58.35
				c-91.101,24.173-345.918,69.657-401.591,124.177C1923.772,1945.34,1973.722,2080.752,2098.601,2039.33z"/><path fill="#f6af9a" d="M2412.252,1816.327c0,0-22.261-50.613,13.065-93.173
					c35.326-42.561,107.465-91.775,131.229-124.481c23.764-32.707,39.907-42.986,45.285-19.918
					c5.377,23.068-41.504,71.883-34.823,83.459c0,0,55.271-22.512,106.365-54.522c51.093-32.01,96.378-51.928,106.498-32.535
					c10.119,19.393-140.868,95.339-138.099,105.248c2.769,9.909,22.001,3.04,62.97-8.622
					c40.969-11.661,118.06-42.389,127.698-13.247c9.639,29.142-173.519,57.245-171.817,75.571
					c1.702,18.326,161.66-15.54,171.897,14.964c10.238,30.504-174.562,25.96-177.151,45.373
					c-2.589,19.412,122.125,13.836,125.103,45.907c2.979,32.071-103.137,4.035-144.532,11.114
					C2594.547,1858.545,2447.562,1892.992,2412.252,1816.327z"/><path fill="#e57e73" d="M2567.009,1662.214c-13.068,21.793-16.499,47.188-19.543,71.897
					c-7.103,31.093-38.489,54.373-69.896,54.633C2562.159,1762.979,2523.952,1710.114,2567.009,1662.214L2567.009,1662.214z"/><path fill="#ea9a88" d="M1950.216,2465.698c-0.02-0.024,374.705-510.044,471.838-609.059
					c43.07-48.555,107.248-61.241,171.276-36.33c82.193,31.978,122.901,124.531,90.923,206.725
					c-6.646,17.082-15.915,32.365-27.157,45.583c-2.649,3.115-5.408,6.113-8.269,8.993
					c-52.79,57.286-347.168,374.763-552.201,554.682c-30.628,33.931-80.144,47.27-125.274,29.711
					c-58.331-22.694-87.22-88.378-64.526-146.708C1915.706,2496.47,1931.186,2478.181,1950.216,2465.698z"/><path fill="#583d59" d="M2440.046,1801.664c0,0-95.263,109.425-140.195,162.307
					c-44.932,52.882-218.398,296.952-218.398,296.952s134.821,184.07,267.026,245.087c0,0,299.802-363.055,346.683-471.87
					C2742.043,1925.327,2670.936,1715.629,2440.046,1801.664z"/><path fill="#513452" d="M2348.479,2506.011c0,0,187.068-226.537,288.773-375.352
					c-71.423-115.322-167.901-175.16-167.901-175.16s8.788,115.346-14.728,236.827c-23.516,121.48-97.574,208.279-132.622,210.643
					c-22.987,1.551-77.159,2.878-134.961-19.891C2233.999,2430.52,2291.477,2479.702,2348.479,2506.011z"/><path fill="#ea9a88" d="M1378.502,2301.578c0.819-34.841,37.542-53.029,72.384-52.209
					c9.655,0.227,18.749,2.618,26.839,6.688c199.02,52.602,580.122,199.538,580.122,199.538
					c41.314,17.721,69.833,59.191,68.712,106.88c-1.471,62.572-45.106,107.267-117.236,114.373
					c-70.581,6.953-576.942-310.882-576.942-310.882C1401.355,2361.013,1377.744,2333.849,1378.502,2301.578z"/><path fill="#ea9a88" d="M1617.502,2457.086c0,0-49.921-19.534-147.175-33.58
							c-97.254-14.046-181.651-16.253-196.243-20.695c-14.592-4.442-97.89-67.683-104.036-73.891
							c-6.146-6.208-12.483-34.412-12.483-34.412s-37.286-45.535-40.407-54.138c-3.12-8.603,24.454-9.52,24.454-9.52
							s-28.806-23.948-27.547-34.789c1.26-10.841,41.756-4.762,41.756-4.762s-4.571-19.759,10.65-20.737
							c15.221-0.978,53.103,15.783,89.63,32.388c36.527,16.604,66.688,40.71,90.04,40.676c23.352-0.034,75.338,2.375,78.993-5.441
							c3.655-7.816-8.354-21.789-49.828-43.088c-41.475-21.3-44.203-39.101-34.813-48.997c9.39-9.896,43.774,13.326,82.758,20.603
							c38.984,7.276,69.775,25.961,98.424,51.264c28.649,25.303,57.251,73.142,117.13,89.713
							c59.878,16.571,103.042,48.488,97.846,93.207C1731.456,2445.604,1683.999,2475.8,1617.502,2457.086z"/><path fill="#e68f7c" d="M1356.299,2395.837c-12.481-0.805-22.349-11.121-22.287-23.627
						c0.03-5.993,0.528-12.483,0.923-20.244c1.051-20.659,8.941-85.137,22.923-108.238c25.682,0.349,64.152,1.143,67.278-5.542
						c5.647,5.376,16.479,17.274,22.055,30.866c7.714,18.803,16.707,56.033,74.221,80.289c0,0-1.641,12.365-12.009,25.063
						c-7.433,9.103-26.441,12.996-38.173,21.395c-7.72,5.527-17.215,8.009-26.647,6.918
						C1412.352,2398.988,1382.257,2397.512,1356.299,2395.837z"/><path fill="#e57e73" d="M1155.638,2191.674c41.824,21.775,103.213,56.976,144.307,77.297
						c7.228,3.766,14.712,6.931,22.575,9.156c1.494,0.373,15.224,4.583,13.17,2.228
						C1278.032,2248.746,1215.037,2214.817,1155.638,2191.674L1155.638,2191.674z"/><path fill="#e57e73" d="M1141.419,2231.22c32.637,18.688,80.749,45.487,113.406,63.809
						c22.761,11.441,46.7,30.537,72.913,28.735C1268.508,2295.216,1200.292,2256.514,1141.419,2231.22L1141.419,2231.22z"/><path fill="#e57e73" d="M1157.493,2294.919c60.105,8.647,108.26,75.134,167.069,70.392
						c-35.729-12.45-69.15-30.209-102.453-48.192C1203.306,2305.86,1177.445,2294.982,1157.493,2294.919L1157.493,2294.919z"/><path fill="#e57e73" d="M1424.851,2238.491c38.241,45.904,26.022,92.579,101.798,113.677
						c1.435-1.479-6.496-4.836-7.859-6.272C1441.73,2298.889,1466.073,2272.116,1424.851,2238.491L1424.851,2238.491z"/><path fill="#ea9a88" d="M1337.434,2394.488c0.07-43.918,3.632-87.199,12.87-130.169
						C1330.182,2301.71,1325.796,2353.782,1337.434,2394.488L1337.434,2394.488z"/><g><path fill="#d4836a" d="M1180.987,1664.527c0,0-100.996,13.244-147.944,50.58c-46.948,37.336-56.1,92.985-71.355,158.212
				c-15.254,65.227-106.781,742.523-109.832,834.049s244.589,117.124,329.13,107.017
				C1265.529,2804.279,1180.987,1664.527,1180.987,1664.527z"/><path fill="#c2735b" d="M964.344,2794.18c75.992,20.611,170.554,25.717,216.644,20.207
				c84.542-10.107,0-1149.859,0-1149.859s-100.996,13.244-147.944,50.58c-9.159,7.284-16.865,15.274-23.473,23.887
				c12.609-7.416,27.602-12.485,44.249-10.958c49.918,4.576,3.42,88.348-5.365,207.777c-8.785,119.429-1.629,184.77-25.801,411.806
				c-24.171,227.036-24.171,325.426-21.883,382.631C1002.209,2766.209,986.464,2783.98,964.344,2794.18z"/><path fill="#f6af9a" d="M1925.239,3422.621c0,0-110.456,818.836-123.869,895.126
										c-13.412,76.29-150.104,106.207-162.445-13.019c-12.341-119.226-28.435-355.531-41.59-464.604
										c-13.154-109.073-2.433-331.951,11.816-411.911C1639.713,3256.714,1929.333,3249.271,1925.239,3422.621z"/><path fill="#f6af9a" d="M1809.951,4242.379c0,0,7.101,52.159,62.494,81.376
										c68.555,36.159,223.493,60.271,223.457,116.654c-0.044,69.849-142.359,62.799-197.437,55.22
										c-55.078-7.58-112.919-16.217-164.125-10.086c-51.206,6.132-112.946-3.601-116.218-54.172
										c-3.272-50.572,19.283-107.943,14.719-175.104C1626.621,4164.748,1789.357,4112.675,1809.951,4242.379z"/><path fill="#dda57f" d="M2109.143,4456.164c0,0,8.768,21.574,7.446,36.672
											c-1.323,15.098-8.027,14.329-15.786,20.247c-7.759,5.918-79.689,19.606-144.442,19.224
											c-64.753-0.382-117.8-16.699-170.843-15.025c-53.043,1.673-144.711,1.274-160.515-4.276
											c-15.804-5.55-18.236-34.808-16.073-49.878c2.163-15.071,15.908-24.096,21.747-22.543
											C1636.514,4442.136,2109.143,4456.164,2109.143,4456.164z"/><path fill="#d49870" d="M1608.929,4463.125c-2.162,15.071,0.269,44.328,16.073,49.878
											c10.055,3.532,50.82,4.976,92.807,5.13c0.273-18.829-0.886-43.959-7.015-66.118c-0.812-2.934-1.813-5.724-2.953-8.404
											c-45.361-1.516-75.762-2.656-77.166-3.029C1624.837,4439.03,1611.092,4448.054,1608.929,4463.125z"/><path fill="#ffe9e9" d="M2112.918,4467.358c0,0,8.953-37.956-11.654-70.904
										c-25.61-40.948-83.577-36.042-140.392-47.947c-56.816-11.905-91.742-43.433-105.636-47.433
										c-13.894-3.999-22.009-56.214-47.27-55.337c-25.261,0.877-48.055,3.514-54.178,10.889
										c-6.123,7.375-8.687,35.05-13.184,44.159c-4.496,9.108-85.38-18.985-107.193-30.895s-11.492,18.699-11.492,18.699
										s-37.068,101.434-12.99,174.537c0,0,54.734,27.024,147.163,20.695C1848.52,4477.493,1976.219,4514.762,2112.918,4467.358z"/><path fill="#ffd9d9" d="M1716.542,4484.596c-1.048-10.869-2.838-22.061-5.748-32.581
										c-11.634-42.059-59.062-57.272-83.223-67.324s-19.318-45.833-19.318-45.833c-7.358,35.714-12.508,84.237,0.676,124.267
										C1608.929,4463.125,1648.268,4482.534,1716.542,4484.596z"/><path fill="#f6af9a" d="M1575.627,2307.281c0,0,152.204-7.394,210.507,187.406
									c58.303,194.8,141.086,816.316,140.245,904.984c-0.84,88.668-46.391,133.699-93.901,143.649
									c-47.51,9.949-161.081-10.314-228.904-168.104c-67.823-157.79-210.859-549.534-259.068-710.619
									C1296.297,2503.512,1330.607,2312.564,1575.627,2307.281z"/><path fill="#f6af9a" d="M1793.799,1913.089c0,0-13.461,209.516,0,355.021c13.461,145.505,6.833,201.444-49.428,310.088
							c-56.262,108.644-177.817,269.993-269.901,256.412c-92.084-13.58-379.214-161.026-381.154-341.452
							c-1.94-180.427,67.238-256.848,48.169-508.678C1122.416,1732.651,1784.218,1674.473,1793.799,1913.089z"/><path fill="#f6af9a" d="M1253.265,2388.01c0,0,221.624-10.143,250.294,203.297
								c28.67,213.44-40.527,863.409-69.391,945.229c-28.863,81.821-253.125,148.995-289.49-32.198
								c-36.365-181.193-91.317-713.952-90.855-835.233C1054.285,2547.825,1063.406,2401.998,1253.265,2388.01z"/><path fill="#f6af9a" d="M1443.227,3503.448c0,0-100.253,777.208-113.666,853.498
										c-13.413,76.29-150.104,106.207-162.445-13.019c-12.341-119.226-28.435-355.531-41.59-464.604
										c-13.154-109.073,1.809-331.311,11.816-411.912C1156.867,3310.155,1447.322,3330.098,1443.227,3503.448z"/><path fill="#f6af9a" d="M1338.142,4281.579c0,0,11.253,58.623,70.808,77.991
										c59.555,19.368,232.888,63.542,232.853,119.926c-0.044,69.849-160.069,62.913-215.147,55.334
										c-55.078-7.58-112.919-16.217-164.125-10.085c-51.206,6.132-112.945-3.601-116.218-54.172
										c-3.272-50.572,19.283-107.943,14.719-175.104C1154.813,4203.947,1317.548,4151.874,1338.142,4281.579z"/><path fill="#dda57f" d="M1637.168,4495.363c0,0,8.768,21.574,7.446,36.672
											c-1.323,15.098-8.027,14.329-15.786,20.247c-7.759,5.918-79.689,19.606-144.443,19.224
											c-64.753-0.382-117.633-16.699-170.676-15.025c-53.043,1.673-144.711,1.274-160.515-4.276
											c-15.804-5.55-18.236-34.808-16.073-49.878c2.163-15.071,15.908-24.096,21.747-22.542
											S1637.168,4495.363,1637.168,4495.363z"/><path fill="#ffe9e9" d="M1640.943,4506.557c0,0,22.904-39.095,2.297-72.044
										c-25.61-40.947-108.604-48.351-165.42-60.256c-56.816-11.905-80.499-29.984-94.392-33.983
										c-13.894-4-22.009-56.215-47.27-55.338c-25.261,0.877-34.91,2.655-41.033,10.03c-6.123,7.375-1.768,41.899-6.264,51.008
										c-4.496,9.108-105.445-24.975-127.258-36.884c-21.813-11.91-11.492,18.699-11.492,18.699s-37.068,101.433-12.99,174.536
										c0,0,54.734,27.024,147.163,20.696C1376.712,4516.692,1504.244,4553.962,1640.943,4506.557z"/><g><path fill="#583d59" d="M1803.355,2418.432c4.304-49.577,3.626-90.467,3.626-90.467s-6.938-0.031-19.443-0.125
							c-104.049-0.781-587.299-5.858-673.539-32.649c0,0-25.243,55.32-44.646,132.119c-6.143,24.312-11.699,50.771-15.685,78.315
							c-12.893,68.502-30.099,170.556-36.88,258.796c-11.441,148.884-82.445,596.146-82.445,596.146s72.43,34.76,140.235,37.048
							l-7.899,45.306c0,0,278.109,37.784,409.154,23.697l2.724-30.011c0,0,148.849,22.788,306.765-0.093l10.893,29.438
							c0,0,158.463-4.269,259.142-50.031L1803.355,2418.432z"/><path fill="#513452" d="M980.25,3378.638c26.432,8.847,60.938,17.848,94.328,18.975c0,0,69.584-429.576,78.737-562.198
							c0,0-73.903,361.62-99.495,447.045C1036.313,3340.901,1000.886,3367.6,980.25,3378.638z"/><path fill="#513452" d="M1494.851,2834.896l-16.293,601.709c0,0,20.694,3.167,54.824,5.954
							C1529.623,3353.311,1494.851,2834.896,1494.851,2834.896z"/><path fill="#513452" d="M1748.209,3441.105c12.27-1.27,24.663-2.789,37.114-4.593l-78.256-605.166L1748.209,3441.105z"/><path fill="#472d47" d="M1806.982,2327.965c0,0-6.938-0.032-19.443-0.126c-104.049-0.781-587.299-5.858-673.54-32.649
							c0,0-3.729,8.174-9.42,22.589c49.508,19.175,254.595,92.508,466.317,80.2c122.828-7.14,194.615-21.07,235.604-33.109
							C1807.222,2342.564,1806.982,2327.965,1806.982,2327.965z"/></g><g><path fill="#f6af9a" d="M1481.328,1559.368c0,0,227.787,18.545,274.349,139.314
							c46.562,120.769,53.038,354.081-56.091,381.727s-497.628,32.011-541.279-49.472c-43.651-81.483-52.218-288.625,48.34-395.986
							C1299.771,1535.527,1481.328,1559.368,1481.328,1559.368z"/><path fill="#f6af9a" d="M1330.003,1395.079c0,0,20.371,133.865-34.921,199.342
								c-55.292,65.478,279.37,164.421,270.64-16.006c0.168-27.646-9.039-80.039-10.186-139.685
								C1552.626,1287.405,1337.278,1287.405,1330.003,1395.079z"/><path fill="#efa18f" d="M1371.234,1386.288c8.285,54.898,34.61,121.303,80.487,152.558
								c48.981,33.37,65.195,41.339,113.993,37.688c-0.232-28.096-9.056-79.474-10.177-137.804
								C1552.626,1287.405,1378.509,1278.615,1371.234,1386.288z"/><path fill="#ffe9e9" d="M1113.999,2295.19c0,0-7.246-7.124-3.666-46.875c3.579-39.751,19.704-212.462,17.011-269.734
							s-30.434-233.205,68.002-349.718c29.531-38.225,121.532-72,121.532-72s147.826,49.45,207.782,43.186
							c59.957-6.264,41.053-26.127,41.053-26.127l-0.34-6.996c0,0,76.818,22.413,109.716,33.362s73.685,53.155,90.937,106.847
							c17.252,53.693,39.679,149.269,40.994,230.343c1.315,81.074,0.122,198.004,4.895,271.981
							c4.773,73.976,6.838,100.991-4.933,118.506C1806.982,2327.965,1432.661,2404.784,1113.999,2295.19z"/><path fill="#fcd2d2" d="M1693.626,2344.305c-16.079-7.418-35.199-18.092-52.773-32.728
							c-40.778-33.961-172.38-161.777-172.38-161.777l23.673-8.352c0,0-26.25-184.941-40.084-276.628
							c-13.834-91.687-57.929-179.861-57.929-179.861s-219.369,73.482-244.4,118.074c-5.922,10.55-16.057,40.134-27.929,79.802
							c0.614,41.316,4.6,75.759,5.539,95.744c2.693,57.272-13.432,229.983-17.011,269.734c-3.58,39.751,3.666,46.875,3.666,46.875
							C1324.093,2367.445,1558.369,2358.671,1693.626,2344.305z"/><path fill="#fcd2d2" d="M1520.842,1681.092c0,0,17.241-68.216,34.542-78.358c17.301-10.142,50.71,30.426,50.71,30.426
							s-8.884-37-25.621-61.799c-9.203-2.714-15.099-4.434-15.099-4.434l0.34,6.996c0,0,18.903,19.863-41.054,26.127
							c-59.956,6.264-207.782-43.186-207.782-43.186s-7.478,2.746-18.847,7.554
							C1298.034,1564.42,1408.149,1656.838,1520.842,1681.092z"/><path fill="#ffe9e9" d="M1325.487,1529.287c0,0-18.733,10.293-27.456,35.186c0,0,112.98,75.901,215.891,99.168
							c0,0,25.453-56.377,39.573-63.536c14.12-7.159,47.23,23.267,47.23,23.267s-16.341-42.444-20.251-52.011
							c0,0-7.035-8.669-15.652-12.446l0.892,15.064c0,0,0.266,14.246-15.997,19.639c-16.263,5.393-108.951,8.725-226.403-38.703
							L1325.487,1529.287z"/><path fill="#fcd2d2" d="M1553.495,1600.049c28.334,65.594,50.803,133.865,65.948,203.8
							c10.706,54.492,18.425,109.513,25.889,164.524c13.5,110.026,26.41,221.054,20.587,332.075
							c-1.192,15.846-2.828,31.781-6.749,47.172l0.53-5.919c1.212-13.743,1.011-27.584,0.638-41.365
							c-6.213-125.852-25.485-251.302-41.152-376.313c-4.659-33.999-10.856-83.326-16.291-117.063
							C1590.945,1737.066,1572.82,1668.353,1553.495,1600.049L1553.495,1600.049z"/></g><g><path fill="#7a4040" d="M1729.604,1074.387c0,0,14.843,100.804,17.491,154.696
						c2.648,53.892-12.456,292.689-12.456,292.689s-10.631,13.329-40.498,10.789c-29.867-2.54-93.286-8.026-110.548-4.733
						l14.192-458.476L1729.604,1074.387z"/><path fill="#f6af9a" d="M1447.181,885.895c0,0,190.296-39.62,258.114,162.448
						c67.819,202.068,29.073,450.037-50.74,487.408c-89.11,41.724-273.078-21.18-351.45-177.648
						C1224.734,1201.635,1215.368,931.919,1447.181,885.895z"/><path fill="#8c4949" d="M1687.677,938.445c-65.963-77.681-189.806-110.303-263.977-83.517
							c0,0-171.929-8.271-237.143,172.706c-8.475,23.518-14.662,46.21-18.942,68.045c0,0-24.473,79.645-11.2,244.117
							c5.795,71.819,16.836,172.624,16.836,172.624s36.66,7.193,71.016,0c34.356-7.193,37.233,6.359,66.004,15.407
							c28.771,9.048,45.796,11.091,71.808,0c0,0,16.49-118.154,15.317-187.511c3.154-10.563,6.163-19.832,9.32-27.208
							c9.73-22.734,44.902-24.519,44.902-24.519s13.908-6.091,10.179-89.652c-3.836-85.95,43.109-120.922,52.963-160.498
							c0,0,29.419,34.78,30.255,104.996c0,0,54.97,6.474,88.492-8.631c0,0,16.181-33.297,6.51-68.436
							c0,0,27.113,31.753,27.062,66.278c0,0,45.329,10.362,80.017-10.772C1747.096,1121.875,1753.64,1016.126,1687.677,938.445z"/><path fill="#7a4040" d="M1397.458,882.751c-173.998,28.981-208.336,235.385-199.589,383
								c5.121,72.159,19.12,146.668,4.512,218.378c7.978-72.51-8.946-145.154-15.794-217.242
								C1173.281,1116.821,1215.248,898.272,1397.458,882.751z"/><path fill="#7a4040" d="M1442.137,905.839c-200.426,108.561-180.529,288.547-163.528,484.935
								c1.383,26.663-1.936,54.206-14.85,78.012c15.931-37.449,8.802-78.044,3.851-117.02
								C1237.853,1171.774,1251.954,985.552,1442.137,905.839z"/><path fill="#7a4040" d="M1485.293,927.803c-99.047,78.096-139.5,214.164-138.878,336.441
								c5.213,74.96,11.383,155.756-18.402,226.599c28.863-89.267,2.632-183.197,6.656-274.356
								C1345.793,1107.675,1388.344,987.932,1485.293,927.803z"/><path fill="#7a4040" d="M1423.7,854.928c56.224,4.028,128.094,33.027,155.145,85.435
								C1535.432,898.778,1478.204,878.077,1423.7,854.928L1423.7,854.928z"/><path fill="#7a4040" d="M1523.654,969.134c40.523,35.362,60.901,100.727,46.803,152.741
								C1565.536,1067.818,1549.627,1016.755,1523.654,969.134L1523.654,969.134z"/><path fill="#7a4040" d="M1571.139,969.134c27.119,38.5,50.271,102.327,43.432,149.608
								C1602.202,1067.891,1583.549,1019.957,1571.139,969.134L1571.139,969.134z"/><path fill="#7a4040" d="M1633.506,961.462c48.427,31.792,71.404,101.611,60.636,157.28
								C1685.711,1062.357,1668.647,1007.091,1633.506,961.462L1633.506,961.462z"/><path fill="#7a4040" d="M1663.834,949.954c54.253,28.499,73.595,98.866,70.805,156.321
								C1718.854,1051.392,1705.116,992.014,1663.834,949.954L1663.834,949.954z"/><path fill="#7a4040" d="M1485.293,988.315c-45.672,66.004-61.31,110.663-56.662,191.301
								c-0.365,9.911-0.288,20.702-4.931,29.708c0.678-44.644-15.772-90.88,1.348-134.817
								C1437.427,1041.3,1459.011,1011.831,1485.293,988.315L1485.293,988.315z"/><path fill="#e57e73" d="M1657.334,1351.269c12.126-0.571,29.003-3.195,34.761-12.967
							c2.175-3.692,3.715-9.83-1.308-18.102c-19.749-32.528-31.756-85.296-31.876-85.824c-0.819-3.652-4.445-5.949-8.099-5.127
							c-3.651,0.82-5.949,4.446-5.127,8.097c0.504,2.248,13.153,55.261,34.069,89.707c0.436,0.721,1.324,3.228,0.661,4.363
							c-2.576,4.414-19.65,6.882-33.355,6.349c-3.741-0.133-6.892,2.766-7.038,6.507c-0.148,3.74,2.763,6.891,6.502,7.041
							C1648.896,1351.408,1652.78,1351.483,1657.334,1351.269z"/><circle cx="1565.436" cy="1330.941" r="34.889" fill="#efa18f" transform="rotate(-75.097 1565.383 1330.888)"/><path fill="#efa18f" d="M1740.027,1283.082c-0.144-0.014-0.269-0.07-0.407-0.083
							c-19.147-2.15-36.414,11.638-38.554,30.787c-2.145,19.148,11.638,36.414,30.787,38.554c1.214,0.135,2.385,0.07,3.571,0.042
							C1738.056,1330.304,1739.627,1307.06,1740.027,1283.082z"/><path fill="#121d3f" d="M1560.1,1256.611c1.49,14.343,11.089,25.098,21.442,24.023
							c10.352-1.075,17.537-13.574,16.047-27.917c-1.489-14.343-11.089-25.098-21.442-24.023
							C1565.795,1229.77,1558.611,1242.268,1560.1,1256.611z"/><path fill="#121d3f" d="M1687.863,1244.828c1.418,13.652,10.555,23.89,20.41,22.867
							c9.854-1.023,16.693-12.92,15.275-26.573c-1.418-13.652-10.556-23.89-20.41-22.867
							C1693.284,1219.279,1686.445,1231.175,1687.863,1244.828z"/><path fill="#efa18f" d="M1637.064,1463.091c1.078,0.121,2.201-0.194,3.082-0.963
							c15.583-13.611,29.416-4.084,29.997-3.672c1.803,1.274,4.295,0.864,5.582-0.924c1.285-1.789,0.892-4.274-0.89-5.569
							c-6.65-4.834-23.56-10.19-39.958,4.132c-1.666,1.456-1.836,3.986-0.381,5.652
							C1635.179,1462.531,1636.104,1462.983,1637.064,1463.091z"/><path fill="#fff" d="M1706.52,1386.264c-16.755,1.299-82.221,6.192-116.78,6.131
							c-2.343-0.004-3.461,2.87-1.724,4.442c11.014,9.96,39.829,32.771,70.98,30.927c32.116-1.901,45.958-28.019,50.091-37.986
							C1709.818,1388.017,1708.421,1386.116,1706.52,1386.264z"/><path fill="#8c4949" d="M1591.054,1184.013c0,0,25.317-0.617,23.414,13.888c-1.527,11.641-89.094,20.988-96.974,12.965
							C1509.614,1202.844,1537.104,1187.822,1591.054,1184.013z"/><path fill="#8c4949" d="M1746.924,1175.897c-1.175-6.883-9.871-8.509-14.488-8.507
							c-12.658,0.388-27.244,2.469-46.312,7.076c0,0-24.316,7.077-18.11,20.325c3.293,7.029,40.269,1.277,67.677-6.03
							C1740.542,1187.142,1748.349,1184.243,1746.924,1175.897z"/><g><path fill="#f6af9a" d="M1451.618,1288.59c0,0-9.032-79.087-56.282-74.454c-47.251,4.633-39.75,70.844-4.603,110.486
						C1410.405,1346.811,1460.953,1371.941,1451.618,1288.59z"/><path fill="#e57e73" d="M1431.308,1307.682c-0.293-2.122-7.563-52.023-43.897-55.544
						c-2.66-0.247-4.967,1.672-5.215,4.294c-0.258,2.628,1.664,4.962,4.292,5.217c10.207,0.989,17.6,7.167,22.909,14.745
						c-6.937-2.328-15.863-3.606-24.459,0.163c-2.419,1.06-3.514,3.878-2.457,6.295c1.062,2.414,3.866,3.513,6.295,2.457
						c12.436-5.437,27.517,4.963,27.669,5.066c0.111,0.078,0.231,0.131,0.346,0.199c3.777,9.739,5.022,18.219,5.048,18.414
						c0.36,2.566,2.693,4.371,5.248,4.092c0.046-0.005,0.093-0.01,0.139-0.018
						C1429.839,1312.703,1431.664,1310.295,1431.308,1307.682z"/></g></g><g><path fill="#d4836a" d="M1088.16,1686.832c0,0,103.97-106.105,181.428-109.485
				c77.458-3.38,183.061,90.975,217.209,214.647s16.78,495.684-8.564,635.315c-25.344,139.631-208.985,301.416-491.7,254.636
				l6.61-80.211c0,0,159.247,39.851,305.394-47.418s153.007-570.798,141.182-680.997c-11.825-110.198-36.336-227.36-153.413-253.59
				c-84.24-18.873-119.806,50.829-119.806,50.829S1129.786,1697.493,1088.16,1686.832z"/><path fill="#d4836a" d="M1580.473,1571.361c0,0,61.033,10.742,75.5,15.827c14.466,5.085,80.555,30.18,110.054,93.904
				c29.499,63.724,67.635,257.455,67.635,352.033c0,94.577-9.474,337.819-30.306,385.307c0,0,3.738-44.992-1.283-123.242
				c-5.021-78.25-5.784-264.354-17.225-353.592s-51.83-249.18-77.78-287.431C1681.117,1615.917,1580.473,1571.361,1580.473,1571.361
				z"/></g></g><g><path fill="#ea9a88" d="M2507.78,4394.854c-95.028,7.291-177.974-63.834-185.265-158.862
							c-6.513-84.886,49.549-160.124,129.322-180.415c0,0,144.208-50.563,356.196-82.222
							c266.787-39.843,634.41,11.386,901.101-14.242c46.805-3.591,87.658,31.441,91.249,78.245
							c3.591,46.805-31.44,87.659-78.245,91.25c0,0-917.36,197.837-1161.98,253.842
							C2543.871,4389.137,2526.281,4393.435,2507.78,4394.854z"/><path fill="#7d99b3" d="M2314.286,4196.339c0,0-34.197,226.357,206.06,211.881s752.805-105.607,752.805-105.607
							s36.611-181.16-73.221-355.06c0,0-230.264-6.865-438.907,20.594S2339.33,4033.256,2314.286,4196.339z"/><path fill="#6f8ba6" d="M2765.232,3967.603l-36.664,196.973c123.03-59.307,189.606-160.401,217.443-212.89
							C2888.177,3954.793,2825.867,3959.767,2765.232,3967.603z"/><path fill="#ea9a88" d="M2327.356,4163.798c10.231-43.122,72.54-301.715,167.019-608.201
							c86.261-279.826,151.997-489.138,184.319-584.307c35.756-145.424,180.907-237.019,328.342-205.438
							c150.222,32.178,245.915,180.043,213.737,330.265c-1.628,7.598-3.565,15.049-5.77,22.359l0.915,0.307
							c0,0-140.672,442.705-552.571,1123.627c-19.962,93.193-111.693,152.559-204.887,132.597
							c-93.193-19.962-152.558-111.693-132.596-204.887C2326.32,4167.994,2326.826,4165.889,2327.356,4163.798z"/><path fill="#7d99b3" d="M3021.453,2746.705c0,0-270.744-49.323-361.9,227.962
							c-91.156,277.285-304.792,979.75-337.552,1155.938s42.21,232.59,98.906,248.266c56.697,15.676,158.534,35.204,246.826-93.946
							s422.364-795.005,525.331-1000.939C3296.032,3078.051,3254.845,2767.735,3021.453,2746.705z"/><path fill="#6f8ba6" d="M2634.753,3535.683c13.982-2.542,327.668-0.848,431.875-0.212
							c27.013-53.405,52.062-103.155,73.858-146.554c-137.539-23.621-394.092-65.137-586.097-81.291
							c-49.019,159.338-102.223,337.056-145.748,489.66c132.842,68.935,293.232,124.332,293.232,124.332l111.357-99.154
							C2796.45,3801.11,2617.974,3538.734,2634.753,3535.683z"/><path fill="#fff" d="M3772.534,3890.169c0,0,23.38-35.202,35.009-38.572c28.669-8.306,41.295,9.893,56.078,18.759
						s46.852,55.287,51.451,103.715c4.6,48.428,26.743,185.196,44.929,237.466c18.186,52.271,34.998,83.956,36.61,114.319
						c1.613,30.364-72.437,164.824-111.986,196.621c-39.549,31.797-57.332,43.297-84.899,37.569
						c-9.681-2.012-17.281-12.916-11.325-25.278c4.432-9.198,93.583-163.61,100.66-209.685S3772.534,3890.169,3772.534,3890.169z"/><path fill="#ea9a88" d="M3761.948,4412.153c24.342-85.509,11.075-122.942-19.433-166.924
							c-30.508-43.982-86.897-81.596-110.124-95.938c-56.831-4.469-102.267-26.337-106.415-81.049
							c-4.148-54.712,26.786-94.677,81.5-98.825c0,0,53.885-13.249,80.008-40.389c26.122-27.141,79.378-50.12,128.927-33.749
							c49.549,16.372,64.406,81.633,65.866,153.984c1.46,72.351,51.738,197.378,70.225,255.354
							c18.485,57.977-119.699,233.791-164.099,230.151C3766.466,4532.971,3739.944,4489.45,3761.948,4412.153z"/><path fill="#ffe9e9" d="M3761.204,4414.843c0,0,71.79-17.105,141.148,41.613c0,0,69.606-106.932,68.705-143.567
							c-0.901-36.635-65.443-158.208-65.443-158.208s-113.54,24.26-163.099,90.548c0,0-0.517,6.579,3.926,17.417
							c4.444,10.837,20.107,45.478,21.453,68.947c1.345,23.469-9.653,64.334-11.151,71.765
							C3755.246,4410.789,3761.204,4414.843,3761.204,4414.843z"/><path fill="#ffe9e9" d="M3671.301,3942.134c0,0,135.086,140.934,165.714,252.051l23.523-7.758
							c0,0-63.066-145.038-93.326-198.581s-50.973-80.474-50.973-80.474S3684.279,3916.103,3671.301,3942.134z"/><path fill="#ffe9e9" d="M3783.692,4040.936c0,0,52.186,31.507,102.026,20.564l3.822,23.968
							c0,0-60.541,7.682-99.479-20.051L3783.692,4040.936z"/><path fill="#ffe9e9" d="M3786.946,3889.936c0,0,40.249,18.647,57.091,46.068
							c16.843,27.421,24.205,110.098,31.79,150.566c7.585,40.468,29.447,108.755,35.145,138.03
							c5.699,29.274,15.449,112.433,14.147,131.226c-1.302,18.793-105.931,159.109-118.331,173.67c0,0,15.186,13.341,32.304,6.511
							c17.118-6.83,107.247-136.546,121.444-184.847c14.198-48.3-47.982-220.734-52.203-273.78s-36.869-162.361-57.545-183.098
							S3786.946,3889.936,3786.946,3889.936z"/><g><path fill="#f6af9a" d="M2700.336,2788.199c10.717-37.563,17.922-76.427,22.708-113.566
						c0.001-0.004,43.098-133.685,331.567-132.867c254.071,0.721,272.638,73.807,272.638,73.807
						c23.038,82.347,99.254,235.801,132.522,310.578c91.729,206.181,60.599,218.014,42.4,343.327
						c-26.502,182.486-345.926,199.513-515.299,148.47c-256.399-77.27-298.786-264.469-298.786-264.469
						S2657.717,2937.587,2700.336,2788.199z"/><path fill="#8aa6bf" d="M2704.924,2710.626c0,0-16.514,66.913-27.325,126.406
						c-10.811,59.492-13.862,151.524-10.811,229.069c3.051,77.544,22.027,160.457,113.981,251.714
						c91.954,91.257,297.416,158.385,492.908,146.874s270.239-153.141,270.239-330.907c0-177.766-147.944-359.293-201.346-484.38
						C3342.57,2649.402,2945.943,2742.229,2704.924,2710.626z"/><path fill="#7d99b3" d="M2852.891,2885.776c-74.314,15.173-152.247,18.465-181.673-1.727
						c-5.526,55.174-6.761,122.83-4.431,182.052c0.857,21.787,2.972,43.998,7.608,66.698
						c180.84-61.863,515.326-263.512,515.326-263.512S2942.893,2867.4,2852.891,2885.776z"/></g><g><path fill="#f6af9a" d="M3237.922,2886.447c153.265-10.582,286.089,105.086,296.67,258.351
							s-105.086,286.089-258.351,296.67c0,0-169.417,29.053-616.542,22.164c-447.125-6.889-582.034-10.872-582.034-10.872
							c-95.081,6.564-177.481-65.193-184.046-160.274c-5.827-84.4,50.062-158.801,129.196-179.044
							c0,0,108.478-48.684,539.714-122.347c353.803-60.436,543.519-87.377,642.165-100.342
							C3215.545,2888.688,3226.628,2887.227,3237.922,2886.447z"/><path fill="#8aa6bf" d="M3535.264,3081.102c0,0-35.822-196.782-264.638-212.036
							c-228.816-15.254-933.901,140.34-1094.669,184.578c-160.768,44.238-301.109,59.219-301.109,242.408
							s184.578,174.037,291.359,180.139c106.781,6.102,993.062,0.009,1107.47-11.502S3587.867,3386.19,3535.264,3081.102z"/><path fill="#7d99b3" d="M3273.677,3464.689c28.821-2.9,63.06-9.328,97.317-22.189
							c-69.809-0.067-203.518-0.111-294.625,0.394c-128.242,0.711-526.277-3.313-608.651-82.328
							c-82.374-79.015-217.375-147.513-217.375-147.513s-70.875,145.819-58.306,264.069
							C2372.224,3481.575,3165.836,3475.54,3273.677,3464.689z"/><path fill="#f6af9a" d="M1904.599,3378.672c-4.601-9.256-8.439-19.053-11.395-29.343
							c-26.318-91.602,5.854-199.255,97.455-225.573c63.26-18.175,142.362-15.007,185.298,29.042
							c0,0,190.806,135.562,313.42,331.471c122.614,195.91,393.234,774.386,393.234,774.386
							c5.355,7.597,27.103,42.528,29.815,51.968c12.963,45.117-30.629,65.86-75.746,78.823
							c-35.667,10.247-72.545-3.911-92.841-32.575c-0.012,0.009-697.325-742.461-829.753-961.529
							C1910.641,3390.007,1907.469,3384.448,1904.599,3378.672L1904.599,3378.672z"/><path fill="#ffe9e9" d="M2273.55,4536.466c0,0-13.849,7.533-10.647,20.753c3.202,13.221-3.916,26.734,18.457,33.491
							c22.373,6.757,171.866,6.757,264.41,6.757c92.543,0,181.867-28.044,228.732-22.96c46.865,5.085,193.125,8.19,224.651-14.237
							c8.135-9.207,3.051-65.794-10.17-70.043s-74.238,0-74.238,0L2273.55,4536.466z"/><path fill="#f6af9a" d="M2295.389,4458.675c66.935-51.293,341.128-116.107,382.845-137.648
								c41.718-21.542,14.844-67.292,14.844-67.292c-11.875-36.614,21.253-57.505,38.594-57.396
								c55.634,0.351,113.742-14.123,160.119,77.657c3.032,10.461,30.281,46.126,47.011,69.008
								c16.73,22.881,53.407,93.716,37.64,150.132c-15.766,56.415-218.194,30.137-291.348,46.467
								c-146.442,32.689-316.129,20.937-361.309,19.672C2278.603,4558.009,2228.455,4509.967,2295.389,4458.675z"/><path fill="#ffe9e9" d="M2284.307,4546.139c0,0,215.445,17.395,320.7,0s215.85-18.92,263.138-22.733
							c47.289-3.813,53.125-0.806,103.216-20.615c0,0,3.565,20.16-7.876,30.303c-11.441,10.143-246.359,6.24-286.02,20.776
							C2637.804,4568.406,2320.56,4607.009,2284.307,4546.139z"/><path fill="#ffe9e9" d="M2359.164,4425.809c0,0,68.638,36.833,65.587,134.461c0,0,151.527,7.979,267.46-17.367
							c0,0-0.185-143.926-88.568-196.501c0,0-17.323-3.761-34.484,1.959c-17.161,5.721-195.256,63.688-203.646,67.12
							C2357.123,4418.913,2359.164,4425.809,2359.164,4425.809z"/><path fill="#ffe9e9" d="M2655.601,4474.298c0,0,198.897-93.972,246.908-183.493c0,0,21.648,17.068,32.033,46.401
							c0,0-53.176,47.639-123.346,89.334c-70.17,41.695-149.493,61.799-149.493,61.799L2655.601,4474.298z"/><path fill="#8aa6bf" d="M2761.022,3829.203c-134.751-207.421-325.161-479.157-439.021-586.405
						c-176.867-166.595-305.336-161.456-396.72-89.881c0,0-102.633,75.527-40.948,232.578
						c40.381,102.813,302.418,421.69,478.596,629.683C2448.923,3992.291,2649.604,3930.661,2761.022,3829.203z"/></g><g><path fill="#f6af9a" d="M3278.258,2267.322c-22.561-117.483-32.92-203.076-41.718-320.385
							c-17.157-228.753-114.047-323.528-236.443-335.597c-122.396-12.07-284.295,32.549-284.295,32.549
							c-261.284,85.976-287.745,206.182-287.745,206.182c23.56,50.895,48.441,59.351,63.118,169.158
							c14.677,109.807,6.516,330.62,34.898,396.968c28.383,66.348,107.485,83.204,107.485,83.204s54.525,114.452,88.719,220.554
							c0,0,47.001,1.978,309.091-27.841c254.749-28.983,305.104-42.712,305.104-42.712
							C3304.429,2583.649,3289.155,2324.07,3278.258,2267.322z"/><path fill="#f6af9a" d="M2582.382,1749.762c0,0-80.687-274.908-80.687-274.908
								c-17.178-54.047,2.243-115.121,51.596-148.527c60.079-40.665,141.749-24.927,182.414,35.152
								c5.534,8.176,10.015,16.753,13.49,25.571c0.003-0.001,126.55,280.92,126.55,280.92c0.927,1.941,1.802,3.897,2.641,5.863
								c28.423,66.931,6.637,146.416-55.578,188.527c-70.681,47.841-166.762,29.327-214.604-41.355
								C2593.295,1798.981,2584.833,1774.491,2582.382,1749.762z"/><path fill="#ea9a88" d="M2501.695,1474.854c-17.178-54.048,2.243-115.122,51.596-148.527
								c60.079-40.665,141.749-24.927,182.413,35.152c5.534,8.176,10.015,16.754,13.49,25.571
								c0.003-0.001,6.576,14.589,6.576,14.589c-11.071,143.936-78.765,272.172-177.931,332.646L2501.695,1474.854
								L2501.695,1474.854z"/><path fill="#583d59" d="M2845.148,1600.049c0,0-100.67,128.079-178.868,167.649s-96.473-60.781-96.473-60.781
						l-1.368-4.661c0,0-68.941,41.035-101.483,68.238c-32.543,27.204-44.492,67.628-48.051,76.526c0,0,1.525,26.695,24.407,67.882
						s38.899,101.442,40.424,179.239c1.525,77.798-0.213,250.08,26.589,324.11c26.802,74.03,109.331,102.326,134.423,127.077
						c0,0-14.827,13.904,0,29.981c0,0,37.578,51.597,38.847,86.879s-14.448,72.822,27.848,81.12c0,0,283.898-4.448,438.91-25.533
						s192.218-53.053,192.218-53.053s18.293-25.702,16.768-77.715s-57.092-261.52-68.207-415.328
						c-11.116-153.809-35.523-346.777-111.795-464.236C3103.064,1589.984,2933.507,1589.52,2845.148,1600.049z"/><path fill="#513452" d="M2989.643,2666.005c-36.835-36.433,21.117-187.96,21.117-187.96l89.193,1.737
						c0,0,96.45-473.064,72.52-614.481c-23.931-141.417-302.222-149.505-302.222-149.505s-107.359,133.093-146.257,239.702
						c-38.898,106.609-123.561,391.778-123.561,391.778l44.316,18.276l-7.494,61.757c0,0-82.307-0.981-129.835-17.856
						c0.931,3.06,1.896,6.007,2.907,8.799c26.802,74.03,109.331,102.326,134.423,127.077c0,0-14.827,13.904,0,29.98
						c0,0,37.578,51.597,38.847,86.879c1.269,35.282-14.447,72.822,27.848,81.121c0,0,283.898-4.449,438.91-25.533
						c58.253-7.924,99.866-17.384,129.122-26.107C3188.135,2693.243,3016.466,2692.535,2989.643,2666.005z"/><path fill="#f6af9a" d="M2018.985,2446.639c0.01,0,189.411,10.712,346.851,9.055
						c182.702-1.923,336.573,14.637,409.202,25.587c9.849,0.36,19.433,1.986,28.567,4.756
						c42.201,12.816,74.784,49.726,79.824,96.298c6.733,62.227-38.254,118.129-100.48,124.862
						c-12.223,1.322-24.192,0.623-35.601-1.784c-0.005,0.02-747.528-134.088-747.528-134.088c-2.349-0.289-4.665-0.7-6.936-1.244
						c-25.26-6.091-45.097-27.374-48.041-54.587c-3.749-34.649,21.3-65.777,55.95-69.526
						C2007.017,2445.295,2013.125,2445.565,2018.985,2446.639z"/><path fill="#ea9a88" d="M1658.841,2511.615c0,0-27.824-52.365-41.707-52.922
								c-13.884-0.557-15.586,14.235-13.533,33.662c2.053,19.427,31.837,108.093,39.789,121.046
								c7.952,12.954,91.053,28.812,91.053,28.812s19.587,19.463,33.969,30.908c14.381,11.445,64.187-7.126,64.187-7.126
								L1658.841,2511.615z"/><path fill="#f6af9a" d="M1585.36,2490.499c18.067-5.429,61.41,24.394,61.41,24.394
								c28.559-16.941,86.272,36.883,91.277,38.41c5.004,1.526,27.233,2.553,54.093,1.694c26.859-0.86,63.815-4.205,56.796-24.173
								c-7.018-19.967-62.018-23.635-102.675-28.871c-40.657-5.235-53.139-24.605-45.38-35.82
								c7.76-11.215,55.631-9.532,94.635-13.101c39.004-3.568,109.896-18.914,155.271-21.105
								c45.273-2.186,130.206,21.723,130.589,21.831c23.167,6.408,41.235,26.361,44.004,51.711
								c3.625,33.193-20.344,63.04-53.538,66.666c-7.251,0.792-14.343,0.267-21.036-1.384
								c-29.929,0.264-65.714,17.079-91.455,28.184c-25.741,11.105-109.381,67.927-126.754,67.06
								c-17.373-0.867-133.397-31.736-143.929-39.57c-10.531-7.833-46.871-49.479-54.745-58.294
								c-7.874-8.816-37.109-36.032-44.851-43.638C1581.332,2516.888,1567.293,2495.928,1585.36,2490.499z"/><path fill="#ea9a88" d="M1942.743,2607.533c0.016-5.825-1.16-10.187,1.726-15.335
									c6.843-12.204-10.656-73.984-22.097-99.916c-7.533-17.076-22.671-39.831-32.133-53.385
									c-19.983,3.051-40.378,6.538-58.672,9.374c-22.131,15.512-44.379,37.196-62.242,56.471
									c35.894,4.304,73.859,9.721,79.61,26.082c7.019,19.968-29.937,23.313-56.796,24.173s-49.088-0.168-54.093-1.694
									c-0.274-0.083-0.714-0.332-1.289-0.708c12.1,8.983,42.944,32.485,57.478,49.14c12.015,13.768,30.6,42.483,45.191,62.966
									C1860.949,2657.774,1912.177,2624.735,1942.743,2607.533z"/><path fill="#e57e73" d="M1646.38,2514.644c-11.726,19.322,8.712,35.82,23.451,45.282
								c14.96,10.874,29.804,21.914,44.903,32.714c22.034,19.664,51.635,23,79.801,25.049c9.234,0.253,19.626,1.974,28.398,0.319
								c-17.539-5.561-36.592-8.338-54.493-12.528c-37.485-4.251-64.911-30.503-95.98-49.371
								C1654.565,2545.706,1640.096,2535.626,1646.38,2514.644z"/><path fill="#f6af9a" d="M2860.071,1753.364c6.552-13.182,15.043-25.674,25.507-37.054
							c59.693-64.924,160.714-69.165,225.638-9.472c53.877,49.536,65.961,127.531,34.401,189.743l-265.411,732.25
							c-4.939,14.498-12.865,28.245-23.9,40.247c-42.363,46.075-114.056,49.084-160.13,6.722
							c-38.82-35.692-47.065-92.202-23.364-136.672c-0.002-0.001,103.392-571.096,178.867-765.462
							C2853.987,1766.76,2856.785,1759.976,2860.071,1753.364z"/><path fill="#583d59" d="M3037.47,1654.167c0,0-176.066-45.948-257.357,234.768s-114.443,441.301-114.443,441.301
						s156.713,98.605,394.682,101.724c0,0,128.317-503.518,129.371-595.712S3110.691,1667.248,3037.47,1654.167z"/><g><path fill="#f6af9a" d="M2670.445,826.529c0,0,256.331,11.407,248.501,314.638
						c-7.52,291.286-253.89,527.874-463.088,465.213c-66.437-24.202-109.245-176.245-109.954-404.315
						C2345.195,973.996,2444.25,816.936,2670.445,826.529z"/><path fill="#efa18f" d="M2515.155,1376.244c0,0,10.74-21.7,64.339-18.617c43.571,2.506,76.134,10.299,74.752,37.454
							C2655.856,1430.457,2490.182,1429.734,2515.155,1376.244z"/><path fill="#efa18f" d="M2353.148,1349.664c0.794,22.399,3.132,39.647,8.414,63.113
							c29.953-3.816,60.426-13.68,59.853-26.286C2422.694,1361.332,2391.901,1352.777,2353.148,1349.664z"/><path fill="#192b4f" d="M2574.761,1296.825c-0.583,15.761-10.643,28.183-22.468,27.745
							c-11.825-0.438-20.938-13.569-20.355-29.33c0.583-15.761,10.642-28.183,22.468-27.745
							C2566.231,1267.933,2575.344,1281.064,2574.761,1296.825z"/><path fill="#192b4f" d="M2423.294,1287.453c-0.562,15.18-10.25,27.144-21.639,26.722
							c-11.389-0.422-20.167-13.069-19.604-28.249c0.562-15.18,10.25-27.144,21.639-26.722
							C2415.079,1259.626,2423.856,1272.273,2423.294,1287.453z"/><path fill="#fff" d="M2404.387,1448.212l130.284,10.047c2.098,0.162,2.926,2.811,1.28,4.122
							c-17.175,13.677-81.666,57.33-133.589-10.434C2401.142,1450.355,2402.388,1448.057,2404.387,1448.212z"/><path fill="#efa18f" d="M2459.598,1501.816c17.014,1.774,28.996,8.834,29.652,9.227
							c3.214,1.929,4.258,6.098,2.33,9.313c-1.927,3.209-6.089,4.254-9.299,2.339c-0.314-0.184-17.563-10.143-38.416-7.13
							c-3.703,0.537-7.154-2.036-7.69-5.747c-0.535-3.71,2.037-7.153,5.748-7.69
							C2448.192,1501.222,2454.152,1501.248,2459.598,1501.816z"/><path fill="#e57e73" d="M2469.07,1414.973c-8.706-0.063-24.482-0.893-33.555-5.706
							c-12.293-6.52-7.697-17.424-2.376-30.048l0.669-1.587c32.05-76.241,28.734-108.952,28.696-109.273
							c-0.428-3.706,2.21-7.087,5.911-7.543c3.716-0.45,7.077,2.138,7.559,5.836c0.185,1.425,4.157,35.818-29.652,116.242
							l-0.672,1.6c-2.07,4.91-4.402,10.444-4.401,12.399c7.439,3.994,24.259,4.784,33.249,4.436
							c3.716-0.138,6.901,2.771,7.047,6.517c0.148,3.745-2.768,6.901-6.514,7.049
							C2474.316,1414.923,2472.129,1414.995,2469.07,1414.973z"/><path fill="#8c4949" d="M2517.736,1212.424c0,0-10.005-0.737-10.16,5.923c-0.155,6.661,1.294,21.401,5.55,23.231
							c4.256,1.83,55.846,0.477,75.805,1.021c19.959,0.544,51.779,5.814,53.351,3.522c1.572-2.292-10.762-14.719-33.381-21.022
							C2589.677,1219.742,2544.095,1210.842,2517.736,1212.424z"/><path fill="#8c4949" d="M2350.726,1229.811c0,0-9.634,0.327-10.193-5.676c-0.718-7.699,30.961-19.446,85.643-15.854
							c15.986,1.846,14.165,20.776,10.037,29.459C2432.402,1245.756,2409.145,1230.081,2350.726,1229.811z"/><path fill="#8c4949" d="M2478.373,971.93c0,0-85.277,60.761-107.327,114.756
							c-22.05,53.995-13.596,133.481-17.491,173.166c-3.896,39.685-9.789,56.134-17.017,82.134
							c-7.228,25.999-1.903,38.673,8.68,73.047c10.584,34.373-2.337,73.993-29.516,88.239c0,0,27.348-37.711,11.336-70.318
							c-16.011-32.607-33.88-58.007-24.673-83.213c9.207-25.205,31.127-61.15,15.154-99.173s-27.583-180.71,14.646-279.688
							c42.229-98.978,192.501-161.077,264.663-155.143c0,0,159.102-34.958,256.015,43.358
							c96.913,78.317,134.066,183.281,136.729,315.073c2.663,131.792-70.641,284.701-116.013,318.672
							c-45.372,33.971-47.622,46.239-52.989,44.294c-15.01-5.439-32.107-55.425-33.35-86.976
							c-2.714-68.872-16.375-177.278-27.167-182.771c-10.791-5.493-40.559,61.885-37.091,81.766
							c3.467,19.881,24.855,57.943,8.415,84.901c-16.44,26.958-43.58,35.789-36.62,71.941c6.96,36.152,10.259,79.499-11.466,88.368
							c0,0,9.22-27.01-3.246-50.567c-12.467-23.556-19.466-54.293-8.506-72.266c10.96-17.972,56.384-59.163,40.307-82.745
							c-16.076-23.582-37.724-25.543-42.762-77.927c-5.039-52.385,9.713-95.602,0.856-119.132
							c-8.856-23.53-37.568-47.203-84.382-63.786C2538.744,1111.359,2503.085,1049.728,2478.373,971.93z"/><path fill="#7a4040" d="M2898.655,1027.446c13.729,104.143-8.464,295.266-43.13,353.774
								c-34.666,58.506-45.775,25.989-72.642,7.143c2.065,21.612,3.603,43.152,4.338,61.795
								c1.244,31.551,18.341,81.538,33.35,86.976c5.366,1.945,7.616-10.323,52.989-44.294
								c45.373-33.971,118.676-186.88,116.013-318.672c-2.662-131.793-39.815-236.757-136.729-315.074
								c-9.594-7.754-19.804-14.38-30.403-20.057c-16.919-1.414-26.74-1.859-26.74-1.859S2884.926,923.303,2898.655,1027.446z"/><path fill="#7a4040" d="M2736.761,1419.33c-6.335,8.848-12.331,19.135-17.342,30.402
								c4.187-4.67,8.333-9.732,11.958-15.678C2734.199,1429.426,2735.886,1424.465,2736.761,1419.33z"/><path fill="#7a4040" d="M2478.373,971.93c4.879-68.272,50.857-137.03,118.456-156.194
								C2537.102,848.915,2498.598,907.883,2478.373,971.93z"/><path fill="#7a4040" d="M2523.602,957.815c85.121,34.106,69.835,75.72,117.866,135.432
								c16.229,22.729,42.972,28.526,66.417,40.123c29.788,18.803,49.766,54.322,48.476,89.665
								c-3.148-29.698-20.103-58.279-43.793-75.948c-28.235-18.441-56.258-16.062-79.317-46.798
								C2584.469,1039.515,2604.733,1002.78,2523.602,957.815z"/><path fill="#7a4040" d="M2578.012,922.104c46.88,8.365,93.154,32.127,118.395,73.931
								c45.597,59.77,120.36,118.787,110.676,202.094c-1.288-82.031-74.569-134.491-118.922-196.05
								C2664.926,960.789,2621.885,936.619,2578.012,922.104z"/><path fill="#7a4040" d="M2578.414,866.148c79.552-8.983,166.545,9.971,222.488,70.623
								c27.519,27.426,51.211,59.71,64.873,96.313c6.079,16.957,10.355,35.043,10.19,53.132c-0.385,10.246-0.242,22.78,0.8,33.004
								c4.786,56.581,17.717,115.497,1.857,171.484c13.661-68.715-13.334-137.931-12.435-206.717
								c-4.638-66.955-50.991-123.41-100.321-165.42C2713.566,877.18,2643.674,865.265,2578.414,866.148z"/><g><path fill="#8c4949" d="M2695.771,807.959c0,0,71.802-66.12,193.395-24.933
							c121.593,41.187,245.932,191.697,250.509,372.462c4.576,180.765,62.494,322.917,8.341,415.929
							c-45.427,78.025-81.666,94.91-158.373,118.484c-144.42,44.384-204.677,179.294-228.55,265.598
							c0,0-27.948-32.811-39.389-110.687c-11.441-77.876,6.38-228.982,60.001-278.52c53.62-49.538,155.185-308.696,149.493-425.041
							C2921.147,935.825,2862.044,850.4,2695.771,807.959z"/><path fill="#7a4040" d="M2845.222,826.113c237.945,147.728,137.337,351.419,96.398,570.96
								c-38.979,218.734-219.261,191.609-185.85,468.228c-44.042-276.877,122.855-248.954,168.79-453.632
								C2962.557,1185.292,3079.265,990.769,2845.222,826.113L2845.222,826.113z"/><path fill="#7a4040" d="M2796.22,805.949c232.747-9.837,291.389,183.127,287.512,379.17
								c10.251,111.508,69.142,281.018,7.099,383.998c-68.69,78.715-204.769,66.982-257.9,165.168
								c47.073-100.148,181.921-94.801,248.979-171.089c48.329-98.557,14.063-215.894-4.463-318.655
								c-13.577-70.1-4.752-142.453-17.592-212.386C3039.864,893.572,2936.757,804.099,2796.22,805.949L2796.22,805.949z"/><path fill="#7a4040" d="M3002.385,957.815c57.458,147.191,34.476,267.4,18.664,417.221
								c-1.112,29.758,0.362,59.52,4.367,88.989c3.855,21.415-1.182,44.146-13.266,62.051
								c-28.827,42.542-79.32,65.224-121.598,91.451c-66.874,42.09-113.379,117.956-116.051,197.459
								c-4.043-231.779,248.554-215.718,237.474-349.095c-18.957-106.315,18.918-210.055,19.983-315.569
								C3030.436,1085.299,3018.749,1020.683,3002.385,957.815L3002.385,957.815z"/></g><g><path fill="#f6af9a" d="M2808.135,1227.86c0,0,36.725,3.181,37.084,61.065c0.345,55.604-33.526,119.409-73.809,108.735
						c-12.819-4.21-23.624-52.924-25.153-96.419C2744.729,1257.745,2764.934,1227.412,2808.135,1227.86z"/><path fill="#e57e73" d="M2778.249,1356.266c-15.717-75.306,22.984-96.391,24.64-97.252
						c1.999-1.05,4.438-0.263,5.486,1.723c1.048,1.988,0.284,4.453-1.696,5.514c-1.114,0.597-21.679,12.144-23.831,49.902
						c11.463-13.25,29.571-15.472,30.555-15.581c2.239-0.252,4.255,1.357,4.51,3.596c0.258,2.24-1.357,4.268-3.59,4.522
						c-1.043,0.122-25.381,3.202-31.249,23.949c0.506,6.688,1.507,13.972,3.174,21.958c0.421,2.02-0.727,4.002-2.616,4.679
						C2780.874,1359.892,2778.71,1358.474,2778.249,1356.266z"/></g></g></g></g><g><path fill="#f6af9a" d="M1314.111,2306.396c0,0,354.68,222.862,408.257,187.272
				c53.576-35.589,7.841-80.317-45.759-124.643c-53.6-44.326-198.096-180.767-261.078-220.718
				c-71.018-45.049-155.84-20.749-164.079,53.287C1243.474,2273.282,1314.111,2306.396,1314.111,2306.396z"/><path fill="#f6af9a" d="M1679.918,2374.628c0,0,56.936,23.054,107.577,38.186s82.795,17.12,99.818,43.551
					c17.023,26.431,43.408,92.454,45.346,113.347c1.939,20.894-28.065,15.241-28.065,15.241s8.711,24.125-4.528,33.816
					c-13.24,9.691-33.357-17.034-33.357-17.034s7.376,17.541-2.921,24.405c-14.366,9.577-28.221-17.924-28.221-17.924
					s-1.778,15.629-13.729,9.534c-15.092-7.697-11.927-27.538-64.831-70.552c-35.106-28.543-61.966-9.27-107.162-41.187
					c-37.343-26.371-82.309-60.91-82.309-60.91S1587.898,2330.768,1679.918,2374.628z"/><path fill="#f0a492" d="M1848.554,2429.864c-16.255-5.452-36.472-9.704-61.06-17.051
					c-25.447-7.604-52.478-17.206-73.081-24.88c0,0-31.771,33.161-48.043,50.958c-16.271,17.797-24.595,27-25.518,35.874
					c-0.731,7.021-2.58,15.49-1.515,23.758c3.54,2.543,7.056,5.05,10.507,7.488c35.316,24.94,59.436,18.625,85.043,28.289
					c0,0,13.551-34.826,28.45-37.914c5.238-5.121,12.482-19.308,33.013-21.621c10.67-6.382,16.415-22.847,29.174-21.127
					C1832.031,2449.978,1839.189,2435.744,1848.554,2429.864z"/><path fill="#e57e73" d="M1904.269,2585.063c-9.38-24.085-18.562-48.297-28.45-72.158
						c-3.573-8.621-7.905-17.818-12.344-26.01c-2.937-5.648-5.276-11.937-7.94-17.577c-0.951-1.985-1.86-3.671-3.387-5.048
						c-5.658-3.983-12.404-6.708-18.603-10.309c-0.337-0.156-0.156-0.746,0.232-0.646c6.433,1.335,12.671,2.996,18.925,5.471
						c1.653,0.616,3.596,1.873,4.829,3.232c3.623,3.847,5.632,8.681,8.02,13.08c1.439,2.867,5.069,10.103,6.446,12.872
						c8.511,19.435,14.644,39.742,21.43,59.768c3.912,12.346,7.831,24.682,11.492,37.104c0.054,0.182-0.05,0.373-0.232,0.427
						C1904.515,2585.32,1904.334,2585.227,1904.269,2585.063L1904.269,2585.063z"/><path fill="#e57e73" d="M1866.391,2601.861c-9.968-22.319-33.103-74.491-43.593-95.626
						c-2.016-4.467-4.806-11.345-7.339-15.436c-2.812-4.732-6.897-8.695-11.46-12.457c-0.299-0.219-0.012-0.749,0.341-0.596
						c12.558,4.258,18.915,14.36,24.607,25.438c5.206,8.837,10.092,22.827,13.838,32.47c8.412,21.873,16.543,43.824,24.244,65.952
						C1867.176,2601.988,1866.555,2602.263,1866.391,2601.861L1866.391,2601.861z"/><path fill="#e57e73" d="M1835.25,2608.345c-11.043-23.334-23.216-51.266-34.744-74.085c0,0-3.627-7.155-3.627-7.155
						c-6.248-11.551-17.747-18.943-28.434-26.371c-0.32-0.176-0.116-0.746,0.262-0.634c12.293,3.205,24.263,9.493,32.178,19.833
						c4.564,6.604,8.709,19.357,11.866,26.786c8.067,20.335,15.816,40.757,23.135,61.366c0.064,0.179-0.03,0.375-0.209,0.439
						C1835.509,2608.584,1835.325,2608.503,1835.25,2608.345L1835.25,2608.345z"/><path fill="#f6af9a" d="M1260.51,1654.545c0,0,136.27-15.573,158.684,153.322
				c22.413,168.896,37.086,455.745-32.819,494.17c-69.906,38.424-134.006-26.22-160.111-125.823
				c-26.105-99.604-78.925-303.362-76.53-373.179C1152.449,1723.877,1202.073,1654.676,1260.51,1654.545z"/><path fill="#ffe9e9" d="M1188.393,1679.044c-35.149,44.349-68.776,125.276-40.868,264.388
				c35.632,174.736,54.926,224.695,54.926,224.695s141.031,15.294,247.412-25.622c0,0,1.367-121.165-7.569-245.906
				c-7.969-111.245-20.622-225.333-104.857-258.863C1284.393,1616.621,1223.854,1634.299,1188.393,1679.044z"/></g></svg>