<svg xmlns="http://www.w3.org/2000/svg" data-name="4" viewBox="0 0 4680 3120"><defs><linearGradient id="a" x1="1408.158" x2="3380.87" y1="1583.185" y2="1583.185" gradientUnits="userSpaceOnUse"><stop offset="0" stop-color="#98d5ce"/><stop offset="1" stop-color="#5db5b7"/></linearGradient></defs><path fill="#8fddf3" d="M797.7205,1170.5103c-158.0492,243.9145-229.044,592.7962,49.748,1048.6069,0,0,2513.9972,495.1159,2930.8714,16.7298,549.3832-630.4477-1.6463-933.0956-22.6709-1260.2707-27.9494-434.9348-756.1877-680.0833-1175.6497-412.4369C2212.2435,797.8063,1938.1142,722.238,1608.743,725.9075,1281.1878,729.5569,975.8529,895.6019,797.7205,1170.5103Z"/><path fill="#20aeed" d="M2764.65475,700.16415h956.6906a4.1921,4.1921,0,0,1,4.1921,4.1921v277.3622a4.1922,4.1922,0,0,1-4.1922,4.1922h-956.6904a4.1922,4.1922,0,0,1-4.1922-4.1922V704.35625A4.1921,4.1921,0,0,1,2764.65475,700.16415Z" transform="rotate(90 3243 843.037)"/><rect width="13.013" height="36.783" x="3113.207" y="412.416" fill="#1589b7" transform="rotate(90 3119.713 430.807)"/><rect width="13.013" height="36.783" x="3113.207" y="507.434" fill="#1589b7" transform="rotate(90 3119.713 525.825)"/><rect width="13.013" height="36.783" x="3113.207" y="602.452" fill="#1589b7" transform="rotate(90 3119.713 620.844)"/><rect width="13.013" height="36.783" x="3113.207" y="697.47" fill="#1589b7" transform="rotate(90 3119.713 715.862)"/><rect width="13.013" height="36.783" x="3113.207" y="792.489" fill="#1589b7" transform="rotate(90 3119.713 810.88)"/><rect width="13.013" height="36.783" x="3113.207" y="887.507" fill="#1589b7" transform="rotate(90 3119.713 905.898)"/><rect width="13.013" height="36.783" x="3113.207" y="982.525" fill="#1589b7" transform="rotate(90 3119.713 1000.916)"/><rect width="13.013" height="36.783" x="3113.206" y="1077.543" fill="#1589b7" transform="rotate(90 3119.713 1095.935)"/><path fill="#51c1f2" d="M2121.9979,1755.3405l-828.5916,403.7968a31.27936,31.27936,0,0,1-41.821-14.4154L724.656,1063.4623a31.27927,31.27927,0,0,1,14.4154-41.821L1567.663,617.8445a31.27927,31.27927,0,0,1,41.821,14.4154l526.9293,1081.2596A31.2795,31.2795,0,0,1,2121.9979,1755.3405Z"/><path fill="#28ade8" d="M904.3317,1194.9965q-15.18225,7.898-29.8806,5.4443-29.24835-5.1051-49.698-47.9063l-20.722-43.8957-16.7548-36.009q-8.4903-17.46525,9.2686-25.8469l125.103-59.058q20.25165-9.56025,29.4166,8.5603l37.4879,79.411q19.56285,42.7362,4.9162,68.5594-7.44945,12.90975-23.4101,20.4443-29.3925,12.1665-45.5268-7.5431Q930.291,1181.7655,904.3317,1194.9965Zm-15.253-76.2441-8.0176-16.4666q-8.59635-17.1696,7.767-24.8938,16.26135-7.67655,24.4255,8.8417l16.0485,34.5132q6.4992,13.7673,15.9231,13.8324a22.17821,22.17821,0,0,0,9.4331-2.5017q6.483-3.06045,8.3879-6.5217,1.90545-3.4602.9275-10.4415-1.19775-8.2176-8.3317-24.3693l-25.4203-54.3654q-5.09955-10.2828-16.0723-5.1004l-76.6169,36.1689q-9.77835,4.6161-4.8803,14.9916l25.62,54.2711q7.7352,15.8655,12.4239,22.4375,4.76565,5.19075,8.6492,5.9206,3.8832.72945,10.3679-2.3324a22.18078,22.18078,0,0,0,7.9265-5.6934q5.9352-7.317-.5605-21.0847Z"/><path fill="#28ade8" d="M1069.6688,1248.8191q17.4723,37.01175,5.6751,69.9083-11.7999,32.89605-48.8096,50.3686-36.81255,17.37825-69.8556,5.5282-33.044-11.84925-50.4214-48.6627-17.3316-36.71355-5.4546-69.8292,11.87445-33.1182,48.5891-50.4477,36.81255-17.37825,69.8556-5.5282Q1052.2912,1212.00565,1069.6688,1248.8191Zm-32.6224,15.4002q-10.31415-21.8484-30.5354-28.893-20.22555-7.0455-41.6718,3.0805-31.02765,14.64735-31.6293,45.6738a58.15252,58.15252,0,0,0,5.6698,26.4807q13.37445,28.3314,42.2683,31.6507,14.3247,1.65435,29.9861-5.7383,23.24445-10.97325,29.5542-32.495Q1046.46405,1284.17135,1037.0464,1264.2193Z"/><path fill="#28ade8" d="M1158.3024,1436.5725q17.4723,37.01175,5.6752,69.9083-11.7999,32.896-48.8097,50.3686-36.81255,17.37825-69.8556,5.5282-33.0438-11.84925-50.4213-48.6627-17.3316-36.71355-5.4547-69.8292,11.8746-33.11805,48.5892-50.4477,36.81255-17.37825,69.8556-5.5281Q1140.9249,1399.759,1158.3024,1436.5725Zm-32.6223,15.4002q-10.31415-21.8484-30.5355-28.893-20.2254-7.0455-41.6718,3.0805-31.0275,14.64735-31.6293,45.6738a58.15252,58.15252,0,0,0,5.6698,26.4807q13.3746,28.3314,42.2683,31.6507,14.32485,1.65435,29.9861-5.7383,23.24445-10.97325,29.5542-32.4949Q1135.09765,1471.9247,1125.6801,1451.9727Z"/><path fill="#28ade8" d="M1151.9997,1569.2288l40.1039-18.9321q16.26135-7.67655,24.426,8.8428,8.06235,16.5663-8.7789,23.7852l-130.7891,61.7422q-16.278,8.4171-23.9434-8.3379-7.56645-16.804,8.6958-24.4786Zm-23.7977,170.804,27.9765-12.8407a22.18038,22.18038,0,0,0,7.9265-5.6933q5.9352-7.317-.5605-21.0847l-17.1486-36.0674q-8.59635-17.1696,7.767-24.8938,16.26135-7.67655,24.426,8.8428l17.1785,36.9068q6.4992,13.76715,15.923,13.8324a22.1789,22.1789,0,0,0,9.4332-2.5018l32.7806-15.8412q16.0869-8.81415,23.7552,7.9394,7.5651,16.8012-8.3079,24.7829l-32.8277,15.7413q-29.3925,12.1665-45.5268-7.5431,5.75925,24.60855-20.2,37.8396l-32.223,15.2117q-16.2612,7.67655-24.4259-8.8428-6.88815-16.39155,10.0634-23.9044Z"/><path fill="#20aeed" d="M2479.0387,1999.1682,1408.2395,2143.025a60.03477,60.03477,0,0,1-67.4938-51.5066L1151.2445,680.9647a60.03477,60.03477,0,0,1,51.5067-67.4938L2273.5504,469.6141a60.03473,60.03473,0,0,1,67.4937,51.5067l189.5012,1410.5537A60.03473,60.03473,0,0,1,2479.0387,1999.1682Z"/><path fill="#d6d6d6" d="M1248.5745,912.5117l-128.7489,15.7906a31.74467,31.74467,0,0,1-35.3868-27.6457l-.1669-1.336a31.73977,31.73977,0,0,1,27.6461-35.3865l128.7489-15.8029a31.72888,31.72888,0,0,1,33.3355,19.703,31.22847,31.22847,0,0,1,2.051,7.9428l.1672,1.3482A31.76675,31.76675,0,0,1,1248.5745,912.5117Z"/><path fill="#d6d6d6" d="M1282.3747,1160.4204l-128.749,15.7913a31.73991,31.73991,0,0,1-35.3746-27.6464l-.1671-1.3359a31.73134,31.73134,0,0,1,27.6461-35.3865l128.7492-15.8029a31.73726,31.73726,0,0,1,33.3352,19.703,31.23967,31.23967,0,0,1,2.0513,7.9433l.1549,1.3476A31.7488,31.7488,0,0,1,1282.3747,1160.4204Z"/><path fill="#d6d6d6" d="M1316.187,1408.3175l-128.7489,15.803a31.75314,31.75314,0,0,1-35.3865-27.6464l-.1671-1.3359a31.73129,31.73129,0,0,1,27.646-35.3865l128.749-15.8029a31.72915,31.72915,0,0,1,33.3354,19.7029,31.25659,31.25659,0,0,1,2.0514,7.9434l.1668,1.3476A31.74821,31.74821,0,0,1,1316.187,1408.3175Z"/><path fill="#d6d6d6" d="M1349.9875,1656.2263l-128.7493,15.8029a31.76622,31.76622,0,0,1-35.3865-27.6458l-.1549-1.3359a31.40274,31.40274,0,0,1,.3099-9.7679,31.74189,31.74189,0,0,1,27.3362-25.6186l128.749-15.8029a31.746,31.746,0,0,1,33.3351,19.7024,31.24411,31.24411,0,0,1,2.0514,7.9434l.1552,1.3476A31.74,31.74,0,0,1,1349.9875,1656.2263Z"/><path fill="#d6d6d6" d="M1383.7996,1904.1351l-128.749,15.8029a31.75292,31.75292,0,0,1-35.3865-27.6458l-.1671-1.3481a31.69736,31.69736,0,0,1,27.6464-35.3743l128.7489-15.8029a31.72823,31.72823,0,0,1,33.3351,19.7029,31.22808,31.22808,0,0,1,2.0514,7.9434l.1669,1.3476A31.74779,31.74779,0,0,1,1383.7996,1904.1351Z"/><path fill="#efefef" d="M1274.0024,867.8342a31.729,31.729,0,0,1-27.3363,25.6302l-128.7489,15.8029a31.74573,31.74573,0,0,1-33.3352-19.7029,31.76744,31.76744,0,0,1,27.336-25.6303l128.7489-15.8029A31.72888,31.72888,0,0,1,1274.0024,867.8342Z"/><path fill="#efefef" d="M1307.8145,1115.743a31.76929,31.76929,0,0,1-27.336,25.6308l-128.749,15.8029a31.72334,31.72334,0,0,1-33.3354-19.7152,31.75657,31.75657,0,0,1,27.336-25.6186l128.7492-15.8029A31.73726,31.73726,0,0,1,1307.8145,1115.743Z"/><path fill="#efefef" d="M1341.6149,1363.6517a31.76851,31.76851,0,0,1-27.3363,25.6308l-128.7489,15.803a31.73181,31.73181,0,0,1-33.3351-19.7153,31.75647,31.75647,0,0,1,27.3359-25.6185l128.749-15.8029A31.72915,31.72915,0,0,1,1341.6149,1363.6517Z"/><path fill="#efefef" d="M1375.427,1611.5605a31.76885,31.76885,0,0,1-27.3479,25.6308l-128.737,15.8029a31.723,31.723,0,0,1-33.3354-19.7146,31.74189,31.74189,0,0,1,27.3362-25.6186l128.749-15.8029A31.746,31.746,0,0,1,1375.427,1611.5605Z"/><path fill="#efefef" d="M1409.2274,1859.4698a31.76765,31.76765,0,0,1-27.3359,25.6303l-128.7493,15.7912a23.81536,23.81536,0,1,1-5.9988-45.3215l128.7489-15.8029A31.72823,31.72823,0,0,1,1409.2274,1859.4698Z"/><path fill="#1589b7" d="M1589.8788,875.8621q3.1419,16.8228-3.4798,30.1725-13.38945,26.5-60.2875,33.6201l-48.0245,7.0625-39.3251,5.5599q-19.1793,3.04485-22.0348-16.3839l-20.1282-136.8703q-3.2583-22.1565,16.7443-25.6562l86.8804-12.7766q46.57815-6.29055,67.0264,15.2321,10.18575,10.88145,12.7537,28.3434,3.0939,31.66035-20.4556,41.3662Q1584.76805,847.17715,1589.8788,875.8621Zm-77.3848-7.5767-18.0864,2.883q-18.92745,3.2322-21.5596-14.6701-2.61645-17.7909,15.5622-20.799l37.6884-5.3192q15.06225-2.215,17.8649-11.2128a22.179,22.179,0,0,0,.3493-9.753q-1.04295-7.09275-3.8008-9.9218-2.75655-2.82915-9.7206-3.9236-8.21085-1.2435-25.739.8854l-59.408,8.5133q-11.32125,1.88925-9.5535,13.8948l12.327,83.8235q1.57335,10.698,12.9247,9.0287l59.3759-8.7318q17.4291-2.78745,25.0806-5.3626,6.3522-3.0504,8.1798-6.5538,1.827-3.50325.7831-10.5981a22.17864,22.17864,0,0,0-3.1424-9.2396q-5.2749-7.80645-20.3366-5.5948Z"/><path fill="#1589b7" d="M1689.453,733.3201q40.493-5.95485,68.5377,14.8983,28.0434,20.85555,33.9991,61.3469,5.9229,40.27515-15.0236,68.4445-20.9457,28.17045-61.2216,34.0923-40.16685,5.907-68.3979-15.0862-28.2342-20.99175-34.1389-61.1589-5.9229-40.27515,15.0236-68.4446Q1649.1771,739.242,1689.453,733.3201Zm5.2486,35.6909q-23.9034,3.51525-36.5236,20.8143-12.62235,17.3028-9.1701,40.7669,4.99215,33.946,34.5029,43.5437a58.15237,58.15237,0,0,0,26.9851,2.2754q30.9963-4.55835,42.5739-31.2384,5.7483-13.2246,3.2291-30.3589-3.7398-25.43085-22.4968-37.7261Q1716.53005,765.80205,1694.7016,769.011Z"/><path fill="#1589b7" d="M1894.8665,703.112q40.4931-5.95485,68.5378,14.8983,28.04325,20.85555,33.9991,61.3469,5.9229,40.275-15.0236,68.4445-20.9457,28.17045-61.2216,34.0923-40.167,5.907-68.3979-15.0862-28.2342-20.99175-34.1389-61.159-5.9229-40.275,15.0236-68.4445Q1854.5907,709.03385,1894.8665,703.112Zm5.2487,35.6909q-23.9034,3.51525-36.5236,20.8143-12.6225,17.3028-9.1701,40.7669,4.992,33.94605,34.5028,43.5437a58.1528,58.1528,0,0,0,26.9852,2.2754q30.9963-4.55835,42.5739-31.2384,5.7483-13.2246,3.2291-30.3589-3.7398-25.431-22.4969-37.7262Q1921.9437,735.59385,1900.1152,738.8029Z"/><path fill="#1589b7" d="M2019.9578,747.7166l-6.4524-43.8761q-2.6163-17.79075,15.5633-20.7991,18.195-2.8968,20.2047,15.3159l21.043,143.0911q3.31995,18.0222-14.9399,20.4842-18.27825,2.3532-20.8924-15.4379Zm156.5034,72.4364-4.1507-30.5014a22.17774,22.17774,0,0,0-3.1424-9.2396q-5.2749-7.8063-20.3366-5.5948l-39.4953,5.9198q-18.92745,3.2322-21.5596-14.6701-2.6163-17.79075,15.5633-20.7991l40.3072-5.7044q15.06225-2.21505,17.8649-11.2127a22.17955,22.17955,0,0,0,.3493-9.7531l-5.6246-35.9704q-3.75555-17.9547,14.504-20.4201,18.275-2.3526,21.2961,15.1554l5.5154,35.9865q3.0939,31.6602-20.4556,41.3661,25.22,1.64535,30.3307,30.3303l5.1844,35.2538q2.6163,17.7909-15.5633,20.7992-17.6862,1.824-19.9451-16.5796Z"/><path fill="#f9cf7a" d="M3332.8003,2253.7986l.2053-77.9559,417.3771,1.0993-.2053,77.9559a149.13947,149.13947,0,0,1-142.8718,148.6008c-2.198.092-4.3971.1363-6.6437.1304l-119.1316-.3138A149.13156,149.13156,0,0,1,3332.8003,2253.7986Z"/><path fill="#f9e2ac" d="M3465.2174,2254.1473l.2053-77.9558,284.96.7505-.2053,77.9559a142.62213,142.62213,0,1,1-284.96-.7506Z"/><rect width="1433.985" height="417.379" x="2826.59" y="1250.713" fill="#1195dc" transform="rotate(-89.849 3543.582 1459.402)"/><rect width="1433.985" height="252.283" x="2909.138" y="1333.478" fill="#28ade8" transform="rotate(-89.849 3626.13 1459.62)"/><rect width="1433.985" height="179.945" x="2945.307" y="1369.743" fill="#51c1f2" transform="rotate(-89.849 3662.299 1459.715)"/><polygon fill="#f9e2ac" points="3336.782 741.863 3469.575 599.535 3546.039 517.58 3620.705 598.469 3754.159 742.962 3336.782 741.863"/><path fill="#3a2e16" d="M3469.5753,599.5354l76.4633-81.955,74.6667,80.8887C3589.2042,615.1885,3536.3646,630.045,3469.5753,599.5354Z"/><path fill="#3a2e16" d="M3326.4688,2117.5874l441.4359,1.1627a7.92152,7.92152,0,0,1,7.9007,7.9424l-.1621,61.5425a7.92151,7.92151,0,0,1-7.9424,7.9007l-441.4359-1.1626a7.92164,7.92164,0,0,1-7.9007-7.9424l.1621-61.5426A7.92164,7.92164,0,0,1,3326.4688,2117.5874Z"/><path fill="#1195dc" d="M764.8746,2265.8743c6.6823-103.5034,35.7619-785.1491,768.2407-787.892v140.4549s-513.1463,10.8794-605.8815,504.022h621.9554v156.5216l-772.0548-.0316A12.28139,12.28139,0,0,1,764.8746,2265.8743Z"/><rect width="10.921" height="108.16" x="850.847" y="2170.82" fill="#3a2e16"/><rect width="10.921" height="108.16" x="950.516" y="2170.82" fill="#3a2e16"/><rect width="10.921" height="108.16" x="1050.184" y="2170.82" fill="#3a2e16"/><rect width="10.921" height="108.16" x="1149.853" y="2170.82" fill="#3a2e16"/><rect width="10.921" height="108.16" x="1249.522" y="2170.82" fill="#3a2e16"/><rect width="10.921" height="108.16" x="1349.19" y="2170.82" fill="#3a2e16"/><rect width="10.921" height="108.16" x="1448.859" y="2170.82" fill="#0e73a5"/><polygon fill="#dce0e8" points="3447.285 2059.84 1341.035 2059.84 828.876 2673.8 3954.073 2673.8 3447.285 2059.84"/><path fill="#c5cbd3" d="M1234.6037,2498.3638s-103.043,70.4726,30.8906,88.8568,330.4567,17.6797,419.5526-26.3965,76.1261,17.2044,190.9996,23.3325,335.3269,14.6157,404.7156-23.3325,130.1126-10.3719,177.1711,23.3325,381.8194,48.32,440.5066-23.3325,138.46,1.8843,227.0915,26.3965,437.4256,26.9364,404.5069-58.0405S2147.4718,2354.3544,1234.6037,2498.3638Z"/><path fill="#0a3f66" d="M1390.2179,938.4385H3398.8104a57.2108,57.2108,0,0,1,57.2108,57.2108V2135.5939a57.2109,57.2109,0,0,1-57.2109,57.2109H1390.2179a57.2109,57.2109,0,0,1-57.2109-57.2109V995.6494A57.2109,57.2109,0,0,1,1390.2179,938.4385Z"/><path fill="url(#a)" d="M1465.3688,1008.6899H3323.6593a57.2109,57.2109,0,0,1,57.2109,57.2109V2100.4684a57.2108,57.2108,0,0,1-57.2108,57.2108H1465.3687a57.2108,57.2108,0,0,1-57.2108-57.2108V1065.9008A57.2109,57.2109,0,0,1,1465.3688,1008.6899Z"/><path fill="#28b8eb" d="M2348.3639,953.4595h92.3002a16.7942,16.7942,0,0,1,16.7942,16.7942v7.775a16.7941,16.7941,0,0,1-16.7941,16.7941h-92.3003a16.7941,16.7941,0,0,1-16.7941-16.7941v-7.7751A16.7941,16.7941,0,0,1,2348.3639,953.4595Z"/><path fill="#fff" d="M1529.6436,1075.6915h537.7426a28.0993,28.0993,0,0,1,28.0993,28.0993v953.1938a28.0992,28.0992,0,0,1-28.0992,28.0992H1529.6436a28.0993,28.0993,0,0,1-28.0993-28.0993V1103.7908A28.0993,28.0993,0,0,1,1529.6436,1075.6915Z"/><path fill="#fff" d="M2226.1029,1075.6915h716.4438a28.0993,28.0993,0,0,1,28.0993,28.0993v953.1938a28.0992,28.0992,0,0,1-28.0992,28.0992H2226.1029a28.0993,28.0993,0,0,1-28.0993-28.0993V1103.7908A28.0993,28.0993,0,0,1,2226.1029,1075.6915Z"/><circle cx="1784.668" cy="1304.432" r="210.681" fill="#feca7a"/><path fill="#fd786e" d="M1784.6679,1304.4322h210.6805c0,115.5759-95.1046,210.6806-210.6805,210.6806s-210.6806-95.1047-210.6806-210.6806,95.1046-210.6806,210.6806-210.6806q3.2055,0,6.4101.0976Z"/><path fill="#ea649f" d="M1784.6679,1304.4322l118.5548-174.1581a210.85193,210.85193,0,0,1,92.1257,174.1581c0,115.5759-95.1046,210.6806-210.6805,210.6806-104.8648,0-194.5678-78.2937-208.7461-182.1956Z"/><rect width="71.668" height="299.524" x="1967.283" y="1683.139" fill="#feca7a"/><rect width="71.668" height="159.512" x="1723.797" y="1823.151" fill="#ea649f"/><rect width="71.668" height="105.394" x="1602.053" y="1877.27" fill="#4ebbca"/><rect width="71.669" height="222.542" x="1845.54" y="1760.121" fill="#fd786e"/><rect width="417.197" height="23.956" x="1576.069" y="1685.711" fill="#1abcd5" transform="rotate(-28.908 1784.668 1697.689)"/><polygon fill="#1abcd5" points="2019.029 1565.622 1944.975 1569.588 1985.438 1631.738 2019.029 1565.622"/><polygon fill="#1abcd5" points="2038.952 2041.14 1551.703 2041.14 1551.703 1596.865 1561.286 1596.865 1561.286 2031.558 2038.952 2031.558 2038.952 2041.14"/><rect width="603.497" height="59" x="2311.903" y="1249.962" fill="#e6e7e8"/><rect width="366.143" height="59" x="2311.903" y="1249.962" fill="#3ebfb4"/><rect width="603.497" height="59" x="2311.903" y="1397.463" fill="#e6e7e8"/><rect width="429.796" height="59" x="2311.903" y="1397.463" fill="#f79663"/><rect width="603.497" height="59" x="2311.903" y="1544.964" fill="#e6e7e8"/><rect width="287.213" height="59" x="2311.903" y="1544.964" fill="#f24c88"/><rect width="603.497" height="59" x="2311.903" y="1692.465" fill="#e6e7e8"/><rect width="454.408" height="59" x="2311.903" y="1692.465" fill="#feca7a"/><rect width="603.497" height="59" x="2311.903" y="1839.966" fill="#e6e7e8"/><rect width="399.808" height="59" x="2311.903" y="1839.966" fill="#16d8d8"/><rect width="14.097" height="682.041" x="2246.564" y="1233.442" fill="#1abcd5"/><polyline fill="#1abcd5" points="2253.61 1869.572 2294.983 1869.572 2294.983 1866.073 2253.61 1866.073"/><polyline fill="#1abcd5" points="2253.61 1722.892 2294.983 1722.892 2294.983 1719.393 2253.61 1719.393"/><polyline fill="#1abcd5" points="2253.61 1576.212 2294.983 1576.212 2294.983 1572.713 2253.61 1572.713"/><polyline fill="#1abcd5" points="2253.61 1429.533 2294.983 1429.533 2294.983 1426.033 2253.61 1426.033"/><polyline fill="#1abcd5" points="2253.61 1282.853 2294.983 1282.853 2294.983 1279.353 2253.61 1279.353"/><circle cx="3285.832" cy="1297.698" r="54.157" fill="#f24c88" transform="rotate(-76.717 3285.832 1297.698)"/><circle cx="3285.832" cy="1579.959" r="54.157" fill="#feca7a"/><circle cx="3285.832" cy="1833.545" r="54.157" fill="#16d8d8"/><path fill="#0a3f66" d="M828.8765,2673.8003H3954.0734a0,0,0,0,1,0,0v39.1185a46.5812,46.5812,0,0,1-46.5812,46.5812H875.4578a46.5813,46.5813,0,0,1-46.5813-46.5813v-39.1184A0,0,0,0,1,828.8765,2673.8003Z"/><path fill="#350b11" d="M2917.6435,1371.8171s-121.0235,95.7398-186.558,193.399,14.1136,149.6074,143.9188,96.3742,187.9473-5.2865,187.9473-5.2865Z"/><path fill="#d32d2c" d="M3165.1957,1804.9098c-6.2945-80.0312-172.8419-153.7677-172.8419-153.7677,10.6004-44.0621-8.8018-62.0467-8.8018-62.0467-44.3188-10.2273-93.1045.7417-114.1031,6.6433a14.48481,14.48481,0,0,0-10.5659,13.9522v37.8541c-73.4132,18.8838-99.2385,54.8529-113.6261,84.5275-14.3875,29.6743-61.1473,88.1242-61.1473,88.1242l-48.5248-60.9372c-12.5884,23.7977-31.0693,39.1853-46.4796,48.636l199.3146,351.3095h383.9698C3178.6843,2065.6856,3171.4904,1884.9409,3165.1957,1804.9098Z"/><path fill="#aa1d1d" d="M2877.2485,1621.2245s65.8517,9.583,96.066-14.964C2973.3145,1606.2605,2944.6496,1651.4388,2877.2485,1621.2245Z"/><path fill="#f99a5a" d="M2635.5868,1759.2585a119.29128,119.29128,0,0,1-15.3935,22.4622,133.209,133.209,0,0,1-31.0825,26.169l-50.6753-89.307s-185.2392-72.682-118.7026-112.3233a93.68314,93.68314,0,0,1,14.5315-7.0687c61.2538-23.3365,117.6557,33.0652,117.6557,33.0652s37.7697-129.3546,26.9816,55.823Z"/><path fill="#ffb883" d="M2635.5868,1759.2585a119.29128,119.29128,0,0,1-15.3935,22.4622l-10.3834-19.9967a241.43764,241.43764,0,0,0-96.1518-99.64c-31.569-17.6579-66.3892-40.8313-79.3937-62.8933,61.2538-23.3365,117.6557,33.0652,117.6557,33.0652s37.7697-129.3546,26.9816,55.823Z"/><path fill="#dd6b1f" d="M2873.8463,1563.917c-.8992,4.4962,6.2946,36.8683,6.2946,36.8683s39.566,18.8838,67.442-13.4884l-2.0973-42.102Z"/><path fill="#ffb883" d="M3084.6266,1417.4431c-28.287,77.6079-82.6448,118.4314-134.5269,139.81-31.7846,13.1152-62.6455,18.9279-85.9944,21.44a82.08639,82.08639,0,0,1-77.9281-37.3631c-67.7807-105.9565,5.6649-286.7379,5.6649-286.7379,50.8726-15.5167,93.1614-23.1519,128.2833-24.8512C3128.1964,1219.6057,3084.6266,1417.4431,3084.6266,1417.4431Z"/><path fill="#f99a5a" d="M3084.6266,1417.4431c-28.287,77.6079-82.6448,118.4314-134.5269,139.81,54.1744-144.8459,17.2284-284.7182-29.9743-327.5122C3128.1964,1219.6057,3084.6266,1417.4431,3084.6266,1417.4431Z"/><path fill="#dd6b1f" d="M2837.6487,1399.7714s-7.9269,40.6254-28.2396,51.5249c0,0,1.9818,11.8903,18.8264,15.8538C2828.2355,1467.1501,2839.6305,1453.7734,2837.6487,1399.7714Z"/><path fill="#c94909" d="M2823.6447,1507.0558s47.608,3.707,67.2331-13.5134c0,0,11.4615,23.1177-8.7076,32.722S2835.7109,1530.1062,2823.6447,1507.0558Z"/><path fill="#aa1d1d" d="M3051.8831,1867.6516s49.2301,165.4427,58.2723,291.6764h-37.1737S3087.0475,2049.3517,3051.8831,1867.6516Z"/><path fill="#aa1d1d" d="M2795.6861,1771.2009s-31.989,61.2864-43.1213,83.3897-48.3059,56.2629,48.1447,174.8168l8.6996,4.0188s-75.1097-109.5117-51.9516-153.7183S2795.6861,1771.2009,2795.6861,1771.2009Z"/><ellipse cx="2799.639" cy="1392.262" fill="#1c0f12" rx="12.036" ry="17.027"/><ellipse cx="2917.529" cy="1399.771" fill="#1c0f12" rx="12.036" ry="17.027"/><path fill="#4f0611" d="M2777.14693,1347.08618h44.98483a4.65952,4.65952,0,0,1,4.65952,4.65952v2.15724a4.65967,4.65967,0,0,1-4.65967,4.65967H2777.1471a4.65973,4.65973,0,0,1-4.65973-4.65973v-2.15714A4.65956,4.65956,0,0,1,2777.14693,1347.08618Z" transform="rotate(2.021 2799.636 1352.823)"/><path fill="#4f0611" d="M2909.80739,1359.9218h44.98476a4.65956,4.65956,0,0,1,4.65956,4.65956v2.15725a4.65964,4.65964,0,0,1-4.65964,4.65964h-44.98461a4.65969,4.65969,0,0,1-4.65969-4.65969v-2.15716A4.65961,4.65961,0,0,1,2909.80739,1359.9218Z" transform="rotate(10.319 2932.3 1365.66)"/><path fill="#0c1110" d="M2715.182,1381.3899c1.7855-2.7293,46.7826-12.7222,46.7826-12.7222l-1.9469,14.7318-46.5512,12.6171Z"/><circle cx="2776.963" cy="1382.744" r="62.788" fill="#f5fffe" opacity=".3"/><path d="M2776.963,1447.3802a64.6356,64.6356,0,1,1,64.6355-64.6359A64.709,64.709,0,0,1,2776.963,1447.3802Zm0-125.5768a60.94115,60.94115,0,1,0,60.9411,60.9409A61.00982,61.00982,0,0,0,2776.963,1321.8034Z"/><circle cx="2922.94" cy="1394.662" r="62.788" fill="#f5fffe" opacity=".3"/><path d="M2922.9403,1459.2976a64.6356,64.6356,0,1,1,64.6356-64.6359A64.709,64.709,0,0,1,2922.9403,1459.2976Zm0-125.5768a60.94115,60.94115,0,1,0,60.9411,60.9409A61.00989,61.00989,0,0,0,2922.9403,1333.7208Z"/><path fill="#0c1110" d="M2839.7514,1382.7444s10.1176-5.1419,21.2281,3.5613l.8274-8.356s-16.3822-9.8606-22.0555-1.9898Z"/><path fill="#0c1110" d="M2985.7287,1394.6618c1.7855-2.7294,40.855-11.9174,40.855-11.9174l2.8682,14.2285-45.4387,12.3156Z"/><path fill="#4f0611" d="M3278.437,1639.8731c-68.6673,87.4843-216.3588,45.1461-281.6027-41.39q-1.7178-2.27205-3.2141-4.5073c-56.1678-83.6052,106.8679-127.8276,44.949-163.873-63.0272-36.6859-35.9593-165.9174-35.9593-165.9174a.09458.09458,0,0,0-.0368.0123c-121.5349,50.4168-177.5426,28.5703-217.652,9.544-16.4524-7.8077-32.9175-22.142-32.3264-41.5378.8253-27.8932,36.9198-66.2414,158.9843-110.6363,99.4174-36.1563,169.9689-19.1126,218.9326,12.635,52.966,34.3213,80.699,85.8464,92.4227,105.8827,22.5851,38.57-26.3292,187.1973-6.5762,236.0379C3236.1111,1524.9761,3347.1043,1552.3888,3278.437,1639.8731Z"/><path fill="#350b11" d="M3002.5731,1264.1977c-121.5349,50.4168-177.5426,28.5703-217.652,9.544-16.4524-7.8077-32.9175-22.142-32.3264-41.5378C2795.9304,1298.9994,2999.322,1264.7395,3002.5731,1264.1977Z"/><path fill="#350b11" d="M3278.437,1639.8731c-68.6673,87.4843-216.3588,45.1461-281.6027-41.39q-1.7178-2.27205-3.2141-4.5073,26.65545,7.7769,53.3353,15.5536c36.9814,10.7878,79.2952,20.9475,111.991.5541,26.6985-16.6618,39.001-53.1629,27.8437-82.5953-12.635-33.3485-49.3823-53.1508-61.3401-86.7456-6.2189-17.487-4.9136-36.735-1.8226-55.0348,5.9358-35.0725,18.1029-68.7535,26.3416-103.3581,8.2508-34.5923,12.4747-71.315,2.4751-105.4518a129.75707,129.75707,0,0,0-21.9326-42.6953c52.966,34.3213,80.699,85.8464,92.4227,105.8827,22.5851,38.57-26.3292,187.1973-6.5762,236.0379C3236.1111,1524.9761,3347.1043,1552.3888,3278.437,1639.8731Z"/><rect width="59.384" height="59.384" x="1718.022" y="2165.799" fill="#dd6b1f"/><path fill="#470f09" d="M1445.0042,2063.89c.0124.0082.0166.0287.029.0369a47.27337,47.27337,0,0,0,14.8774,12.146c18.7641,9.8964,44.0154,8.5492,65.2419,2.1925a189.20544,189.20544,0,0,0,77.12-45.6832l10.655,51.5807a127.3135,127.3135,0,1,0,249.3623-51.5107l-17.0464-82.5211c-.2017-.9765-.4115-1.9405-.6523-2.8982a98.14837,98.14837,0,0,0-115.3237-73.3667l-57.1214,11.7996a97.65937,97.65937,0,0,0-38.8125,17.417c-22.6608-13.8179-51.7701-16.7754-76.6356-7.384-27.2227,10.2748-48.4873,35.0205-54.5472,63.4848-3.2549,15.2701-2.3585,31.0758-3.1247,46.6675-.7743,15.6045-3.5127,31.818-12.8578,44.327-9.3367,12.4962-26.8525,20.0052-41.1392,13.7282C1445.0166,2063.8982,1445.0144,2063.8879,1445.0042,2063.89Z"/><path fill="#ba0035" d="M1896.546,2341.2425v97.7932H1608.788V2336.2361a125.28933,125.28933,0,0,1,125.2893-125.2893h32.173A130.29574,130.29574,0,0,1,1896.546,2341.2425Z"/><path fill="#9b0127" d="M1827.2557,2295.2355v143.8002H1608.788V2333.4328a122.486,122.486,0,0,1,122.486-122.486h11.6931A84.2887,84.2887,0,0,1,1827.2557,2295.2355Z"/><path fill="#20abd1" d="M1666.4478,2274.6169h162.5317a96.5457,96.5457,0,0,1,96.5457,96.5457v95.6487a0,0,0,0,1,0,0H1569.9021a0,0,0,0,1,0,0v-95.6487A96.5457,96.5457,0,0,1,1666.4478,2274.6169Z"/><path fill="#0f3c68" d="M1696.2936,2294.8589h112.0581a96.5457,96.5457,0,0,1,96.5457,96.5457v75.4067a0,0,0,0,1,0,0H1599.7479a0,0,0,0,1,0,0v-75.4067A96.5457,96.5457,0,0,1,1696.2936,2294.8589Z"/><path fill="#60130e" d="M1459.9106,2076.073c88.3892,6.328,111.9131-157.5832,150.2905-140.5277,40.3137,17.9203,52.5645,3.6537,56.9523,4.8158,46.5942-49.6344,137.0215-13.2567,177.4377,6.8717a98.14832,98.14832,0,0,0-115.3237-73.3665l-57.1213,11.7996a97.65594,97.65594,0,0,0-38.8125,17.4169c-22.6608-13.8178-51.7703-16.7755-76.6356-7.3841-27.2228,10.2749-48.4875,35.0206-54.5473,63.4849-3.2549,15.27-2.3585,31.0757-3.1247,46.6676-.7744,15.6043-3.5128,31.8179-12.8578,44.3268-9.3368,12.4964-26.8526,20.0052-41.1392,13.7284l.0043.0205Z"/><path fill="#792011" d="M1633.3336,1903.0828s10.1465,86.5122-31.0611,129.4994c0,0-5.763,3.888,1.9791,11.2693,0,0,50.3223-57.3705,34.3811-144.5742C1638.6327,1899.2773,1633.4065,1896.1072,1633.3336,1903.0828Z"/><path fill="#ff9e1d" d="M2482.1409,2287.2378v150.5031H2180.9691V2295.5835a96.56288,96.56288,0,0,1,96.5634-96.5637h116.4001A88.21159,88.21159,0,0,1,2482.1409,2287.2378Z"/><path fill="#ffc21c" d="M2409.6207,2287.2378v150.5031H2180.9691V2295.5835a96.56288,96.56288,0,0,1,96.5634-96.5637h43.8704A88.21969,88.21969,0,0,1,2409.6207,2287.2378Z"/><path fill="#472712" d="M2463.2171,2030.798v228.3909a41.61174,41.61174,0,0,1-36.205,41.2517l-112.6489,14.7606-96.5406,12.6532a41.60331,41.60331,0,0,1-46.6603-46.6333l32.6595-250.4231a129.69765,129.69765,0,1,1,259.3953,0Z"/><path fill="#331a0c" d="M2314.3632,2315.2012l-96.5406,12.6532a41.60331,41.60331,0,0,1-46.6603-46.6333l32.6595-250.4231a129.64913,129.64913,0,0,1,67.2185-113.6799c-11.6491,46.6874-18.5955,118.3829,26.2561,170.8137C2347.041,2146.0878,2335.2108,2252.0346,2314.3632,2315.2012Z"/><path fill="#331a0c" d="M2390.6533,1968.8176s26.8058,155.1515,5.4229,219.1666C2396.0762,2187.9842,2438.5335,2136.5079,2390.6533,1968.8176Z"/><path fill="#20abd1" d="M2239.2717,2265.6578h179.1089a96.5458,96.5458,0,0,1,96.5458,96.5458v104.6077a0,0,0,0,1,0,0H2142.726a0,0,0,0,1,0,0V2362.2035A96.5457,96.5457,0,0,1,2239.2717,2265.6578Z"/><path fill="#0f3c68" d="M2270.5087,2286.8434h126.2826a96.5457,96.5457,0,0,1,96.5457,96.5457v83.4222a0,0,0,0,1,0,0H2173.963a0,0,0,0,1,0,0v-83.4222A96.5457,96.5457,0,0,1,2270.5087,2286.8434Z"/><rect width="75.247" height="59.431" x="2920.256" y="2187.984" fill="#ffb883"/><path fill="#f24c88" d="M3099.9584,2304.627v135.929H2827.9509V2312.1645a87.212,87.212,0,0,1,87.2126-87.2128h105.1284A79.66946,79.66946,0,0,1,3099.9584,2304.627Z"/><path fill="#ea649f" d="M3034.4607,2304.627v135.929H2827.9509V2312.1645a87.212,87.212,0,0,1,87.2126-87.2128h39.6221A79.67673,79.67673,0,0,1,3034.4607,2304.627Z"/><path fill="#5e180e" d="M3085.0333,2012.2749v96.2602a96.25954,96.25954,0,0,1-96.2511,96.2514h-57.7943a96.24837,96.24837,0,0,1-96.2421-96.2514V1999.6036a54.54978,54.54978,0,0,1,23.4703-44.8606l-.009-.0091a.434.434,0,0,1,.0724-.0361,54.34413,54.34413,0,0,1,15.466-7.4436c.0723-.0362.1448-.0632.2261-.0994,28.6891-12.382,94.6323-34.776,181.5406-26.1386,0,0,13.5667,3.9072,25.8671-2.7675a7.21377,7.21377,0,0,1,10.5098,5.0467A174.94748,174.94748,0,0,1,3085.0333,2012.2749Z"/><path fill="#47100b" d="M3063.3085,2169.4406a96.02754,96.02754,0,0,1-74.5263,35.3459h-57.7943a96.24837,96.24837,0,0,1-96.2421-96.2514V1999.6036a54.54978,54.54978,0,0,1,23.4703-44.8606l-.009-.0091a.434.434,0,0,1,.0724-.0361,54.34413,54.34413,0,0,1,15.466-7.4436c.0723-.0362.1448-.0632.2261-.0994-.5517,52.6206,7.8958,133.2159,63.0852,146.5113C3011.9179,2111.7097,2981.1756,2192.8295,3063.3085,2169.4406Z"/><path fill="#47100b" d="M2963.9546,1988.4801s58.1865,50.1335,57.1855,101.1842C3021.1401,2089.6643,3037.8994,2023.4312,2963.9546,1988.4801Z"/><path fill="#47100b" d="M3047.1659,2054.5715s26.396,40.2382-4.004,93.7211C3043.1619,2148.2926,3058.1768,2113.5722,3047.1659,2054.5715Z"/><path fill="#20abd1" d="M2892.4214,2285.1367h143.0665a96.5457,96.5457,0,0,1,96.5457,96.5457v85.1289a0,0,0,0,1,0,0h-336.158a0,0,0,0,1,0,0v-85.1288A96.5458,96.5458,0,0,1,2892.4214,2285.1367Z"/><path fill="#0f3c68" d="M2920.6335,2304.2708h95.3557a96.5457,96.5457,0,0,1,96.5457,96.5457v65.9948a0,0,0,0,1,0,0H2824.0878a0,0,0,0,1,0,0v-65.9948A96.5457,96.5457,0,0,1,2920.6335,2304.2708Z"/><path fill="#ff9e1d" d="M1663.3109,2353.2712v153.4884H1356.1654V2361.7824a98.47819,98.47819,0,0,1,98.4788-98.479h118.7089A89.96111,89.96111,0,0,1,1663.3109,2353.2712Z"/><path fill="#ffc21c" d="M1589.3523,2353.2712v153.4884H1356.1654V2361.7824a98.47819,98.47819,0,0,1,98.4788-98.479h44.7406A89.96946,89.96946,0,0,1,1589.3523,2353.2712Z"/><path fill="#59351a" d="M1607.0931,2366.7345l-213.339,27.9633a42.43173,42.43173,0,0,1-47.59-47.5593l33.3083-255.3921a132.26881,132.26881,0,0,1,132.2688-132.2689h.0003a132.26887,132.26887,0,0,1,132.2688,132.2689v232.9162A42.43174,42.43174,0,0,1,1607.0931,2366.7345Z"/><path fill="#7c4825" d="M1561.2352,1997.9137s16.2043,234.9043-34.0292,330.51C1527.206,2328.4237,1614.7095,2226.4538,1561.2352,1997.9137Z"/><path fill="#7c4825" d="M1482.4825,1997.9137s-42.0391,106.0316-45.3756,182.1024C1437.1069,2180.0161,1430.4341,2087.3975,1482.4825,1997.9137Z"/><path fill="#28b8eb" d="M1413.7095,2331.2632H1600.201a96.5457,96.5457,0,0,1,96.5457,96.5457v108.5976a0,0,0,0,1,0,0H1317.1638a0,0,0,0,1,0,0V2427.8089A96.5457,96.5457,0,0,1,1413.7095,2331.2632Z"/><path fill="#144680" d="M1445.5661,2352.869h132.6174a96.5457,96.5457,0,0,1,96.5457,96.5457v86.9918a0,0,0,0,1,0,0H1349.0204a0,0,0,0,1,0,0v-86.9918A96.5457,96.5457,0,0,1,1445.5661,2352.869Z"/><rect width="84.968" height="67.108" x="2029.88" y="2221.561" fill="#ffb883"/><path fill="#ffa81d" d="M2232.7962,2353.2712v153.4884H1925.6507V2361.7824a98.47819,98.47819,0,0,1,98.4788-98.479h118.7089A89.96118,89.96118,0,0,1,2232.7962,2353.2712Z"/><path fill="#ffc21c" d="M2158.8376,2353.2712v153.4884H1925.6507V2361.7824a98.47819,98.47819,0,0,1,98.4788-98.479H2068.87A89.96948,89.96948,0,0,1,2158.8376,2353.2712Z"/><path fill="#792011" d="M2215.9411,2023.1528v99.2144a118.16123,118.16123,0,0,1-118.1582,118.1669h-46.302a118.16572,118.16572,0,0,1-118.1669-118.1669V2008.8475a61.60015,61.60015,0,0,1,26.5114-50.6611.145.145,0,0,1,.0763-.0508,61.38529,61.38529,0,0,1,17.4542-8.3969c5.4004-2.3362,11.9859-4.9942,19.6717-7.7537,38.2266-13.7382,103.6501-30.0242,185.588-21.8811a44.525,44.525,0,0,0,20.9839.0592,17.66262,17.66262,0,0,1,21.966,14.974A197.24129,197.24129,0,0,1,2215.9411,2023.1528Z"/><path fill="#60180f" d="M2186.1455,2200.8177a117.86015,117.86015,0,0,1-88.3626,39.7164h-46.302a118.16572,118.16572,0,0,1-118.1669-118.1669V2008.8475a61.60015,61.60015,0,0,1,26.5114-50.6611.145.145,0,0,1,.0763-.0508,61.38529,61.38529,0,0,1,17.4542-8.3969c5.4004-2.3362,11.9859-4.9942,19.6717-7.7537-8.3799,45.1929-11.605,108.771,26.5453,138.7867C2080.9719,2125.9308,2054.4944,2212.609,2186.1455,2200.8177Z"/><path fill="#28b8eb" d="M1985.9777,2331.2632h186.4916a96.5457,96.5457,0,0,1,96.5457,96.5457v108.5976a0,0,0,0,1,0,0H1889.432a0,0,0,0,1,0,0V2427.8089A96.5457,96.5457,0,0,1,1985.9777,2331.2632Z"/><path fill="#144680" d="M2017.8343,2352.869h132.6174a96.5457,96.5457,0,0,1,96.5457,96.5457v86.9918a0,0,0,0,1,0,0H1921.2886a0,0,0,0,1,0,0v-86.9918A96.5457,96.5457,0,0,1,2017.8343,2352.869Z"/><path fill="#ea4b80" d="M2811.5659,2353.2712v153.4884H2504.4204V2361.7824a98.4781,98.4781,0,0,1,98.4787-98.479H2721.608A89.9612,89.9612,0,0,1,2811.5659,2353.2712Z"/><path fill="#f9759b" d="M2737.6072,2353.2712v153.4884H2504.4204V2361.7824a98.4781,98.4781,0,0,1,98.4787-98.479h44.7406A89.96946,89.96946,0,0,1,2737.6072,2353.2712Z"/><path fill="#bb5332" d="M2856.9405,2296.9334c-.7663,21.0022-15.6585,38.9199-30.9044,54.0772-4.656,4.627-9.6562,9.3029-16.0217,11.3559-14.7055,4.7349-29.362-5.7957-43.6646-11.5326-2.564-1.0315-5.3832-1.9253-8.0947-1.326-3.9293.884-6.3751,4.5579-8.1728,8.0059-7.2497,13.8999-12.2693,30.6782-26.6508,37.9575-18.2319,9.224-40.0399-2.1614-56.9851-13.3992-16.9453-11.228-38.134-23.1927-56.8672-14.9412-12.0729,5.3241-18.9,17.5836-29.2637,25.5406-17.0826,13.1143-43.7433,10.5306-60.0304-2.8486a38.82854,38.82854,0,0,1-11.2772-14.7154c-2.8093-6.5523-3.9293-13.7135-7.0629-20.1282-3.1434-6.4144-9.1652-12.3379-16.5915-12.4657-3.7821-.0686-7.3872,1.3655-10.9925,2.4361-34.077,10.1476-72.7123-14.6465-81.7792-47.5841s7.456-69.0777,34.9122-90.8363c15.2065-12.0532,33.4681-20.4719,47.486-33.7727,27.6821-26.2774,33.6646-65.934,35.1184-103.6653.1278-3.4874.2259-6.9649.2947-10.4129.2946-14.7054.4322-29.804,5.953-43.5468,5.5698-13.9294,16.2673-25.4325,27.7605-35.5211,20.6978-18.1633,46.5529-33.3501,74.6674-33.1439l-3.7231,2.505a29.5852,29.5852,0,0,1,5.717-2.5837c7.456-2.5245,15.9039-2.5048,23.9494-2.3771,23.7527.3732,48.9691,1.1394,68.7928,13.6445,12.2693,7.7507,20.688,18.684,27.5542,30.9631,12.466,22.2893,19.8532,49.0282,36.1597,69.225,12.3972,15.3441,30.0988,27.0338,38.6942,44.5882,16.12,32.9081-5.4716,72.4667,3.6641,107.7323C2827.5489,2240.8618,2858.0799,2265.3319,2856.9405,2296.9334Z"/><path fill="#a8452a" d="M2565.3644,2115.8502c13.2025,117.045-88.0072,111.7698-73.9205,163.6862,12.0041,44.2932,54.7552,75.777,28.8412,110.2865a38.82854,38.82854,0,0,1-11.2772-14.7154c-2.8093-6.5523-3.9293-13.7135-7.0629-20.1282-3.1434-6.4144-9.1652-12.3379-16.5915-12.4657-3.7821-.0686-7.3872,1.3655-10.9925,2.4361-34.077,10.1476-72.7123-14.6465-81.7792-47.5841s7.456-69.0777,34.9122-90.8363c15.2065-12.0532,33.4681-20.4719,47.486-33.7727,27.6821-26.2774,33.6646-65.934,35.1184-103.6653.1278-3.4874.2259-6.9649.2947-10.4129.2946-14.7054.4322-29.804,5.953-43.5468,5.5698-13.9294,16.2673-25.4325,27.7605-35.5211,20.6978-18.1633,46.5529-33.3501,74.6674-33.1439l-3.7231,2.505a29.5852,29.5852,0,0,1,5.717-2.5837C2592.0347,1983.9228,2557.3979,2045.2402,2565.3644,2115.8502Z"/><path fill="#e8ad28" d="M2713.5077,1957.6575c-19.8228-12.5035-45.0385-13.2781-68.7942-13.6456-8.3618-.1304-14.6462-1.8424-21.424.3851a47.81652,47.81652,0,0,1-11.1996,2.3057c-25.5235,1.9965-48.9344,16.1967-67.9805,32.9031-11.5003,10.0901-22.1964,21.6006-27.7679,35.5243-5.5119,13.7448-5.6509,28.8404-5.9489,43.5486-.0695,3.4463-.1687,6.9223-.2979,10.408,25.3645-53.5694,93.7218-153.1208,230.9724-80.4633C2734.1947,1976.3384,2725.7827,1965.404,2713.5077,1957.6575Z"/><path fill="#a8452a" d="M2683.9572,2017.0895c16.6045,8.5599,25.507,26.4017,29.6746,43.8695,4.9735,20.8463,4.5549,42.6253,10.4274,63.2957,2.6608,9.3657,6.5975,18.4729,12.5579,26.2286,6.227,8.1025,14.346,14.4749,20.7881,22.3909a95.90687,95.90687,0,0,1,12.5844,97.4391q-1.30695,2.8902-2.8227,5.6778c-.9129,1.6864,1.6586,3.1923,2.5726,1.5037a95.51364,95.51364,0,0,0,10.9946-50.7462,98.66739,98.66739,0,0,0-16.3063-49.3654,89.87366,89.87366,0,0,0-8.052-10.257c-3.592-3.9438-7.512-7.5691-11.2207-11.4a70.891,70.891,0,0,1-9.6829-12.146,73.50968,73.50968,0,0,1-6.4627-13.6258c-7.3062-20.336-7.1412-42.2164-11.1151-63.2503-3.4764-18.4003-10.9735-37.4221-26.7181-48.7025a45.94533,45.94533,0,0,0-5.7153-3.4847c-1.7016-.8772-3.2104,1.6928-1.5038,2.5726Z"/><path fill="#bb5332" d="M2564.6452,2035.9708c-17.6729,9.5069-24.9859,29.8791-28.1013,48.5358-1.9276,11.5437-2.7341,23.2581-5.0698,34.7362a124.35538,124.35538,0,0,1-9.8216,29.4379,104.05055,104.05055,0,0,1-17.1805,25.424c-7.0032,7.5524-15.1009,13.962-23.055,20.4648-7.9847,6.5278-15.9344,13.2302-22.4668,21.2613a81.70734,81.70734,0,0,0-13.6371,24.5006,85.50889,85.50889,0,0,0-.4465,55.5736c.7465,2.1703,1.5992,4.3006,2.5225,6.4015.7697,1.7514,3.3375.2368,2.5726-1.5038-7.4801-17.0203-8.418-36.6154-3.4225-54.4546a79.96535,79.96535,0,0,1,11.8944-24.9703c5.8251-8.1406,13.3276-14.9244,20.9759-21.3086,7.7829-6.4967,15.866-12.6634,23.1426-19.7418a105.92238,105.92238,0,0,0,18.3877-23.8704,122.64472,122.64472,0,0,0,11.4085-28.0075c2.9246-10.7304,4.1605-21.7604,5.5716-32.7634,2.4556-19.1466,6.5126-40.7413,22.5794-53.4649a38.3233,38.3233,0,0,1,5.6497-3.6778c1.6892-.9087.1864-3.4818-1.5038-2.5726Z"/><path fill="#a8452a" d="M2633.4272,2081.8475c-3.3175,18.2491-1.6047,36.8204-2.6355,55.2334a102.02353,102.02353,0,0,1-4.619,26.6624,119.10713,119.10713,0,0,1-10.9877,22.8437c-4.3484,7.3331-9.0528,14.4499-13.3273,21.8275a129.74578,129.74578,0,0,0-10.5333,22.5198,122.21589,122.21589,0,0,0,6.6822,94.7267q1.38975,2.6952,2.9248,5.3113a1.49081,1.49081,0,0,0,2.5726-1.5038,115.95473,115.95473,0,0,1-15.0078-45.7475,119.80532,119.80532,0,0,1,4.3291-47.7709,116.89355,116.89355,0,0,1,9.5285-22.3576c4.0748-7.4121,8.7053-14.4964,13.1162-21.7083a154.05585,154.05585,0,0,0,11.6843-22.2408,92.86453,92.86453,0,0,0,6.0671-25.5411c1.8742-18.1604-.0426-36.4915,2.0595-54.638q.3972-3.429,1.0192-6.8248c.3408-1.8746-2.53-2.6787-2.8729-.792Z"/><path fill="#a8452a" d="M2685.39,2136.7337a162.55979,162.55979,0,0,1,6.1694,49.3612,202.82765,202.82765,0,0,1-2.4342,24.128c-1.1688,7.7843-2.3919,15.6185-2.3978,23.5096a50.03087,50.03087,0,0,0,4.6862,22.2752c3.4246,6.9578,8.5721,12.9161,13.0617,19.1872,8.7967,12.2873,16.7405,25.6476,20.1516,40.5205,3.0886,13.4667,2.1749,28.4946-4.9377,40.593a45.00633,45.00633,0,0,1-2.8401,4.2425c-1.1527,1.5328,1.4329,3.0193,2.5727,1.5038,8.5376-11.3517,11.075-26.2093,9.3144-40.0861-1.9188-15.1242-8.8109-29.0615-17.1248-41.6559-4.2988-6.5121-9.229-12.5615-13.6037-19.0142a48.31962,48.31962,0,0,1-5.5199-10.2738,44.71049,44.71049,0,0,1-2.5278-11.4168c-.7209-7.9058.1847-15.8633,1.3111-23.6867,1.1587-8.0487,2.4783-16.0631,3.0023-24.1869a164.864,164.864,0,0,0-4.3809-49.6538q-.75435-3.08535-1.6296-6.1388a1.49093,1.49093,0,0,0-2.8729.792Z"/><path fill="#28b8eb" d="M2554.2082,2331.2632h186.4915a96.5457,96.5457,0,0,1,96.5457,96.5457v108.5976a0,0,0,0,1,0,0H2457.6625a0,0,0,0,1,0,0V2427.8089A96.5457,96.5457,0,0,1,2554.2082,2331.2632Z"/><path fill="#144680" d="M2586.0648,2352.869h132.6174a96.5457,96.5457,0,0,1,96.5457,96.5457v86.9918a0,0,0,0,1,0,0H2489.5191a0,0,0,0,1,0,0v-86.9918A96.5457,96.5457,0,0,1,2586.0648,2352.869Z"/><rect width="63.385" height="63.385" x="3192.964" y="2215.113" fill="#dd6b1f"/><path fill="#a03024" d="M3536.9839,2047.7461c-14.0683,27.3748-50.0178,35.0099-80.6768,32.3352a201.94138,201.94138,0,0,1-90.4704-31.0994v56.2225a135.89185,135.89185,0,1,1-271.7837,0v-89.9456a104.76856,104.76856,0,0,1,104.7673-104.7673h62.2491a104.33127,104.33127,0,0,1,44.3295,9.8275c20.7045-19.3333,50.5003-28.7123,78.5183-24.2683,30.676,4.8672,58.2455,26.1474,70.7224,54.5887,6.6955,15.2618,9.1757,31.971,13.3488,48.1132,4.173,16.1338,10.5385,32.4874,23.0154,43.5507a43.30537,43.30537,0,0,0,28.9237,10.8857A30.36728,30.36728,0,0,0,3536.9839,2047.7461Z"/><path fill="#ba0035" d="M3383.5165,2402.3777v104.3819H3076.371V2397.034a133.73054,133.73054,0,0,1,133.7305-133.7306h34.3407A139.07432,139.07432,0,0,1,3383.5165,2402.3777Z"/><path fill="#9b0127" d="M3309.5578,2353.2709v153.4887H3076.371V2394.0418a130.73843,130.73843,0,0,1,130.7384-130.7384h12.4809A89.96747,89.96747,0,0,1,3309.5578,2353.2709Z"/><path fill="#28b8eb" d="M3131.4109,2331.2632h186.4915a96.5457,96.5457,0,0,1,96.5457,96.5457v108.5976a0,0,0,0,1,0,0H3034.8652a0,0,0,0,1,0,0V2427.8089A96.5457,96.5457,0,0,1,3131.4109,2331.2632Z"/><path fill="#144680" d="M3163.2675,2352.869h132.6174a96.5457,96.5457,0,0,1,96.5457,96.5457v86.9918a0,0,0,0,1,0,0H3066.7218a0,0,0,0,1,0,0v-86.9918A96.5457,96.5457,0,0,1,3163.2675,2352.869Z"/><path fill="#84251e" d="M3536.9839,2047.7461c-14.0683,27.3748-50.0178,35.0099-80.6768,32.3352a201.94138,201.94138,0,0,1-90.4704-31.0994v56.2225a135.89363,135.89363,0,0,1-235.3095,92.6458c60.8356,2.6493,175.515-11.8675,197.6586-154.1249,29.2285-187.8055,57.6275,42.4251,191.7417,9.4637A137.20556,137.20556,0,0,0,3536.9839,2047.7461Z"/><path fill="#84251e" d="M3293.8853,1952.7567s-49.029-29.5659-112.0662-27.7907C3181.8191,1924.966,3248.9353,1912.4447,3293.8853,1952.7567Z"/><path fill="#84251e" d="M3288.8823,1962.3037s-101.5831-7.4578-158.3551,52.0333C3130.5272,2014.337,3171.8132,1974.8526,3288.8823,1962.3037Z"/><path fill="#dd6b1f" d="M3305.3989,1920.319s-2.0843,92.6424,60.4378,128.6629c0,0,2.9575,4.5651-.3888,10.5884,0,0-76.296-32.7939-68.2649-143.2224C3297.183,1916.3479,3304.2451,1916.2588,3305.3989,1920.319Z"/></svg>