<svg xmlns="http://www.w3.org/2000/svg" xmlns:xlink="http://www.w3.org/1999/xlink" enable-background="new 0 0 3000 2500" viewBox="0 0 3000 2500"><rect width="2918.6" height="2432.2" x="40.7" y="33.9" fill="none"/><g opacity=".43"><ellipse cx="1458.2" cy="2260.1" fill="#4c0000" opacity="0" rx="322.9" ry="95"/><ellipse cx="1458.2" cy="2260.1" fill="#4a0101" opacity=".038" rx="315.1" ry="92.7"/><ellipse cx="1458.2" cy="2260.1" fill="#480202" opacity=".077" rx="307.3" ry="90.4"/><ellipse cx="1458.2" cy="2260.1" fill="#460303" opacity=".115" rx="299.5" ry="88.1"/><ellipse cx="1458.2" cy="2260.1" fill="#440404" opacity=".154" rx="291.7" ry="85.8"/><ellipse cx="1458.2" cy="2260.1" fill="#420505" opacity=".192" rx="283.8" ry="83.5"/><ellipse cx="1458.2" cy="2260.1" fill="#400606" opacity=".231" rx="276" ry="81.2"/><ellipse cx="1458.2" cy="2260.1" fill="#3e0606" opacity=".269" rx="268.2" ry="78.9"/><ellipse cx="1458.2" cy="2260.1" fill="#3c0707" opacity=".308" rx="260.4" ry="76.6"/><ellipse cx="1458.2" cy="2260.1" fill="#3a0808" opacity=".346" rx="252.6" ry="74.3"/><ellipse cx="1458.2" cy="2260.1" fill="#380909" opacity=".385" rx="244.8" ry="72"/><ellipse cx="1458.2" cy="2260.1" fill="#360a0a" opacity=".423" rx="237" ry="69.7"/><ellipse cx="1458.2" cy="2260.1" fill="#340b0b" opacity=".462" rx="229.1" ry="67.4"/><ellipse cx="1458.2" cy="2260.1" fill="#330c0c" opacity=".5" rx="221.3" ry="65.1"/><ellipse cx="1458.2" cy="2260.1" fill="#310d0d" opacity=".538" rx="213.5" ry="62.8"/><ellipse cx="1458.2" cy="2260.1" fill="#2f0e0e" opacity=".577" rx="205.7" ry="60.5"/><ellipse cx="1458.2" cy="2260.1" fill="#2d0f0f" opacity=".615" rx="197.9" ry="58.2"/><ellipse cx="1458.2" cy="2260.1" fill="#2b1010" opacity=".654" rx="190.1" ry="55.9"/><ellipse cx="1458.2" cy="2260.1" fill="#291111" opacity=".692" rx="182.2" ry="53.6"/><ellipse cx="1458.2" cy="2260.1" fill="#271212" opacity=".731" rx="174.4" ry="51.3"/><ellipse cx="1458.2" cy="2260.1" fill="#251212" opacity=".769" rx="166.6" ry="49"/><ellipse cx="1458.2" cy="2260.1" fill="#231313" opacity=".808" rx="158.8" ry="46.7"/><ellipse cx="1458.2" cy="2260.1" fill="#211414" opacity=".846" rx="151" ry="44.4"/><ellipse cx="1458.2" cy="2260.1" fill="#1f1515" opacity=".885" rx="143.2" ry="42.1"/><ellipse cx="1458.2" cy="2260.1" fill="#1d1616" opacity=".923" rx="135.4" ry="39.8"/><ellipse cx="1458.2" cy="2260.1" fill="#1b1717" opacity=".962" rx="127.5" ry="37.5"/><ellipse cx="1458.2" cy="2260.1" fill="#191818" rx="119.7" ry="35.2"/></g><linearGradient id="a" x1="896.057" x2="2088.967" y1="1912.502" y2="1912.502" gradientUnits="userSpaceOnUse"><stop offset="0" stop-color="#fe7f0a"/><stop offset="1" stop-color="#cc5605"/></linearGradient><path fill="url(#a)" d="M2089,1651.1l0-27.8l-290.6-42.2l16.7,204.3l79-38.7c76.3,108,39.4,236.3-111.3,323.9
		c-200.7,116.6-527.4,116.6-729.5-0.1c-16.2-9.3-31-19.1-44.6-29.3l-112.5,28v27.8c16.2,11.9,33.7,23.3,52.6,34.2
		c260.2,150.2,680.8,150.2,939.1,0.1c205.9-119.6,246.9-298.5,123.7-442.2L2089,1651.1z"/><linearGradient id="b" x1="1331.044" x2="971.766" y1="1596.998" y2="1871.184" gradientUnits="userSpaceOnUse"><stop offset="0" stop-color="#3abaf9"/><stop offset="1" stop-color="#267ebd"/></linearGradient><path fill="url(#b)" d="M945.6,1587.3c-132.3,76.9-196.4,178.3-192.6,279.1l-124,42.8l267.1,121.7l85.7-243.4l-74.8,25.8
			c15.8-60.5,63.7-118.7,143.9-165.3c171.2-99.5,433.7-114.1,632.6-44.1c44.8-21.6,85-40.9,119.1-57.1
			C1542.4,1438.6,1178.4,1452,945.6,1587.3z"/><linearGradient id="c" x1="1246.782" x2="1082.414" y1="1783.437" y2="1343.053" gradientUnits="userSpaceOnUse"><stop offset="0" stop-color="#3abaf9"/><stop offset="1" stop-color="#267ebd"/></linearGradient><path fill="url(#c)" d="M945.6,1559.5c-132.3,76.9-196.4,178.3-192.6,279.1l-124,42.8l267.1,121.7l85.7-243.4l-74.8,25.8
			c15.8-60.5,63.7-118.7,143.9-165.3c171.2-99.5,433.7-114.1,632.6-44.1c44.8-21.6,85-40.9,119.1-57.1
			C1542.4,1410.8,1178.4,1424.3,945.6,1559.5z"/><linearGradient id="d" x1="1683.413" x2="1802.474" y1="1561.498" y2="1561.498" gradientUnits="userSpaceOnUse"><stop offset="0" stop-color="#207249"/><stop offset="1" stop-color="#0ba2b3"/></linearGradient><polygon fill="url(#d)" points="1683.4 1576.2 1683.4 1603.9 1802.5 1546.8 1802.5 1519.1"/><linearGradient id="e" x1="628.962" x2="896.057" y1="1956.1" y2="1956.1" gradientUnits="userSpaceOnUse"><stop offset="0" stop-color="#3abaf9"/><stop offset="1" stop-color="#267ebd"/></linearGradient><polygon fill="url(#e)" points="629 1881.4 629 1909.1 896.1 2030.8 896.1 2003.1"/><linearGradient id="f" x1="896.057" x2="981.726" y1="1895.255" y2="1895.255" gradientUnits="userSpaceOnUse"><stop offset="0" stop-color="#3abaf9"/><stop offset="1" stop-color="#267ebd"/></linearGradient><polygon fill="url(#f)" points="981.7 1759.7 981.7 1787.5 896.1 2030.8 896.1 2003.1"/><polygon fill="#c1c1c1" points="1715.4 1646.4 1715.1 1749.8 1659.1 1796.1 1659.4 1692.6"/><polygon fill="#828282" points="1173.1 1692.6 1172.8 1796.1 1116.4 1749.8 1116.6 1646.4"/><path fill="#949494" d="M1535.4,1714.5c-4-2.3-8.1-4.4-12.3-6.4c-1.4-0.7-2.9-1.3-4.3-1.9c-2.5-1.1-5-2.3-7.6-3.3
			c-0.4-0.2-0.9-0.3-1.4-0.5c-1-0.4-1.9-0.7-2.9-1.1c-3.4-1.2-6.8-2.4-10.3-3.5c-1.2-0.4-2.3-0.7-3.5-1.1c-0.8-0.2-1.6-0.5-2.4-0.7
			c-1.4-0.4-2.9-0.7-4.3-1.1c-3.4-0.9-6.9-1.8-10.4-2.6c-0.9-0.2-1.8-0.5-2.8-0.7c-1.4-0.3-2.8-0.5-4.2-0.7
			c-2.9-0.6-5.9-1.1-8.9-1.5c-1.2-0.2-2.4-0.5-3.6-0.6c-1.3-0.2-2.6-0.3-4-0.4c-2.8-0.4-5.6-0.7-8.4-0.9c-1.3-0.1-2.7-0.3-4-0.4
			c-1.3-0.1-2.5-0.1-3.8-0.2c-2.8-0.2-5.7-0.3-8.5-0.5c-1.4-0.1-2.8-0.2-4.3-0.2c-1.1,0-2.3,0-3.4,0c-3.1,0-6.2,0-9.2,0
			c-1.5,0-3.1,0-4.6,0c-0.9,0-1.8,0.1-2.7,0.2c-3.8,0.2-7.6,0.4-11.4,0.8c-1.5,0.1-3.1,0.2-4.6,0.3c-0.5,0-0.9,0.1-1.4,0.2
			c-6.5,0.7-12.8,1.6-19.1,2.7c-0.3,0.1-0.6,0.1-0.9,0.1c-1.8,0.3-3.6,0.8-5.4,1.2c-3.1,0.6-6.2,1.3-9.3,2c-2.2,0.5-4.4,1.2-6.6,1.8
			c-2.9,0.8-5.8,1.6-8.7,2.5c-0.6,0.2-1.3,0.3-1.9,0.5c-3.5,1.1-6.9,2.3-10.2,3.6c-0.5,0.2-0.9,0.4-1.4,0.6c-3.7,1.4-7.3,3-10.8,4.6
			c-1,0.5-2.1,1-3.1,1.4c-3.9,1.9-7.7,3.8-11.4,6c-0.7,0.4-1.4,0.8-2.1,1.2c-1.5,0.9-2.9,1.9-4.3,2.9c-2,1.3-4.1,2.6-6,4
			c-1.7,1.2-3.2,2.5-4.7,3.7c-1.8,1.4-3.6,2.8-5.2,4.3c-0.3,0.3-0.7,0.6-1,0.9c-2.2,2-4.2,4-6.1,6.1c-0.4,0.4-0.7,0.9-1.1,1.3
			c-1.1,1.3-2.3,2.5-3.3,3.8c-0.8,1-1.5,2.1-2.3,3.1c-0.3,0.4-0.6,0.8-0.8,1.1c-1.3,1.9-2.6,3.9-3.7,5.8c-0.4,0.7-0.7,1.3-1,2
			c-0.2,0.4-0.4,0.8-0.6,1.3c-1,2.1-2,4.2-2.8,6.3c-0.1,0.3-0.2,0.7-0.3,1.1c-0.6,1.7-1,3.4-1.4,5c-0.3,1.1-0.7,2.2-1,3.4
			c-0.1,0.3,0,0.6-0.1,0.9c-0.3,1.8-0.5,3.5-0.6,5.3c-0.1,1.1-0.4,2.3-0.4,3.4c0,0.5,0,1,0,1.5l-0.3,103.4c0-1.6,0.3-3.3,0.4-4.9
			c0.2-1.8,0.3-3.5,0.6-5.3c0.3-1.4,0.7-2.9,1.1-4.3c0.4-1.7,0.9-3.4,1.4-5c0.9-2.5,1.9-5,3.1-7.4c0.2-0.4,0.4-0.8,0.6-1.2
			c1.4-2.6,2.9-5.2,4.7-7.8c0.3-0.4,0.6-0.8,0.8-1.1c1.7-2.3,3.5-4.6,5.5-6.9c0.4-0.4,0.7-0.9,1.1-1.3c2.2-2.4,4.6-4.7,7.1-7
			c1.6-1.5,3.4-2.8,5.2-4.3c1.6-1.3,3-2.5,4.7-3.7c1.9-1.4,4-2.7,6-4c2.1-1.4,4.1-2.8,6.4-4.1c3.6-2.1,7.5-4.1,11.4-6
			c1-0.5,2.1-1,3.1-1.5c3.5-1.6,7.1-3.2,10.8-4.6c0.5-0.2,0.9-0.4,1.4-0.6c3.9-1.5,8-2.9,12.1-4.1c2.8-0.9,5.8-1.7,8.7-2.5
			c2.2-0.6,4.4-1.2,6.6-1.8c3.1-0.7,6.2-1.4,9.3-2c2.1-0.4,4.2-0.9,6.4-1.3c6.3-1.1,12.7-2,19.1-2.7c2-0.2,4-0.3,6-0.5
			c3.8-0.3,7.6-0.6,11.4-0.8c2.4-0.1,4.9-0.2,7.3-0.2c3.1-0.1,6.1-0.1,9.2,0c2.6,0,5.1,0.1,7.7,0.2c2.8,0.1,5.7,0.3,8.5,0.5
			c2.6,0.2,5.2,0.4,7.8,0.6c2.8,0.3,5.6,0.6,8.4,0.9c2.5,0.3,5,0.7,7.5,1.1c3,0.5,6,1,8.9,1.6c2.3,0.4,4.7,0.9,7,1.4
			c3.5,0.8,7,1.6,10.5,2.6c2.2,0.6,4.5,1.1,6.7,1.8c1.2,0.4,2.4,0.7,3.5,1.1c3.5,1.1,6.9,2.3,10.2,3.5c1,0.4,2,0.7,2.9,1.1
			c3.1,1.2,6,2.5,9,3.8c1.4,0.6,2.9,1.2,4.3,1.9c4.2,2,8.4,4.2,12.3,6.4c33.2,19.2,49.8,44.3,49.7,69.4l0.3-103.5
			C1585.2,1758.8,1568.6,1733.7,1535.4,1714.5z"/><path fill="#999" d="M1797.9,1793.9c-0.1,1.3-0.1,2.5-0.3,3.8c-0.4,3.9-0.9,7.7-1.7,11.5l-0.3,103.5c0.7-3.8,1.3-7.7,1.7-11.5
			c0.1-1.2,0.2-2.5,0.3-3.7c0.1-2,0.4-4,0.4-6c0-1.1,0.1-2.3,0.1-3.4l0.3-103.5C1798.4,1787.6,1798.2,1790.7,1797.9,1793.9z"/><defs><path id="g" d="M1034.9,1885.9l0.3-103.4c0,8.9,0.9,17.8,2.7,26.7l-0.3,103.4
					C1035.7,1903.7,1034.8,1894.8,1034.9,1885.9z" enable-background="new"/></defs><clipPath id="h"><use overflow="visible" xlink:href="#g"/></clipPath><g clip-path="url(#h)"><path fill="#858585" d="M1037.9,1809.1l-0.3,103.4c-1.9-8.9-2.8-17.8-2.7-26.7l0.3-103.4C1035.1,1791.3,1036,1800.3,1037.9,1809.1
					"/></g><polygon fill="#b9b9b9" points="1796 1809.2 1795.7 1912.6 1699.5 1922.3 1699.8 1818.8"/><polygon fill="#a9a9a9" points="1134.2 1818.8 1133.9 1922.3 1037.6 1912.6 1037.9 1809.1"/><path fill="#b3b3b3" d="M1698.7,1821.6c-0.7,1.8-1.5,3.6-2.3,5.4c-0.5,1-1,2-1.4,2.9c-0.8,1.6-1.6,3.2-2.5,4.8c-0.5,1-1.1,2-1.7,2.9
			c-1,1.8-2.2,3.6-3.3,5.3c-0.6,0.9-1.2,1.9-1.8,2.8c-1.3,1.9-2.8,3.9-4.2,5.8c-0.5,0.7-1,1.4-1.5,2c-2.3,2.9-4.8,5.8-7.4,8.6
			c-0.6,0.7-1.3,1.4-2,2.1c-2.2,2.3-4.5,4.6-6.9,6.8c-1.1,1-2.1,2-3.2,3l-0.3,103.4c0.6-0.6,1.3-1.1,1.9-1.7
			c0.5-0.4,0.9-0.9,1.3-1.3c2.4-2.3,4.7-4.5,6.9-6.9c0.7-0.7,1.4-1.4,2-2.1c2.6-2.8,5.1-5.7,7.4-8.6c0.1-0.1,0.2-0.3,0.3-0.4
			c0.4-0.5,0.8-1.1,1.2-1.7c1.5-1.9,2.9-3.8,4.2-5.8c0.6-0.9,1.2-1.9,1.8-2.8c1.2-1.8,2.2-3.5,3.3-5.3c0.3-0.6,0.7-1.1,1-1.6
			c0.2-0.4,0.4-0.9,0.7-1.3c0.9-1.6,1.7-3.2,2.5-4.8c0.5-1,1-2,1.4-3c0.8-1.8,1.6-3.6,2.3-5.4c0.3-0.7,0.6-1.3,0.8-2
			c0.1-0.3,0.2-0.5,0.3-0.8l0.3-103.4C1699.5,1819.8,1699.1,1820.7,1698.7,1821.6z"/><path fill="#858585" d="M1174.1,1874.4c-19.3-17.3-32.6-36.1-40-55.5l-0.3,103.5c2.8,7.3,6.4,14.5,10.8,21.5c3,4.7,6.3,9.4,10,13.9
			c1.9,2.3,3.8,4.6,5.8,6.8c4.1,4.5,8.5,8.9,13.4,13.2l0,0l0,0L1174.1,1874.4z"/><path fill="#adadad" d="M1554.8,1931c-5.5,1.7-11.2,3.3-16.9,4.8c-2.8,0.7-5.5,1.5-8.2,2.2c-8.4,2-17,3.9-25.6,5.5
			c-0.1,0-0.2,0-0.3,0.1c-8.2,1.5-16.5,2.7-24.9,3.8l-0.3,103.4c8.4-1,16.7-2.3,24.9-3.8c0,0,0,0,0,0c0.1,0,0.2,0,0.3-0.1
			c8.7-1.6,17.2-3.4,25.6-5.4c2.8-0.7,5.5-1.5,8.3-2.2c5.7-1.5,11.3-3,16.9-4.8c0.9-0.3,1.9-0.5,2.8-0.8c5.7-1.8,11.3-3.8,16.9-5.8
			l0.3-103.5C1568,1926.7,1561.4,1928.9,1554.8,1931z"/><path fill="#8a8a8a" d="M1332.7,1943.7c-1-0.2-2-0.4-3-0.6c-6.7-1.2-13.4-2.6-20-4.2c-1.1-0.3-2.2-0.5-3.3-0.7
			c-7-1.7-13.9-3.6-20.7-5.6c-1.5-0.4-3-0.9-4.5-1.4c-6.9-2.1-13.8-4.4-20.4-6.9l-0.3,103.4c6.7,2.5,13.5,4.8,20.5,6.9
			c1.5,0.5,3,0.9,4.5,1.4c1.4,0.4,2.7,0.8,4,1.2c5.5,1.6,11.1,3,16.7,4.3c1.1,0.3,2.2,0.5,3.3,0.7c3.5,0.8,6.9,1.6,10.4,2.4
			c3.2,0.7,6.4,1.2,9.6,1.8c1,0.2,2,0.4,3,0.6c5.4,1,10.9,1.9,16.4,2.6c2.5,0.4,5.1,0.7,7.6,1l0.3-103.5
			C1348.6,1946.3,1340.7,1945.1,1332.7,1943.7z"/><path fill="#b8b8b8" d="M1716.6,2024l0.3-103.5c-4.2,3.1-8.6,6.1-13,9c-1.4,0.9-2.9,1.8-4.4,2.8c-3.9,2.5-7.9,5-12,7.4
			c-10.6,6.1-21.6,11.8-33,17.1l-0.3,103.5c11.4-5.3,22.5-11,33-17.1c1.9-1.1,3.7-2.2,5.6-3.3c2.2-1.3,4.3-2.7,6.5-4.1
			c1.5-0.9,2.9-1.8,4.4-2.8C1708.1,2030.1,1712.4,2027.1,1716.6,2024z"/><polygon fill="#919191" points="1654.5 1956.9 1654.2 2060.3 1574.1 2027.8 1574.4 1924.3"/><polygon fill="#c5c5c5" points="1260.7 1924.3 1260.4 2027.8 1180.8 2060.4 1181.1 1956.9"/><defs><path id="i" d="M1181.1,1956.9l-0.3,103.4c-11.5-5.3-22.6-11-33.3-17.1c-10.6-6.1-20.5-12.5-29.7-19.2
					l0.3-103.4c9.2,6.7,19,13.1,29.7,19.2C1158.5,1946,1169.6,1951.7,1181.1,1956.9z" enable-background="new"/></defs><clipPath id="j"><use overflow="visible" xlink:href="#i"/></clipPath><g clip-path="url(#j)"><path fill="#858585" d="M1181.1,1956.9l-0.3,103.4c-11.5-5.3-22.6-11-33.3-17.1c-10.6-6.1-20.5-12.5-29.7-19.2l0.3-103.4
					c9.2,6.7,19,13.1,29.7,19.2C1158.5,1946,1169.6,1951.7,1181.1,1956.9"/></g><polygon fill="#a2a2a2" points="1478.8 1947.3 1478.5 2050.7 1462 2106.5 1462.3 2003.1"/><polygon fill="gray" points="1373.8 2003.1 1373.5 2106.5 1356.4 2050.8 1356.7 1947.3"/><path fill="#9e9e9e" d="M1440.3,2004.2c-0.6,0-1.2,0-1.9,0c-6.4,0.2-12.7,0.3-19.1,0.3c-2.4,0-4.7-0.1-7-0.1
			c-4.4,0-8.8-0.1-13.2-0.2c-8.5-0.2-16.9-0.6-25.3-1.2l-0.3,103.5c8.4,0.6,16.9,0.9,25.3,1.2c0.8,0,1.6,0.1,2.4,0.1
			c3.6,0.1,7.2,0.1,10.8,0.1c2.4,0,4.7,0.1,7.1,0.1c6.3,0,12.6-0.1,18.9-0.3c0.7,0,1.4,0,2.1,0c0,0,0.1,0,0.1,0
			c7.3-0.2,14.6-0.6,21.8-1.1l0.3-103.5C1455,2003.5,1447.7,2003.9,1440.3,2004.2z"/><linearGradient id="k" x1="1467.696" x2="1269.871" y1="1919.821" y2="1389.798" gradientUnits="userSpaceOnUse"><stop offset="0" stop-color="#fbfbfb"/><stop offset="1" stop-color="#e5e5e5"/></linearGradient><path fill="url(#k)" d="M1654.5,1956.9l-80-32.6c-29.7,11.1-62.1,18.8-95.6,23l-16.5,55.8c-29.4,2-59.2,2-88.6,0l-17.1-55.7
				c-33.5-4.2-66.1-11.8-96-23l-79.6,32.6c-11.5-5.3-22.6-11-33.3-17.1c-10.6-6.1-20.5-12.5-29.7-19.2l56-46.2
				c-19.3-17.3-32.6-36.1-40-55.5l-96.3-9.7c-3.6-17-3.7-34.3-0.3-51.3l96.1-9.7c7.2-19.4,20.3-38.3,39.4-55.5l-56.5-46.3
				c9.1-6.6,18.8-13,29.4-19.2c10.6-6.1,21.6-11.8,33.1-17.1l80,32.6c29.7-11.1,62.2-18.8,95.7-23l16.4-55.7c29.4-2,59.1-2,88.6,0
				l17,55.7c33.6,4.2,66.1,11.8,96,23l79.6-32.6c11.5,5.3,22.6,11,33.3,17.1c10.7,6.2,20.5,12.6,29.7,19.2l-56,46.2
				c19.4,17.3,32.7,36.1,40,55.5l96.3,9.7c3.5,17,3.6,34.3,0.2,51.3l-96.1,9.7c-7.1,19.4-20.2,38.2-39.4,55.5l56.5,46.3
				c-9.1,6.7-18.9,13.1-29.4,19.2C1676.9,1945.9,1665.9,1951.6,1654.5,1956.9z M1298.1,1852.4c66,38.1,172.6,38.1,238.1,0
				c65.5-38.1,65.2-99.8-0.8-137.9c-65.9-38.1-172.5-38.1-238.1,0C1231.9,1752.6,1232.2,1814.4,1298.1,1852.4"/><g><linearGradient id="l" x1="1163.635" x2="1151.597" y1="1867.433" y2="1835.182" gradientUnits="userSpaceOnUse"><stop offset="0" stop-color="#fbfbfb"/><stop offset="1" stop-color="#fff"/></linearGradient><path fill="url(#l)" d="M1149.6,1847.3c5.9,8.2,13,16.2,21.2,24l0.6-0.5C1162.9,1863.2,1155.7,1855.3,1149.6,1847.3z"/><linearGradient id="m" x1="1149.704" x2="1125.757" y1="1684.275" y2="1620.117" gradientUnits="userSpaceOnUse"><stop offset="0" stop-color="#fbfbfb"/><stop offset="1" stop-color="#fff"/></linearGradient><path fill="url(#m)" d="M1170.4,1689l-52.8-43.3c-0.3,0.2-0.6,0.4-0.9,0.6l53,43.4C1169.9,1689.5,1170.1,1689.3,1170.4,1689z"/><linearGradient id="n" x1="1688.898" x2="1677.897" y1="1675.404" y2="1645.928" gradientUnits="userSpaceOnUse"><stop offset="0" stop-color="#fbfbfb"/><stop offset="1" stop-color="#fff"/></linearGradient><path fill="url(#n)" d="M1656.7,1689c1.1,1,2.2,2.1,3.3,3.1l55.4-45.7c-1.2-0.9-2.6-1.8-3.9-2.7L1656.7,1689z"/><linearGradient id="o" x1="1693.059" x2="1679.97" y1="1739.466" y2="1704.4" gradientUnits="userSpaceOnUse"><stop offset="0" stop-color="#fbfbfb"/><stop offset="1" stop-color="#fff"/></linearGradient><path fill="url(#o)" d="M1698,1744.7c-4-9.7-9.5-19.2-16.6-28.5c6.6,9.2,11.7,18.7,15.3,28.4L1698,1744.7z"/><linearGradient id="p" x1="1411.219" x2="1358.871" y1="1775.251" y2="1634.999" gradientUnits="userSpaceOnUse"><stop offset="0" stop-color="#fbfbfb"/><stop offset="1" stop-color="#fff"/></linearGradient><path fill="url(#p)" d="M1297.4,1714.6c65.5-38.1,172.1-38.1,238.1,0c15.2,8.8,26.8,18.8,35,29.6c-8.3-12.1-20.8-23.4-37.7-33.1
				c-65.9-38.1-172.5-38.1-238.1,0c-50.4,29.3-61.6,72.6-34.2,108.3C1236.4,1784.3,1248.7,1742.9,1297.4,1714.6z"/><linearGradient id="q" x1="1733.711" x2="1708.578" y1="1832.978" y2="1765.64" gradientUnits="userSpaceOnUse"><stop offset="0" stop-color="#fbfbfb"/><stop offset="1" stop-color="#fff"/></linearGradient><path fill="url(#q)" d="M1795.7,1757.8l-2.2-0.2c2.8,15.9,2.8,32-0.3,48l-96.1,9.7c-7.1,19.4-20.2,38.3-39.4,55.5l3.5,2.9
				c18.7-17.1,31.6-35.6,38.6-54.8l96.1-9.7C1799.3,1792.1,1799.2,1774.9,1795.7,1757.8z"/><linearGradient id="r" x1="1551.748" x2="1521.642" y1="1978.967" y2="1898.305" gradientUnits="userSpaceOnUse"><stop offset="0" stop-color="#fbfbfb"/><stop offset="1" stop-color="#fff"/></linearGradient><path fill="url(#r)" d="M1684.8,1936.2c-10.6,6.1-21.6,11.8-33,17.1l-80-32.6c-29.7,11.1-62.1,18.8-95.6,23l-16.5,55.8
				c-28.9,1.9-58.1,2-86.9,0.1l1.1,3.5c29.4,2,59.1,2,88.6,0l16.5-55.8c33.5-4.2,66-11.8,95.6-23l80,32.6c11.4-5.3,22.5-11,33-17.1
				c10.6-6.1,20.4-12.5,29.4-19.2l-3.6-3C1704.5,1924,1695,1930.3,1684.8,1936.2z"/><linearGradient id="s" x1="1089.528" x2="1071.184" y1="1825.005" y2="1775.86" gradientUnits="userSpaceOnUse"><stop offset="0" stop-color="#fbfbfb"/><stop offset="1" stop-color="#fff"/></linearGradient><path fill="url(#s)" d="M1131.4,1815.3l-94.1-9.5c0.2,1.1,0.3,2.2,0.5,3.4l95,9.6C1132.4,1817.6,1131.9,1816.4,1131.4,1815.3z"/><linearGradient id="t" x1="1247.781" x2="1204.234" y1="1963.579" y2="1846.905" gradientUnits="userSpaceOnUse"><stop offset="0" stop-color="#fbfbfb"/><stop offset="1" stop-color="#fff"/></linearGradient><path fill="url(#t)" d="M1354,1943.7c-33.5-4.2-66.1-11.8-96-23l-79.6,32.6c-11.5-5.3-22.6-11-33.3-17.1
				c-9.2-5.3-17.7-10.9-25.8-16.6l-1.1,0.9c9.2,6.7,19,13.1,29.7,19.2c10.7,6.2,21.8,11.9,33.3,17.1l79.6-32.6
				c29.4,11,61.4,18.5,94.3,22.7L1354,1943.7z"/><linearGradient id="u" x1="1472.778" x2="1450.478" y1="1605.459" y2="1545.712" gradientUnits="userSpaceOnUse"><stop offset="0" stop-color="#fbfbfb"/><stop offset="1" stop-color="#fff"/></linearGradient><path fill="url(#u)" d="M1474.2,1616.1c0.6,0.1,1.1,0.2,1.7,0.3l-16-52.4c-0.5,0-1.1-0.1-1.6-0.1L1474.2,1616.1z"/></g><linearGradient id="v" x1="1588.946" x2="1364.765" y1="2104.602" y2="1503.965" gradientUnits="userSpaceOnUse"><stop offset="0" stop-color="#fe7f0a"/><stop offset="1" stop-color="#ffb538"/></linearGradient><path fill="url(#v)" d="M2089,1623.3l-290.6-69.9l16.7,204.3l79-38.7c76.3,108,39.4,236.3-111.3,323.9
		c-200.7,116.6-527.4,116.6-729.5-0.1c-16.2-9.3-31-19.1-44.6-29.3l-112.5,55.8c16.2,11.9,33.7,23.3,52.6,34.2
		c260.2,150.2,680.8,150.2,939.1,0.1c205.9-119.6,246.9-298.5,123.7-442.2L2089,1623.3z"/><linearGradient id="w" x1="1415.584" x2="1415.584" y1="1869.304" y2="1500.203" gradientUnits="userSpaceOnUse"><stop offset="0" stop-color="#3abaf9"/><stop offset=".813" stop-color="#267ebd" stop-opacity="0"/></linearGradient><path fill="url(#w)" d="M1246,1457l0,326.5h2.4c0.1,25,16.7,49.9,49.7,68.9c66,38.1,172.6,38.1,238.1,0c32.8-19,49.1-44,48.9-69l0,0
		l0-326.5L1246,1457z" opacity=".6"/><g><g opacity=".17"><ellipse cx="1357" cy="1784.8" fill="#4c0000" opacity="0" rx="317.1" ry="139.3"/><ellipse cx="1357" cy="1784.8" fill="#4a0101" opacity=".038" rx="309.4" ry="135.9"/><ellipse cx="1357" cy="1784.8" fill="#480202" opacity=".077" rx="301.7" ry="132.5"/><ellipse cx="1357" cy="1784.8" fill="#460303" opacity=".115" rx="294" ry="129.2"/><ellipse cx="1357" cy="1784.8" fill="#440404" opacity=".154" rx="286.4" ry="125.8"/><ellipse cx="1357" cy="1784.8" fill="#420505" opacity=".192" rx="278.7" ry="122.4"/><ellipse cx="1357" cy="1784.8" fill="#400606" opacity=".231" rx="271" ry="119"/><ellipse cx="1357" cy="1784.8" fill="#3e0606" opacity=".269" rx="263.3" ry="115.7"/><ellipse cx="1357" cy="1784.8" fill="#3c0707" opacity=".308" rx="255.7" ry="112.3"/><ellipse cx="1357" cy="1784.8" fill="#3a0808" opacity=".346" rx="248" ry="108.9"/><ellipse cx="1357" cy="1784.8" fill="#380909" opacity=".385" rx="240.3" ry="105.6"/><ellipse cx="1357" cy="1784.8" fill="#360a0a" opacity=".423" rx="232.7" ry="102.2"/><ellipse cx="1357" cy="1784.8" fill="#340b0b" opacity=".462" rx="225" ry="98.8"/><ellipse cx="1357" cy="1784.8" fill="#330c0c" opacity=".5" rx="217.3" ry="95.5"/><ellipse cx="1357" cy="1784.8" fill="#310d0d" opacity=".538" rx="209.6" ry="92.1"/><ellipse cx="1357" cy="1784.8" fill="#2f0e0e" opacity=".577" rx="202" ry="88.7"/><ellipse cx="1357" cy="1784.8" fill="#2d0f0f" opacity=".615" rx="194.3" ry="85.3"/><ellipse cx="1357" cy="1784.8" fill="#2b1010" opacity=".654" rx="186.6" ry="82"/><ellipse cx="1357" cy="1784.8" fill="#291111" opacity=".692" rx="178.9" ry="78.6"/><ellipse cx="1357" cy="1784.8" fill="#271212" opacity=".731" rx="171.3" ry="75.2"/><ellipse cx="1357" cy="1784.8" fill="#251212" opacity=".769" rx="163.6" ry="71.9"/><ellipse cx="1357" cy="1784.8" fill="#231313" opacity=".808" rx="155.9" ry="68.5"/><ellipse cx="1357" cy="1784.8" fill="#211414" opacity=".846" rx="148.2" ry="65.1"/><ellipse cx="1357" cy="1784.8" fill="#1f1515" opacity=".885" rx="140.6" ry="61.7"/><ellipse cx="1357" cy="1784.8" fill="#1d1616" opacity=".923" rx="132.9" ry="58.4"/><ellipse cx="1357" cy="1784.8" fill="#1b1717" opacity=".962" rx="125.2" ry="55"/><ellipse cx="1357" cy="1784.8" fill="#191818" rx="117.5" ry="51.6"/></g><g opacity=".17"><ellipse cx="2058" cy="1962.6" fill="#4c0000" opacity="0" rx="317.1" ry="139.3"/><ellipse cx="2058" cy="1962.6" fill="#4a0101" opacity=".038" rx="309.4" ry="135.9"/><ellipse cx="2058" cy="1962.6" fill="#480202" opacity=".077" rx="301.7" ry="132.5"/><ellipse cx="2058" cy="1962.6" fill="#460303" opacity=".115" rx="294" ry="129.2"/><ellipse cx="2058" cy="1962.6" fill="#440404" opacity=".154" rx="286.4" ry="125.8"/><ellipse cx="2058" cy="1962.6" fill="#420505" opacity=".192" rx="278.7" ry="122.4"/><ellipse cx="2058" cy="1962.6" fill="#400606" opacity=".231" rx="271" ry="119"/><ellipse cx="2058" cy="1962.6" fill="#3e0606" opacity=".269" rx="263.3" ry="115.7"/><ellipse cx="2058" cy="1962.6" fill="#3c0707" opacity=".308" rx="255.7" ry="112.3"/><ellipse cx="2058" cy="1962.6" fill="#3a0808" opacity=".346" rx="248" ry="108.9"/><ellipse cx="2058" cy="1962.6" fill="#380909" opacity=".385" rx="240.3" ry="105.6"/><ellipse cx="2058" cy="1962.6" fill="#360a0a" opacity=".423" rx="232.7" ry="102.2"/><ellipse cx="2058" cy="1962.6" fill="#340b0b" opacity=".462" rx="225" ry="98.8"/><ellipse cx="2058" cy="1962.6" fill="#330c0c" opacity=".5" rx="217.3" ry="95.5"/><ellipse cx="2058" cy="1962.6" fill="#310d0d" opacity=".538" rx="209.6" ry="92.1"/><ellipse cx="2058" cy="1962.6" fill="#2f0e0e" opacity=".577" rx="202" ry="88.7"/><ellipse cx="2058" cy="1962.6" fill="#2d0f0f" opacity=".615" rx="194.3" ry="85.3"/><ellipse cx="2058" cy="1962.6" fill="#2b1010" opacity=".654" rx="186.6" ry="82"/><ellipse cx="2058" cy="1962.6" fill="#291111" opacity=".692" rx="178.9" ry="78.6"/><ellipse cx="2058" cy="1962.6" fill="#271212" opacity=".731" rx="171.3" ry="75.2"/><ellipse cx="2058" cy="1962.6" fill="#251212" opacity=".769" rx="163.6" ry="71.9"/><ellipse cx="2058" cy="1962.6" fill="#231313" opacity=".808" rx="155.9" ry="68.5"/><ellipse cx="2058" cy="1962.6" fill="#211414" opacity=".846" rx="148.2" ry="65.1"/><ellipse cx="2058" cy="1962.6" fill="#1f1515" opacity=".885" rx="140.6" ry="61.7"/><ellipse cx="2058" cy="1962.6" fill="#1d1616" opacity=".923" rx="132.9" ry="58.4"/><ellipse cx="2058" cy="1962.6" fill="#1b1717" opacity=".962" rx="125.2" ry="55"/><ellipse cx="2058" cy="1962.6" fill="#191818" rx="117.5" ry="51.6"/></g><g opacity=".17"><ellipse cx="942" cy="1281.3" fill="#4c0000" opacity="0" rx="317.1" ry="139.3"/><ellipse cx="942" cy="1281.3" fill="#4a0101" opacity=".038" rx="309.4" ry="135.9"/><ellipse cx="942" cy="1281.3" fill="#480202" opacity=".077" rx="301.7" ry="132.5"/><ellipse cx="942" cy="1281.3" fill="#460303" opacity=".115" rx="294" ry="129.2"/><ellipse cx="942" cy="1281.3" fill="#440404" opacity=".154" rx="286.4" ry="125.8"/><ellipse cx="942" cy="1281.3" fill="#420505" opacity=".192" rx="278.7" ry="122.4"/><ellipse cx="942" cy="1281.3" fill="#400606" opacity=".231" rx="271" ry="119"/><ellipse cx="942" cy="1281.3" fill="#3e0606" opacity=".269" rx="263.3" ry="115.7"/><ellipse cx="942" cy="1281.3" fill="#3c0707" opacity=".308" rx="255.7" ry="112.3"/><ellipse cx="942" cy="1281.3" fill="#3a0808" opacity=".346" rx="248" ry="108.9"/><ellipse cx="942" cy="1281.3" fill="#380909" opacity=".385" rx="240.3" ry="105.6"/><ellipse cx="942" cy="1281.3" fill="#360a0a" opacity=".423" rx="232.7" ry="102.2"/><ellipse cx="942" cy="1281.3" fill="#340b0b" opacity=".462" rx="225" ry="98.8"/><ellipse cx="942" cy="1281.3" fill="#330c0c" opacity=".5" rx="217.3" ry="95.5"/><ellipse cx="942" cy="1281.3" fill="#310d0d" opacity=".538" rx="209.6" ry="92.1"/><ellipse cx="942" cy="1281.3" fill="#2f0e0e" opacity=".577" rx="202" ry="88.7"/><ellipse cx="942" cy="1281.3" fill="#2d0f0f" opacity=".615" rx="194.3" ry="85.3"/><ellipse cx="942" cy="1281.3" fill="#2b1010" opacity=".654" rx="186.6" ry="82"/><ellipse cx="942" cy="1281.3" fill="#291111" opacity=".692" rx="178.9" ry="78.6"/><ellipse cx="942" cy="1281.3" fill="#271212" opacity=".731" rx="171.3" ry="75.2"/><ellipse cx="942" cy="1281.3" fill="#251212" opacity=".769" rx="163.6" ry="71.9"/><ellipse cx="942" cy="1281.3" fill="#231313" opacity=".808" rx="155.9" ry="68.5"/><ellipse cx="942" cy="1281.3" fill="#211414" opacity=".846" rx="148.2" ry="65.1"/><ellipse cx="942" cy="1281.3" fill="#1f1515" opacity=".885" rx="140.6" ry="61.7"/><ellipse cx="942" cy="1281.3" fill="#1d1616" opacity=".923" rx="132.9" ry="58.4"/><ellipse cx="942" cy="1281.3" fill="#1b1717" opacity=".962" rx="125.2" ry="55"/><ellipse cx="942" cy="1281.3" fill="#191818" rx="117.5" ry="51.6"/></g><linearGradient id="x" x1="1351.633" x2="1580.33" y1="1097.582" y2="1087.551" gradientUnits="userSpaceOnUse"><stop offset="0" stop-color="#cc965c"/><stop offset=".262" stop-color="#fff7c5"/><stop offset="1" stop-color="#d88d35"/></linearGradient><path fill="url(#x)" d="M1370.5,909.7c11.2,6.5,25.2,10.3,39.8,11.5c1.6,0.1,3.2,0.2,4.8,0.3c1,0,2,0.1,3.1,0.1
						c1.3,0,2.6,0,3.9,0c1.1,0,2.1,0,3.2-0.1c1.2,0,2.4-0.1,3.6-0.2c1.1-0.1,2.2-0.2,3.2-0.3c1.2-0.1,2.4-0.2,3.5-0.4
						c1.1-0.1,2.1-0.3,3.2-0.4c1.3-0.2,2.5-0.4,3.7-0.7c1-0.2,2-0.4,2.9-0.6c1.5-0.3,2.9-0.7,4.4-1.1c0.8-0.2,1.6-0.4,2.4-0.7
						c2.6-0.8,5.1-1.6,7.6-2.6c0.3-0.1,0.7-0.3,1-0.4c3.4-1.4,6.6-2.9,9.6-4.6l86.6-50c13.9-8,20.9-18.6,20.8-29.1l1.2,429.8
						c0,10.5-6.9,21.1-20.8,29.1l-86.6,50c-3,1.7-6.2,3.2-9.6,4.6c-0.2,0.1-0.4,0.2-0.6,0.3c-0.1,0-0.3,0.1-0.4,0.1
						c-2.5,1-5,1.8-7.6,2.6c-0.2,0.1-0.4,0.1-0.6,0.2c-0.6,0.2-1.2,0.3-1.8,0.4c-1.5,0.4-2.9,0.8-4.4,1.1c-0.4,0.1-0.8,0.2-1.2,0.3
						c-0.6,0.1-1.2,0.2-1.8,0.3c-1.2,0.2-2.5,0.5-3.7,0.7c-0.5,0.1-1,0.2-1.5,0.3c-0.5,0.1-1.1,0.1-1.7,0.2
						c-1.2,0.1-2.3,0.3-3.5,0.4c-0.6,0.1-1.1,0.1-1.7,0.2c-0.5,0-1.1,0-1.6,0.1c-1.2,0.1-2.4,0.1-3.6,0.2c-0.6,0-1.2,0.1-1.8,0.1
						c-0.5,0-1,0-1.4,0c-1.3,0-2.6,0-3.9,0c-0.6,0-1.3,0-1.9,0c-0.4,0-0.8-0.1-1.1-0.1c-1.6-0.1-3.2-0.2-4.8-0.3
						c-0.6-0.1-1.3-0.1-1.9-0.1v0c-13.9-1.4-27.2-5.1-37.9-11.4L1370.5,909.7z"/><linearGradient id="y" x1="947.419" x2="1428.886" y1="986.124" y2="1022.234" gradientUnits="userSpaceOnUse"><stop offset="0" stop-color="#cc965c"/><stop offset=".661" stop-color="#fff7c5"/><stop offset="1" stop-color="#d88d35"/></linearGradient><path fill="url(#y)" d="M965.4,659.4c0.1,0.7,0.1,1.5,0.3,2.2c0.1,0.6,0.3,1.2,0.5,1.8c0.2,0.7,0.4,1.4,0.6,2.1
						c0.2,0.6,0.5,1.2,0.7,1.7c0.3,0.7,0.6,1.5,1,2.2c0.3,0.5,0.6,1.1,1,1.6c0.5,0.8,1.1,1.7,1.7,2.5c0.4,0.5,0.7,1,1.1,1.4
						c0.9,1.1,1.9,2.2,3,3.2c0.4,0.4,0.8,0.8,1.2,1.2c0.7,0.6,1.4,1.2,2.2,1.8c0.7,0.5,1.3,1.1,2,1.6c0.8,0.6,1.7,1.1,2.5,1.7
						c0.9,0.6,1.7,1.2,2.7,1.7l384.7,223.6l0,0c4.7,2.7,9.9,5,15.5,6.8c4.3,1.4,8.8,2.5,13.4,3.3c3,0.5,6,1,9,1.3l1.2,429.8
						c-3-0.3-6-0.7-9-1.3c-4.6-0.8-9.1-1.9-13.4-3.3c-5.6-1.8-10.8-4.1-15.5-6.8l0,0L987,1115.9c-0.3-0.2-0.6-0.3-0.9-0.5
						c-0.7-0.4-1.2-0.8-1.8-1.2c-0.9-0.6-1.7-1.1-2.5-1.7c-0.7-0.5-1.3-1-2-1.6c-0.7-0.6-1.5-1.2-2.2-1.8c-0.1-0.1-0.3-0.2-0.4-0.4
						c-0.3-0.3-0.5-0.5-0.7-0.8c-1.1-1.1-2.1-2.1-3-3.2c-0.2-0.2-0.5-0.5-0.7-0.7c-0.2-0.2-0.3-0.5-0.5-0.7
						c-0.6-0.8-1.2-1.6-1.7-2.5c-0.2-0.3-0.5-0.7-0.7-1c-0.1-0.2-0.2-0.4-0.3-0.5c-0.4-0.7-0.7-1.5-1-2.2c-0.2-0.4-0.4-0.9-0.6-1.3
						c-0.1-0.1-0.1-0.3-0.1-0.4c-0.2-0.7-0.4-1.4-0.6-2.1c-0.1-0.5-0.3-1-0.4-1.4c0-0.1,0-0.3,0-0.4c-0.1-0.7-0.2-1.5-0.3-2.2
						c0-0.5-0.2-1-0.2-1.5c0-0.2,0-0.4,0-0.6l-1.2-429.8C965.2,658,965.3,658.7,965.4,659.4z"/><linearGradient id="z" x1="1204.394" x2="1336.208" y1="525.441" y2="954.66" gradientUnits="userSpaceOnUse"><stop offset="0" stop-color="#cc965c"/><stop offset=".262" stop-color="#fff7c5"/><stop offset="1" stop-color="#d88d35"/></linearGradient><path fill="url(#z)" d="M1557.2,801.9l-384.7-223.6c-27.5-15.9-72.3-15.9-100,0l-86.5,50c-14,8-20.9,18.7-20.8,29.2
							c0,0.3,0,0.7,0.1,1c0,0.3,0.1,0.7,0.1,1.1c0.1,0.6,0.1,1.2,0.2,1.8c0,0.3,0.1,0.5,0.1,0.8c0.1,0.5,0.3,1,0.4,1.5
							c0.2,0.7,0.4,1.4,0.6,2.1c0.5,1.3,1.1,2.6,1.8,3.9c0.1,0.3,0.3,0.5,0.5,0.8c0.3,0.7,0.8,1.4,1.3,2c0.3,0.4,0.5,0.9,0.9,1.3
							c0.3,0.5,0.7,0.9,1.1,1.4c0,0,0,0,0,0c1.2,1.5,2.6,3,4.1,4.4c0.7,0.6,1.4,1.2,2.2,1.8c1,0.9,2,1.6,3.2,2.4
							c0.9,0.6,1.7,1.2,2.6,1.7c0.5,0.3,0.9,0.6,1.4,0.9l384.7,223.6c1.4,0.8,2.8,1.6,4.3,2.3c0,0,0,0,0.1,0.1
							c0.7,0.3,1.3,0.7,2,0.9c0.4,0.2,0.8,0.4,1.3,0.5c1.5,0.7,3,1.3,4.7,1.8c0.9,0.4,1.8,0.7,2.7,0.9c0.1,0.1,0.3,0.1,0.4,0.2
							c0.1,0.1,0.3,0.1,0.4,0.1c0.5,0.1,0.9,0.3,1.4,0.4c0.5,0.2,0.9,0.3,1.4,0.4c1.1,0.4,2.2,0.7,3.4,0.9c0.6,0.2,1.1,0.3,1.7,0.4
							c0.9,0.3,1.7,0.5,2.6,0.5c0.9,0.3,1.8,0.5,2.6,0.6c0.3,0.1,0.5,0.1,0.8,0.1c1.8,0.3,3.7,0.6,5.5,0.8c0.9,0.1,1.7,0.3,2.6,0.3
							c0.6,0.1,1.3,0.1,1.9,0.1c2.6,0.3,5.2,0.4,7.8,0.4c1.3,0.1,2.6,0.1,3.9,0c1.3,0.1,2.4,0,3.6-0.1c1.1-0.1,2.1-0.1,3.2-0.2
							c1.1-0.1,2.2-0.1,3.2-0.3c1.2-0.1,2.4-0.3,3.6-0.4c1.1-0.1,2.1-0.3,3.2-0.5c1.2-0.2,2.3-0.4,3.5-0.6c1.1-0.1,2.2-0.4,3.4-0.7
							c1.2-0.2,2.2-0.5,3.4-0.8c1.8-0.4,3.6-0.9,5.3-1.5c1.7-0.5,3.4-1.1,4.9-1.7c1.4-0.5,2.7-1,4-1.6c2.5-1.1,4.9-2.2,7.2-3.6
							l86.5-50c6.9-4,12.2-8.6,15.7-13.6c1.3-1.8,2.4-3.8,3.2-5.7c1.3-3.2,2-6.5,2-9.8C1577.8,820.2,1570.9,809.8,1557.2,801.9z
							 M1547.1,842.6l-86.6,50c-10.3,5.9-24.9,9.4-40.1,9.4c-15.2,0-29.7-3.4-39.9-9.3L995.6,669c-2.4-1.4-4.3-2.8-5.9-4.2
							c1.6-1.4,3.6-2.9,6.1-4.3l86.5-50c10.3-5.9,24.9-9.4,40.1-9.4c15.2,0,29.9,3.4,40,9.4L1547.3,834c2.4,1.4,4.4,2.8,5.9,4.2
							C1551.6,839.6,1549.6,841.2,1547.1,842.6z"/><linearGradient id="A" x1="1511.591" x2="993.33" y1="895.945" y2="567.337" gradientUnits="userSpaceOnUse"><stop offset="0" stop-color="#cc965c"/><stop offset="1" stop-color="#d88d35"/></linearGradient><path fill="url(#A)" d="M1558,830.7c0,1.8-1.4,4.5-4.8,7.5c-1.5-1.3-3.4-2.7-5.9-4.2l-384.8-223.6c-10.1-5.9-24.8-9.4-40-9.4
							c-15.2,0-29.9,3.4-40.1,9.4l-86.5,50c-2.6,1.4-4.5,3-6.1,4.3c-3.5-3-4.8-5.7-4.8-7.5c0-2.6,2.8-7.2,10.9-11.9l86.5-50
							c10.3-5.9,24.9-9.4,40.1-9.4c15.2,0,29.9,3.4,40,9.4l384.8,223.6C1555.2,823.6,1558,828.1,1558,830.7z"/><linearGradient id="B" x1="1511.622" x2="1031.33" y1="903.788" y2="599.255" gradientUnits="userSpaceOnUse"><stop offset="0" stop-color="#cc965c"/><stop offset=".262" stop-color="#fff7c5"/><stop offset="1" stop-color="#d88d35"/></linearGradient><path fill="url(#B)" d="M1553.2,838.2c-1.6,1.5-3.6,3-6.1,4.4l-86.6,50c-10.3,5.9-24.9,9.4-40.1,9.4c-15.2,0-29.7-3.4-39.9-9.3
							L995.6,669c-2.4-1.4-4.3-2.8-5.9-4.2c1.6-1.4,3.6-2.9,6.1-4.3l86.5-50c10.3-5.9,24.9-9.4,40.1-9.4c15.2,0,29.9,3.4,40,9.4
							L1547.3,834C1549.8,835.5,1551.7,836.9,1553.2,838.2z"/><linearGradient id="C" x1="1076.023" x2="1182.219" y1="660.644" y2="660.644" gradientUnits="userSpaceOnUse"><stop offset="0" stop-color="#cc965c"/><stop offset="1" stop-color="#d88d35"/></linearGradient><ellipse cx="1129.1" cy="660.6" fill="url(#C)" rx="53.1" ry="28.8"/><linearGradient id="D" x1="1374.543" x2="1480.739" y1="823.701" y2="823.701" gradientUnits="userSpaceOnUse"><stop offset="0" stop-color="#cc965c"/><stop offset="1" stop-color="#d88d35"/></linearGradient><ellipse cx="1427.6" cy="823.7" fill="url(#D)" rx="53.1" ry="28.8"/><linearGradient id="E" x1="1381.981" x2="1179.464" y1="765.104" y2="352.948" gradientUnits="userSpaceOnUse"><stop offset="0" stop-color="#cc965c"/><stop offset="1" stop-color="#d88d35"/></linearGradient><path fill="url(#E)" d="M1455.3,828.8l-20,12.7l-16.5-262.7c0-94-50.5-181.7-131.9-228.8l-13.3-7.7
								c-24-13.9-52.6-13.9-76.6-0.1c-24,13.8-38.3,38.6-38.3,66.3l0,254l-20,12.7l-16.5-266.7c0-40.9,21.1-77.5,56.6-97.9
								c35.4-20.4,77.7-20.4,113.1,0.1l13.3,7.7c92.6,53.6,150.1,153.4,150.1,260.4L1455.3,828.8z"/><linearGradient id="F" x1="1173.253" x2="1396.656" y1="272.294" y2="1042.809" gradientUnits="userSpaceOnUse"><stop offset="0" stop-color="#cc965c"/><stop offset=".262" stop-color="#fff7c5"/><stop offset="1" stop-color="#d88d35"/></linearGradient><path fill="url(#F)" d="M1435.3,841.6l-36.5-20.6l0-229.3c0-94-50.5-181.7-131.9-228.8l-13.3-7.7c-24-13.9-52.6-13.9-76.6-0.1
								c-24,13.8-38.3,38.6-38.3,66.3l0,254l-36.5-20.6l0-233.3c0-40.9,21.1-77.5,56.6-97.9c35.4-20.4,77.7-20.4,113.1,0.1l13.3,7.7
								c92.6,53.6,150.1,153.4,150.1,260.4L1435.3,841.6z"/><linearGradient id="G" x1="1109.104" x2="1201.374" y1="655.486" y2="295.195" gradientUnits="userSpaceOnUse"><stop offset="0" stop-color="#cc965c"/><stop offset="1" stop-color="#fff"/></linearGradient><path fill="url(#G)" d="M1136.4,422.9v251l2.4,1.4l0-254c0-24.2,11-46.2,29.8-60.6C1148.4,375,1136.4,397.7,1136.4,422.9z"/><linearGradient id="H" x1="1264.985" x2="1357.255" y1="695.406" y2="335.115" gradientUnits="userSpaceOnUse"><stop offset="0" stop-color="#cc965c"/><stop offset="1" stop-color="#fff"/></linearGradient><path fill="url(#H)" d="M1285.2,331.2l-13.3-7.7c-35.4-20.5-77.6-20.5-113.1-0.1c-2.6,1.5-5.2,3.2-7.7,4.9
								c1.7-1.1,3.5-2.2,5.3-3.3c35.4-20.4,77.7-20.4,113.1,0.1l13.3,7.7c92.6,53.6,150.1,153.4,150.1,260.4l0,247l2.4,1.4V591.6
								C1435.3,484.6,1377.8,384.9,1285.2,331.2z"/><path fill="#c17529" d="M1215.8,1009.3c0-24.5-19.8-57.7-44.3-74.1c-24.5-16.5-44.3-9.9-44.3,14.5c0,18.5,11.3,41.9,27.4,59.4
				l0,54.3c0,9.3,7.6,22.1,16.9,28.3c9.3,6.3,16.9,3.8,16.9-5.6v-54.3C1204.5,1036,1215.8,1027.8,1215.8,1009.3z"/><g><linearGradient id="I" x1="2060.473" x2="2289.17" y1="1512.941" y2="1502.911" gradientUnits="userSpaceOnUse"><stop offset="0" stop-color="#cc965c"/><stop offset=".262" stop-color="#fff7c5"/><stop offset="1" stop-color="#d88d35"/></linearGradient><path fill="url(#I)" d="M2079.3,1325.1c11.2,6.5,25.2,10.3,39.8,11.5c1.6,0.1,3.2,0.2,4.8,0.3c1,0,2,0.1,3.1,0.1
						c1.3,0,2.6,0,3.9,0c1.1,0,2.1,0,3.2-0.1c1.2,0,2.4-0.1,3.6-0.2c1.1-0.1,2.2-0.2,3.2-0.3c1.2-0.1,2.4-0.2,3.5-0.4
						c1.1-0.1,2.1-0.3,3.2-0.4c1.3-0.2,2.5-0.4,3.7-0.7c1-0.2,2-0.4,2.9-0.6c1.5-0.3,2.9-0.7,4.4-1.1c0.8-0.2,1.6-0.4,2.4-0.7
						c2.6-0.8,5.1-1.6,7.6-2.6c0.3-0.1,0.7-0.3,1-0.4c3.4-1.4,6.6-2.9,9.6-4.6l86.6-50c13.9-8,20.9-18.6,20.8-29.1l1.2,429.8
						c0,10.5-6.9,21.1-20.8,29.1l-86.6,50c-3,1.7-6.2,3.2-9.6,4.6c-0.2,0.1-0.4,0.2-0.6,0.3c-0.1,0-0.3,0.1-0.4,0.1
						c-2.5,1-5,1.8-7.6,2.6c-0.2,0.1-0.4,0.1-0.6,0.2c-0.6,0.2-1.2,0.3-1.8,0.4c-1.5,0.4-2.9,0.8-4.4,1.1c-0.4,0.1-0.8,0.2-1.2,0.3
						c-0.6,0.1-1.2,0.2-1.8,0.3c-1.2,0.2-2.5,0.5-3.7,0.7c-0.5,0.1-1,0.2-1.5,0.3c-0.5,0.1-1.1,0.1-1.7,0.2
						c-1.2,0.1-2.3,0.3-3.5,0.4c-0.6,0.1-1.1,0.1-1.7,0.2c-0.5,0-1.1,0-1.6,0.1c-1.2,0.1-2.4,0.1-3.6,0.2c-0.6,0-1.2,0.1-1.8,0.1
						c-0.5,0-1,0-1.4,0c-1.3,0-2.6,0-3.9,0c-0.6,0-1.3,0-1.9,0c-0.4,0-0.8-0.1-1.1-0.1c-1.6-0.1-3.2-0.2-4.8-0.3
						c-0.6-0.1-1.3-0.1-1.9-0.1v0c-13.9-1.4-27.2-5.1-37.9-11.4L2079.3,1325.1z"/><linearGradient id="J" x1="1656.259" x2="2137.726" y1="1401.483" y2="1437.593" gradientUnits="userSpaceOnUse"><stop offset="0" stop-color="#cc965c"/><stop offset=".661" stop-color="#fff7c5"/><stop offset="1" stop-color="#d88d35"/></linearGradient><path fill="url(#J)" d="M1674.2,1074.8c0.1,0.7,0.1,1.5,0.3,2.2c0.1,0.6,0.3,1.2,0.5,1.8c0.2,0.7,0.4,1.4,0.6,2.1
						c0.2,0.6,0.5,1.2,0.7,1.7c0.3,0.7,0.6,1.5,1,2.2c0.3,0.5,0.6,1.1,1,1.6c0.5,0.8,1.1,1.7,1.7,2.5c0.4,0.5,0.7,1,1.1,1.4
						c0.9,1.1,1.9,2.2,3,3.2c0.4,0.4,0.8,0.8,1.2,1.2c0.7,0.6,1.4,1.2,2.2,1.8c0.7,0.5,1.3,1.1,2,1.6c0.8,0.6,1.7,1.1,2.5,1.7
						c0.9,0.6,1.7,1.2,2.7,1.7l384.7,223.6l0,0c4.7,2.7,9.9,5,15.5,6.8c4.3,1.4,8.8,2.5,13.4,3.3c3,0.5,6,1,9,1.3l1.2,429.8
						c-3-0.3-6-0.7-9-1.3c-4.6-0.8-9.1-1.9-13.4-3.3c-5.6-1.8-10.8-4.1-15.5-6.8l0,0l-384.7-223.6c-0.3-0.2-0.6-0.3-0.9-0.5
						c-0.7-0.4-1.2-0.8-1.8-1.2c-0.9-0.6-1.7-1.1-2.5-1.7c-0.7-0.5-1.3-1-2-1.6c-0.7-0.6-1.5-1.2-2.2-1.8c-0.1-0.1-0.3-0.2-0.4-0.4
						c-0.3-0.3-0.5-0.5-0.7-0.8c-1.1-1.1-2.1-2.1-3-3.2c-0.2-0.2-0.5-0.5-0.7-0.7c-0.2-0.2-0.3-0.5-0.5-0.7
						c-0.6-0.8-1.2-1.6-1.7-2.5c-0.2-0.3-0.5-0.7-0.7-1c-0.1-0.2-0.2-0.4-0.3-0.5c-0.4-0.7-0.7-1.5-1-2.2c-0.2-0.4-0.4-0.9-0.6-1.3
						c-0.1-0.1-0.1-0.3-0.1-0.4c-0.2-0.7-0.4-1.4-0.6-2.1c-0.1-0.5-0.3-1-0.4-1.4c0-0.1,0-0.3,0-0.4c-0.1-0.7-0.2-1.5-0.3-2.2
						c0-0.5-0.2-1-0.2-1.5c0-0.2,0-0.4,0-0.6l-1.2-429.8C1674,1073.4,1674.1,1074.1,1674.2,1074.8z"/><linearGradient id="K" x1="1913.234" x2="2045.048" y1="940.801" y2="1370.02" gradientUnits="userSpaceOnUse"><stop offset="0" stop-color="#cc965c"/><stop offset=".262" stop-color="#fff7c5"/><stop offset="1" stop-color="#d88d35"/></linearGradient><path fill="url(#K)" d="M2266.1,1217.2l-384.7-223.6c-27.5-15.9-72.3-15.9-100,0l-86.5,50c-14,8-20.9,18.7-20.8,29.2
							c0,0.3,0,0.7,0.1,1c0,0.3,0.1,0.7,0.1,1.1c0.1,0.6,0.1,1.2,0.2,1.8c0,0.3,0.1,0.5,0.1,0.8c0.1,0.5,0.3,1,0.4,1.5
							c0.2,0.7,0.4,1.4,0.6,2.1c0.5,1.3,1.1,2.6,1.8,3.9c0.1,0.3,0.3,0.5,0.5,0.8c0.3,0.7,0.8,1.4,1.3,2c0.3,0.4,0.5,0.9,0.9,1.3
							c0.3,0.5,0.7,0.9,1.1,1.4c0,0,0,0,0,0c1.2,1.5,2.6,3,4.1,4.4c0.7,0.6,1.4,1.2,2.2,1.8c1,0.9,2,1.6,3.2,2.4
							c0.9,0.6,1.7,1.2,2.6,1.7c0.5,0.3,0.9,0.6,1.4,0.9l384.7,223.6c1.4,0.8,2.8,1.6,4.3,2.3c0,0,0,0,0.1,0.1
							c0.7,0.3,1.3,0.7,2,0.9c0.4,0.2,0.8,0.4,1.3,0.5c1.5,0.7,3,1.3,4.7,1.8c0.9,0.4,1.8,0.7,2.7,0.9c0.1,0.1,0.3,0.1,0.4,0.2
							c0.1,0.1,0.3,0.1,0.4,0.1c0.5,0.1,0.9,0.3,1.4,0.4c0.5,0.2,0.9,0.3,1.4,0.4c1.1,0.4,2.2,0.7,3.4,0.9c0.6,0.2,1.1,0.3,1.7,0.4
							c0.9,0.3,1.7,0.5,2.6,0.5c0.9,0.3,1.8,0.5,2.6,0.6c0.3,0.1,0.5,0.1,0.8,0.1c1.8,0.3,3.7,0.6,5.5,0.8c0.9,0.1,1.7,0.3,2.6,0.3
							c0.6,0.1,1.3,0.1,1.9,0.1c2.6,0.3,5.2,0.4,7.8,0.4c1.3,0.1,2.6,0.1,3.9,0c1.3,0.1,2.4,0,3.6-0.1c1.1-0.1,2.1-0.1,3.2-0.2
							c1.1-0.1,2.2-0.1,3.2-0.3c1.2-0.1,2.4-0.3,3.6-0.4c1.1-0.1,2.1-0.3,3.2-0.5c1.2-0.2,2.3-0.4,3.5-0.6c1.1-0.1,2.2-0.4,3.4-0.7
							c1.2-0.2,2.2-0.5,3.4-0.8c1.8-0.4,3.6-0.9,5.3-1.5c1.7-0.5,3.4-1.1,4.9-1.7c1.4-0.5,2.7-1,4-1.6c2.5-1.1,4.9-2.2,7.2-3.6
							l86.5-50c6.9-4,12.2-8.6,15.7-13.6c1.3-1.8,2.4-3.8,3.2-5.7c1.3-3.2,2-6.5,2-9.8C2286.6,1235.6,2279.8,1225.1,2266.1,1217.2z
							 M2255.9,1258l-86.6,50c-10.3,5.9-24.9,9.4-40.1,9.4c-15.2,0-29.7-3.4-39.9-9.3l-384.8-223.6c-2.4-1.4-4.3-2.8-5.9-4.2
							c1.6-1.4,3.6-2.9,6.1-4.3l86.5-50c10.3-5.9,24.9-9.4,40.1-9.4c15.2,0,29.9,3.4,40,9.4l384.8,223.6c2.4,1.4,4.4,2.8,5.9,4.2
							C2260.5,1255,2258.4,1256.5,2255.9,1258z"/><linearGradient id="L" x1="2220.431" x2="1702.17" y1="1311.304" y2="982.697" gradientUnits="userSpaceOnUse"><stop offset="0" stop-color="#cc965c"/><stop offset="1" stop-color="#d88d35"/></linearGradient><path fill="url(#L)" d="M2266.9,1246c0,1.8-1.4,4.5-4.8,7.5c-1.5-1.3-3.4-2.7-5.9-4.2l-384.8-223.6c-10.2-5.9-24.8-9.4-40-9.4
							c-15.2,0-29.9,3.4-40.1,9.4l-86.5,50c-2.6,1.4-4.5,3-6.1,4.3c-3.5-3-4.8-5.7-4.8-7.5c0-2.6,2.8-7.2,10.9-11.9l86.5-50
							c10.3-5.9,24.9-9.4,40.1-9.4c15.2,0,29.9,3.4,40,9.4l384.8,223.6C2264,1238.9,2266.9,1243.5,2266.9,1246z"/><linearGradient id="M" x1="2220.462" x2="1740.17" y1="1319.148" y2="1014.615" gradientUnits="userSpaceOnUse"><stop offset="0" stop-color="#cc965c"/><stop offset=".262" stop-color="#fff7c5"/><stop offset="1" stop-color="#d88d35"/></linearGradient><path fill="url(#M)" d="M2262.1,1253.5c-1.6,1.5-3.6,3-6.1,4.4l-86.6,50c-10.3,5.9-24.9,9.4-40.1,9.4c-15.2,0-29.7-3.4-39.9-9.3
							l-384.8-223.6c-2.4-1.4-4.3-2.8-5.9-4.2c1.6-1.4,3.6-2.9,6.1-4.3l86.5-50c10.3-5.9,24.9-9.4,40.1-9.4c15.2,0,29.9,3.4,40,9.4
							l384.8,223.6C2258.6,1250.8,2260.5,1252.2,2262.1,1253.5z"/><linearGradient id="N" x1="1784.863" x2="1891.059" y1="1076.004" y2="1076.004" gradientUnits="userSpaceOnUse"><stop offset="0" stop-color="#cc965c"/><stop offset="1" stop-color="#d88d35"/></linearGradient><ellipse cx="1838" cy="1076" fill="url(#N)" rx="53.1" ry="28.8"/><linearGradient id="O" x1="2083.383" x2="2189.579" y1="1239.061" y2="1239.061" gradientUnits="userSpaceOnUse"><stop offset="0" stop-color="#cc965c"/><stop offset="1" stop-color="#d88d35"/></linearGradient><ellipse cx="2136.5" cy="1239.1" fill="url(#O)" rx="53.1" ry="28.8"/><linearGradient id="P" x1="2090.821" x2="1888.304" y1="1180.463" y2="768.307" gradientUnits="userSpaceOnUse"><stop offset="0" stop-color="#cc965c"/><stop offset="1" stop-color="#d88d35"/></linearGradient><path fill="url(#P)" d="M2164.2,1244.2l-20,12.7l-16.5-262.7c0-94-50.5-181.7-131.9-228.8l-13.3-7.7
								c-24-13.9-52.6-13.9-76.6-0.1c-24,13.8-38.3,38.6-38.3,66.3v254l-20,12.7l-16.5-266.7c0-40.9,21.1-77.5,56.6-97.9
								c35.4-20.4,77.7-20.4,113.1,0.1l13.3,7.7c92.6,53.6,150.1,153.4,150.1,260.4V1244.2z"/><linearGradient id="Q" x1="1882.092" x2="2105.496" y1="687.654" y2="1458.168" gradientUnits="userSpaceOnUse"><stop offset="0" stop-color="#cc965c"/><stop offset=".262" stop-color="#fff7c5"/><stop offset="1" stop-color="#d88d35"/></linearGradient><path fill="url(#Q)" d="M2144.2,1256.9l-36.5-20.6l0-229.3c0-94-50.5-181.7-131.9-228.8l-13.3-7.7c-24-13.9-52.6-13.9-76.6-0.1
								c-24,13.8-38.3,38.6-38.3,66.3l0,254l-36.5-20.6V836.7c0-40.9,21.1-77.5,56.6-97.9c35.4-20.4,77.7-20.4,113.1,0.1l13.3,7.7
								c92.6,53.6,150.1,153.4,150.1,260.4V1256.9z"/><linearGradient id="R" x1="1817.944" x2="1910.214" y1="1070.845" y2="710.554" gradientUnits="userSpaceOnUse"><stop offset="0" stop-color="#cc965c"/><stop offset="1" stop-color="#fff"/></linearGradient><path fill="url(#R)" d="M1845.2,838.3l0,251l2.4,1.4v-254c0-24.2,11-46.2,29.8-60.6C1857.2,790.4,1845.2,813.1,1845.2,838.3z"/><linearGradient id="S" x1="1973.825" x2="2066.095" y1="1110.766" y2="750.475" gradientUnits="userSpaceOnUse"><stop offset="0" stop-color="#cc965c"/><stop offset="1" stop-color="#fff"/></linearGradient><path fill="url(#S)" d="M1994.1,746.6l-13.3-7.7c-35.4-20.5-77.6-20.5-113.1-0.1c-2.6,1.5-5.2,3.2-7.7,4.9
								c1.7-1.1,3.5-2.2,5.3-3.3c35.4-20.4,77.7-20.4,113.1,0.1l13.3,7.7c92.6,53.6,150.1,153.4,150.1,260.4v247l2.4,1.4V1007
								C2144.2,900,2086.7,800.2,1994.1,746.6z"/><path fill="#c17529" d="M1924.7,1424.7c0-24.5-19.8-57.7-44.3-74.1c-24.5-16.5-44.3-9.9-44.3,14.5c0,18.5,11.3,41.9,27.4,59.4v54.3
				c0,9.3,7.6,22.1,16.9,28.3c9.3,6.3,16.9,3.8,16.9-5.6v-54.3C1913.4,1451.4,1924.7,1443.1,1924.7,1424.7z"/></g><g><polygon fill="#c1c1c1" points="1408.7 1724.5 1496.1 1678.6 1510.5 1610.9 1423.1 1656.8"/><polygon fill="#828282" points="1208.8 1245.4 1296.1 1199.6 1232.1 1172.2 1144.7 1218.1"/><path fill="#949494" d="M1387,1542.2c-3.7-2.3-7.3-4.9-10.9-7.6c-1.2-0.9-2.3-1.9-3.5-2.8c-2.1-1.6-4.1-3.2-6.1-5
				c-0.3-0.3-0.7-0.6-1-0.9c-0.7-0.6-1.5-1.3-2.2-2c-2.5-2.3-5-4.7-7.5-7.1c-0.8-0.8-1.7-1.7-2.5-2.5c-0.6-0.6-1.1-1.1-1.7-1.7
				c-1-1-1.9-2.2-2.8-3.2c-2.3-2.5-4.6-5.1-6.8-7.7c-0.6-0.7-1.2-1.3-1.8-2.1c-0.9-1-1.6-2.2-2.5-3.2c-1.8-2.2-3.5-4.5-5.2-6.8
				c-0.7-0.9-1.4-1.8-2.1-2.7c-0.7-1-1.4-2.1-2.1-3.2c-1.5-2.2-3-4.4-4.5-6.7c-0.7-1.1-1.5-2.1-2.1-3.2c-0.6-1-1.2-2.1-1.8-3.1
				c-1.4-2.3-2.8-4.7-4.2-7c-0.7-1.2-1.4-2.3-2.1-3.5c-0.5-1-1-2-1.5-2.9c-1.4-2.6-2.7-5.2-4-7.8c-0.6-1.3-1.4-2.6-2-3.9
				c-0.4-0.8-0.7-1.6-1-2.4c-1.5-3.3-3-6.6-4.4-9.9c-0.6-1.3-1.2-2.7-1.8-4c-0.2-0.4-0.3-0.9-0.5-1.3c-2.3-5.8-4.3-11.5-6.2-17.4
				c-0.1-0.3-0.2-0.6-0.3-0.8c-0.5-1.7-0.9-3.4-1.4-5.1c-0.8-2.9-1.7-5.8-2.4-8.8c-0.5-2.1-0.9-4.3-1.4-6.4
				c-0.6-2.8-1.2-5.6-1.7-8.4c-0.1-0.6-0.3-1.2-0.4-1.8c-0.6-3.4-1.1-6.8-1.5-10.3c-0.1-0.5-0.1-1-0.1-1.4
				c-0.4-3.8-0.7-7.5-0.9-11.2c-0.1-1.1-0.1-2.2-0.1-3.2c-0.1-4.1-0.1-8.2,0-12.2c0-0.8,0.1-1.5,0.1-2.3c0.1-1.7,0.4-3.3,0.5-5
				c0.2-2.3,0.4-4.7,0.7-6.9c0.3-1.9,0.7-3.8,1.1-5.6c0.4-2.1,0.8-4.2,1.3-6.2c0.1-0.4,0.2-0.9,0.3-1.3c0.7-2.7,1.6-5.3,2.5-7.8
				c0.2-0.5,0.4-1,0.6-1.5c0.6-1.5,1.1-3,1.8-4.4c0.5-1.1,1.1-2.2,1.6-3.3c0.2-0.4,0.4-0.8,0.6-1.2c1-2,2.1-3.9,3.3-5.7
				c0.4-0.6,0.8-1.2,1.2-1.7c0.3-0.4,0.5-0.7,0.8-1.1c1.3-1.8,2.7-3.6,4.1-5.2c0.2-0.3,0.5-0.5,0.8-0.7c1.2-1.2,2.4-2.3,3.6-3.4
				c0.8-0.8,1.6-1.6,2.4-2.3c0.2-0.2,0.5-0.3,0.7-0.5c1.4-1.1,2.8-1.9,4.2-2.9c0.9-0.6,1.8-1.3,2.7-1.8c0.4-0.2,0.8-0.5,1.2-0.7
				l87.4-45.9c-1.4,0.7-2.7,1.7-4,2.5c-1.4,0.9-2.9,1.8-4.2,2.8c-1.1,0.9-2.1,1.9-3.2,2.8c-1.2,1.1-2.5,2.2-3.6,3.4
				c-1.7,1.8-3.4,3.8-4.9,5.9c-0.3,0.4-0.5,0.7-0.8,1.1c-1.6,2.3-3.1,4.8-4.5,7.4c-0.2,0.4-0.4,0.8-0.6,1.2c-1.2,2.4-2.4,5-3.4,7.7
				c-0.2,0.5-0.4,1-0.6,1.5c-1,2.9-2,5.9-2.8,9.1c-0.5,2-0.9,4.1-1.3,6.2c-0.4,1.9-0.8,3.7-1.1,5.6c-0.3,2.2-0.5,4.6-0.7,6.9
				c-0.2,2.4-0.5,4.7-0.7,7.2c-0.2,4-0.2,8.1,0,12.2c0,1.1,0.1,2.2,0.1,3.3c0.2,3.7,0.5,7.4,0.9,11.1c0.1,0.5,0.1,1,0.1,1.5
				c0.5,4,1.1,8,1.8,12.1c0.5,2.8,1.1,5.6,1.7,8.4c0.5,2.1,0.9,4.2,1.4,6.4c0.7,2.9,1.6,5.8,2.4,8.7c0.6,2,1.1,4,1.7,6
				c1.8,5.8,3.9,11.6,6.2,17.4c0.7,1.8,1.5,3.5,2.2,5.3c1.4,3.3,2.8,6.7,4.4,9.9c1,2.1,2,4.2,3.1,6.3c1.3,2.6,2.6,5.2,4,7.8
				c1.2,2.2,2.4,4.3,3.6,6.4c1.3,2.4,2.7,4.7,4.1,7c1.3,2.1,2.6,4.2,4,6.3c1.5,2.3,3,4.5,4.5,6.7c1.4,2,2.8,4,4.2,5.9
				c1.7,2.3,3.5,4.6,5.2,6.9c1.4,1.8,2.8,3.5,4.3,5.3c2.2,2.6,4.5,5.2,6.8,7.7c1.5,1.6,2.9,3.3,4.5,4.9c0.8,0.8,1.7,1.7,2.5,2.5
				c2.5,2.5,4.9,4.8,7.5,7.1c0.7,0.7,1.5,1.3,2.2,2c2.4,2.1,4.8,4,7.2,5.9c1.2,0.9,2.3,1.9,3.5,2.8c3.6,2.7,7.2,5.3,10.9,7.6
				c30.8,19.6,59.4,22.6,80.6,11.4l-87.4,45.9C1446.4,1564.8,1417.9,1561.9,1387,1542.2z"/><path fill="#999" d="M1569.8,1729.3c1-0.6,2.1-1.2,3.1-1.9c3.1-2,6.1-4.2,9-6.5l87.4-45.9c-2.9,2.3-5.9,4.5-9,6.5
				c-1,0.7-2,1.2-3,1.9c-1.6,1-3.2,2.1-4.9,3c-1,0.5-1.9,1-2.9,1.6l-87.4,45.9C1564.8,1732.4,1567.3,1730.9,1569.8,1729.3z"/><defs><path id="T" d="M1311.2,1043.3l-87.4,45.9c7.5-4,15.5-7.1,23.8-9.5l87.4-45.9
						C1326.7,1036.2,1318.8,1039.3,1311.2,1043.3z" enable-background="new"/></defs><clipPath id="U"><use overflow="visible" xlink:href="#T"/></clipPath><g clip-path="url(#U)"><path fill="#858585" d="M1247.7,1079.7l87.4-45.9c-8.3,2.3-16.3,5.5-23.8,9.5l-87.4,45.9
						C1231.4,1085.2,1239.4,1082,1247.7,1079.7"/></g><polygon fill="#b9b9b9" points="1581.9 1720.9 1669.3 1675 1635.1 1589.5 1547.7 1635.3"/><polygon fill="#a9a9a9" points="1298.3 1156.8 1385.7 1111 1335.1 1033.8 1247.7 1079.7"/><path fill="#b3b3b3" d="M1549.6,1633.1c1.2-1.4,2.4-2.8,3.6-4.3c0.6-0.8,1.2-1.7,1.9-2.5c1-1.4,2-2.8,3-4.2
				c0.6-0.9,1.2-1.8,1.7-2.7c1.1-1.7,2.1-3.4,3.1-5.2c0.5-0.9,1-1.8,1.5-2.8c1.1-2,2.1-4,3-6.1c0.3-0.7,0.7-1.5,1-2.2
				c1.4-3.2,2.8-6.6,4-10c0.3-0.9,0.6-1.7,0.9-2.6c1-2.9,1.9-5.8,2.8-8.8c0.4-1.4,0.8-2.7,1.2-4.1l87.4-45.9
				c-0.2,0.8-0.4,1.6-0.6,2.3c-0.2,0.6-0.4,1.1-0.5,1.7c-0.9,3-1.8,6-2.8,8.8c-0.3,0.9-0.6,1.8-0.9,2.6c-1.3,3.5-2.6,6.8-4,10
				c-0.1,0.1-0.1,0.3-0.2,0.4c-0.3,0.6-0.6,1.2-0.9,1.8c-1,2.1-2,4.1-3,6.1c-0.5,0.9-1,1.9-1.5,2.8c-1,1.8-2,3.5-3.1,5.1
				c-0.3,0.5-0.6,1.1-0.9,1.6c-0.3,0.4-0.5,0.7-0.8,1.1c-1,1.4-2,2.8-3,4.2c-0.6,0.8-1.2,1.7-1.9,2.5c-1.2,1.5-2.4,2.9-3.6,4.3
				c-0.4,0.5-0.9,1.1-1.3,1.6c-0.2,0.2-0.4,0.4-0.6,0.6l-87.4,45.9C1548.3,1634.6,1548.9,1633.8,1549.6,1633.1z"/><path fill="#858585" d="M1362.9,1166.2c-23.1-8.8-44.9-11.6-64.6-9.3l87.4-45.9c7.4-0.9,15.1-1,23-0.4c5.3,0.4,10.7,1.2,16.2,2.3
				c2.7,0.6,5.5,1.2,8.3,1.9c5.6,1.5,11.3,3.3,17.1,5.5l0,0l0,0L1362.9,1166.2z"/><path fill="#adadad" d="M1578.6,1463.2c-1-5.4-2.2-10.9-3.4-16.4c-0.6-2.7-1.1-5.3-1.7-8c-2-8-4.2-16.1-6.7-24.1
				c0-0.1-0.1-0.2-0.1-0.3c-2.4-7.6-5-15.2-7.8-22.8l87.4-45.9c2.8,7.6,5.4,15.1,7.8,22.8c0,0,0,0,0,0c0,0.1,0,0.2,0.1,0.3
				c2.5,8,4.7,16,6.7,24.1c0.7,2.7,1.2,5.3,1.8,8c1.2,5.5,2.4,10.9,3.4,16.4c0.2,0.9,0.4,1.8,0.6,2.7c1,5.6,1.8,11.2,2.5,16.8
				l-87.4,45.9C1580.9,1476.3,1579.8,1469.7,1578.6,1463.2z"/><path fill="#8a8a8a" d="M1491.5,1269.8c-0.6-0.8-1.2-1.5-1.8-2.3c-4-5.2-8.2-10.2-12.4-15.1c-0.7-0.8-1.4-1.7-2.1-2.5
				c-4.5-5.2-9.1-10.2-13.9-15.1c-1.1-1.1-2.1-2.2-3.2-3.2c-4.9-4.9-9.8-9.7-14.8-14.3l87.4-45.9c5.1,4.5,10,9.4,14.9,14.3
				c1.1,1.1,2.1,2.1,3.2,3.2c0.9,1,1.9,1.9,2.8,2.9c3.7,4,7.4,8,11,12.2c0.7,0.8,1.4,1.6,2.1,2.5c2.2,2.6,4.4,5.1,6.6,7.8
				c2,2.4,3.9,4.9,5.8,7.3c0.6,0.8,1.2,1.5,1.8,2.3c3.2,4.2,6.4,8.4,9.4,12.7c1.4,2,2.8,4,4.2,6l-87.4,45.9
				C1500.7,1282.1,1496.1,1275.8,1491.5,1269.8z"/><path fill="#b8b8b8" d="M1728.7,1559.1l-87.4,45.9c0.8-4.9,1.4-9.9,1.9-15c0.2-1.6,0.3-3.3,0.4-4.9c0.4-4.4,0.8-8.9,1-13.4
				c0.5-11.6,0.5-23.5-0.1-35.5l87.4-45.9c0.6,12,0.6,23.8,0.1,35.5c-0.1,2.1-0.2,4.1-0.3,6.1c-0.2,2.5-0.4,4.9-0.6,7.3
				c-0.1,1.6-0.3,3.3-0.4,4.9C1730,1549.1,1729.4,1554.2,1728.7,1559.1z"/><polygon fill="#919191" points="1644.5 1536.1 1731.8 1490.2 1669 1436.9 1581.6 1482.7"/><polygon fill="#c5c5c5" points="1443.3 1217.4 1530.7 1171.5 1523.2 1089.8 1435.8 1135.6"/><defs><path id="V" d="M1435.8,1135.6l87.4-45.9c-9.5-7.4-19.2-14.3-29.1-20.6c-9.9-6.3-19.7-11.8-29.3-16.6
						l-87.4,45.9c9.7,4.8,19.4,10.3,29.3,16.6C1416.6,1121.4,1426.3,1128.3,1435.8,1135.6z" enable-background="new"/></defs><clipPath id="W"><use overflow="visible" xlink:href="#V"/></clipPath><g clip-path="url(#W)"><path fill="#858585" d="M1435.8,1135.6l87.4-45.9c-9.5-7.4-19.2-14.3-29.1-20.6c-9.9-6.3-19.7-11.8-29.3-16.6l-87.4,45.9
						c9.7,4.8,19.4,10.3,29.3,16.6C1416.6,1121.4,1426.3,1128.3,1435.8,1135.6"/></g><polygon fill="#a2a2a2" points="1558.9 1391.7 1646.3 1345.9 1686.2 1307.3 1598.8 1353.2"/><polygon fill="gray" points="1559.8 1278.3 1647.1 1232.4 1592.5 1242.6 1505.1 1288.4"/><path fill="#9e9e9e" d="M1590.1,1334.1c-0.3-0.5-0.5-1.1-0.8-1.6c-2.6-5.5-5.3-10.9-8.1-16.3c-1-2-2.1-4-3.2-5.9
				c-2-3.7-4-7.4-6-11.1c-3.9-7-8-14-12.2-20.9l87.4-45.9c4.2,6.9,8.2,13.8,12.1,20.9c0.4,0.7,0.8,1.3,1.2,2c1.7,3,3.3,6.1,4.9,9.1
				c1.1,2,2.2,4,3.2,6c2.8,5.3,5.4,10.7,8.1,16.1c0.3,0.6,0.6,1.2,0.9,1.8c0,0,0,0.1,0.1,0.1c3,6.3,5.9,12.6,8.7,19l-87.4,45.9
				C1596,1346.8,1593.1,1340.4,1590.1,1334.1z"/><linearGradient id="X" x1="1590.411" x2="1247.33" y1="1295.113" y2="1497.366" gradientUnits="userSpaceOnUse"><stop offset="0" stop-color="#fbfbfb"/><stop offset="1" stop-color="#e5e5e5"/></linearGradient><path fill="url(#X)" d="M1644.6,1571.5c-0.5,11.6-1.6,22.8-3.3,33.4l-64-27.4c-6.2,23.8-16.3,43.2-29.6,57.8l34.2,85.6
					c-13,10.3-27.6,17.8-43.5,22.4l-50.7-77.2c-19.7,2.4-41.5-0.5-64.6-9.4l-14.4,67.7c-9.6-4.8-19.4-10.3-29.3-16.6
					c-9.9-6.3-19.6-13.2-29.1-20.6l-7.6-81.7c-22.6-20.3-43.4-44.4-61.7-71l-54.7,10.2c-14.7-24-27.8-49.2-39-75l39.9-38.4
					c-11.2-30.2-19.1-61-22.8-91.1l-62.8-53.4c-0.5-12-0.6-23.9-0.1-35.5c0.5-11.6,1.7-22.7,3.3-33.3l64,27.4
					c6.2-23.7,16.3-43.1,29.6-57.8l-34.2-85.6c12.9-10.4,27.5-17.9,43.5-22.4l50.7,77.1c19.7-2.3,41.5,0.6,64.6,9.3l14.4-67.7
					c9.7,4.8,19.4,10.3,29.3,16.6c9.9,6.3,19.6,13.2,29.1,20.6l7.5,81.7c22.6,20.4,43.4,44.6,61.8,71.1l54.7-10.1
					c14.6,24,27.7,49.1,39,74.9l-39.9,38.5c11.2,30.2,19.1,61,22.8,91l62.8,53.3C1645.1,1548.1,1645.1,1559.9,1644.6,1571.5z
					 M1399,1280.7c-61.2-39-113.6-12-116.9,60.1c-3.3,72.2,43.7,162.4,104.9,201.4c61.3,39,113.7,12.1,117-60.1
					C1507.3,1409.9,1460.3,1319.8,1399,1280.7"/><g><linearGradient id="Y" x1="4160.236" x2="4148.754" y1="-2061.279" y2="-2092.041" gradientTransform="matrix(.4622 .8868 .8867 -.4622 1257.328 -3481.593)" gradientUnits="userSpaceOnUse"><stop offset="0" stop-color="#fbfbfb"/><stop offset="1" stop-color="#fff"/></linearGradient><path fill="url(#Y)" d="M1329.2,1157.4c9.6,1.3,19.5,3.8,29.6,7.4l-0.2,0.7C1348.6,1161.6,1338.7,1159,1329.2,1157.4z"/><linearGradient id="Z" x1="4146.95" x2="4124.11" y1="-2235.978" y2="-2297.173" gradientTransform="matrix(.4622 .8868 .8867 -.4622 1257.328 -3481.593)" gradientUnits="userSpaceOnUse"><stop offset="0" stop-color="#fbfbfb"/><stop offset="1" stop-color="#fff"/></linearGradient><path fill="url(#Z)" d="M1204.5,1244.7l-59.9-25.6c0.1-0.3,0.1-0.7,0.1-1l60.1,25.7C1204.7,1244.1,1204.6,1244.4,1204.5,1244.7z"/><linearGradient id="aa" x1="4661.246" x2="4650.752" y1="-2244.44" y2="-2272.555" gradientTransform="matrix(.4622 .8868 .8867 -.4622 1257.328 -3481.593)" gradientUnits="userSpaceOnUse"><stop offset="0" stop-color="#fbfbfb"/><stop offset="1" stop-color="#fff"/></linearGradient><path fill="url(#aa)" d="M1418.9,1656c1.4,0.5,2.7,1,4.1,1.4l-14.3,67c-1.3-0.6-2.6-1.4-3.9-2.1L1418.9,1656z"/><linearGradient id="ab" x1="4665.213" x2="4652.73" y1="-2183.336" y2="-2216.783" gradientTransform="matrix(.4622 .8868 .8867 -.4622 1257.328 -3481.593)" gradientUnits="userSpaceOnUse"><stop offset="0" stop-color="#fbfbfb"/><stop offset="1" stop-color="#fff"/></linearGradient><path fill="url(#ab)" d="M1484.2,1666.4c-10,0.9-20.5,0.4-31.4-1.5c10.7,1.5,21,1.6,30.7,0.4L1484.2,1666.4z"/><linearGradient id="ac" x1="4396.388" x2="4346.458" y1="-2149.204" y2="-2282.979" gradientTransform="matrix(.4622 .8868 .8867 -.4622 1257.328 -3481.593)" gradientUnits="userSpaceOnUse"><stop offset="0" stop-color="#fbfbfb"/><stop offset="1" stop-color="#fff"/></linearGradient><path fill="url(#ac)" d="M1282.1,1340.9c-3.3,72.2,43.7,162.4,104.9,201.4c14.1,9,27.7,14.3,40.4,16.6c-13.9-1.7-29-7.3-44.7-17.3
					c-61.2-39-108.2-129.2-104.9-201.4c2.6-55.5,34.2-84.1,76.6-76.7C1314.2,1258.6,1284.6,1287.2,1282.1,1340.9z"/><linearGradient id="ad" x1="4703.988" x2="4680.016" y1="-2094.144" y2="-2158.371" gradientTransform="matrix(.4622 .8868 .8867 -.4622 1257.328 -3481.593)" gradientUnits="userSpaceOnUse"><stop offset="0" stop-color="#fbfbfb"/><stop offset="1" stop-color="#fff"/></linearGradient><path fill="url(#ad)" d="M1538.4,1743.3l-1.2-1.8c14.7-4.6,28.3-11.7,40.4-21.4l-34.2-85.6c13.3-14.6,23.4-34,29.6-57.8l4,1.7
					c-6.2,23.3-16.2,42.4-29.3,56.8l34.2,85.6C1569,1731.2,1554.3,1738.7,1538.4,1743.3z"/><linearGradient id="ae" x1="4530.426" x2="4501.71" y1="-1954.896" y2="-2031.833" gradientTransform="matrix(.4622 .8868 .8867 -.4622 1257.328 -3481.593)" gradientUnits="userSpaceOnUse"><stop offset="0" stop-color="#fbfbfb"/><stop offset="1" stop-color="#fff"/></linearGradient><path fill="url(#ae)" d="M1640.3,1570.8c0.5-11.6,0.5-23.5-0.1-35.5l-62.8-53.3c-3.7-30-11.5-60.8-22.8-91l39.9-38.5
					c-11.1-25.3-24-50-38.2-73.5l3.4-0.6c14.6,24,27.7,49.1,39,74.9l-39.9,38.5c11.2,30.2,19.1,61,22.8,91l62.8,53.4
					c0.6,12,0.6,23.8,0.1,35.5c-0.5,11.6-1.6,22.8-3.3,33.4l-4.1-1.8C1638.7,1592.8,1639.8,1582.1,1640.3,1570.8z"/><linearGradient id="af" x1="4089.552" x2="4072.055" y1="-2101.747" y2="-2148.623" gradientTransform="matrix(.4622 .8868 .8867 -.4622 1257.328 -3481.593)" gradientUnits="userSpaceOnUse"><stop offset="0" stop-color="#fbfbfb"/><stop offset="1" stop-color="#fff"/></linearGradient><path fill="url(#af)" d="M1294.1,1156.1l-49.5-75.4c1-0.3,2-0.7,3.1-1l50,76.1C1296.5,1155.9,1295.3,1156,1294.1,1156.1z"/><linearGradient id="ag" x1="4240.496" x2="4198.96" y1="-1969.573" y2="-2080.859" gradientTransform="matrix(.4622 .8868 .8867 -.4622 1257.328 -3481.593)" gradientUnits="userSpaceOnUse"><stop offset="0" stop-color="#fbfbfb"/><stop offset="1" stop-color="#fff"/></linearGradient><path fill="url(#ag)" d="M1500.9,1287.7c-18.3-26.5-39.1-50.7-61.8-71.1l-7.5-81.7c-9.5-7.4-19.2-14.3-29.1-20.6
					c-8.5-5.4-17-10.2-25.4-14.5l0.3-1.4c9.7,4.8,19.4,10.3,29.3,16.6c9.9,6.3,19.6,13.2,29.1,20.6l7.5,81.7
					c22.2,20,42.7,43.8,60.8,69.7L1500.9,1287.7z"/><linearGradient id="ah" x1="4455.106" x2="4433.835" y1="-2311.155" y2="-2368.142" gradientTransform="matrix(.4622 .8868 .8867 -.4622 1257.328 -3481.593)" gradientUnits="userSpaceOnUse"><stop offset="0" stop-color="#fbfbfb"/><stop offset="1" stop-color="#fff"/></linearGradient><path fill="url(#ah)" d="M1276.7,1533.8c0.3,0.5,0.7,0.9,1,1.3l-51.4,9.6c-0.3-0.4-0.5-0.9-0.8-1.4L1276.7,1533.8z"/></g></g><g><linearGradient id="ai" x1="1682.456" x2="1268.321" y1="1999.006" y2="1523.333" gradientUnits="userSpaceOnUse"><stop offset="0" stop-color="#fe7f0a"/><stop offset="1" stop-color="#ffb538"/></linearGradient><path fill="url(#ai)" d="M1742.7,1950.7l-693.2-391.5c-41-23.2-74.3-75.2-74.3-116.3v-21.2c0-41,33.3-55.5,74.3-32.3l693.2,391.5
				c41,23.2,74.3,75.2,74.3,116.3v21.2C1817,1959.4,1783.7,1973.9,1742.7,1950.7z"/><linearGradient id="aj" x1="995.2" x2="1737.049" y1="-835.266" y2="-835.266" gradientTransform="matrix(1 .5648 0 1 0 1738.448)" gradientUnits="userSpaceOnUse"><stop offset="0" stop-color="#fe7f0a"/><stop offset="1" stop-color="#ffb538"/></linearGradient><path fill="url(#aj)" d="M1721.9,1960.6l-693.2-391.5c-41-23.2-74.3-75.2-74.3-116.3v-21.2c0-41,33.3-55.5,74.3-32.3l693.2,391.5
				c41,23.2,74.3,75.2,74.3,116.3v21.2C1796.2,1969.3,1762.9,1983.8,1721.9,1960.6z"/><path fill="#fff" d="M1019.5,1543.9c-27.4-15.5-49.7-57.2-49.7-93c0-35.8,22.3-52.3,49.7-36.8l711.7,402
				c27.4,15.5,49.7,57.2,49.7,93c0,35.8-22.3,52.3-49.7,36.8L1019.5,1543.9z"/><circle cx="1034.2" cy="1494.4" r="16.4" fill="#9b9998"/><circle cx="1086.3" cy="1522.8" r="16.4" fill="#9b9998"/><circle cx="1138.4" cy="1551.3" r="16.4" fill="#9b9998"/><circle cx="1190.5" cy="1579.7" r="16.4" fill="#9b9998"/><circle cx="1242.6" cy="1608.1" r="16.4" fill="#9b9998"/><circle cx="1294.7" cy="1636.5" r="16.4" fill="#9b9998"/></g><g><linearGradient id="ak" x1="1018.472" x2="1042.299" y1="1282.731" y2="862.259" gradientUnits="userSpaceOnUse"><stop offset="0" stop-color="#dd2f2f"/><stop offset="1" stop-color="#ff6757"/></linearGradient><polygon fill="url(#ak)" points="1058.2 1005.4 1057.3 1308.1 990.8 1347 991.7 1044.4"/><linearGradient id="al" x1="760.06" x2="869.965" y1="548.667" y2="1136.753" gradientUnits="userSpaceOnUse"><stop offset="0" stop-color="#dd2f2f"/><stop offset="1" stop-color="#ff6757"/></linearGradient><polygon fill="url(#al)" points="991.7 1044.4 990.8 1347 743.6 1204.3 744.5 901.6"/><linearGradient id="am" x1="744.507" x2="1058.241" y1="953.546" y2="953.546" gradientUnits="userSpaceOnUse"><stop offset="0" stop-color="#dd2f2f"/><stop offset="1" stop-color="#ff6757"/></linearGradient><polygon fill="url(#am)" points="1058.2 1005.4 991.7 1044.4 744.5 901.6 811 862.7"/><linearGradient id="an" x1="804.3" x2="861.869" y1="820.483" y2="1128.526" gradientUnits="userSpaceOnUse"><stop offset="0" stop-color="#dd2f2f"/><stop offset="1" stop-color="#ff6757"/></linearGradient><line x1="795.8" x2="925.5" y1="1005.4" y2="1238.6" fill="url(#an)" stroke="#fff" stroke-linecap="round" stroke-linejoin="round" stroke-miterlimit="1" stroke-width="17.787"/><linearGradient id="ao" x1="846.199" x2="864.341" y1="1019.374" y2="1116.448" gradientUnits="userSpaceOnUse"><stop offset="0" stop-color="#dd2f2f"/><stop offset="1" stop-color="#ff6757"/></linearGradient><line x1="785.9" x2="942" y1="1169.5" y2="1059.3" fill="url(#ao)" stroke="#fff" stroke-linecap="round" stroke-linejoin="round" stroke-miterlimit="1" stroke-width="17.787"/></g><g><linearGradient id="ap" x1="2155.259" x2="2179.085" y1="1930.573" y2="1510.101" gradientUnits="userSpaceOnUse"><stop offset="0" stop-color="#3abaf9"/><stop offset="1" stop-color="#267ebd"/></linearGradient><polygon fill="url(#ap)" points="2195 1653.3 2194.1 1955.9 2127.6 1994.8 2128.5 1692.2"/><linearGradient id="aq" x1="1896.846" x2="2006.751" y1="1196.509" y2="1784.596" gradientUnits="userSpaceOnUse"><stop offset="0" stop-color="#3abaf9"/><stop offset="1" stop-color="#267ebd"/></linearGradient><polygon fill="url(#aq)" points="2128.5 1692.2 2127.6 1994.8 1880.3 1852.1 1881.3 1549.5"/><linearGradient id="ar" x1="1881.294" x2="2195.027" y1="1601.389" y2="1601.389" gradientUnits="userSpaceOnUse"><stop offset="0" stop-color="#3abaf9"/><stop offset="1" stop-color="#267ebd"/></linearGradient><polygon fill="url(#ar)" points="2195 1653.3 2128.5 1692.2 1881.3 1549.5 1947.8 1510.6"/><polyline fill="none" stroke="#fff" stroke-linecap="round" stroke-linejoin="round" stroke-miterlimit="1" stroke-width="22.222" points="1924.7 1709.2 1972.8 1828.2 2091.8 1766.3"/></g><g><linearGradient id="as" x1="2378.133" x2="2562.443" y1="-8355.973" y2="-8740.481" gradientTransform="matrix(.0467 .9989 -.9989 .04674 -6836.931 -1679.794)" gradientUnits="userSpaceOnUse"><stop offset="0" stop-color="#fe7f0a"/><stop offset="1" stop-color="#ffb538"/></linearGradient><path fill="url(#as)" d="M1278.8,318.8c0,0,201.8-111.9,414-32.5c147.3,55.1,218.2,183,244.7,243.9l-85.1,76l320.4,98.8l-3.2-364.1
				l-96.9,68.6c-29-58.1-118.3-197.9-320.6-242.3c-218.9-48.1-418.3,95-470.2,139.1C1272.8,314.1,1278.8,318.8,1278.8,318.8z"/><linearGradient id="at" x1="-10501.357" x2="-9617.789" y1="-5198.781" y2="-5198.781" gradientTransform="matrix(-.666 -.7459 .7458 -.6657 -1004.064 -10544.648)" gradientUnits="userSpaceOnUse"><stop offset="0" stop-color="#fe7f0a"/><stop offset="1" stop-color="#ffb538"/></linearGradient><path fill="url(#at)" d="M1282,306.3c0,0,201.8-111.9,414-32.5c147.3,55.1,218.2,183,244.7,243.9l-85.1,76l320.4,98.8l-3.2-364.1
				L2076,397c-29-58.1-118.3-197.9-320.6-242.3C1497.6,98,1282,306.3,1282,306.3z"/></g></g></svg>